<svg xmlns="http://www.w3.org/2000/svg" xmlns:xlink="http://www.w3.org/1999/xlink" width="31.699" height="31.789" viewBox="0 0 31.699 31.789">
  <defs>
    <clipPath id="clip-path">
      <path id="Path_7248" data-name="Path 7248" d="M0,.352.17.312.271.29.458.249.543.231H.6L.7.211H.71L.873.182H.88L.934.173H.965C1.044.159,1.122.147,1.2.136h.024L1.289.127h.006L1.443.106h0L1.568.089h.049L1.674.082,1.918.056l.04,0h.033L2.178.034,2.285.026h.007l.071,0H2.4L2.623.008h.109L2.959,0h.5A14.377,14.377,0,0,1,14.372,5.126a14.019,14.019,0,0,1,3.065,11.551h0l-.006.031-.012.064-.008.041-.006.031v.006h0v.013h0v.015h0c-.006.024-.01.048-.015.071h0c-.007.036-.015.071-.023.107v.013l-.006.031v.064l-.016.069v.011l-.006.03h0l-.008.034h0v.024h0v.011h0v.006c-.006.025-.013.051-.019.076h0l-.01.042h0l-.014.057v.019h0l-.009.035-.006.022v.023c-.006.027-.014.054-.021.08v.006l-.006.026h0l-.01.038V17.8h0c-.008.028-.016.056-.024.083h0c-.009.034-.019.068-.029.1V18l-.016.052v.038c-.007.027-.016.054-.024.08v.008l-.009.031-.011.035h0v.007h0v.012c-.007.025-.016.05-.024.075v.006h0l-.012.037h0l-.016.049v.017h0v.009l0,.015V18.5l-.007.023v.019l-.024.068v.019l-.023.068V18.7h0v.006h0v.014h0l-.023.068h0v.006h0l-.013.038v.01l-.015.039v.011l-.023.062h0v.01l-.006.017v.006c-.009.026-.02.051-.029.076v.006h0l-.007.021v.01l-.01.027v.006h0v.009h0v.011h0c-.009.025-.02.049-.029.073v.007l-.015.035h0l-.02.05v.019l-.019.044h0L16.8,19.4h0v.017l-.032.075V19.5l-.007.017v.01l-.013.029h0v.006h0v.006h0v.006h0v.006l-.026.059h0v0h0v.006l-.017.038h0v.006l-.014.033v.009h0l-.022.05v.009l-.006.014h0v.014l-.029.064V19.9l-.035.075h0c-.011.025-.023.05-.035.075h0v.006h0l-.019.039V20.1h0l-.017.035v.007h0l-.022.045v.009h0l-.008.017h0v.008l-.037.074v.01l-.014.027h0l-.018.034h0l-.038.073h0l-.019.035h0l-.02.036h0v.013h0l-.023.044h0v.009l-.007.014h0l-.043.079h0v.006l-.015.028h0l-.015.027h0l-.032.056h0l-.02.035h0v.006l-.012.021v.006h0l-.042.074v.006h0l-.046.077h0l-.014.023v.186l-.02.032h0c-.012.021-.025.043-.038.064h0L16,21.347h0l-.022.038h0l-.026.041h0v0l-.019.03h0c-.014.021-.027.043-.041.063h0v.008h0v.006c.057-.078-.02.041-.187.277h0l-.049.07h0l-.011.017h0l-.023.033h0l-.038.055h0l-.025.036-.45.115c-.114.163-.248.352-.4.554h0l-.058.081q.123-.18.228-.33l.017-.024-.035.047h0l-.025.033h0l-.02.027h0c-.015.02-.03.04-.046.059h0v0h0c-.017.022-.035.043-.052.066h0l-.021.028h0l-.009.012-.019.023h0l-.035.043h0l-.028.035h0l-.016.018h0l-.052.063h0l-.007.007h0l-.055.064h0l-.018.02h0L14.437,23h0l-.048.055h0l-.031.035h0l-.011.013h0c-.021.023-.041.047-.063.07h0c.052-.047.1-.092.153-.146a3.8,3.8,0,0,1-.526.447h0l-.012.009h0l-.006,0h-.006l-.007,0h-.027l-.01.006h-.038l-.008,0H13.77l-.012.007h-.1l-.009.006h-.006l-.013.006h-.621c-2.306.959-4.885,1.5-7.106,2.586a10.937,10.937,0,0,0-1.824,1.648c-.136.092-.152.048-.161.029s-.023-.041-.032-.06-.02-.04-.028-.059-.017-.039-.024-.058-.015-.038-.022-.057S3.8,27.517,3.8,27.5s-.01-.036-.015-.054l-.011-.053a.5.5,0,0,0-.008-.052.457.457,0,0,1-.006-.05c0-.017,0-.033,0-.049v-.1l.006-.045.008-.045.011-.043a.148.148,0,0,1,.013-.043h0c0-.014.01-.028.016-.042l.017-.041.02-.04.022-.039.023-.038a.429.429,0,0,1,.025-.037h0l.027-.036h0l.028-.035L4,26.627H4l.032-.033h0l.033-.033h0l.035-.032h0l.035-.031h0l.035-.033h0c.012-.01.024-.02.037-.03h0l.037-.03h0c.409-.313.949-.525,1.111-.779l-.926.164a.3.3,0,0,1-.154,0h0a.19.19,0,0,1-.055-.029.21.21,0,0,1-.06-.065l-.009-.017h0a.686.686,0,0,1-.036-.074h0a.727.727,0,0,1-.042-.131h0c0-.023-.009-.046-.011-.069h0c-.075-.76,1.519-.89,2.016-1.061a.671.671,0,0,1,.169-.335c.344-.354,1.964-.529,2.576-.749a5.843,5.843,0,0,0,2.4-1.867,4.9,4.9,0,0,1-2.243,1.234c-.918.058-1-.748-.52-1.019,1.99-1.312,3.42-3.63,5.3-4.629a3.829,3.829,0,0,1,.927-.35A12.816,12.816,0,0,0,11.857,4.55,13.163,13.163,0,0,0,.05.365Z" transform="translate(0 0)" fill="none"/>
    </clipPath>
    <linearGradient id="linear-gradient" x1="0.185" y1="0.117" x2="0.606" y2="0.782" gradientUnits="objectBoundingBox">
      <stop offset="0" stop-color="#c7bff3"/>
      <stop offset="1" stop-color="#674cf3"/>
    </linearGradient>
    <clipPath id="clip-path-2">
      <path id="Path_7249" data-name="Path 7249" d="M2.129.26a13.1,13.1,0,0,1,10.4,5.22A13.147,13.147,0,0,1,14.7,16.933,12.42,12.42,0,0,0,11.434,2.487,14.206,14.206,0,0,0,3.466,0,14.388,14.388,0,0,0,1.579.116,14.034,14.034,0,0,0,0,.412L.047.425A13.1,13.1,0,0,1,2.129.26Z" transform="translate(0 0)" fill="none"/>
    </clipPath>
    <linearGradient id="linear-gradient-2" x1="0.194" y1="0.204" x2="0.875" y2="0.814" gradientUnits="objectBoundingBox">
      <stop offset="0" stop-color="#cec5ff"/>
      <stop offset="1" stop-color="#674cf3"/>
    </linearGradient>
    <clipPath id="clip-path-3">
      <path id="Path_7246" data-name="Path 7246" d="M17.719,26.586l-.171.04-.1.022-.188.041-.084.016h-.054l-.105.02h-.009l-.163.029h0l-.053.009h-.033l-.235.037h-.025l-.064.009h-.007l-.147.021h0l-.126.016H16.1l-.057.007-.245.026h-.073l-.188.017-.107.008h-.116l-.223.013h-.011l-.094,0h-.006l-.227.009h-.495A14.452,14.452,0,0,1,3.306,21.824,13.908,13.908,0,0,1,.232,10.31h0l.006-.031.012-.064.008-.041.006-.03v-.007h0v-.011h0v-.015c0-.023.01-.047.015-.07h0c.007-.036.015-.071.023-.107V9.921L.309,9.89V9.826l.016-.069V9.745l.006-.029h0l.007-.034h0V9.665h0V9.656h0V9.65C.345,9.625.35,9.6.357,9.575h0l.01-.041h0l.014-.057V9.452L.39,9.417.4,9.395V9.372c.007-.027.015-.053.021-.08V9.285l.007-.026h0l.01-.039h0V9.2h0c.008-.029.016-.056.023-.084h0c.009-.034.02-.067.029-.1V9L.5,8.952V8.946l0-.015V8.912l.025-.08V8.823l.009-.03.01-.035h0V8.743h0v-.01c.007-.025.016-.05.023-.075V8.651l.012-.037h0L.6,8.565V8.554h0V8.549l0-.015V8.516h0V8.508l.007-.023V8.466c.007-.023.016-.045.023-.068V8.374c.007-.023.016-.045.023-.068h0V8.3h0V8.282h0l.024-.067h0L.7,8.177v-.01l.014-.039V8.117l.023-.062h0v-.01l.007-.018V8.006c.009-.025.019-.05.029-.075V7.925h0L.781,7.9V7.892l.01-.026V7.859h0V7.85h0V7.841h0C.8,7.816.81,7.792.82,7.767h0V7.762l.014-.036h0l.021-.05V7.657c.006-.015.012-.029.019-.044h0L.879,7.6h0V7.582l.032-.075V7.494l.007-.017v-.01L.93,7.439V7.433h0V7.428h0V7.422h0V7.417l.026-.059h0v0h0l.017-.038V7.31h0l.014-.033V7.262l.023-.05V7.176l.007-.014h0V7.149l.029-.064V7.073c.011-.025.023-.05.035-.075h0l.036-.076h0V6.917h0l.019-.038V6.872h0l.017-.035v-.03h0l.022-.045V6.751l.007-.016h0V6.727l.037-.074v-.01l.014-.027h0l.018-.035h0l.037-.073h0l.019-.035h0l.019-.036h0V6.423h0l.024-.044h0V6.372l.007-.014h0L1.4,6.279h0l.015-.028h0l.016-.027h0l.032-.056h0l.021-.035V6.124h0L1.5,6.1V6.094l.043-.074V6.014h0l.046-.076V5.932h0L1.6,5.908h0l.02-.032h0l.039-.064h0l.021-.034h0L1.7,5.741h0L1.726,5.7h0l.02-.029h0l.04-.063v0h0l0-.007h0V5.59c-.057.076.021-.041.187-.276h0l.048-.07h0l.011-.017h0l.023-.033h0L2.1,5.139h0L2.123,5.1l-.006.008c.114-.162.249-.351.4-.552h0l.058-.081-.228.329-.018.024.036-.047h0l.025-.033h0l.02-.027h0c.015-.02.03-.04.046-.059h0v0h0L2.5,4.594h0l.022-.027h0l.009-.011.019-.023h0l.036-.044h0l.029-.034h0l.016-.018h0l.051-.063h0l.006-.007h0L2.745,4.3h0l.018-.02h0l.027-.031h0L2.839,4.2h0l.031-.035h0l.011-.013h0c.022-.023.042-.047.063-.07h0c-.052.047-.1.092-.154.145a3.749,3.749,0,0,1,.527-.445h0l.012-.009h0l.007,0H3.38l.009-.007h.041l.007-.006h.03l.012-.007h.1l.009-.006h.006L3.6,3.733h.234l.843,0c2.312-.956,4.9-1.493,7.125-2.577A11.061,11.061,0,0,0,13.63.056c.136-.092.152-.048.161-.029l.032.06c.01.02.02.04.028.059s.017.039.025.058.015.038.021.056.013.037.018.055.01.036.015.054l.011.053a.489.489,0,0,0,.008.052.219.219,0,0,0,.006.05.143.143,0,0,1,0,.049V.62a.394.394,0,0,1,0,.047l-.006.045a.184.184,0,0,1-.009.045c0,.015-.006.029-.01.043s-.008.029-.013.042h0c0,.014-.01.028-.016.041s-.011.027-.018.041a.386.386,0,0,1-.02.04c-.007.013-.014.026-.021.039l-.023.038-.025.037h0l-.027.036h0l-.028.035-.031.034h0l-.031.034h0l-.033.033h0l-.035.032h0l-.035.031h0l-.037.03h0l-.037.029h0l-.037.029h0c-.41.313-.951.524-1.114.777l.929-.164a.3.3,0,0,1,.156,0h0a.19.19,0,0,1,.055.029.21.21,0,0,1,.06.065l.009.017h0a.528.528,0,0,1,.035.073h0a.8.8,0,0,1,.043.13h0a.619.619,0,0,1,.01.067h0c.074.757-1.524.887-2.022,1.058a.673.673,0,0,1-.168.333c-.345.352-1.974.528-2.582.746A5.868,5.868,0,0,0,6.464,6.4a4.921,4.921,0,0,1,2.249-1.23c.92-.059,1,.746.522,1.016-2,1.308-3.43,3.618-5.312,4.613a3.883,3.883,0,0,1-.929.348A12.709,12.709,0,0,0,5.551,21.848a13.21,13.21,0,0,0,10.035,4.881,13.394,13.394,0,0,0,2.087-.158Z" transform="translate(0 0)" fill="none"/>
    </clipPath>
    <linearGradient id="linear-gradient-3" x1="0.862" y1="0.04" x2="0.5" y2="0.968" gradientUnits="objectBoundingBox">
      <stop offset="0" stop-color="#00705f"/>
      <stop offset="1" stop-color="#2aeccf"/>
    </linearGradient>
    <clipPath id="clip-path-4">
      <path id="Path_7247" data-name="Path 7247" d="M13.672,16.678A13.145,13.145,0,0,1,1.066,0,12.4,12.4,0,0,0,4.344,14.45a14.256,14.256,0,0,0,7.988,2.488,14.626,14.626,0,0,0,1.892-.116,14.259,14.259,0,0,0,1.582-.29l-.046-.013a13.171,13.171,0,0,1-2.088.16Z" transform="translate(0 0)" fill="none"/>
    </clipPath>
    <linearGradient id="linear-gradient-4" x1="0.123" y1="0.064" x2="0.93" y2="0.978" gradientUnits="objectBoundingBox">
      <stop offset="0" stop-color="#007160"/>
      <stop offset="1" stop-color="#43f6db"/>
    </linearGradient>
    <linearGradient id="linear-gradient-5" x1="0.5" x2="0.406" y2="0.985" gradientUnits="objectBoundingBox">
      <stop offset="0" stop-color="#8039db"/>
      <stop offset="1" stop-color="#401d6e"/>
    </linearGradient>
    <linearGradient id="linear-gradient-6" x1="1.895" y1="0.5" x2="-0.927" y2="0.5" xlink:href="#linear-gradient-5"/>
  </defs>
  <g id="favicon" transform="translate(-0.155 -0.188)">
    <g id="Group_4382" data-name="Group 4382" transform="matrix(-0.998, 0.07, -0.07, -0.998, 32.007, 29.886)">
      <g id="Group_4378" data-name="Group 4378" transform="translate(12.316 0)">
        <g id="Mask_Group_9" data-name="Mask Group 9" transform="translate(0 0)" clip-path="url(#clip-path)">
          <path id="Path_7632" data-name="Path 7632" d="M0,0,33.017.079,33.1,34.517.082,34.438Z" transform="translate(-5.038 -4.131)" fill="url(#linear-gradient)"/>
        </g>
        <g id="Mask_Group_10" data-name="Mask Group 10" transform="translate(0 0.04)" clip-path="url(#clip-path-2)">
          <path id="Path_7633" data-name="Path 7633" d="M0,0,23.255.056l.055,23.265L.055,23.265Z" transform="translate(-5.044 -5.073)" fill="url(#linear-gradient-2)"/>
        </g>
      </g>
      <g id="Group_4379" data-name="Group 4379" transform="translate(0 2.185)">
        <g id="Mask_Group_11" data-name="Mask Group 11" transform="translate(0 0)" clip-path="url(#clip-path-3)">
          <path id="Path_7634" data-name="Path 7634" d="M0,0,30.976.074l.079,33.049L.079,33.049Z" transform="translate(-2.783 -3.761)" fill="url(#linear-gradient-3)"/>
        </g>
        <g id="Mask_Group_12" data-name="Mask Group 12" transform="matrix(0.998, -0.07, 0.07, 0.998, 1.904, 10.904)" clip-path="url(#clip-path-4)">
          <path id="Path_7635" data-name="Path 7635" d="M0,0,23.76.056l.055,23.782L.055,23.782Z" transform="translate(-5.556 -2.457)" fill="url(#linear-gradient-4)"/>
        </g>
      </g>
    </g>
    <g id="Group_4383" data-name="Group 4383" transform="translate(11.128 11.804)">
      <rect id="Rectangle_3684" data-name="Rectangle 3684" width="3.456" height="9.781" transform="translate(9.781 2.989) rotate(90)" fill="url(#linear-gradient-5)"/>
      <rect id="Rectangle_3683" data-name="Rectangle 3683" width="3.164" height="9.845" transform="translate(3.293 0)" fill="url(#linear-gradient-6)"/>
    </g>
  </g>
</svg>
