<svg xmlns="http://www.w3.org/2000/svg" width="1280.001" height="320" viewBox="0 0 1280.001 320">
    <defs>
        <clipPath id="clip-path">
            <path d="M0 0H181V117H0z" class="cls-1"/>
        </clipPath>
        <clipPath id="clip-path-2">
            <path d="M0 0H28.62V63.751H0z" class="cls-1"/>
        </clipPath>
        <clipPath id="clip-path-3">
            <path d="M0 0H117V117H0z" class="cls-1"/>
        </clipPath>
        <style>
            .cls-1{fill:none}.cls-2,.cls-4{fill:#cceaef}.cls-4{opacity:.54}
        </style>
    </defs>
    <g id="Bg_Of_policy_doc" transform="translate(0 -108)">
        <g id="Group_37199">
            <g id="Group_37198">
                <path id="Polygon_1" d="M26.608 5.427a4 4 0 0 1 6.784 0L56.175 41.88A4 4 0 0 1 52.783 48H7.217a4 4 0 0 1-3.392-6.12z" class="cls-2" transform="translate(1039 176)"/>
                <path id="Rectangle_3685" fill="#ebf7f9" d="M0 0H1280V320H0z" transform="translate(0 108)"/>
                <path id="Intersection_5" d="M-13965-2432a54.009 54.009 0 0 1 49-53.773v107.542a54 54 0 0 1-49-53.769z" class="cls-4" transform="translate(15196 2806)"/>
                <g id="Repeat_Grid_1" clip-path="url(#clip-path)" transform="translate(1099 272)">
                    <g transform="translate(-1098 -320)">
                        <circle id="Ellipse_1464" cx="3" cy="3" r="3" class="cls-2" transform="translate(1098 320)"/>
                        <circle id="Ellipse_1466" cx="3" cy="3" r="3" class="cls-2" transform="translate(1142 320)"/>
                        <circle id="Ellipse_1465" cx="3" cy="3" r="3" class="cls-2" transform="translate(1120 320)"/>
                        <circle id="Ellipse_1467" cx="3" cy="3" r="3" class="cls-2" transform="translate(1164 320)"/>
                    </g>
                    <g transform="translate(-1010 -320)">
                        <circle id="Ellipse_1464-2" cx="3" cy="3" r="3" class="cls-2" transform="translate(1098 320)"/>
                        <circle id="Ellipse_1466-2" cx="3" cy="3" r="3" class="cls-2" transform="translate(1142 320)"/>
                        <circle id="Ellipse_1465-2" cx="3" cy="3" r="3" class="cls-2" transform="translate(1120 320)"/>
                        <circle id="Ellipse_1467-2" cx="3" cy="3" r="3" class="cls-2" transform="translate(1164 320)"/>
                    </g>
                    <g transform="translate(-922 -320)">
                        <circle id="Ellipse_1464-3" cx="3" cy="3" r="3" class="cls-2" transform="translate(1098 320)"/>
                        <circle id="Ellipse_1466-3" cx="3" cy="3" r="3" class="cls-2" transform="translate(1142 320)"/>
                        <circle id="Ellipse_1465-3" cx="3" cy="3" r="3" class="cls-2" transform="translate(1120 320)"/>
                        <circle id="Ellipse_1467-3" cx="3" cy="3" r="3" class="cls-2" transform="translate(1164 320)"/>
                    </g>
                    <g transform="translate(-1098 -298)">
                        <circle id="Ellipse_1464-4" cx="3" cy="3" r="3" class="cls-2" transform="translate(1098 320)"/>
                        <circle id="Ellipse_1466-4" cx="3" cy="3" r="3" class="cls-2" transform="translate(1142 320)"/>
                        <circle id="Ellipse_1465-4" cx="3" cy="3" r="3" class="cls-2" transform="translate(1120 320)"/>
                        <circle id="Ellipse_1467-4" cx="3" cy="3" r="3" class="cls-2" transform="translate(1164 320)"/>
                    </g>
                    <g transform="translate(-1010 -298)">
                        <circle id="Ellipse_1464-5" cx="3" cy="3" r="3" class="cls-2" transform="translate(1098 320)"/>
                        <circle id="Ellipse_1466-5" cx="3" cy="3" r="3" class="cls-2" transform="translate(1142 320)"/>
                        <circle id="Ellipse_1465-5" cx="3" cy="3" r="3" class="cls-2" transform="translate(1120 320)"/>
                        <circle id="Ellipse_1467-5" cx="3" cy="3" r="3" class="cls-2" transform="translate(1164 320)"/>
                    </g>
                    <g transform="translate(-922 -298)">
                        <circle id="Ellipse_1464-6" cx="3" cy="3" r="3" class="cls-2" transform="translate(1098 320)"/>
                        <circle id="Ellipse_1466-6" cx="3" cy="3" r="3" class="cls-2" transform="translate(1142 320)"/>
                        <circle id="Ellipse_1465-6" cx="3" cy="3" r="3" class="cls-2" transform="translate(1120 320)"/>
                        <circle id="Ellipse_1467-6" cx="3" cy="3" r="3" class="cls-2" transform="translate(1164 320)"/>
                    </g>
                    <g transform="translate(-1098 -276)">
                        <circle id="Ellipse_1464-7" cx="3" cy="3" r="3" class="cls-2" transform="translate(1098 320)"/>
                        <circle id="Ellipse_1466-7" cx="3" cy="3" r="3" class="cls-2" transform="translate(1142 320)"/>
                        <circle id="Ellipse_1465-7" cx="3" cy="3" r="3" class="cls-2" transform="translate(1120 320)"/>
                        <circle id="Ellipse_1467-7" cx="3" cy="3" r="3" class="cls-2" transform="translate(1164 320)"/>
                    </g>
                    <g transform="translate(-1010 -276)">
                        <circle id="Ellipse_1464-8" cx="3" cy="3" r="3" class="cls-2" transform="translate(1098 320)"/>
                        <circle id="Ellipse_1466-8" cx="3" cy="3" r="3" class="cls-2" transform="translate(1142 320)"/>
                        <circle id="Ellipse_1465-8" cx="3" cy="3" r="3" class="cls-2" transform="translate(1120 320)"/>
                        <circle id="Ellipse_1467-8" cx="3" cy="3" r="3" class="cls-2" transform="translate(1164 320)"/>
                    </g>
                    <g transform="translate(-922 -276)">
                        <circle id="Ellipse_1464-9" cx="3" cy="3" r="3" class="cls-2" transform="translate(1098 320)"/>
                        <circle id="Ellipse_1466-9" cx="3" cy="3" r="3" class="cls-2" transform="translate(1142 320)"/>
                        <circle id="Ellipse_1465-9" cx="3" cy="3" r="3" class="cls-2" transform="translate(1120 320)"/>
                        <circle id="Ellipse_1467-9" cx="3" cy="3" r="3" class="cls-2" transform="translate(1164 320)"/>
                    </g>
                    <g transform="translate(-1098 -254)">
                        <circle id="Ellipse_1464-10" cx="3" cy="3" r="3" class="cls-2" transform="translate(1098 320)"/>
                        <circle id="Ellipse_1466-10" cx="3" cy="3" r="3" class="cls-2" transform="translate(1142 320)"/>
                        <circle id="Ellipse_1465-10" cx="3" cy="3" r="3" class="cls-2" transform="translate(1120 320)"/>
                        <circle id="Ellipse_1467-10" cx="3" cy="3" r="3" class="cls-2" transform="translate(1164 320)"/>
                    </g>
                    <g transform="translate(-1010 -254)">
                        <circle id="Ellipse_1464-11" cx="3" cy="3" r="3" class="cls-2" transform="translate(1098 320)"/>
                        <circle id="Ellipse_1466-11" cx="3" cy="3" r="3" class="cls-2" transform="translate(1142 320)"/>
                        <circle id="Ellipse_1465-11" cx="3" cy="3" r="3" class="cls-2" transform="translate(1120 320)"/>
                        <circle id="Ellipse_1467-11" cx="3" cy="3" r="3" class="cls-2" transform="translate(1164 320)"/>
                    </g>
                    <g transform="translate(-922 -254)">
                        <circle id="Ellipse_1464-12" cx="3" cy="3" r="3" class="cls-2" transform="translate(1098 320)"/>
                        <circle id="Ellipse_1466-12" cx="3" cy="3" r="3" class="cls-2" transform="translate(1142 320)"/>
                        <circle id="Ellipse_1465-12" cx="3" cy="3" r="3" class="cls-2" transform="translate(1120 320)"/>
                        <circle id="Ellipse_1467-12" cx="3" cy="3" r="3" class="cls-2" transform="translate(1164 320)"/>
                    </g>
                    <g transform="translate(-1098 -232)">
                        <circle id="Ellipse_1464-13" cx="3" cy="3" r="3" class="cls-2" transform="translate(1098 320)"/>
                        <circle id="Ellipse_1466-13" cx="3" cy="3" r="3" class="cls-2" transform="translate(1142 320)"/>
                        <circle id="Ellipse_1465-13" cx="3" cy="3" r="3" class="cls-2" transform="translate(1120 320)"/>
                        <circle id="Ellipse_1467-13" cx="3" cy="3" r="3" class="cls-2" transform="translate(1164 320)"/>
                    </g>
                    <g transform="translate(-1010 -232)">
                        <circle id="Ellipse_1464-14" cx="3" cy="3" r="3" class="cls-2" transform="translate(1098 320)"/>
                        <circle id="Ellipse_1466-14" cx="3" cy="3" r="3" class="cls-2" transform="translate(1142 320)"/>
                        <circle id="Ellipse_1465-14" cx="3" cy="3" r="3" class="cls-2" transform="translate(1120 320)"/>
                        <circle id="Ellipse_1467-14" cx="3" cy="3" r="3" class="cls-2" transform="translate(1164 320)"/>
                    </g>
                    <g transform="translate(-922 -232)">
                        <circle id="Ellipse_1464-15" cx="3" cy="3" r="3" class="cls-2" transform="translate(1098 320)"/>
                        <circle id="Ellipse_1466-15" cx="3" cy="3" r="3" class="cls-2" transform="translate(1142 320)"/>
                        <circle id="Ellipse_1465-15" cx="3" cy="3" r="3" class="cls-2" transform="translate(1120 320)"/>
                        <circle id="Ellipse_1467-15" cx="3" cy="3" r="3" class="cls-2" transform="translate(1164 320)"/>
                    </g>
                    <g transform="translate(-1098 -210)">
                        <circle id="Ellipse_1464-16" cx="3" cy="3" r="3" class="cls-2" transform="translate(1098 320)"/>
                        <circle id="Ellipse_1466-16" cx="3" cy="3" r="3" class="cls-2" transform="translate(1142 320)"/>
                        <circle id="Ellipse_1465-16" cx="3" cy="3" r="3" class="cls-2" transform="translate(1120 320)"/>
                        <circle id="Ellipse_1467-16" cx="3" cy="3" r="3" class="cls-2" transform="translate(1164 320)"/>
                    </g>
                    <g transform="translate(-1010 -210)">
                        <circle id="Ellipse_1464-17" cx="3" cy="3" r="3" class="cls-2" transform="translate(1098 320)"/>
                        <circle id="Ellipse_1466-17" cx="3" cy="3" r="3" class="cls-2" transform="translate(1142 320)"/>
                        <circle id="Ellipse_1465-17" cx="3" cy="3" r="3" class="cls-2" transform="translate(1120 320)"/>
                        <circle id="Ellipse_1467-17" cx="3" cy="3" r="3" class="cls-2" transform="translate(1164 320)"/>
                    </g>
                    <g transform="translate(-922 -210)">
                        <circle id="Ellipse_1464-18" cx="3" cy="3" r="3" class="cls-2" transform="translate(1098 320)"/>
                        <circle id="Ellipse_1466-18" cx="3" cy="3" r="3" class="cls-2" transform="translate(1142 320)"/>
                        <circle id="Ellipse_1465-18" cx="3" cy="3" r="3" class="cls-2" transform="translate(1120 320)"/>
                        <circle id="Ellipse_1467-18" cx="3" cy="3" r="3" class="cls-2" transform="translate(1164 320)"/>
                    </g>
                </g>
            </g>
            <g id="Repeat_Grid_3" clip-path="url(#clip-path-2)" transform="translate(1251.379 140)">
                <g transform="translate(-.188 -208.249)">
                    <path id="Icon_ionic-ios-arrow-forward" d="M20.679 20.5L11.742 9.679a2.352 2.352 0 0 1 0-2.889 1.5 1.5 0 0 1 2.391 0l10.125 12.262a2.364 2.364 0 0 1 .049 2.82L14.14 34.22a1.5 1.5 0 0 1-2.391 0 2.352 2.352 0 0 1 0-2.889z" class="cls-2" transform="rotate(90 -80.999 116.003)"/>
                    <path id="Icon_ionic-ios-arrow-forward-2" d="M20.679 20.5L11.742 9.679a2.352 2.352 0 0 1 0-2.889 1.5 1.5 0 0 1 2.391 0l10.125 12.262a2.364 2.364 0 0 1 .049 2.82L14.14 34.22a1.5 1.5 0 0 1-2.391 0 2.352 2.352 0 0 1 0-2.889z" class="cls-2" transform="rotate(90 -85.999 121.003)"/>
                </g>
                <g transform="translate(-.188 -188.249)">
                    <path id="Icon_ionic-ios-arrow-forward-3" d="M20.679 20.5L11.742 9.679a2.352 2.352 0 0 1 0-2.889 1.5 1.5 0 0 1 2.391 0l10.125 12.262a2.364 2.364 0 0 1 .049 2.82L14.14 34.22a1.5 1.5 0 0 1-2.391 0 2.352 2.352 0 0 1 0-2.889z" class="cls-2" transform="rotate(90 -80.999 116.003)"/>
                    <path id="Icon_ionic-ios-arrow-forward-4" d="M20.679 20.5L11.742 9.679a2.352 2.352 0 0 1 0-2.889 1.5 1.5 0 0 1 2.391 0l10.125 12.262a2.364 2.364 0 0 1 .049 2.82L14.14 34.22a1.5 1.5 0 0 1-2.391 0 2.352 2.352 0 0 1 0-2.889z" class="cls-2" transform="rotate(90 -85.999 121.003)"/>
                </g>
                <g transform="translate(-.188 -168.249)">
                    <path id="Icon_ionic-ios-arrow-forward-5" d="M20.679 20.5L11.742 9.679a2.352 2.352 0 0 1 0-2.889 1.5 1.5 0 0 1 2.391 0l10.125 12.262a2.364 2.364 0 0 1 .049 2.82L14.14 34.22a1.5 1.5 0 0 1-2.391 0 2.352 2.352 0 0 1 0-2.889z" class="cls-2" transform="rotate(90 -80.999 116.003)"/>
                    <path id="Icon_ionic-ios-arrow-forward-6" d="M20.679 20.5L11.742 9.679a2.352 2.352 0 0 1 0-2.889 1.5 1.5 0 0 1 2.391 0l10.125 12.262a2.364 2.364 0 0 1 .049 2.82L14.14 34.22a1.5 1.5 0 0 1-2.391 0 2.352 2.352 0 0 1 0-2.889z" class="cls-2" transform="rotate(90 -85.999 121.003)"/>
                </g>
            </g>
        </g>
        <g id="Group_37200">
            <path id="Rectangle_3686" d="M34 0h2a34 34 0 0 1 34 34H0A34 34 0 0 1 34 0z" class="cls-4" transform="rotate(180 35 153)"/>
            <g id="Repeat_Grid_2" clip-path="url(#clip-path-3)" transform="translate(32 272)">
                <g transform="translate(-1098 -320)">
                    <circle id="Ellipse_1464-19" cx="3" cy="3" r="3" class="cls-2" transform="translate(1098 320)"/>
                    <circle id="Ellipse_1466-19" cx="3" cy="3" r="3" class="cls-2" transform="translate(1142 320)"/>
                    <circle id="Ellipse_1465-19" cx="3" cy="3" r="3" class="cls-2" transform="translate(1120 320)"/>
                    <circle id="Ellipse_1467-19" cx="3" cy="3" r="3" class="cls-2" transform="translate(1164 320)"/>
                </g>
                <g transform="translate(-1010 -320)">
                    <circle id="Ellipse_1464-20" cx="3" cy="3" r="3" class="cls-2" transform="translate(1098 320)"/>
                    <circle id="Ellipse_1466-20" cx="3" cy="3" r="3" class="cls-2" transform="translate(1142 320)"/>
                    <circle id="Ellipse_1465-20" cx="3" cy="3" r="3" class="cls-2" transform="translate(1120 320)"/>
                    <circle id="Ellipse_1467-20" cx="3" cy="3" r="3" class="cls-2" transform="translate(1164 320)"/>
                </g>
                <g transform="translate(-1098 -298)">
                    <circle id="Ellipse_1464-21" cx="3" cy="3" r="3" class="cls-2" transform="translate(1098 320)"/>
                    <circle id="Ellipse_1466-21" cx="3" cy="3" r="3" class="cls-2" transform="translate(1142 320)"/>
                    <circle id="Ellipse_1465-21" cx="3" cy="3" r="3" class="cls-2" transform="translate(1120 320)"/>
                    <circle id="Ellipse_1467-21" cx="3" cy="3" r="3" class="cls-2" transform="translate(1164 320)"/>
                </g>
                <g transform="translate(-1010 -298)">
                    <circle id="Ellipse_1464-22" cx="3" cy="3" r="3" class="cls-2" transform="translate(1098 320)"/>
                    <circle id="Ellipse_1466-22" cx="3" cy="3" r="3" class="cls-2" transform="translate(1142 320)"/>
                    <circle id="Ellipse_1465-22" cx="3" cy="3" r="3" class="cls-2" transform="translate(1120 320)"/>
                    <circle id="Ellipse_1467-22" cx="3" cy="3" r="3" class="cls-2" transform="translate(1164 320)"/>
                </g>
                <g transform="translate(-1098 -276)">
                    <circle id="Ellipse_1464-23" cx="3" cy="3" r="3" class="cls-2" transform="translate(1098 320)"/>
                    <circle id="Ellipse_1466-23" cx="3" cy="3" r="3" class="cls-2" transform="translate(1142 320)"/>
                    <circle id="Ellipse_1465-23" cx="3" cy="3" r="3" class="cls-2" transform="translate(1120 320)"/>
                    <circle id="Ellipse_1467-23" cx="3" cy="3" r="3" class="cls-2" transform="translate(1164 320)"/>
                </g>
                <g transform="translate(-1010 -276)">
                    <circle id="Ellipse_1464-24" cx="3" cy="3" r="3" class="cls-2" transform="translate(1098 320)"/>
                    <circle id="Ellipse_1466-24" cx="3" cy="3" r="3" class="cls-2" transform="translate(1142 320)"/>
                    <circle id="Ellipse_1465-24" cx="3" cy="3" r="3" class="cls-2" transform="translate(1120 320)"/>
                    <circle id="Ellipse_1467-24" cx="3" cy="3" r="3" class="cls-2" transform="translate(1164 320)"/>
                </g>
                <g transform="translate(-1098 -254)">
                    <circle id="Ellipse_1464-25" cx="3" cy="3" r="3" class="cls-2" transform="translate(1098 320)"/>
                    <circle id="Ellipse_1466-25" cx="3" cy="3" r="3" class="cls-2" transform="translate(1142 320)"/>
                    <circle id="Ellipse_1465-25" cx="3" cy="3" r="3" class="cls-2" transform="translate(1120 320)"/>
                    <circle id="Ellipse_1467-25" cx="3" cy="3" r="3" class="cls-2" transform="translate(1164 320)"/>
                </g>
                <g transform="translate(-1010 -254)">
                    <circle id="Ellipse_1464-26" cx="3" cy="3" r="3" class="cls-2" transform="translate(1098 320)"/>
                    <circle id="Ellipse_1466-26" cx="3" cy="3" r="3" class="cls-2" transform="translate(1142 320)"/>
                    <circle id="Ellipse_1465-26" cx="3" cy="3" r="3" class="cls-2" transform="translate(1120 320)"/>
                    <circle id="Ellipse_1467-26" cx="3" cy="3" r="3" class="cls-2" transform="translate(1164 320)"/>
                </g>
                <g transform="translate(-1098 -232)">
                    <circle id="Ellipse_1464-27" cx="3" cy="3" r="3" class="cls-2" transform="translate(1098 320)"/>
                    <circle id="Ellipse_1466-27" cx="3" cy="3" r="3" class="cls-2" transform="translate(1142 320)"/>
                    <circle id="Ellipse_1465-27" cx="3" cy="3" r="3" class="cls-2" transform="translate(1120 320)"/>
                    <circle id="Ellipse_1467-27" cx="3" cy="3" r="3" class="cls-2" transform="translate(1164 320)"/>
                </g>
                <g transform="translate(-1010 -232)">
                    <circle id="Ellipse_1464-28" cx="3" cy="3" r="3" class="cls-2" transform="translate(1098 320)"/>
                    <circle id="Ellipse_1466-28" cx="3" cy="3" r="3" class="cls-2" transform="translate(1142 320)"/>
                    <circle id="Ellipse_1465-28" cx="3" cy="3" r="3" class="cls-2" transform="translate(1120 320)"/>
                    <circle id="Ellipse_1467-28" cx="3" cy="3" r="3" class="cls-2" transform="translate(1164 320)"/>
                </g>
                <g transform="translate(-1098 -210)">
                    <circle id="Ellipse_1464-29" cx="3" cy="3" r="3" class="cls-2" transform="translate(1098 320)"/>
                    <circle id="Ellipse_1466-29" cx="3" cy="3" r="3" class="cls-2" transform="translate(1142 320)"/>
                    <circle id="Ellipse_1465-29" cx="3" cy="3" r="3" class="cls-2" transform="translate(1120 320)"/>
                    <circle id="Ellipse_1467-29" cx="3" cy="3" r="3" class="cls-2" transform="translate(1164 320)"/>
                </g>
                <g transform="translate(-1010 -210)">
                    <circle id="Ellipse_1464-30" cx="3" cy="3" r="3" class="cls-2" transform="translate(1098 320)"/>
                    <circle id="Ellipse_1466-30" cx="3" cy="3" r="3" class="cls-2" transform="translate(1142 320)"/>
                    <circle id="Ellipse_1465-30" cx="3" cy="3" r="3" class="cls-2" transform="translate(1120 320)"/>
                    <circle id="Ellipse_1467-30" cx="3" cy="3" r="3" class="cls-2" transform="translate(1164 320)"/>
                </g>
            </g>
            <path id="Polygon_2" d="M21.01 3.363a4 4 0 0 1 5.979 0l15.093 16.98A4 4 0 0 1 39.093 27H8.907a4 4 0 0 1-2.99-6.657z" class="cls-2" transform="rotate(135 51.67 126.302)"/>
        </g>
    </g>
</svg>
