<svg xmlns="http://www.w3.org/2000/svg" width="1014" height="332.557" viewBox="0 0 1014 332.557">
    <defs>
        <style>
            .cls-3,.cls-8{fill:none}.cls-3{opacity:.502}.cls-7,.cls-9{stroke:none}.cls-9{fill:#ff7b20}
        </style>
    </defs>
    <g id="Shapes-illustration" opacity="0.797" transform="translate(-148 -168.443)">
        <g id="Ellipse_1_copy_2" fill="none" stroke="#4c7bff" stroke-width="3px" opacity="0.502" transform="translate(302.17 478)">
            <circle cx="11.5" cy="11.5" r="11.5" class="cls-7"/>
            <circle cx="11.5" cy="11.5" r="10" class="cls-8"/>
        </g>
        <g id="Rounded_Rectangle_1" class="cls-3">
            <path d="M-42.106 140.758l8.7-3.664a3.371 3.371 0 0 1 4.415 1.8l3.664 8.7a3.371 3.371 0 0 1-1.8 4.415l-8.7 3.664a3.371 3.371 0 0 1-4.415-1.8l-3.664-8.7a3.371 3.371 0 0 1 1.8-4.415z" class="cls-7" transform="translate(204.17 31.614)"/>
            <path d="M-32.101 139.83c-.048 0-.095.009-.142.03l-8.699 3.663c-.094.04-.16.108-.2.202-.038.095-.037.19.002.284l3.664 8.698c.071.169.23.228.343.228.049 0 .095-.01.143-.03l8.698-3.663c.189-.08.278-.298.198-.486l-3.664-8.699c-.07-.168-.229-.228-.343-.228m0-3c1.315 0 2.565.775 3.108 2.064l3.664 8.698c.723 1.716-.082 3.692-1.798 4.415l-8.698 3.664c-.428.18-.871.265-1.308.265-1.315 0-2.565-.775-3.108-2.063l-3.663-8.699c-.723-1.715.082-3.692 1.798-4.415l8.698-3.664c.427-.18.87-.265 1.307-.265z" class="cls-9" transform="translate(204.17 31.614)"/>
        </g>
        <g id="Rounded_Rectangle_1_copy" class="cls-3">
            <path d="M761.287 778.271l7.1 3.3a2.8 2.8 0 0 1 1.359 3.715l-3.3 7.1a2.8 2.8 0 0 1-3.715 1.359l-7.1-3.3a2.8 2.8 0 0 1-1.359-3.716l3.3-7.1a2.8 2.8 0 0 1 3.715-1.358z" class="cls-7" transform="translate(268.109 -414.501)"/>
            <path d="M760.207 781.078l-3.128 6.737 6.737 3.128 3.128-6.737-6.737-3.128m-.097-3.068c.395 0 .796.084 1.177.261l7.105 3.3c1.401.65 2.01 2.314 1.359 3.715l-3.3 7.105c-.473 1.02-1.484 1.62-2.539 1.62-.394 0-.795-.084-1.176-.261l-7.105-3.3c-1.401-.65-2.01-2.314-1.359-3.715l3.3-7.105c.473-1.02 1.483-1.62 2.538-1.62z" class="cls-9" transform="translate(268.109 -414.501)"/>
        </g>
        <g id="Ellipse_1_copy_3" fill="none" stroke="#00d3b4" stroke-width="3px" opacity="0.502" transform="translate(1152 304)">
            <circle cx="5" cy="5" r="5" class="cls-7"/>
            <circle cx="5" cy="5" r="3.5" class="cls-8"/>
        </g>
        <g id="Ellipse_1" fill="none" stroke="#ffd737" stroke-width="3px" opacity="0.502" transform="translate(148 346.349)">
            <circle cx="6" cy="6" r="6" class="cls-7"/>
            <circle cx="6" cy="6" r="4.5" class="cls-8"/>
        </g>
        <g id="Ellipse_1_copy_2-2" fill="none" opacity="0.502">
            <path d="M10 0A10 10 0 1 1 0 10 10 10 0 0 1 10 0z" class="cls-7" transform="translate(1100 206.5)"/>
            <path fill="#674cf3" d="M10 3c-3.86 0-7 3.14-7 7s3.14 7 7 7 7-3.14 7-7-3.14-7-7-7m0-3c5.523 0 10 4.477 10 10s-4.477 10-10 10S0 15.523 0 10 4.477 0 10 0z" transform="translate(1100 206.5)"/>
        </g>
    </g>
</svg>
