<svg xmlns="http://www.w3.org/2000/svg" xmlns:xlink="http://www.w3.org/1999/xlink" width="896.207" height="321" viewBox="0 0 896.207 321">
  <defs>
    <clipPath id="clip-path">
      <rect width="182" height="117" fill="none"/>
    </clipPath>
    <clipPath id="clip-path-2">
      <rect width="138" height="72" fill="none"/>
    </clipPath>
    <clipPath id="clip-path-3">
      <rect width="28.62" height="63.751" fill="none"/>
    </clipPath>
  </defs>
  <g id="lets_start_bg" data-name="lets start bg" transform="translate(-209.794 -3527)">
    <g id="Repeat_Grid_1" data-name="Repeat Grid 1" transform="translate(924 3731)" opacity="0.25" clip-path="url(#clip-path)">
      <g transform="translate(-1098 -320)">
        <circle id="Ellipse_1464" data-name="Ellipse 1464" cx="3" cy="3" r="3" transform="translate(1098 320)" fill="#fff"/>
        <circle id="Ellipse_1466" data-name="Ellipse 1466" cx="3" cy="3" r="3" transform="translate(1142 320)" fill="#fff"/>
        <circle id="Ellipse_1465" data-name="Ellipse 1465" cx="3" cy="3" r="3" transform="translate(1120 320)" fill="#fff"/>
        <circle id="Ellipse_1467" data-name="Ellipse 1467" cx="3" cy="3" r="3" transform="translate(1164 320)" fill="#fff"/>
      </g>
      <g transform="translate(-1010 -320)">
        <circle id="Ellipse_1464-2" data-name="Ellipse 1464" cx="3" cy="3" r="3" transform="translate(1098 320)" fill="#fff"/>
        <circle id="Ellipse_1466-2" data-name="Ellipse 1466" cx="3" cy="3" r="3" transform="translate(1142 320)" fill="#fff"/>
        <circle id="Ellipse_1465-2" data-name="Ellipse 1465" cx="3" cy="3" r="3" transform="translate(1120 320)" fill="#fff"/>
        <circle id="Ellipse_1467-2" data-name="Ellipse 1467" cx="3" cy="3" r="3" transform="translate(1164 320)" fill="#fff"/>
      </g>
      <g transform="translate(-922 -320)">
        <circle id="Ellipse_1464-3" data-name="Ellipse 1464" cx="3" cy="3" r="3" transform="translate(1098 320)" fill="#fff"/>
        <circle id="Ellipse_1466-3" data-name="Ellipse 1466" cx="3" cy="3" r="3" transform="translate(1142 320)" fill="#fff"/>
        <circle id="Ellipse_1465-3" data-name="Ellipse 1465" cx="3" cy="3" r="3" transform="translate(1120 320)" fill="#fff"/>
        <circle id="Ellipse_1467-3" data-name="Ellipse 1467" cx="3" cy="3" r="3" transform="translate(1164 320)" fill="#fff"/>
      </g>
      <g transform="translate(-1098 -298)">
        <circle id="Ellipse_1464-4" data-name="Ellipse 1464" cx="3" cy="3" r="3" transform="translate(1098 320)" fill="#fff"/>
        <circle id="Ellipse_1466-4" data-name="Ellipse 1466" cx="3" cy="3" r="3" transform="translate(1142 320)" fill="#fff"/>
        <circle id="Ellipse_1465-4" data-name="Ellipse 1465" cx="3" cy="3" r="3" transform="translate(1120 320)" fill="#fff"/>
        <circle id="Ellipse_1467-4" data-name="Ellipse 1467" cx="3" cy="3" r="3" transform="translate(1164 320)" fill="#fff"/>
      </g>
      <g transform="translate(-1010 -298)">
        <circle id="Ellipse_1464-5" data-name="Ellipse 1464" cx="3" cy="3" r="3" transform="translate(1098 320)" fill="#fff"/>
        <circle id="Ellipse_1466-5" data-name="Ellipse 1466" cx="3" cy="3" r="3" transform="translate(1142 320)" fill="#fff"/>
        <circle id="Ellipse_1465-5" data-name="Ellipse 1465" cx="3" cy="3" r="3" transform="translate(1120 320)" fill="#fff"/>
        <circle id="Ellipse_1467-5" data-name="Ellipse 1467" cx="3" cy="3" r="3" transform="translate(1164 320)" fill="#fff"/>
      </g>
      <g transform="translate(-922 -298)">
        <circle id="Ellipse_1464-6" data-name="Ellipse 1464" cx="3" cy="3" r="3" transform="translate(1098 320)" fill="#fff"/>
        <circle id="Ellipse_1466-6" data-name="Ellipse 1466" cx="3" cy="3" r="3" transform="translate(1142 320)" fill="#fff"/>
        <circle id="Ellipse_1465-6" data-name="Ellipse 1465" cx="3" cy="3" r="3" transform="translate(1120 320)" fill="#fff"/>
        <circle id="Ellipse_1467-6" data-name="Ellipse 1467" cx="3" cy="3" r="3" transform="translate(1164 320)" fill="#fff"/>
      </g>
      <g transform="translate(-1098 -276)">
        <circle id="Ellipse_1464-7" data-name="Ellipse 1464" cx="3" cy="3" r="3" transform="translate(1098 320)" fill="#fff"/>
        <circle id="Ellipse_1466-7" data-name="Ellipse 1466" cx="3" cy="3" r="3" transform="translate(1142 320)" fill="#fff"/>
        <circle id="Ellipse_1465-7" data-name="Ellipse 1465" cx="3" cy="3" r="3" transform="translate(1120 320)" fill="#fff"/>
        <circle id="Ellipse_1467-7" data-name="Ellipse 1467" cx="3" cy="3" r="3" transform="translate(1164 320)" fill="#fff"/>
      </g>
      <g transform="translate(-1010 -276)">
        <circle id="Ellipse_1464-8" data-name="Ellipse 1464" cx="3" cy="3" r="3" transform="translate(1098 320)" fill="#fff"/>
        <circle id="Ellipse_1466-8" data-name="Ellipse 1466" cx="3" cy="3" r="3" transform="translate(1142 320)" fill="#fff"/>
        <circle id="Ellipse_1465-8" data-name="Ellipse 1465" cx="3" cy="3" r="3" transform="translate(1120 320)" fill="#fff"/>
        <circle id="Ellipse_1467-8" data-name="Ellipse 1467" cx="3" cy="3" r="3" transform="translate(1164 320)" fill="#fff"/>
      </g>
      <g transform="translate(-922 -276)">
        <circle id="Ellipse_1464-9" data-name="Ellipse 1464" cx="3" cy="3" r="3" transform="translate(1098 320)" fill="#fff"/>
        <circle id="Ellipse_1466-9" data-name="Ellipse 1466" cx="3" cy="3" r="3" transform="translate(1142 320)" fill="#fff"/>
        <circle id="Ellipse_1465-9" data-name="Ellipse 1465" cx="3" cy="3" r="3" transform="translate(1120 320)" fill="#fff"/>
        <circle id="Ellipse_1467-9" data-name="Ellipse 1467" cx="3" cy="3" r="3" transform="translate(1164 320)" fill="#fff"/>
      </g>
      <g transform="translate(-1098 -254)">
        <circle id="Ellipse_1464-10" data-name="Ellipse 1464" cx="3" cy="3" r="3" transform="translate(1098 320)" fill="#fff"/>
        <circle id="Ellipse_1466-10" data-name="Ellipse 1466" cx="3" cy="3" r="3" transform="translate(1142 320)" fill="#fff"/>
        <circle id="Ellipse_1465-10" data-name="Ellipse 1465" cx="3" cy="3" r="3" transform="translate(1120 320)" fill="#fff"/>
        <circle id="Ellipse_1467-10" data-name="Ellipse 1467" cx="3" cy="3" r="3" transform="translate(1164 320)" fill="#fff"/>
      </g>
      <g transform="translate(-1010 -254)">
        <circle id="Ellipse_1464-11" data-name="Ellipse 1464" cx="3" cy="3" r="3" transform="translate(1098 320)" fill="#fff"/>
        <circle id="Ellipse_1466-11" data-name="Ellipse 1466" cx="3" cy="3" r="3" transform="translate(1142 320)" fill="#fff"/>
        <circle id="Ellipse_1465-11" data-name="Ellipse 1465" cx="3" cy="3" r="3" transform="translate(1120 320)" fill="#fff"/>
        <circle id="Ellipse_1467-11" data-name="Ellipse 1467" cx="3" cy="3" r="3" transform="translate(1164 320)" fill="#fff"/>
      </g>
      <g transform="translate(-922 -254)">
        <circle id="Ellipse_1464-12" data-name="Ellipse 1464" cx="3" cy="3" r="3" transform="translate(1098 320)" fill="#fff"/>
        <circle id="Ellipse_1466-12" data-name="Ellipse 1466" cx="3" cy="3" r="3" transform="translate(1142 320)" fill="#fff"/>
        <circle id="Ellipse_1465-12" data-name="Ellipse 1465" cx="3" cy="3" r="3" transform="translate(1120 320)" fill="#fff"/>
        <circle id="Ellipse_1467-12" data-name="Ellipse 1467" cx="3" cy="3" r="3" transform="translate(1164 320)" fill="#fff"/>
      </g>
      <g transform="translate(-1098 -232)">
        <circle id="Ellipse_1464-13" data-name="Ellipse 1464" cx="3" cy="3" r="3" transform="translate(1098 320)" fill="#fff"/>
        <circle id="Ellipse_1466-13" data-name="Ellipse 1466" cx="3" cy="3" r="3" transform="translate(1142 320)" fill="#fff"/>
        <circle id="Ellipse_1465-13" data-name="Ellipse 1465" cx="3" cy="3" r="3" transform="translate(1120 320)" fill="#fff"/>
        <circle id="Ellipse_1467-13" data-name="Ellipse 1467" cx="3" cy="3" r="3" transform="translate(1164 320)" fill="#fff"/>
      </g>
      <g transform="translate(-1010 -232)">
        <circle id="Ellipse_1464-14" data-name="Ellipse 1464" cx="3" cy="3" r="3" transform="translate(1098 320)" fill="#fff"/>
        <circle id="Ellipse_1466-14" data-name="Ellipse 1466" cx="3" cy="3" r="3" transform="translate(1142 320)" fill="#fff"/>
        <circle id="Ellipse_1465-14" data-name="Ellipse 1465" cx="3" cy="3" r="3" transform="translate(1120 320)" fill="#fff"/>
        <circle id="Ellipse_1467-14" data-name="Ellipse 1467" cx="3" cy="3" r="3" transform="translate(1164 320)" fill="#fff"/>
      </g>
      <g transform="translate(-922 -232)">
        <circle id="Ellipse_1464-15" data-name="Ellipse 1464" cx="3" cy="3" r="3" transform="translate(1098 320)" fill="#fff"/>
        <circle id="Ellipse_1466-15" data-name="Ellipse 1466" cx="3" cy="3" r="3" transform="translate(1142 320)" fill="#fff"/>
        <circle id="Ellipse_1465-15" data-name="Ellipse 1465" cx="3" cy="3" r="3" transform="translate(1120 320)" fill="#fff"/>
        <circle id="Ellipse_1467-15" data-name="Ellipse 1467" cx="3" cy="3" r="3" transform="translate(1164 320)" fill="#fff"/>
      </g>
      <g transform="translate(-1098 -210)">
        <circle id="Ellipse_1464-16" data-name="Ellipse 1464" cx="3" cy="3" r="3" transform="translate(1098 320)" fill="#fff"/>
        <circle id="Ellipse_1466-16" data-name="Ellipse 1466" cx="3" cy="3" r="3" transform="translate(1142 320)" fill="#fff"/>
        <circle id="Ellipse_1465-16" data-name="Ellipse 1465" cx="3" cy="3" r="3" transform="translate(1120 320)" fill="#fff"/>
        <circle id="Ellipse_1467-16" data-name="Ellipse 1467" cx="3" cy="3" r="3" transform="translate(1164 320)" fill="#fff"/>
      </g>
      <g transform="translate(-1010 -210)">
        <circle id="Ellipse_1464-17" data-name="Ellipse 1464" cx="3" cy="3" r="3" transform="translate(1098 320)" fill="#fff"/>
        <circle id="Ellipse_1466-17" data-name="Ellipse 1466" cx="3" cy="3" r="3" transform="translate(1142 320)" fill="#fff"/>
        <circle id="Ellipse_1465-17" data-name="Ellipse 1465" cx="3" cy="3" r="3" transform="translate(1120 320)" fill="#fff"/>
        <circle id="Ellipse_1467-17" data-name="Ellipse 1467" cx="3" cy="3" r="3" transform="translate(1164 320)" fill="#fff"/>
      </g>
      <g transform="translate(-922 -210)">
        <circle id="Ellipse_1464-18" data-name="Ellipse 1464" cx="3" cy="3" r="3" transform="translate(1098 320)" fill="#fff"/>
        <circle id="Ellipse_1466-18" data-name="Ellipse 1466" cx="3" cy="3" r="3" transform="translate(1142 320)" fill="#fff"/>
        <circle id="Ellipse_1465-18" data-name="Ellipse 1465" cx="3" cy="3" r="3" transform="translate(1120 320)" fill="#fff"/>
        <circle id="Ellipse_1467-18" data-name="Ellipse 1467" cx="3" cy="3" r="3" transform="translate(1164 320)" fill="#fff"/>
      </g>
    </g>
    <g id="Rounded_Rectangle_1" data-name="Rounded Rectangle 1" transform="translate(473.617 3566.614)" fill="none" opacity="0.502">
      <path d="M-42.106,140.758l8.7-3.664a3.371,3.371,0,0,1,4.415,1.8l3.664,8.7a3.371,3.371,0,0,1-1.8,4.415l-8.7,3.664a3.371,3.371,0,0,1-4.415-1.8l-3.664-8.7A3.371,3.371,0,0,1-42.106,140.758Z" stroke="none"/>
      <path d="M -32.10123825073242 139.8292083740234 C -32.14923858642578 139.8292083740234 -32.19577789306641 139.8389739990234 -32.24346923828125 139.8590545654297 L -40.94193267822266 143.5232849121094 C -41.03577423095703 143.5628204345703 -41.10292816162109 143.6306610107422 -41.14131546020508 143.7251281738281 C -41.17977523803711 143.8195037841797 -41.17923736572266 143.9148101806641 -41.13970184326172 144.0086669921875 L -37.47577667236328 152.7074279785156 C -37.40493011474609 152.8755798339844 -37.24662017822266 152.9352722167969 -37.13254547119141 152.9352722167969 C -37.08446884155273 152.9352722167969 -37.03792953491211 152.9255065917969 -36.98992919921875 152.9052734375 L -28.29216003417969 149.2416687011719 C -28.10338973999023 149.1621246337891 -28.01431274414062 148.9441986083984 -28.09370040893555 148.7558135986328 L -31.75754547119141 140.0572814941406 C -31.82854461669922 139.8889770507812 -31.98700714111328 139.8292083740234 -32.10123825073242 139.8292083740234 M -32.10123443603516 136.8292083740234 C -30.78560256958008 136.8292083740234 -29.5357551574707 137.6040802001953 -28.9929313659668 138.8925170898438 L -25.32892990112305 147.5912780761719 C -24.60639190673828 149.3065795898438 -25.41131591796875 151.2831268310547 -27.12708282470703 152.0061950683594 L -35.82538986206055 155.6700439453125 C -36.25265884399414 155.8500213623047 -36.69626617431641 155.9352722167969 -37.13250732421875 155.9352722167969 C -38.44806671142578 155.9352722167969 -39.6978759765625 155.1604614257812 -40.24054718017578 153.8718872070312 L -43.90446853637695 145.1732025146484 C -44.62700653076172 143.4580535888672 -43.82215881347656 141.4810485839844 -42.10631561279297 140.7584381103516 L -33.40808486938477 137.0943603515625 C -32.98094177246094 136.9144592285156 -32.537353515625 136.8292083740234 -32.10123443603516 136.8292083740234 Z" stroke="none" fill="#fff"/>
    </g>
    <g id="Group_37200" data-name="Group 37200" transform="translate(208.795 3458)" opacity="0.252">
      <path id="Rectangle_10810" data-name="Rectangle 10810" d="M34,0h2A34,34,0,0,1,70,34v0a0,0,0,0,1,0,0H0a0,0,0,0,1,0,0v0A34,34,0,0,1,34,0Z" transform="translate(697.205 256)" fill="#fff" opacity="0.54"/>
      <path id="Rectangle_3686" data-name="Rectangle 3686" d="M34,0h2A34,34,0,0,1,70,34v0a0,0,0,0,1,0,0H0a0,0,0,0,1,0,0v0A34,34,0,0,1,34,0Z" transform="translate(155 158) rotate(180)" fill="#fff" opacity="0.54"/>
      <g id="Repeat_Grid_2" data-name="Repeat Grid 2" transform="translate(1 69)" clip-path="url(#clip-path-2)">
        <g transform="translate(-1098 -320)">
          <circle id="Ellipse_1464-19" data-name="Ellipse 1464" cx="3" cy="3" r="3" transform="translate(1098 320)" fill="#fff"/>
          <circle id="Ellipse_1466-19" data-name="Ellipse 1466" cx="3" cy="3" r="3" transform="translate(1142 320)" fill="#fff"/>
          <circle id="Ellipse_1465-19" data-name="Ellipse 1465" cx="3" cy="3" r="3" transform="translate(1120 320)" fill="#fff"/>
          <circle id="Ellipse_1467-19" data-name="Ellipse 1467" cx="3" cy="3" r="3" transform="translate(1164 320)" fill="#fff"/>
        </g>
        <g transform="translate(-1010 -320)">
          <circle id="Ellipse_1464-20" data-name="Ellipse 1464" cx="3" cy="3" r="3" transform="translate(1098 320)" fill="#fff"/>
          <circle id="Ellipse_1466-20" data-name="Ellipse 1466" cx="3" cy="3" r="3" transform="translate(1142 320)" fill="#fff"/>
          <circle id="Ellipse_1465-20" data-name="Ellipse 1465" cx="3" cy="3" r="3" transform="translate(1120 320)" fill="#fff"/>
          <circle id="Ellipse_1467-20" data-name="Ellipse 1467" cx="3" cy="3" r="3" transform="translate(1164 320)" fill="#fff"/>
        </g>
        <g transform="translate(-1098 -298)">
          <circle id="Ellipse_1464-21" data-name="Ellipse 1464" cx="3" cy="3" r="3" transform="translate(1098 320)" fill="#fff"/>
          <circle id="Ellipse_1466-21" data-name="Ellipse 1466" cx="3" cy="3" r="3" transform="translate(1142 320)" fill="#fff"/>
          <circle id="Ellipse_1465-21" data-name="Ellipse 1465" cx="3" cy="3" r="3" transform="translate(1120 320)" fill="#fff"/>
          <circle id="Ellipse_1467-21" data-name="Ellipse 1467" cx="3" cy="3" r="3" transform="translate(1164 320)" fill="#fff"/>
        </g>
        <g transform="translate(-1010 -298)">
          <circle id="Ellipse_1464-22" data-name="Ellipse 1464" cx="3" cy="3" r="3" transform="translate(1098 320)" fill="#fff"/>
          <circle id="Ellipse_1466-22" data-name="Ellipse 1466" cx="3" cy="3" r="3" transform="translate(1142 320)" fill="#fff"/>
          <circle id="Ellipse_1465-22" data-name="Ellipse 1465" cx="3" cy="3" r="3" transform="translate(1120 320)" fill="#fff"/>
          <circle id="Ellipse_1467-22" data-name="Ellipse 1467" cx="3" cy="3" r="3" transform="translate(1164 320)" fill="#fff"/>
        </g>
        <g transform="translate(-1098 -276)">
          <circle id="Ellipse_1464-23" data-name="Ellipse 1464" cx="3" cy="3" r="3" transform="translate(1098 320)" fill="#fff"/>
          <circle id="Ellipse_1466-23" data-name="Ellipse 1466" cx="3" cy="3" r="3" transform="translate(1142 320)" fill="#fff"/>
          <circle id="Ellipse_1465-23" data-name="Ellipse 1465" cx="3" cy="3" r="3" transform="translate(1120 320)" fill="#fff"/>
          <circle id="Ellipse_1467-23" data-name="Ellipse 1467" cx="3" cy="3" r="3" transform="translate(1164 320)" fill="#fff"/>
        </g>
        <g transform="translate(-1010 -276)">
          <circle id="Ellipse_1464-24" data-name="Ellipse 1464" cx="3" cy="3" r="3" transform="translate(1098 320)" fill="#fff"/>
          <circle id="Ellipse_1466-24" data-name="Ellipse 1466" cx="3" cy="3" r="3" transform="translate(1142 320)" fill="#fff"/>
          <circle id="Ellipse_1465-24" data-name="Ellipse 1465" cx="3" cy="3" r="3" transform="translate(1120 320)" fill="#fff"/>
          <circle id="Ellipse_1467-24" data-name="Ellipse 1467" cx="3" cy="3" r="3" transform="translate(1164 320)" fill="#fff"/>
        </g>
        <g transform="translate(-1098 -254)">
          <circle id="Ellipse_1464-25" data-name="Ellipse 1464" cx="3" cy="3" r="3" transform="translate(1098 320)" fill="#fff"/>
          <circle id="Ellipse_1466-25" data-name="Ellipse 1466" cx="3" cy="3" r="3" transform="translate(1142 320)" fill="#fff"/>
          <circle id="Ellipse_1465-25" data-name="Ellipse 1465" cx="3" cy="3" r="3" transform="translate(1120 320)" fill="#fff"/>
          <circle id="Ellipse_1467-25" data-name="Ellipse 1467" cx="3" cy="3" r="3" transform="translate(1164 320)" fill="#fff"/>
        </g>
        <g transform="translate(-1010 -254)">
          <circle id="Ellipse_1464-26" data-name="Ellipse 1464" cx="3" cy="3" r="3" transform="translate(1098 320)" fill="#fff"/>
          <circle id="Ellipse_1466-26" data-name="Ellipse 1466" cx="3" cy="3" r="3" transform="translate(1142 320)" fill="#fff"/>
          <circle id="Ellipse_1465-26" data-name="Ellipse 1465" cx="3" cy="3" r="3" transform="translate(1120 320)" fill="#fff"/>
          <circle id="Ellipse_1467-26" data-name="Ellipse 1467" cx="3" cy="3" r="3" transform="translate(1164 320)" fill="#fff"/>
        </g>
      </g>
    </g>
    <g id="Ellipse_1_copy_2" data-name="Ellipse 1 copy 2" transform="translate(851 3715)" fill="none" stroke="#fff" stroke-width="3" opacity="0.502">
      <ellipse cx="8" cy="7.5" rx="8" ry="7.5" stroke="none"/>
      <ellipse cx="8" cy="7.5" rx="6.5" ry="6" fill="none"/>
    </g>
    <g id="Ellipse_1_copy_3" data-name="Ellipse 1 copy 3" transform="translate(437 3595)" fill="none" stroke="#fcfaf9" stroke-width="3" opacity="0.502">
      <ellipse cx="5" cy="5.5" rx="5" ry="5.5" stroke="none"/>
      <ellipse cx="5" cy="5.5" rx="3.5" ry="4" fill="none"/>
    </g>
    <g id="Rounded_Rectangle_1_copy" data-name="Rounded Rectangle 1 copy" transform="translate(116.498 2825.989)" fill="none" opacity="0.502">
      <path d="M761.056,778.263l6.878,3.194a2.708,2.708,0,0,1,1.316,3.6l-3.194,6.878a2.708,2.708,0,0,1-3.6,1.316l-6.878-3.194a2.708,2.708,0,0,1-1.316-3.6l3.194-6.878A2.708,2.708,0,0,1,761.056,778.263Z" stroke="none"/>
      <path d="M 760.056396484375 781.1068725585938 L 757.10791015625 787.456298828125 L 763.4571533203125 790.4048461914062 L 766.4058837890625 784.0553588867188 L 760.056396484375 781.1068725585938 M 759.9163208007812 778.0104370117188 C 760.29833984375 778.0104370117188 760.6863403320312 778.0916748046875 761.0557250976562 778.26318359375 L 767.9340209960938 781.457275390625 C 769.2907104492188 782.0872192382812 769.8795166015625 783.6975708007812 769.2496337890625 785.0545043945312 L 766.0552978515625 791.9328002929688 C 765.5968627929688 792.92041015625 764.6187744140625 793.5013427734375 763.5973510742188 793.5013427734375 C 763.2152709960938 793.5013427734375 762.8273315429688 793.420166015625 762.4580078125 793.2485961914062 L 755.5797729492188 790.0543823242188 C 754.222900390625 789.4246215820312 753.634033203125 787.8135986328125 754.2642211914062 786.4569702148438 L 757.45849609375 779.5784912109375 C 757.9169311523438 778.5911865234375 758.8948974609375 778.0104370117188 759.9163208007812 778.0104370117188 Z" stroke="none" fill="#fcfaf9"/>
    </g>
    <g id="Repeat_Grid_3" data-name="Repeat Grid 3" transform="translate(1077.381 3583.748)" opacity="0.249" clip-path="url(#clip-path-3)">
      <g transform="translate(-0.188 -208.249)">
        <path id="Icon_ionic-ios-arrow-forward" data-name="Icon ionic-ios-arrow-forward" d="M20.679,20.5,11.742,9.679a2.352,2.352,0,0,1,0-2.889,1.5,1.5,0,0,1,2.391,0L24.258,19.052a2.364,2.364,0,0,1,.049,2.82L14.14,34.22a1.5,1.5,0,0,1-2.391,0,2.352,2.352,0,0,1,0-2.889Z" transform="translate(35.004 197.002) rotate(90)" fill="#fff"/>
        <path id="Icon_ionic-ios-arrow-forward-2" data-name="Icon ionic-ios-arrow-forward" d="M20.679,20.5,11.742,9.679a2.352,2.352,0,0,1,0-2.889,1.5,1.5,0,0,1,2.391,0L24.258,19.052a2.364,2.364,0,0,1,.049,2.82L14.14,34.22a1.5,1.5,0,0,1-2.391,0,2.352,2.352,0,0,1,0-2.889Z" transform="translate(35.004 207.002) rotate(90)" fill="#fff"/>
      </g>
      <g transform="translate(-0.188 -188.249)">
        <path id="Icon_ionic-ios-arrow-forward-3" data-name="Icon ionic-ios-arrow-forward" d="M20.679,20.5,11.742,9.679a2.352,2.352,0,0,1,0-2.889,1.5,1.5,0,0,1,2.391,0L24.258,19.052a2.364,2.364,0,0,1,.049,2.82L14.14,34.22a1.5,1.5,0,0,1-2.391,0,2.352,2.352,0,0,1,0-2.889Z" transform="translate(35.004 197.002) rotate(90)" fill="#fff"/>
        <path id="Icon_ionic-ios-arrow-forward-4" data-name="Icon ionic-ios-arrow-forward" d="M20.679,20.5,11.742,9.679a2.352,2.352,0,0,1,0-2.889,1.5,1.5,0,0,1,2.391,0L24.258,19.052a2.364,2.364,0,0,1,.049,2.82L14.14,34.22a1.5,1.5,0,0,1-2.391,0,2.352,2.352,0,0,1,0-2.889Z" transform="translate(35.004 207.002) rotate(90)" fill="#fff"/>
      </g>
      <g transform="translate(-0.188 -168.249)">
        <path id="Icon_ionic-ios-arrow-forward-5" data-name="Icon ionic-ios-arrow-forward" d="M20.679,20.5,11.742,9.679a2.352,2.352,0,0,1,0-2.889,1.5,1.5,0,0,1,2.391,0L24.258,19.052a2.364,2.364,0,0,1,.049,2.82L14.14,34.22a1.5,1.5,0,0,1-2.391,0,2.352,2.352,0,0,1,0-2.889Z" transform="translate(35.004 197.002) rotate(90)" fill="#fff"/>
        <path id="Icon_ionic-ios-arrow-forward-6" data-name="Icon ionic-ios-arrow-forward" d="M20.679,20.5,11.742,9.679a2.352,2.352,0,0,1,0-2.889,1.5,1.5,0,0,1,2.391,0L24.258,19.052a2.364,2.364,0,0,1,.049,2.82L14.14,34.22a1.5,1.5,0,0,1-2.391,0,2.352,2.352,0,0,1,0-2.889Z" transform="translate(35.004 207.002) rotate(90)" fill="#fff"/>
      </g>
    </g>
    <g id="Repeat_Grid_5" data-name="Repeat Grid 5" transform="translate(238.414 3790.5) rotate(180)" opacity="0.249" clip-path="url(#clip-path-3)">
      <g transform="translate(-0.188 -208.249)">
        <path id="Icon_ionic-ios-arrow-forward-7" data-name="Icon ionic-ios-arrow-forward" d="M20.679,20.5,11.742,9.679a2.352,2.352,0,0,1,0-2.889,1.5,1.5,0,0,1,2.391,0L24.258,19.052a2.364,2.364,0,0,1,.049,2.82L14.14,34.22a1.5,1.5,0,0,1-2.391,0,2.352,2.352,0,0,1,0-2.889Z" transform="translate(35.004 197.002) rotate(90)" fill="#fff"/>
        <path id="Icon_ionic-ios-arrow-forward-8" data-name="Icon ionic-ios-arrow-forward" d="M20.679,20.5,11.742,9.679a2.352,2.352,0,0,1,0-2.889,1.5,1.5,0,0,1,2.391,0L24.258,19.052a2.364,2.364,0,0,1,.049,2.82L14.14,34.22a1.5,1.5,0,0,1-2.391,0,2.352,2.352,0,0,1,0-2.889Z" transform="translate(35.004 207.002) rotate(90)" fill="#fff"/>
      </g>
      <g transform="translate(-0.188 -188.249)">
        <path id="Icon_ionic-ios-arrow-forward-9" data-name="Icon ionic-ios-arrow-forward" d="M20.679,20.5,11.742,9.679a2.352,2.352,0,0,1,0-2.889,1.5,1.5,0,0,1,2.391,0L24.258,19.052a2.364,2.364,0,0,1,.049,2.82L14.14,34.22a1.5,1.5,0,0,1-2.391,0,2.352,2.352,0,0,1,0-2.889Z" transform="translate(35.004 197.002) rotate(90)" fill="#fff"/>
        <path id="Icon_ionic-ios-arrow-forward-10" data-name="Icon ionic-ios-arrow-forward" d="M20.679,20.5,11.742,9.679a2.352,2.352,0,0,1,0-2.889,1.5,1.5,0,0,1,2.391,0L24.258,19.052a2.364,2.364,0,0,1,.049,2.82L14.14,34.22a1.5,1.5,0,0,1-2.391,0,2.352,2.352,0,0,1,0-2.889Z" transform="translate(35.004 207.002) rotate(90)" fill="#fff"/>
      </g>
      <g transform="translate(-0.188 -168.249)">
        <path id="Icon_ionic-ios-arrow-forward-11" data-name="Icon ionic-ios-arrow-forward" d="M20.679,20.5,11.742,9.679a2.352,2.352,0,0,1,0-2.889,1.5,1.5,0,0,1,2.391,0L24.258,19.052a2.364,2.364,0,0,1,.049,2.82L14.14,34.22a1.5,1.5,0,0,1-2.391,0,2.352,2.352,0,0,1,0-2.889Z" transform="translate(35.004 197.002) rotate(90)" fill="#fff"/>
        <path id="Icon_ionic-ios-arrow-forward-12" data-name="Icon ionic-ios-arrow-forward" d="M20.679,20.5,11.742,9.679a2.352,2.352,0,0,1,0-2.889,1.5,1.5,0,0,1,2.391,0L24.258,19.052a2.364,2.364,0,0,1,.049,2.82L14.14,34.22a1.5,1.5,0,0,1-2.391,0,2.352,2.352,0,0,1,0-2.889Z" transform="translate(35.004 207.002) rotate(90)" fill="#fff"/>
      </g>
    </g>
  </g>
</svg>
