<svg xmlns="http://www.w3.org/2000/svg" width="896.207" height="321" viewBox="0 0 896.207 321">
    <defs>
        <clipPath id="clip-path">
            <path d="M0 0H182V117H0z" class="cls-1"/>
        </clipPath>
        <clipPath id="clip-path-2">
            <path d="M0 0H138V72H0z" class="cls-1"/>
        </clipPath>
        <clipPath id="clip-path-3">
            <path d="M0 0H28.62V63.751H0z" class="cls-1"/>
        </clipPath>
        <style>
            .cls-1,.cls-4{fill:none}.cls-3,.cls-6{fill:#fff}.cls-4{opacity:.502}.cls-6{opacity:.54}.cls-10{opacity:.249;clip-path:url(#clip-path-3)}.cls-11{stroke:none}
        </style>
    </defs>
    <g id="lets_start_bg" transform="translate(-209.794 -3527)">
        <g id="Repeat_Grid_1" clip-path="url(#clip-path)" opacity="0.25" transform="translate(924 3731)">
            <g transform="translate(-1098 -320)">
                <circle id="Ellipse_1464" cx="3" cy="3" r="3" class="cls-3" transform="translate(1098 320)"/>
                <circle id="Ellipse_1466" cx="3" cy="3" r="3" class="cls-3" transform="translate(1142 320)"/>
                <circle id="Ellipse_1465" cx="3" cy="3" r="3" class="cls-3" transform="translate(1120 320)"/>
                <circle id="Ellipse_1467" cx="3" cy="3" r="3" class="cls-3" transform="translate(1164 320)"/>
            </g>
            <g transform="translate(-1010 -320)">
                <circle id="Ellipse_1464-2" cx="3" cy="3" r="3" class="cls-3" transform="translate(1098 320)"/>
                <circle id="Ellipse_1466-2" cx="3" cy="3" r="3" class="cls-3" transform="translate(1142 320)"/>
                <circle id="Ellipse_1465-2" cx="3" cy="3" r="3" class="cls-3" transform="translate(1120 320)"/>
                <circle id="Ellipse_1467-2" cx="3" cy="3" r="3" class="cls-3" transform="translate(1164 320)"/>
            </g>
            <g transform="translate(-922 -320)">
                <circle id="Ellipse_1464-3" cx="3" cy="3" r="3" class="cls-3" transform="translate(1098 320)"/>
                <circle id="Ellipse_1466-3" cx="3" cy="3" r="3" class="cls-3" transform="translate(1142 320)"/>
                <circle id="Ellipse_1465-3" cx="3" cy="3" r="3" class="cls-3" transform="translate(1120 320)"/>
                <circle id="Ellipse_1467-3" cx="3" cy="3" r="3" class="cls-3" transform="translate(1164 320)"/>
            </g>
            <g transform="translate(-1098 -298)">
                <circle id="Ellipse_1464-4" cx="3" cy="3" r="3" class="cls-3" transform="translate(1098 320)"/>
                <circle id="Ellipse_1466-4" cx="3" cy="3" r="3" class="cls-3" transform="translate(1142 320)"/>
                <circle id="Ellipse_1465-4" cx="3" cy="3" r="3" class="cls-3" transform="translate(1120 320)"/>
                <circle id="Ellipse_1467-4" cx="3" cy="3" r="3" class="cls-3" transform="translate(1164 320)"/>
            </g>
            <g transform="translate(-1010 -298)">
                <circle id="Ellipse_1464-5" cx="3" cy="3" r="3" class="cls-3" transform="translate(1098 320)"/>
                <circle id="Ellipse_1466-5" cx="3" cy="3" r="3" class="cls-3" transform="translate(1142 320)"/>
                <circle id="Ellipse_1465-5" cx="3" cy="3" r="3" class="cls-3" transform="translate(1120 320)"/>
                <circle id="Ellipse_1467-5" cx="3" cy="3" r="3" class="cls-3" transform="translate(1164 320)"/>
            </g>
            <g transform="translate(-922 -298)">
                <circle id="Ellipse_1464-6" cx="3" cy="3" r="3" class="cls-3" transform="translate(1098 320)"/>
                <circle id="Ellipse_1466-6" cx="3" cy="3" r="3" class="cls-3" transform="translate(1142 320)"/>
                <circle id="Ellipse_1465-6" cx="3" cy="3" r="3" class="cls-3" transform="translate(1120 320)"/>
                <circle id="Ellipse_1467-6" cx="3" cy="3" r="3" class="cls-3" transform="translate(1164 320)"/>
            </g>
            <g transform="translate(-1098 -276)">
                <circle id="Ellipse_1464-7" cx="3" cy="3" r="3" class="cls-3" transform="translate(1098 320)"/>
                <circle id="Ellipse_1466-7" cx="3" cy="3" r="3" class="cls-3" transform="translate(1142 320)"/>
                <circle id="Ellipse_1465-7" cx="3" cy="3" r="3" class="cls-3" transform="translate(1120 320)"/>
                <circle id="Ellipse_1467-7" cx="3" cy="3" r="3" class="cls-3" transform="translate(1164 320)"/>
            </g>
            <g transform="translate(-1010 -276)">
                <circle id="Ellipse_1464-8" cx="3" cy="3" r="3" class="cls-3" transform="translate(1098 320)"/>
                <circle id="Ellipse_1466-8" cx="3" cy="3" r="3" class="cls-3" transform="translate(1142 320)"/>
                <circle id="Ellipse_1465-8" cx="3" cy="3" r="3" class="cls-3" transform="translate(1120 320)"/>
                <circle id="Ellipse_1467-8" cx="3" cy="3" r="3" class="cls-3" transform="translate(1164 320)"/>
            </g>
            <g transform="translate(-922 -276)">
                <circle id="Ellipse_1464-9" cx="3" cy="3" r="3" class="cls-3" transform="translate(1098 320)"/>
                <circle id="Ellipse_1466-9" cx="3" cy="3" r="3" class="cls-3" transform="translate(1142 320)"/>
                <circle id="Ellipse_1465-9" cx="3" cy="3" r="3" class="cls-3" transform="translate(1120 320)"/>
                <circle id="Ellipse_1467-9" cx="3" cy="3" r="3" class="cls-3" transform="translate(1164 320)"/>
            </g>
            <g transform="translate(-1098 -254)">
                <circle id="Ellipse_1464-10" cx="3" cy="3" r="3" class="cls-3" transform="translate(1098 320)"/>
                <circle id="Ellipse_1466-10" cx="3" cy="3" r="3" class="cls-3" transform="translate(1142 320)"/>
                <circle id="Ellipse_1465-10" cx="3" cy="3" r="3" class="cls-3" transform="translate(1120 320)"/>
                <circle id="Ellipse_1467-10" cx="3" cy="3" r="3" class="cls-3" transform="translate(1164 320)"/>
            </g>
            <g transform="translate(-1010 -254)">
                <circle id="Ellipse_1464-11" cx="3" cy="3" r="3" class="cls-3" transform="translate(1098 320)"/>
                <circle id="Ellipse_1466-11" cx="3" cy="3" r="3" class="cls-3" transform="translate(1142 320)"/>
                <circle id="Ellipse_1465-11" cx="3" cy="3" r="3" class="cls-3" transform="translate(1120 320)"/>
                <circle id="Ellipse_1467-11" cx="3" cy="3" r="3" class="cls-3" transform="translate(1164 320)"/>
            </g>
            <g transform="translate(-922 -254)">
                <circle id="Ellipse_1464-12" cx="3" cy="3" r="3" class="cls-3" transform="translate(1098 320)"/>
                <circle id="Ellipse_1466-12" cx="3" cy="3" r="3" class="cls-3" transform="translate(1142 320)"/>
                <circle id="Ellipse_1465-12" cx="3" cy="3" r="3" class="cls-3" transform="translate(1120 320)"/>
                <circle id="Ellipse_1467-12" cx="3" cy="3" r="3" class="cls-3" transform="translate(1164 320)"/>
            </g>
            <g transform="translate(-1098 -232)">
                <circle id="Ellipse_1464-13" cx="3" cy="3" r="3" class="cls-3" transform="translate(1098 320)"/>
                <circle id="Ellipse_1466-13" cx="3" cy="3" r="3" class="cls-3" transform="translate(1142 320)"/>
                <circle id="Ellipse_1465-13" cx="3" cy="3" r="3" class="cls-3" transform="translate(1120 320)"/>
                <circle id="Ellipse_1467-13" cx="3" cy="3" r="3" class="cls-3" transform="translate(1164 320)"/>
            </g>
            <g transform="translate(-1010 -232)">
                <circle id="Ellipse_1464-14" cx="3" cy="3" r="3" class="cls-3" transform="translate(1098 320)"/>
                <circle id="Ellipse_1466-14" cx="3" cy="3" r="3" class="cls-3" transform="translate(1142 320)"/>
                <circle id="Ellipse_1465-14" cx="3" cy="3" r="3" class="cls-3" transform="translate(1120 320)"/>
                <circle id="Ellipse_1467-14" cx="3" cy="3" r="3" class="cls-3" transform="translate(1164 320)"/>
            </g>
            <g transform="translate(-922 -232)">
                <circle id="Ellipse_1464-15" cx="3" cy="3" r="3" class="cls-3" transform="translate(1098 320)"/>
                <circle id="Ellipse_1466-15" cx="3" cy="3" r="3" class="cls-3" transform="translate(1142 320)"/>
                <circle id="Ellipse_1465-15" cx="3" cy="3" r="3" class="cls-3" transform="translate(1120 320)"/>
                <circle id="Ellipse_1467-15" cx="3" cy="3" r="3" class="cls-3" transform="translate(1164 320)"/>
            </g>
            <g transform="translate(-1098 -210)">
                <circle id="Ellipse_1464-16" cx="3" cy="3" r="3" class="cls-3" transform="translate(1098 320)"/>
                <circle id="Ellipse_1466-16" cx="3" cy="3" r="3" class="cls-3" transform="translate(1142 320)"/>
                <circle id="Ellipse_1465-16" cx="3" cy="3" r="3" class="cls-3" transform="translate(1120 320)"/>
                <circle id="Ellipse_1467-16" cx="3" cy="3" r="3" class="cls-3" transform="translate(1164 320)"/>
            </g>
            <g transform="translate(-1010 -210)">
                <circle id="Ellipse_1464-17" cx="3" cy="3" r="3" class="cls-3" transform="translate(1098 320)"/>
                <circle id="Ellipse_1466-17" cx="3" cy="3" r="3" class="cls-3" transform="translate(1142 320)"/>
                <circle id="Ellipse_1465-17" cx="3" cy="3" r="3" class="cls-3" transform="translate(1120 320)"/>
                <circle id="Ellipse_1467-17" cx="3" cy="3" r="3" class="cls-3" transform="translate(1164 320)"/>
            </g>
            <g transform="translate(-922 -210)">
                <circle id="Ellipse_1464-18" cx="3" cy="3" r="3" class="cls-3" transform="translate(1098 320)"/>
                <circle id="Ellipse_1466-18" cx="3" cy="3" r="3" class="cls-3" transform="translate(1142 320)"/>
                <circle id="Ellipse_1465-18" cx="3" cy="3" r="3" class="cls-3" transform="translate(1120 320)"/>
                <circle id="Ellipse_1467-18" cx="3" cy="3" r="3" class="cls-3" transform="translate(1164 320)"/>
            </g>
        </g>
        <g id="Rounded_Rectangle_1" class="cls-4">
            <path d="M-42.106 140.758l8.7-3.664a3.371 3.371 0 0 1 4.415 1.8l3.664 8.7a3.371 3.371 0 0 1-1.8 4.415l-8.7 3.664a3.371 3.371 0 0 1-4.415-1.8l-3.664-8.7a3.371 3.371 0 0 1 1.8-4.415z" class="cls-11" transform="translate(473.617 3566.614)"/>
            <path fill="#fff" d="M-32.101 139.83c-.048 0-.095.009-.142.03l-8.699 3.663c-.094.04-.16.108-.2.202-.038.095-.037.19.002.284l3.664 8.698c.071.169.23.228.343.228.049 0 .095-.01.143-.03l8.698-3.663c.189-.08.278-.298.198-.486l-3.664-8.699c-.07-.168-.229-.228-.343-.228m0-3c1.315 0 2.565.775 3.108 2.064l3.664 8.698c.723 1.716-.082 3.692-1.798 4.415l-8.698 3.664c-.428.18-.871.265-1.308.265-1.315 0-2.565-.775-3.108-2.063l-3.663-8.699c-.723-1.715.082-3.692 1.798-4.415l8.698-3.664c.427-.18.87-.265 1.307-.265z" transform="translate(473.617 3566.614)"/>
        </g>
        <g id="Group_37200" opacity="0.252" transform="translate(208.795 3458)">
            <path id="Rectangle_10810" d="M34 0h2a34 34 0 0 1 34 34H0A34 34 0 0 1 34 0z" class="cls-6" transform="translate(697.205 256)"/>
            <path id="Rectangle_3686" d="M34 0h2a34 34 0 0 1 34 34H0A34 34 0 0 1 34 0z" class="cls-6" transform="rotate(180 77.5 79)"/>
            <g id="Repeat_Grid_2" clip-path="url(#clip-path-2)" transform="translate(1 69)">
                <g transform="translate(-1098 -320)">
                    <circle id="Ellipse_1464-19" cx="3" cy="3" r="3" class="cls-3" transform="translate(1098 320)"/>
                    <circle id="Ellipse_1466-19" cx="3" cy="3" r="3" class="cls-3" transform="translate(1142 320)"/>
                    <circle id="Ellipse_1465-19" cx="3" cy="3" r="3" class="cls-3" transform="translate(1120 320)"/>
                    <circle id="Ellipse_1467-19" cx="3" cy="3" r="3" class="cls-3" transform="translate(1164 320)"/>
                </g>
                <g transform="translate(-1010 -320)">
                    <circle id="Ellipse_1464-20" cx="3" cy="3" r="3" class="cls-3" transform="translate(1098 320)"/>
                    <circle id="Ellipse_1466-20" cx="3" cy="3" r="3" class="cls-3" transform="translate(1142 320)"/>
                    <circle id="Ellipse_1465-20" cx="3" cy="3" r="3" class="cls-3" transform="translate(1120 320)"/>
                    <circle id="Ellipse_1467-20" cx="3" cy="3" r="3" class="cls-3" transform="translate(1164 320)"/>
                </g>
                <g transform="translate(-1098 -298)">
                    <circle id="Ellipse_1464-21" cx="3" cy="3" r="3" class="cls-3" transform="translate(1098 320)"/>
                    <circle id="Ellipse_1466-21" cx="3" cy="3" r="3" class="cls-3" transform="translate(1142 320)"/>
                    <circle id="Ellipse_1465-21" cx="3" cy="3" r="3" class="cls-3" transform="translate(1120 320)"/>
                    <circle id="Ellipse_1467-21" cx="3" cy="3" r="3" class="cls-3" transform="translate(1164 320)"/>
                </g>
                <g transform="translate(-1010 -298)">
                    <circle id="Ellipse_1464-22" cx="3" cy="3" r="3" class="cls-3" transform="translate(1098 320)"/>
                    <circle id="Ellipse_1466-22" cx="3" cy="3" r="3" class="cls-3" transform="translate(1142 320)"/>
                    <circle id="Ellipse_1465-22" cx="3" cy="3" r="3" class="cls-3" transform="translate(1120 320)"/>
                    <circle id="Ellipse_1467-22" cx="3" cy="3" r="3" class="cls-3" transform="translate(1164 320)"/>
                </g>
                <g transform="translate(-1098 -276)">
                    <circle id="Ellipse_1464-23" cx="3" cy="3" r="3" class="cls-3" transform="translate(1098 320)"/>
                    <circle id="Ellipse_1466-23" cx="3" cy="3" r="3" class="cls-3" transform="translate(1142 320)"/>
                    <circle id="Ellipse_1465-23" cx="3" cy="3" r="3" class="cls-3" transform="translate(1120 320)"/>
                    <circle id="Ellipse_1467-23" cx="3" cy="3" r="3" class="cls-3" transform="translate(1164 320)"/>
                </g>
                <g transform="translate(-1010 -276)">
                    <circle id="Ellipse_1464-24" cx="3" cy="3" r="3" class="cls-3" transform="translate(1098 320)"/>
                    <circle id="Ellipse_1466-24" cx="3" cy="3" r="3" class="cls-3" transform="translate(1142 320)"/>
                    <circle id="Ellipse_1465-24" cx="3" cy="3" r="3" class="cls-3" transform="translate(1120 320)"/>
                    <circle id="Ellipse_1467-24" cx="3" cy="3" r="3" class="cls-3" transform="translate(1164 320)"/>
                </g>
                <g transform="translate(-1098 -254)">
                    <circle id="Ellipse_1464-25" cx="3" cy="3" r="3" class="cls-3" transform="translate(1098 320)"/>
                    <circle id="Ellipse_1466-25" cx="3" cy="3" r="3" class="cls-3" transform="translate(1142 320)"/>
                    <circle id="Ellipse_1465-25" cx="3" cy="3" r="3" class="cls-3" transform="translate(1120 320)"/>
                    <circle id="Ellipse_1467-25" cx="3" cy="3" r="3" class="cls-3" transform="translate(1164 320)"/>
                </g>
                <g transform="translate(-1010 -254)">
                    <circle id="Ellipse_1464-26" cx="3" cy="3" r="3" class="cls-3" transform="translate(1098 320)"/>
                    <circle id="Ellipse_1466-26" cx="3" cy="3" r="3" class="cls-3" transform="translate(1142 320)"/>
                    <circle id="Ellipse_1465-26" cx="3" cy="3" r="3" class="cls-3" transform="translate(1120 320)"/>
                    <circle id="Ellipse_1467-26" cx="3" cy="3" r="3" class="cls-3" transform="translate(1164 320)"/>
                </g>
            </g>
        </g>
        <g id="Ellipse_1_copy_2" fill="none" stroke="#fff" stroke-width="3px" opacity="0.502" transform="translate(851 3715)">
            <ellipse cx="8" cy="7.5" class="cls-11" rx="8" ry="7.5"/>
            <ellipse cx="8" cy="7.5" class="cls-1" rx="6.5" ry="6"/>
        </g>
        <g id="Ellipse_1_copy_3" fill="none" stroke="#fcfaf9" stroke-width="3px" opacity="0.502" transform="translate(437 3595)">
            <ellipse cx="5" cy="5.5" class="cls-11" rx="5" ry="5.5"/>
            <ellipse cx="5" cy="5.5" class="cls-1" rx="3.5" ry="4"/>
        </g>
        <g id="Rounded_Rectangle_1_copy" class="cls-4">
            <path d="M761.056 778.263l6.878 3.194a2.708 2.708 0 0 1 1.316 3.6l-3.194 6.878a2.708 2.708 0 0 1-3.6 1.316l-6.878-3.194a2.708 2.708 0 0 1-1.316-3.6l3.194-6.878a2.708 2.708 0 0 1 3.6-1.316z" class="cls-11" transform="translate(116.498 2825.989)"/>
            <path fill="#fcfaf9" d="M760.056 781.107l-2.948 6.35 6.35 2.948 2.948-6.35-6.35-2.948m-.14-3.097c.382 0 .77.082 1.14.253l6.878 3.194c1.357.63 1.946 2.24 1.316 3.598l-3.195 6.878c-.458.987-1.436 1.568-2.458 1.568-.382 0-.77-.08-1.139-.252l-6.878-3.195c-1.357-.63-1.946-2.24-1.316-3.597l3.194-6.879c.459-.987 1.437-1.568 2.458-1.568z" transform="translate(116.498 2825.989)"/>
        </g>
        <g id="Repeat_Grid_3" class="cls-10">
            <g transform="translate(1077.381 3583.748) translate(-.188 -208.249)">
                <path id="Icon_ionic-ios-arrow-forward" d="M20.679 20.5L11.742 9.679a2.352 2.352 0 0 1 0-2.889 1.5 1.5 0 0 1 2.391 0l10.125 12.262a2.364 2.364 0 0 1 .049 2.82L14.14 34.22a1.5 1.5 0 0 1-2.391 0 2.352 2.352 0 0 1 0-2.889z" class="cls-3" transform="rotate(90 -80.999 116.003)"/>
                <path id="Icon_ionic-ios-arrow-forward-2" d="M20.679 20.5L11.742 9.679a2.352 2.352 0 0 1 0-2.889 1.5 1.5 0 0 1 2.391 0l10.125 12.262a2.364 2.364 0 0 1 .049 2.82L14.14 34.22a1.5 1.5 0 0 1-2.391 0 2.352 2.352 0 0 1 0-2.889z" class="cls-3" transform="rotate(90 -85.999 121.003)"/>
            </g>
            <g transform="translate(1077.381 3583.748) translate(-.188 -188.249)">
                <path id="Icon_ionic-ios-arrow-forward-3" d="M20.679 20.5L11.742 9.679a2.352 2.352 0 0 1 0-2.889 1.5 1.5 0 0 1 2.391 0l10.125 12.262a2.364 2.364 0 0 1 .049 2.82L14.14 34.22a1.5 1.5 0 0 1-2.391 0 2.352 2.352 0 0 1 0-2.889z" class="cls-3" transform="rotate(90 -80.999 116.003)"/>
                <path id="Icon_ionic-ios-arrow-forward-4" d="M20.679 20.5L11.742 9.679a2.352 2.352 0 0 1 0-2.889 1.5 1.5 0 0 1 2.391 0l10.125 12.262a2.364 2.364 0 0 1 .049 2.82L14.14 34.22a1.5 1.5 0 0 1-2.391 0 2.352 2.352 0 0 1 0-2.889z" class="cls-3" transform="rotate(90 -85.999 121.003)"/>
            </g>
            <g transform="translate(1077.381 3583.748) translate(-.188 -168.249)">
                <path id="Icon_ionic-ios-arrow-forward-5" d="M20.679 20.5L11.742 9.679a2.352 2.352 0 0 1 0-2.889 1.5 1.5 0 0 1 2.391 0l10.125 12.262a2.364 2.364 0 0 1 .049 2.82L14.14 34.22a1.5 1.5 0 0 1-2.391 0 2.352 2.352 0 0 1 0-2.889z" class="cls-3" transform="rotate(90 -80.999 116.003)"/>
                <path id="Icon_ionic-ios-arrow-forward-6" d="M20.679 20.5L11.742 9.679a2.352 2.352 0 0 1 0-2.889 1.5 1.5 0 0 1 2.391 0l10.125 12.262a2.364 2.364 0 0 1 .049 2.82L14.14 34.22a1.5 1.5 0 0 1-2.391 0 2.352 2.352 0 0 1 0-2.889z" class="cls-3" transform="rotate(90 -85.999 121.003)"/>
            </g>
        </g>
        <g id="Repeat_Grid_5" class="cls-10">
            <g transform="rotate(180 119.207 1895.25) translate(-.188 -208.249)">
                <path id="Icon_ionic-ios-arrow-forward-7" d="M20.679 20.5L11.742 9.679a2.352 2.352 0 0 1 0-2.889 1.5 1.5 0 0 1 2.391 0l10.125 12.262a2.364 2.364 0 0 1 .049 2.82L14.14 34.22a1.5 1.5 0 0 1-2.391 0 2.352 2.352 0 0 1 0-2.889z" class="cls-3" transform="rotate(90 -80.999 116.003)"/>
                <path id="Icon_ionic-ios-arrow-forward-8" d="M20.679 20.5L11.742 9.679a2.352 2.352 0 0 1 0-2.889 1.5 1.5 0 0 1 2.391 0l10.125 12.262a2.364 2.364 0 0 1 .049 2.82L14.14 34.22a1.5 1.5 0 0 1-2.391 0 2.352 2.352 0 0 1 0-2.889z" class="cls-3" transform="rotate(90 -85.999 121.003)"/>
            </g>
            <g transform="rotate(180 119.207 1895.25) translate(-.188 -188.249)">
                <path id="Icon_ionic-ios-arrow-forward-9" d="M20.679 20.5L11.742 9.679a2.352 2.352 0 0 1 0-2.889 1.5 1.5 0 0 1 2.391 0l10.125 12.262a2.364 2.364 0 0 1 .049 2.82L14.14 34.22a1.5 1.5 0 0 1-2.391 0 2.352 2.352 0 0 1 0-2.889z" class="cls-3" transform="rotate(90 -80.999 116.003)"/>
                <path id="Icon_ionic-ios-arrow-forward-10" d="M20.679 20.5L11.742 9.679a2.352 2.352 0 0 1 0-2.889 1.5 1.5 0 0 1 2.391 0l10.125 12.262a2.364 2.364 0 0 1 .049 2.82L14.14 34.22a1.5 1.5 0 0 1-2.391 0 2.352 2.352 0 0 1 0-2.889z" class="cls-3" transform="rotate(90 -85.999 121.003)"/>
            </g>
            <g transform="rotate(180 119.207 1895.25) translate(-.188 -168.249)">
                <path id="Icon_ionic-ios-arrow-forward-11" d="M20.679 20.5L11.742 9.679a2.352 2.352 0 0 1 0-2.889 1.5 1.5 0 0 1 2.391 0l10.125 12.262a2.364 2.364 0 0 1 .049 2.82L14.14 34.22a1.5 1.5 0 0 1-2.391 0 2.352 2.352 0 0 1 0-2.889z" class="cls-3" transform="rotate(90 -80.999 116.003)"/>
                <path id="Icon_ionic-ios-arrow-forward-12" d="M20.679 20.5L11.742 9.679a2.352 2.352 0 0 1 0-2.889 1.5 1.5 0 0 1 2.391 0l10.125 12.262a2.364 2.364 0 0 1 .049 2.82L14.14 34.22a1.5 1.5 0 0 1-2.391 0 2.352 2.352 0 0 1 0-2.889z" class="cls-3" transform="rotate(90 -85.999 121.003)"/>
            </g>
        </g>
    </g>
</svg>
