<svg xmlns="http://www.w3.org/2000/svg" xmlns:xlink="http://www.w3.org/1999/xlink" width="128" height="30.44" viewBox="0 0 128 30.44">
    <defs>
        <linearGradient id="linear-gradient" x1=".185" x2=".606" y1=".117" y2=".782" gradientUnits="objectBoundingBox">
            <stop offset="0" stop-color="#c7bff3"/>
            <stop offset="1" stop-color="#674cf3"/>
        </linearGradient>
        <linearGradient id="linear-gradient-2" x1=".194" x2=".875" y1=".204" y2=".814" gradientUnits="objectBoundingBox">
            <stop offset="0" stop-color="#cec5ff"/>
            <stop offset="1" stop-color="#674cf3"/>
        </linearGradient>
        <linearGradient id="linear-gradient-3" x1=".862" x2=".5" y1=".04" y2=".968" gradientUnits="objectBoundingBox">
            <stop offset="0" stop-color="#00705f"/>
            <stop offset="1" stop-color="#2aeccf"/>
        </linearGradient>
        <linearGradient id="linear-gradient-4" x1=".123" x2=".93" y1=".064" y2=".978" gradientUnits="objectBoundingBox">
            <stop offset="0" stop-color="#007160"/>
            <stop offset="1" stop-color="#43f6db"/>
        </linearGradient>
        <linearGradient id="linear-gradient-5" x1=".5" x2=".406" y2=".985" gradientUnits="objectBoundingBox">
            <stop offset="0" stop-color="#8039db"/>
            <stop offset="1" stop-color="#401d6e"/>
        </linearGradient>
        <linearGradient id="linear-gradient-6" x1="1.895" x2="-.927" y1=".5" y2=".5" xlink:href="#linear-gradient-5"/>
        <clipPath id="clip-path">
            <path id="Path_7248" d="M0 .341L.164.3l.1-.021.18-.04.079-.014h.051l.1-.019h.01L.841.177h.007L.9.168h.03c.076-.013.15-.025.226-.036h.023l.062-.009h.005L1.389.1 1.51.087h.047L1.612.08l.235-.025H1.918L2.1.034l.1-.008H2.311l.215-.017h.105L2.85 0h.479a13.83 13.83 0 0 1 10.5 4.9 13.374 13.374 0 0 1 2.941 11.07l-.006.03-.012.061-.008.039-.005.029v.031l-.014.068-.022.1v.012l-.006.03v.061l-.015.067v.011l-.006.028-.008.033V16.616l-.018.073-.01.04-.013.055v.016l-.009.034-.005.021v.022c-.006.026-.013.051-.021.077v.006l-.006.025-.01.036v.027l-.023.08-.028.1v.01l-.015.05v.036l-.023.077v.008l-.009.029-.011.034v.019l-.023.072v.005l-.012.035-.015.047v.068l-.007.022v.019l-.023.066v.019l-.022.065v.023l-.022.065V18l-.013.036v.01l-.014.037v.011l-.022.059v.01l-.005.016v.006l-.028.073v.006l-.007.02v.01l-.01.026V18.345l-.028.07v.007l-.014.034-.02.048v.018l-.018.043-.006.014v.016l-.031.072v.012l-.006.016v.01l-.013.028v.02l-.025.057v.005l-.016.036v.005l-.013.032v.012l-.022.048v.009l-.005.013v.013l-.028.061v.012l-.034.072-.034.072v.005l-.018.037v.005l-.016.034v.007l-.022.043v.009l-.008.016v.008l-.036.071v.01l-.013.026-.017.033-.037.07-.018.034-.019.035v.012l-.022.043v.009l-.007.013-.041.075v.005l-.014.027-.014.026-.031.054-.019.034v.005l-.012.02v.005l-.04.071v.006l-.044.074-.013.022v.178l-.019.031-.037.061-.021.033-.022.036-.025.039-.018.028c-.013.02-.026.041-.04.06v.014c.055-.074-.02.039-.18.266l-.047.067-.011.016-.022.032-.037.052-.024.035-.433.11c-.11.156-.239.338-.381.532l-.056.078.22-.317.016-.023-.033.045-.024.032-.019.026c-.014.02-.029.038-.044.057l-.05.063-.021.027-.009.012-.018.022-.034.042-.027.034-.015.018-.05.06-.006.007-.053.061-.017.02-.026.031-.046.053-.03.034-.011.012-.06.067c.05-.045.1-.089.148-.14a3.668 3.668 0 0 1-.507.429l-.012.009H13.327l-.01.006h-.072l-.012.007h-.094l-.009.005h-.005l-.013.006h-.6c-2.221.922-4.706 1.442-6.846 2.488A10.554 10.554 0 0 0 3.9 26.611c-.131.089-.146.046-.155.028s-.022-.039-.031-.058l-.027-.057-.023-.056-.021-.054c-.007-.018-.012-.036-.016-.053l-.014-.051-.013-.05a.472.472 0 0 0-.007-.05.436.436 0 0 1-.005-.048v-.138l.005-.043.008-.043.011-.042a.142.142 0 0 1 .013-.041c0-.013.01-.027.015-.04l.016-.039.019-.038.022-.037.022-.036a.412.412 0 0 1 .024-.035l.026-.035.027-.034.029-.034.031-.032.032-.032.033-.031.033-.03.034-.032.036-.028.036-.029c.394-.3.914-.5 1.071-.748l-.892.159a.294.294 0 0 1-.149 0 .182.182 0 0 1-.053-.028.2.2 0 0 1-.058-.062l-.009-.016a.655.655 0 0 1-.034-.071.694.694 0 0 1-.041-.125c0-.022-.008-.044-.011-.066-.071-.729 1.463-.856 1.943-1.02a.644.644 0 0 1 .163-.321c.332-.339 1.892-.51 2.481-.721a5.644 5.644 0 0 0 2.313-1.794 4.737 4.737 0 0 1-2.161 1.186c-.884.057-.961-.716-.5-.977 1.918-1.261 3.3-3.485 5.107-4.444a3.706 3.706 0 0 1 .893-.336 12.229 12.229 0 0 0-2.711-11.578A12.678 12.678 0 0 0 .048.354z" class="cls-1"/>
        </clipPath>
        <clipPath id="clip-path-2">
            <path id="Path_7249" d="M2.049.252a12.6 12.6 0 0 1 12.082 16.005A11.9 11.9 0 0 0 11 2.38 13.659 13.659 0 0 0 3.336 0 13.876 13.876 0 0 0 1.52.114 13.545 13.545 0 0 0 0 .4l.045.013a12.639 12.639 0 0 1 2-.161z" class="cls-1"/>
        </clipPath>
        <clipPath id="clip-path-3">
            <path id="Path_7246" d="M17.021 25.521l-.164.039-.1.021-.18.04-.081.016h-.052l-.1.019h-.009l-.157.028-.051.009h-.032l-.226.036h-.024l-.061.009h-.006l-.142.02-.121.016h-.047l-.055.007-.235.025H15.1l-.18.017-.1.008h-.112l-.215.013h-.108l-.218.009h-.477a13.867 13.867 0 0 1-10.521-4.886A13.316 13.316 0 0 1 .226 9.916l.006-.03.012-.061.008-.039.005-.029v-.032c0-.022.01-.045.014-.067l.022-.1v-.016l.007-.03v-.061l.015-.066v-.012l.006-.027.007-.033v-.031l.018-.073.01-.04.013-.055v-.022l.011-.034.005-.021v-.022l.021-.077v-.006l.007-.025.01-.037v-.023l.022-.081.028-.1v-.01l.015-.05v-.033L.517 8.5v-.012l.009-.029.01-.034V8.4l.022-.072v-.006l.012-.035.015-.047v-.055L.6 8.163v-.019c0-.022.012-.044.019-.065v-.022l.022-.066v-.023L.665 7.9l.013-.036v-.01l.014-.034v-.01l.023-.06v-.01l.006-.017V7.7l.028-.072v-.003L.757 7.6v-.006l.01-.025v-.025c.009-.024.019-.044.028-.071v-.005l.013-.035.02-.048v-.017l.018-.042.006-.014V7.3l.031-.072v-.017L.889 7.2v-.01L.9 7.158v-.021l.026-.057.016-.04v-.006L.956 7v-.012l.022-.048v-.034l.006-.013v-.014l.028-.061v-.011l.034-.072.035-.073v-.005l.019-.036v-.007l.016-.034v-.028l.022-.043V6.5l.007-.015v-.01L1.18 6.4v-.01l.014-.026.017-.034.036-.07.018-.034.018-.026v-.017l.023-.042v-.008l.006-.013.041-.076.014-.027.015-.026.031-.054.02-.034V5.9l.012-.02v-.014l.042-.066v-.011l.044-.073V5.71l.013-.022.019-.031L1.6 5.6l.021-.033.023-.036.024-.039.019-.028.039-.06v-.022c-.055.073.02-.039.18-.265l.046-.067.011-.016L1.99 5l.037-.053.024-.035-.005.008c.11-.156.24-.337.382-.531l.056-.078-.22.316-.017.023.034-.045.024-.032.019-.026.044-.057.05-.063.021-.027.009-.011.018-.022.034-.043.028-.033.015-.018.05-.06.007-.006.052-.062.017-.019.026-.03.047-.053.03-.034L2.781 4l.06-.067c-.05.045-.1.088-.148.14a3.617 3.617 0 0 1 .507-.432l.012-.009h.048l.009-.007h.04l.007-.005h.029l.012-.007h.093l.009-.013H4.511c2.224-.92 4.712-1.439 6.854-2.483A10.674 10.674 0 0 0 13.121.054c.131-.088.146-.046.155-.028l.031.058.027.057.024.056.02.054c.006.018.013.035.017.053l.014.051.011.05a.468.468 0 0 0 .007.05.21.21 0 0 0 .006.045.137.137 0 0 1 0 .047V.6a.378.378 0 0 1 0 .045l-.005.043a.176.176 0 0 1-.009.043l-.01.042c0 .014-.008.027-.013.041 0 .013-.01.027-.015.04l-.017.039a.372.372 0 0 1-.019.038l-.021.037L13.3 1l-.024.035-.026.035-.027.034-.03.033-.03.033-.032.032-.033.031-.033.03-.035.029-.03.028-.036.028c-.395.3-.915.5-1.072.747l.893-.158a.289.289 0 0 1 .15 0 .182.182 0 0 1 .053.028.2.2 0 0 1 .058.062l.009.016a.505.505 0 0 1 .033.07.769.769 0 0 1 .041.125.593.593 0 0 1 .01.065c.07.727-1.466.854-1.946 1.018a.648.648 0 0 1-.162.32c-.333.338-1.9.509-2.484.719a5.662 5.662 0 0 0-2.319 1.79 4.748 4.748 0 0 1 2.16-1.184c.885-.057.964.715.5.975-1.92 1.258-3.3 3.478-5.114 4.436a3.747 3.747 0 0 1-.894.336 12.169 12.169 0 0 0 2.447 10.274 12.674 12.674 0 0 0 9.643 4.674 12.907 12.907 0 0 0 2.007-.155z" class="cls-1"/>
        </clipPath>
        <clipPath id="clip-path-4">
            <path id="Path_7247" d="M13.127 16.007A12.6 12.6 0 0 1 1.031 0a11.894 11.894 0 0 0 3.133 13.878 13.679 13.679 0 0 0 7.675 2.381 14.07 14.07 0 0 0 1.819-.114 13.729 13.729 0 0 0 1.521-.281l-.044-.013a12.673 12.673 0 0 1-2.007.156z" class="cls-1"/>
        </clipPath>
        <style>
            .cls-1{fill:none}.cls-2{fill:#002f4f}
        </style>
    </defs>
    <g id="Logo" transform="translate(-141.719 -110.34)">
        <path id="Path_4020" d="M393.336 339.482a.852.852 0 0 1-.616-.253.81.81 0 0 1-.26-.6v-17.071a.811.811 0 0 1 .26-.6.876.876 0 0 1 1.232 0 .811.811 0 0 1 .26.6v16.217H405.6a.855.855 0 0 1 .616.253.823.823 0 0 1 0 1.2.853.853 0 0 1-.616.253z" class="cls-2" transform="translate(-250.741 -204.749)"/>
        <path id="Path_4021" d="M429.4 323.865a.809.809 0 0 1-.26-.6v-1.707a.81.81 0 0 1 .26-.6.876.876 0 0 1 1.232 0 .812.812 0 0 1 .26.6v1.707a.81.81 0 0 1-.26.6.876.876 0 0 1-1.232 0zm0 15.364a.809.809 0 0 1-.26-.6v-11.95a.811.811 0 0 1 .26-.6.877.877 0 0 1 1.232 0 .813.813 0 0 1 .26.6v11.95a.81.81 0 0 1-.26.6.876.876 0 0 1-1.232 0z" class="cls-2" transform="translate(-271.491 -204.749)"/>
        <path id="Path_4022" d="M443.2 346.67a.773.773 0 0 1-.3-.37l-5.257-12.268a.817.817 0 0 1-.027-.684.831.831 0 0 1 .466-.465.82.82 0 0 1 .684-.028.836.836 0 0 1 .465.466l4.463 10.405 4.463-10.405a.833.833 0 0 1 .466-.466.82.82 0 0 1 .684.028.835.835 0 0 1 .466.465.82.82 0 0 1-.027.684l-5.262 12.268a.775.775 0 0 1-.3.37.881.881 0 0 1-.986 0z" class="cls-2" transform="translate(-276.339 -211.707)"/>
        <path id="Path_4023" d="M470.622 346.42a4.526 4.526 0 0 1-2.163-1.315 4.442 4.442 0 0 1-1.068-2.231 16.892 16.892 0 0 1-.246-3.053 10.61 10.61 0 0 1 .41-3.163 4.877 4.877 0 0 1 3.437-3.437 10.6 10.6 0 0 1 3.163-.41 10.908 10.908 0 0 1 2.971.356 5.612 5.612 0 0 1 2.095 1.068 4.987 4.987 0 0 1 1.341 1.916 8.959 8.959 0 0 1 .575 2.738 1.114 1.114 0 0 1-.055.356.772.772 0 0 1-.192.3.671.671 0 0 1-.274.205.911.911 0 0 1-.356.069H468.9a13.378 13.378 0 0 0 .205 2.642 3.189 3.189 0 0 0 .671 1.493 3.118 3.118 0 0 0 1.574.849 11.571 11.571 0 0 0 2.807.274 8.508 8.508 0 0 0 3.313-.438 3.2 3.2 0 0 0 1.232-.9.84.84 0 0 1 .561-.343.763.763 0 0 1 .644.151.8.8 0 0 1 .37.548.814.814 0 0 1-.15.657 4.3 4.3 0 0 1-2.177 1.588 11.831 11.831 0 0 1-3.792.493 12.573 12.573 0 0 1-3.536-.413zm1.027-11.569a3.439 3.439 0 0 0-1.575.89 2.966 2.966 0 0 0-.671.959 5.664 5.664 0 0 0-.4 1.369h10.269a5.588 5.588 0 0 0-.424-1.465 2.932 2.932 0 0 0-.781-1.027 3.576 3.576 0 0 0-1.547-.767 9.789 9.789 0 0 0-2.368-.246 9.226 9.226 0 0 0-2.503.287z" class="cls-2" transform="translate(-293.144 -211.724)"/>
        <path id="Path_4024" d="M643.035 346.42a4.525 4.525 0 0 1-2.163-1.315 4.446 4.446 0 0 1-1.068-2.231 16.892 16.892 0 0 1-.246-3.053 10.593 10.593 0 0 1 .411-3.163 4.876 4.876 0 0 1 3.436-3.437 10.606 10.606 0 0 1 3.163-.41 10.913 10.913 0 0 1 2.971.356 5.606 5.606 0 0 1 2.094 1.068 4.988 4.988 0 0 1 1.342 1.916 8.959 8.959 0 0 1 .575 2.738 1.114 1.114 0 0 1-.055.356.772.772 0 0 1-.192.3.672.672 0 0 1-.274.205.91.91 0 0 1-.356.069h-11.362a13.381 13.381 0 0 0 .205 2.642 3.192 3.192 0 0 0 .671 1.493 3.117 3.117 0 0 0 1.575.849 11.564 11.564 0 0 0 2.807.274 8.51 8.51 0 0 0 3.313-.438 3.192 3.192 0 0 0 1.232-.9.841.841 0 0 1 .561-.343.764.764 0 0 1 .644.151.8.8 0 0 1 .37.548.813.813 0 0 1-.151.657 4.3 4.3 0 0 1-2.177 1.588 11.831 11.831 0 0 1-3.792.493 12.573 12.573 0 0 1-3.534-.413zm1.027-11.569a3.44 3.44 0 0 0-1.574.89 2.953 2.953 0 0 0-.671.959 5.634 5.634 0 0 0-.4 1.369h10.268a5.571 5.571 0 0 0-.424-1.465 2.929 2.929 0 0 0-.78-1.027 3.581 3.581 0 0 0-1.547-.767 9.788 9.788 0 0 0-2.369-.246 9.229 9.229 0 0 0-2.503.287z" class="cls-2" transform="translate(-393.09 -211.724)"/>
        <path id="Path_4025" d="M581.031 332.81h.6a.894.894 0 0 1 .62.228.737.737 0 0 1 .283.677.75.75 0 0 1-.283.629 1.663 1.663 0 0 1-.823.222l-.392-.027s.823.027 0 .027a6.6 6.6 0 0 0-2.058.275 2.886 2.886 0 0 0-1.317.851 3.813 3.813 0 0 0-.768 1.619 10.892 10.892 0 0 0-.247 2.524v6.145a.878.878 0 0 1-1.756 0v-12.29a.878.878 0 0 1 1.756 0v.521a4.571 4.571 0 0 1 1.838-1.056 8.594 8.594 0 0 1 2.551-.342z" class="cls-2" transform="translate(-351.702 -211.724)"/>
        <path id="Path_4026" d="M581.031 332.81h.6a.894.894 0 0 1 .62.228.737.737 0 0 1 .283.677.75.75 0 0 1-.283.629 1.663 1.663 0 0 1-.823.222l-.392-.027s.823.027 0 .027a6.6 6.6 0 0 0-2.058.275 2.886 2.886 0 0 0-1.317.851 3.813 3.813 0 0 0-.768 1.619 10.892 10.892 0 0 0-.247 2.524v6.145a.878.878 0 0 1-1.756 0v-12.29a.878.878 0 0 1 1.756 0v.521a4.571 4.571 0 0 1 1.838-1.056 8.594 8.594 0 0 1 2.551-.342z" class="cls-2" transform="translate(-312.811 -211.724)"/>
        <g id="Group_1895" transform="translate(231.334 115.704)">
            <path id="Path_82" d="M710.038 339.414a.892.892 0 0 1-1.777 0v-17.822a.888.888 0 0 1 1.777 0v17.134s.007.526 0 .688z" class="cls-2" transform="translate(-696.768 -320.704)"/>
            <path id="Path_95" d="M679.4 346.174a4.788 4.788 0 0 1-3.374-3.374 12.157 12.157 0 0 1 0-6.211 4.788 4.788 0 0 1 3.374-3.375 10.412 10.412 0 0 1 3.106-.4 10.835 10.835 0 0 1 2.823.322 4.167 4.167 0 0 1 3.013 2.752.978.978 0 0 1 .05.595c-.076.2-.042.151-.241.35a.569.569 0 0 1-.5.113.859.859 0 0 1-.538-.241l-.016-.047a2.918 2.918 0 0 0-2.35-1.9 9.545 9.545 0 0 0-2.245-.229 9.064 9.064 0 0 0-2.461.282 3.317 3.317 0 0 0-2.419 2.42 10.862 10.862 0 0 0 0 4.92 3.317 3.317 0 0 0 2.419 2.42 9.066 9.066 0 0 0 2.461.282 9.524 9.524 0 0 0 2.245-.228c.618-.153 2.421-1.059 2.366-1.644.119-.422.346-.466.58-.438a3.22 3.22 0 0 1 .352.059c.168.067.184.067.268.209s.338.519.159.662c-.2 1.773-2.359 2.563-3.147 2.778a10.819 10.819 0 0 1-2.823.323 10.4 10.4 0 0 1-3.102-.4z" class="cls-2" transform="translate(-675.623 -327.112)"/>
        </g>
        <g id="Group_4428" transform="translate(191.263 110.132)">
            <g id="Group_4382" transform="scale(-1) rotate(-4.01 -424.265 416.24)">
                <g id="Group_4378" transform="translate(11.244)">
                    <g id="Mask_Group_9" clip-path="url(#clip-path)">
                        <path id="Path_7632" fill="url(#linear-gradient)" d="M0 0l31.791.035.037 33.015-31.791-.035z" transform="translate(-4.845 -3.95)"/>
                    </g>
                    <g id="Mask_Group_10" clip-path="url(#clip-path-2)" transform="translate(0 .038)">
                        <path id="Path_7633" fill="url(#linear-gradient-2)" d="M0 0l22.381.025.025 22.355-22.381-.025z" transform="translate(-4.848 -4.864)"/>
                    </g>
                </g>
                <g id="Group_4379" transform="translate(0 2.056)">
                    <g id="Mask_Group_11" clip-path="url(#clip-path-3)">
                        <path id="Path_7634" fill="url(#linear-gradient-3)" d="M0 0l29.785.033.036 31.731-29.785-.033z" transform="translate(-2.656 -3.591)"/>
                    </g>
                    <g id="Mask_Group_12" clip-path="url(#clip-path-4)" transform="matrix(.998 -.07 .07 .998 1.835 10.472)">
                        <path id="Path_7635" fill="url(#linear-gradient-4)" d="M0 0l22.837.025.025 22.847-22.837-.025z" transform="translate(-5.331 -2.352)"/>
                    </g>
                </g>
            </g>
            <g id="Group_4383" transform="translate(10.397 11.312)">
                <path id="Rectangle_3684" fill="url(#linear-gradient-5)" d="M0 0H3.317V9.387H0z" transform="rotate(90 3.259 6.128)"/>
                <path id="Rectangle_3683" fill="url(#linear-gradient-6)" d="M0 0H3.037V9.448H0z" transform="translate(3.161)"/>
            </g>
        </g>
    </g>
</svg>
