<svg xmlns="http://www.w3.org/2000/svg" width="32" height="30.97" viewBox="0 0 32 30.97">
    <defs>
        <style>
            .cls-1{fill:#ffbe0b;opacity:.35}
        </style>
    </defs>
    <g id="manage_team" transform="translate(-1 -1.997)">
        <path id="Path_39086" d="M50.66 42.226a3.089 3.089 0 0 0-2.6-.559 9.7 9.7 0 0 0 .209-9.056L40 37.776v8.937a9.762 9.762 0 0 0 5.681-2.213 3.094 3.094 0 1 0 4.979-2.279z" class="cls-1" transform="translate(-18.865 -14.805)"/>
        <path id="Path_39087" d="M33.276 17.377a3.1 3.1 0 1 0-4.151 0 9.832 9.832 0 0 0-6.232 4.4l8.249 5.155 8.334-5.209a9.831 9.831 0 0 0-6.2-4.346z" class="cls-1" transform="translate(-10.582 -4.831)"/>
        <path id="Path_39088" d="M17.575 36.992A9.706 9.706 0 0 0 18.8 41.72a3.095 3.095 0 1 0 2.374 2.838 9.762 9.762 0 0 0 5.681 2.209V37.9l-8.292-5.182a9.723 9.723 0 0 0-.988 4.274z" class="cls-1" transform="translate(-6.77 -14.859)"/>
        <path id="Path_39089" fill="#ffbe0b" d="M26.789 10.767a3.611 3.611 0 1 0-4.126 3.569v3.376l-2.133 1.422a6.708 6.708 0 0 0-6.119-5.762v-2.12a4.642 4.642 0 1 0-1.032 0v2.12a6.708 6.708 0 0 0-6.119 5.762l-2.134-1.422v-3.376a3.611 3.611 0 1 0-1.032 0v3.652a.516.516 0 0 0 .23.429l2.876 1.92a6.7 6.7 0 0 0 13.382 0l2.88-1.92a.516.516 0 0 0 .23-.429v-3.652a3.613 3.613 0 0 0 3.095-3.569zm-24.758 0a2.579 2.579 0 1 1 2.579 2.579 2.579 2.579 0 0 1-2.579-2.579zm9.893-1.1a2.053 2.053 0 0 1 3.94 0 3.591 3.591 0 0 1-3.94 0zm.938-3.538a1.032 1.032 0 1 1 1.032 1.032 1.032 1.032 0 0 1-1.032-1.032zm-2.579.516a3.611 3.611 0 1 1 6.4 2.291 3.1 3.1 0 0 0-1.3-1.388 2.063 2.063 0 1 0-2.98 0 3.1 3.1 0 0 0-1.3 1.388 3.594 3.594 0 0 1-.823-2.291zm.017 17.79a3.606 3.606 0 0 1 7.195 0 5.661 5.661 0 0 1-7.195 0zm2.05-5.931a1.547 1.547 0 1 1 1.547 1.547 1.547 1.547 0 0 1-1.55-1.551zm6.032 5.01a4.657 4.657 0 0 0-2.743-3.12 2.579 2.579 0 1 0-3.484 0 4.657 4.657 0 0 0-2.743 3.12 5.674 5.674 0 1 1 8.969 0zm4.8-10.168a2.579 2.579 0 1 1 2.579-2.579 2.579 2.579 0 0 1-2.579 2.579z"/>
    </g>
</svg>
