<svg xmlns="http://www.w3.org/2000/svg" width="312.372" height="264.201" viewBox="0 0 312.372 264.201">
    <defs>
        <style>
            .cls-3{fill:#674cf3}
        </style>
    </defs>
    <g id="pattern_help" transform="translate(-830 -123.986)">
        <path id="blob_blue" fill="#674cf3" d="M115.9 42.031c0 41.987-25.513 93.013-70.513 93.013S-64.1 84.018-64.1 42.031.387-32.5 45.387-32.5 115.9.045 115.9 42.031z" opacity="0.2" transform="rotate(25 22.808 2416.978)"/>
        <g id="Shape" opacity="0.354" transform="translate(830 123.986)">
            <path id="Shape-2" d="M2.571 4.326A4.8 4.8 0 0 1 .879 3.95.518.518 0 0 1 .6 3.711l-.01-.025a.489.489 0 0 1-.027-.055A3.372 3.372 0 0 1 0 1.7 1.852 1.852 0 0 1 .777.371 1.832 1.832 0 0 1 1.85 0a1.559 1.559 0 0 1 .526.091c.147.05.3.092.473.139l.179.049.021.006a4.2 4.2 0 0 1 .772.28 1.606 1.606 0 0 1 .689.638 1.687 1.687 0 0 1 .169 1.081 2.728 2.728 0 0 1-.517 1.332 1.812 1.812 0 0 1-1.022.649 2.412 2.412 0 0 1-.568.063zm-.722-3.274a.751.751 0 0 0-.445.164.824.824 0 0 0-.35.545 2.228 2.228 0 0 0 .381 1.275 3.548 3.548 0 0 0 1.136.237 1.377 1.377 0 0 0 .321-.035.763.763 0 0 0 .444-.278 1.712 1.712 0 0 0 .3-.828.681.681 0 0 0-.036-.417.585.585 0 0 0-.261-.215 2.891 2.891 0 0 0-.574-.2L2.6 1.252h-.008c-.17-.047-.381-.1-.568-.17a.529.529 0 0 0-.177-.032z" class="cls-3" transform="translate(164.296 102.392)"/>
            <path id="Shape-3" d="M2.574 4.326a4.841 4.841 0 0 1-1.7-.376.523.523 0 0 1-.274-.242l-.018-.036-.019-.04A3.362 3.362 0 0 1 0 1.693 1.85 1.85 0 0 1 .777.372 1.826 1.826 0 0 1 1.851 0a1.569 1.569 0 0 1 .524.09c.129.046.259.082.409.125l.063.018.046.012.154.043a3.968 3.968 0 0 1 .774.28 1.6 1.6 0 0 1 .689.636 1.666 1.666 0 0 1 .169 1.079 2.729 2.729 0 0 1-.517 1.333 1.828 1.828 0 0 1-1.022.648 2.426 2.426 0 0 1-.566.062zm-.726-3.273a.756.756 0 0 0-.444.162.824.824 0 0 0-.35.547 2.2 2.2 0 0 0 .381 1.273 3.555 3.555 0 0 0 1.139.239 1.377 1.377 0 0 0 .318-.034.772.772 0 0 0 .444-.278 1.749 1.749 0 0 0 .3-.826.681.681 0 0 0-.036-.417.6.6 0 0 0-.261-.219 3.27 3.27 0 0 0-.574-.2L2.6 1.254l-.08-.022c-.157-.043-.334-.092-.5-.149a.521.521 0 0 0-.174-.03z" class="cls-3" transform="translate(155.51 78.655)"/>
            <path id="Shape-4" d="M2.573 4.326a4.8 4.8 0 0 1-1.7-.376.523.523 0 0 1-.273-.242V3.7l-.04-.064A3.361 3.361 0 0 1 0 1.7 1.849 1.849 0 0 1 .777.372 1.826 1.826 0 0 1 1.851 0a1.569 1.569 0 0 1 .524.09c.129.046.259.082.409.125l.063.018.038.01.162.045a3.968 3.968 0 0 1 .774.28 1.6 1.6 0 0 1 .689.636 1.685 1.685 0 0 1 .169 1.079 2.728 2.728 0 0 1-.517 1.333 1.812 1.812 0 0 1-1.022.648 2.435 2.435 0 0 1-.566.063zm-.726-3.273a.751.751 0 0 0-.443.162.824.824 0 0 0-.35.547 2.2 2.2 0 0 0 .376 1.273 3.577 3.577 0 0 0 1.141.239 1.377 1.377 0 0 0 .318-.034.772.772 0 0 0 .444-.278 1.709 1.709 0 0 0 .3-.826.669.669 0 0 0-.039-.416.6.6 0 0 0-.258-.22 3.271 3.271 0 0 0-.574-.2c-.046-.011-.1-.025-.162-.044-.165-.044-.381-.1-.578-.171a.53.53 0 0 0-.175-.03z" class="cls-3" transform="translate(168.198 87.049)"/>
            <path id="Shape-5" d="M2.576 4.326a4.82 4.82 0 0 1-1.7-.376.527.527 0 0 1-.276-.241l-.037-.077-.005-.007A3.356 3.356 0 0 1 0 1.693 1.855 1.855 0 0 1 .777.37 1.834 1.834 0 0 1 1.85 0a1.568 1.568 0 0 1 .524.09c.145.05.294.09.474.139l.148.041.051.014a4.2 4.2 0 0 1 .773.283 1.6 1.6 0 0 1 .689.634 1.686 1.686 0 0 1 .169 1.081 2.743 2.743 0 0 1-.517 1.333 1.836 1.836 0 0 1-1.022.647 2.412 2.412 0 0 1-.563.063zm-.724-3.273a.762.762 0 0 0-.449.164.824.824 0 0 0-.35.547 2.22 2.22 0 0 0 .381 1.273 3.56 3.56 0 0 0 1.139.239 1.353 1.353 0 0 0 .319-.034.763.763 0 0 0 .444-.278 1.705 1.705 0 0 0 .3-.826.668.668 0 0 0-.043-.419.6.6 0 0 0-.256-.219 3 3 0 0 0-.572-.2l-.159-.045-.063-.017-.021-.006c-.165-.045-.336-.092-.495-.148a.526.526 0 0 0-.176-.031z" class="cls-3" transform="translate(192.098 95.474)"/>
            <path id="Shape-6" d="M2.574 4.326a4.841 4.841 0 0 1-1.7-.376.53.53 0 0 1-.274-.242C.591 3.687.576 3.66.563 3.632A3.362 3.362 0 0 1 0 1.693 1.844 1.844 0 0 1 .777.372 1.816 1.816 0 0 1 1.851 0a1.571 1.571 0 0 1 .525.09c.144.049.292.091.463.139h.01l.038.01.162.045a4.011 4.011 0 0 1 .771.283 1.6 1.6 0 0 1 .689.633 1.676 1.676 0 0 1 .167 1.081 2.713 2.713 0 0 1-.517 1.333 1.816 1.816 0 0 1-1.02.648 2.426 2.426 0 0 1-.565.064zm-.727-3.273a.751.751 0 0 0-.443.162.824.824 0 0 0-.35.547 2.2 2.2 0 0 0 .376 1.273 3.575 3.575 0 0 0 1.141.239 1.391 1.391 0 0 0 .319-.034.772.772 0 0 0 .444-.278 1.735 1.735 0 0 0 .3-.826.644.644 0 0 0-.042-.416.591.591 0 0 0-.253-.22 3.078 3.078 0 0 0-.574-.2L2.6 1.256l-.08-.022c-.157-.043-.334-.092-.5-.149a.53.53 0 0 0-.175-.033z" class="cls-3" transform="translate(211.082 100.458)"/>
            <path id="Shape-7" d="M2.575 4.326a4.8 4.8 0 0 1-1.7-.376.515.515 0 0 1-.275-.241l-.02-.038-.017-.039A3.363 3.363 0 0 1 0 1.693 1.855 1.855 0 0 1 .777.37 1.835 1.835 0 0 1 1.85 0a1.571 1.571 0 0 1 .525.09c.141.048.285.089.473.139l.148.041.051.014a4.116 4.116 0 0 1 .773.283 1.59 1.59 0 0 1 .689.634 1.676 1.676 0 0 1 .169 1.081 2.7 2.7 0 0 1-.517 1.333 1.836 1.836 0 0 1-1.022.647 2.424 2.424 0 0 1-.564.063zm-.724-3.273a.761.761 0 0 0-.447.164.824.824 0 0 0-.35.547 2.22 2.22 0 0 0 .381 1.273 3.56 3.56 0 0 0 1.139.239 1.352 1.352 0 0 0 .318-.034.77.77 0 0 0 .444-.278 1.756 1.756 0 0 0 .3-.826.7.7 0 0 0-.042-.419.6.6 0 0 0-.256-.219 3.077 3.077 0 0 0-.574-.2L2.6 1.254l-.08-.022c-.157-.043-.334-.092-.5-.149a.517.517 0 0 0-.169-.03z" class="cls-3" transform="translate(183.64 130.587)"/>
            <path id="Shape-8" d="M2.575 4.326a4.8 4.8 0 0 1-1.7-.376.515.515 0 0 1-.275-.241c-.011-.026-.025-.051-.037-.077A3.363 3.363 0 0 1 0 1.693 1.855 1.855 0 0 1 .777.37 1.835 1.835 0 0 1 1.85 0a1.571 1.571 0 0 1 .525.09c.141.048.285.089.473.139l.1.026.1.028a3.984 3.984 0 0 1 .772.284 1.59 1.59 0 0 1 .689.634 1.676 1.676 0 0 1 .169 1.081 2.742 2.742 0 0 1-.517 1.333 1.836 1.836 0 0 1-1.022.647 2.424 2.424 0 0 1-.564.063zm-.724-3.274a.764.764 0 0 0-.447.164.823.823 0 0 0-.35.544 2.2 2.2 0 0 0 .381 1.275 3.541 3.541 0 0 0 1.133.237 1.377 1.377 0 0 0 .322-.035.752.752 0 0 0 .444-.278 1.731 1.731 0 0 0 .3-.824.7.7 0 0 0-.042-.419.6.6 0 0 0-.257-.216 3.089 3.089 0 0 0-.574-.2L2.6 1.253l-.081-.022c-.165-.046-.336-.093-.5-.149a.5.5 0 0 0-.172-.031z" class="cls-3" transform="translate(173.739 146.127)"/>
            <path id="Shape-9" d="M2.572 4.326a4.8 4.8 0 0 1-1.7-.376.53.53 0 0 1-.272-.242C.593 3.692.584 3.676.575 3.66l-.012-.028A3.362 3.362 0 0 1 0 1.7 1.849 1.849 0 0 1 .777.372 1.816 1.816 0 0 1 1.851 0a1.571 1.571 0 0 1 .525.09c.129.046.259.081.408.125l.063.018.1.028.1.027a4.011 4.011 0 0 1 .774.28 1.6 1.6 0 0 1 .689.636 1.669 1.669 0 0 1 .166 1.08 2.7 2.7 0 0 1-.517 1.333 1.8 1.8 0 0 1-1.02.648 2.435 2.435 0 0 1-.566.063zm-.726-3.273a.745.745 0 0 0-.443.164.815.815 0 0 0-.35.545 2.2 2.2 0 0 0 .377 1.273 3.536 3.536 0 0 0 1.138.239 1.377 1.377 0 0 0 .321-.034.772.772 0 0 0 .444-.278 1.709 1.709 0 0 0 .3-.826.644.644 0 0 0-.042-.416.575.575 0 0 0-.252-.22 3.1 3.1 0 0 0-.574-.2c-.046-.011-.1-.025-.162-.044-.165-.044-.381-.1-.578-.171a.53.53 0 0 0-.178-.031z" class="cls-3" transform="translate(147.445 174.616)"/>
            <path id="Shape-10" d="M2.575 4.326a4.8 4.8 0 0 1-1.7-.376.515.515 0 0 1-.275-.241l-.02-.038-.017-.039A3.363 3.363 0 0 1 0 1.693 1.855 1.855 0 0 1 .777.37 1.835 1.835 0 0 1 1.85 0a1.571 1.571 0 0 1 .525.09c.141.048.285.089.473.139.059.018.12.034.185.051h.015a4.116 4.116 0 0 1 .772.287 1.6 1.6 0 0 1 .689.634 1.688 1.688 0 0 1 .169 1.081 2.738 2.738 0 0 1-.52 1.333 1.822 1.822 0 0 1-1.02.647 2.424 2.424 0 0 1-.564.063zM1.85 1.053a.751.751 0 0 0-.446.164.824.824 0 0 0-.35.547 2.2 2.2 0 0 0 .376 1.272 3.582 3.582 0 0 0 1.141.239 1.352 1.352 0 0 0 .318-.034.772.772 0 0 0 .444-.278 1.736 1.736 0 0 0 .3-.827.684.684 0 0 0-.039-.419.6.6 0 0 0-.258-.217 3.077 3.077 0 0 0-.574-.2L2.6 1.254l-.08-.022c-.157-.043-.334-.092-.5-.149a.526.526 0 0 0-.174-.031z" class="cls-3" transform="translate(169.313 169.896)"/>
            <path id="Shape-11" d="M2.576 4.326a4.82 4.82 0 0 1-1.7-.376.527.527 0 0 1-.276-.241l-.037-.077-.005-.007A3.356 3.356 0 0 1 0 1.693 1.855 1.855 0 0 1 .777.37 1.834 1.834 0 0 1 1.85 0a1.568 1.568 0 0 1 .524.09c.145.05.294.09.474.139l.148.041.051.014a4.2 4.2 0 0 1 .773.283 1.6 1.6 0 0 1 .689.634 1.686 1.686 0 0 1 .169 1.081 2.747 2.747 0 0 1-.517 1.333 1.836 1.836 0 0 1-1.022.647 2.412 2.412 0 0 1-.563.063zm-.724-3.273a.762.762 0 0 0-.449.164.824.824 0 0 0-.35.547 2.22 2.22 0 0 0 .381 1.273 3.56 3.56 0 0 0 1.139.239 1.353 1.353 0 0 0 .319-.034.763.763 0 0 0 .444-.278 1.705 1.705 0 0 0 .3-.826.668.668 0 0 0-.043-.419.6.6 0 0 0-.256-.219 2.992 2.992 0 0 0-.572-.2l-.159-.045-.063-.017-.021-.006c-.165-.045-.336-.092-.495-.148a.526.526 0 0 0-.176-.031z" class="cls-3" transform="translate(137.182 191.37)"/>
            <path id="Shape-12" d="M2.576 4.326a4.842 4.842 0 0 1-1.7-.376.523.523 0 0 1-.276-.242l-.037-.076A3.345 3.345 0 0 1 0 1.693 1.85 1.85 0 0 1 .777.372 1.826 1.826 0 0 1 1.851 0a1.569 1.569 0 0 1 .524.09c.121.043.247.078.381.115l.092.026.046.012.154.043a4.04 4.04 0 0 1 .772.281 1.6 1.6 0 0 1 .689.636 1.676 1.676 0 0 1 .169 1.079 2.729 2.729 0 0 1-.517 1.333 1.828 1.828 0 0 1-1.022.648 2.415 2.415 0 0 1-.563.063zm-.728-3.273a.758.758 0 0 0-.445.162.824.824 0 0 0-.35.547 2.22 2.22 0 0 0 .381 1.273 3.556 3.556 0 0 0 1.139.239 1.377 1.377 0 0 0 .318-.034.763.763 0 0 0 .444-.278 1.736 1.736 0 0 0 .3-.826.663.663 0 0 0-.035-.417.6.6 0 0 0-.261-.219 3.339 3.339 0 0 0-.572-.2L2.6 1.254l-.08-.022c-.157-.043-.334-.092-.5-.149a.531.531 0 0 0-.177-.03z" class="cls-3" transform="translate(119.905 189.534)"/>
            <path id="Shape-13" d="M2.575 4.326a4.8 4.8 0 0 1-1.7-.376.515.515 0 0 1-.275-.241l-.037-.077A3.345 3.345 0 0 1 0 1.693 1.855 1.855 0 0 1 .777.37 1.835 1.835 0 0 1 1.85 0a1.571 1.571 0 0 1 .525.09c.141.048.285.089.473.139l.148.041.051.014a4.2 4.2 0 0 1 .773.283 1.611 1.611 0 0 1 .689.634 1.686 1.686 0 0 1 .169 1.081 2.7 2.7 0 0 1-.517 1.333 1.836 1.836 0 0 1-1.022.647 2.424 2.424 0 0 1-.564.063zm-.723-3.273a.762.762 0 0 0-.449.164.824.824 0 0 0-.35.547 2.22 2.22 0 0 0 .381 1.273 3.56 3.56 0 0 0 1.139.239 1.353 1.353 0 0 0 .319-.034.763.763 0 0 0 .444-.278 1.736 1.736 0 0 0 .3-.826.7.7 0 0 0-.042-.419.606.606 0 0 0-.256-.219 3.092 3.092 0 0 0-.574-.2L2.6 1.254l-.08-.022c-.164-.046-.335-.093-.5-.15a.525.525 0 0 0-.168-.029z" class="cls-3" transform="translate(93.283 183.6)"/>
            <path id="Shape-14" d="M2.574 4.326a4.806 4.806 0 0 1-1.7-.376.528.528 0 0 1-.274-.242l-.03-.059-.007-.017-.006-.01A3.345 3.345 0 0 1 0 1.7 1.853 1.853 0 0 1 .779.372 1.829 1.829 0 0 1 1.853 0a1.565 1.565 0 0 1 .522.09c.119.043.243.077.376.114l.1.028.092.026.1.028a4.017 4.017 0 0 1 .777.281 1.591 1.591 0 0 1 .689.636 1.68 1.68 0 0 1 .169 1.079 2.733 2.733 0 0 1-.517 1.334 1.811 1.811 0 0 1-1.02.647 2.441 2.441 0 0 1-.568.063zm-.725-3.273a.751.751 0 0 0-.445.165.829.829 0 0 0-.35.544 2.221 2.221 0 0 0 .381 1.273 3.514 3.514 0 0 0 1.136.239 1.377 1.377 0 0 0 .321-.035.77.77 0 0 0 .446-.278 1.707 1.707 0 0 0 .3-.829.661.661 0 0 0-.043-.416.568.568 0 0 0-.255-.216 3.164 3.164 0 0 0-.574-.2c-.049-.012-.1-.025-.162-.044-.18-.047-.39-.1-.578-.171a.529.529 0 0 0-.177-.032z" class="cls-3" transform="translate(148.657 101.703)"/>
            <path id="Shape-15" d="M2.56 4.506H2.5a3.9 3.9 0 0 1-2.1-.885.533.533 0 0 1-.2-.3.14.14 0 0 0-.009-.037c0-.013-.008-.033-.011-.049a3.35 3.35 0 0 1-.039-2.018A1.854 1.854 0 0 1 1.231.136 1.925 1.925 0 0 1 1.93 0a1.589 1.589 0 0 1 .916.28c.116.08.236.149.376.23l.044.026.043.024.137.081a3.941 3.941 0 0 1 .673.473 1.572 1.572 0 0 1 .5.791A1.685 1.685 0 0 1 4.5 2.993a2.734 2.734 0 0 1-.846 1.153 1.807 1.807 0 0 1-1.1.36zm-.633-3.454a.854.854 0 0 0-.313.063.821.821 0 0 0-.477.439 2.22 2.22 0 0 0 .038 1.329 2.735 2.735 0 0 0 1.355.572h.033a.756.756 0 0 0 .466-.155 1.725 1.725 0 0 0 .5-.722.662.662 0 0 0 .071-.411.6.6 0 0 0-.191-.273 3.171 3.171 0 0 0-.5-.347L2.82 1.5v-.005l-.02-.013-.036-.021c-.172-.1-.353-.2-.513-.313a.572.572 0 0 0-.324-.096z" class="cls-3" transform="translate(154.057 113.918)"/>
            <path id="Shape-16" d="M2.56 4.505H2.5a3.9 3.9 0 0 1-2.1-.884.534.534 0 0 1-.2-.3.232.232 0 0 0-.01-.044c0-.015-.008-.03-.011-.045a3.347 3.347 0 0 1-.038-2.015v-.005A1.849 1.849 0 0 1 1.231.138 1.919 1.919 0 0 1 1.934 0a1.58 1.58 0 0 1 .913.279c.125.085.251.161.42.258.03.016.063.034.091.053l.088.051a4.072 4.072 0 0 1 .673.473 1.59 1.59 0 0 1 .5.791A1.683 1.683 0 0 1 4.5 2.992a2.732 2.732 0 0 1-.846 1.153 1.8 1.8 0 0 1-1.094.36zm-.631-3.454a.844.844 0 0 0-.313.063.823.823 0 0 0-.477.435 2.222 2.222 0 0 0 .038 1.329 2.71 2.71 0 0 0 1.355.572h.037a.762.762 0 0 0 .466-.15 1.735 1.735 0 0 0 .5-.722.664.664 0 0 0 .065-.416.591.591 0 0 0-.191-.273 3.141 3.141 0 0 0-.5-.345l-.053-.032-.091-.051c-.162-.093-.35-.2-.513-.313a.568.568 0 0 0-.323-.094z" class="cls-3" transform="translate(137.04 111.977)"/>
            <path id="Shape-17" d="M2.238 4.743a2.076 2.076 0 0 1-.3-.021A1.821 1.821 0 0 1 .87 4.158a3.883 3.883 0 0 1-.863-2.112.507.507 0 0 1 .071-.357c.014-.025.029-.051.046-.076a3.359 3.359 0 0 1 1.4-1.451A1.646 1.646 0 0 1 2.255 0a2.025 2.025 0 0 1 .8.171A1.727 1.727 0 0 1 4.1 1.414c.029.149.068.3.116.48l.011.041c.014.053.028.1.041.159a4.168 4.168 0 0 1 .143.815 1.586 1.586 0 0 1-.207.909 1.673 1.673 0 0 1-.852.686 3.027 3.027 0 0 1-1.113.239zm.017-3.691a.626.626 0 0 0-.265.048 2.24 2.24 0 0 0-.912.964 2.744 2.744 0 0 0 .551 1.366.768.768 0 0 0 .463.246 1.043 1.043 0 0 0 .149.011 1.97 1.97 0 0 0 .716-.164.667.667 0 0 0 .343-.24.587.587 0 0 0 .059-.33 3.055 3.055 0 0 0-.11-.6L3.22 2.24l-.011-.042c-.05-.181-.106-.393-.141-.587a.684.684 0 0 0-.427-.471.971.971 0 0 0-.383-.083z" class="cls-3" transform="translate(152.655 136.902)"/>
            <path id="Shape-18" d="M2.245 4.667a1.86 1.86 0 0 1-.731-.167 2.737 2.737 0 0 1-1.155-.841A1.812 1.812 0 0 1 0 2.508 3.863 3.863 0 0 1 .884.4.529.529 0 0 1 1.19.2l.063-.016.025-.006A4.832 4.832 0 0 1 2.426 0a2.657 2.657 0 0 1 .863.143A1.841 1.841 0 0 1 4.368 1.23a1.73 1.73 0 0 1-.141 1.617c-.088.125-.166.262-.257.418l-.059.1-.046.077a4.239 4.239 0 0 1-.473.673 1.609 1.609 0 0 1-.793.5 1.431 1.431 0 0 1-.354.052zm.188-3.616a3.552 3.552 0 0 0-.806.125 2.756 2.756 0 0 0-.574 1.357.776.776 0 0 0 .153.5 1.709 1.709 0 0 0 .722.5.841.841 0 0 0 .319.079.381.381 0 0 0 .094-.012.568.568 0 0 0 .275-.188 3.107 3.107 0 0 0 .345-.5l.049-.084.021-.036.013-.021.031-.053.008-.014c.085-.143.18-.3.277-.447a.668.668 0 0 0 .031-.635.833.833 0 0 0-.435-.48 1.638 1.638 0 0 0-.524-.093z" class="cls-3" transform="translate(122.338 150.414)"/>
            <path id="Shape-19" d="M1.74 4.411A1.552 1.552 0 0 1 .926 4.2a1.692 1.692 0 0 1-.687-.852A2.76 2.76 0 0 1 .02 1.939 1.835 1.835 0 0 1 .584.868 3.888 3.888 0 0 1 2.7.006a.529.529 0 0 1 .358.071L3.095.1l.036.023a3.352 3.352 0 0 1 1.45 1.4 1.844 1.844 0 0 1-.009 1.533A1.725 1.725 0 0 1 3.329 4.1c-.148.029-.292.066-.48.116l-.041.011-.158.042a4.166 4.166 0 0 1-.814.141zm.933-3.332L1.214 2.96a.666.666 0 0 0 .246.341.543.543 0 0 0 .28.063h.048a3.209 3.209 0 0 0 .6-.111l.039-.01.049-.013h.005l.068-.018.035-.012h.008c.171-.045.365-.1.546-.13a.68.68 0 0 0 .471-.426.822.822 0 0 0 .029-.646 2.207 2.207 0 0 0-.965-.916 2.724 2.724 0 0 0-1.366.554.763.763 0 0 0-.246.46 1.71 1.71 0 0 0 .152.866z" class="cls-3" transform="translate(102.52 151.178)"/>
            <path id="Shape-20" d="M2.734 4.506a1.586 1.586 0 0 1-.915-.279c-.125-.084-.259-.163-.421-.256l-.083-.05-.095-.056a4.044 4.044 0 0 1-.674-.473 1.576 1.576 0 0 1-.5-.791 1.686 1.686 0 0 1 .115-1.088A2.7 2.7 0 0 1 1.007.36 1.811 1.811 0 0 1 2.108 0h.052a3.89 3.89 0 0 1 2.105.886.526.526 0 0 1 .2.3.17.17 0 0 0 .011.043c0 .014.008.028.011.043a3.4 3.4 0 0 1 .036 2.016A1.851 1.851 0 0 1 3.435 4.37a1.927 1.927 0 0 1-.7.136zm-.622-3.453a.775.775 0 0 0-.479.154 1.717 1.717 0 0 0-.5.718.686.686 0 0 0-.068.416.591.591 0 0 0 .188.273 2.881 2.881 0 0 0 .5.347c.048.03.1.063.145.084l.039.023c.134.078.317.188.474.292a.572.572 0 0 0 .324.094.854.854 0 0 0 .313-.063.815.815 0 0 0 .477-.439 2.23 2.23 0 0 0-.035-1.327 2.76 2.76 0 0 0-1.357-.574z" class="cls-3" transform="translate(87.015 129.903)"/>
            <path id="Shape-21" d="M2.159 4.743a2.041 2.041 0 0 1-.8-.166A1.731 1.731 0 0 1 .314 3.329C.286 3.182.251 3.037.2 2.849L.184 2.8l-.038-.151A4.151 4.151 0 0 1 0 1.84 1.6 1.6 0 0 1 .207.925a1.672 1.672 0 0 1 .854-.686A3 3 0 0 1 2.168 0a2.066 2.066 0 0 1 .307.023 1.8 1.8 0 0 1 1.068.564A3.871 3.871 0 0 1 4.406 2.7a.511.511 0 0 1-.071.358l-.046.076a3.345 3.345 0 0 1-1.4 1.451 1.645 1.645 0 0 1-.73.162zm.009-3.691a1.973 1.973 0 0 0-.716.164.651.651 0 0 0-.339.246.582.582 0 0 0-.059.328 3.053 3.053 0 0 0 .11.6l.019.071.024.09c.052.191.106.394.141.587a.672.672 0 0 0 .427.471.971.971 0 0 0 .383.081.626.626 0 0 0 .265-.055 2.228 2.228 0 0 0 .913-.965 2.748 2.748 0 0 0-.552-1.363.778.778 0 0 0-.464-.246.99.99 0 0 0-.15-.011z" class="cls-3" transform="translate(91.442 103.815)"/>
            <path id="Shape-22" d="M2.08 4.666a2.692 2.692 0 0 1-.865-.142A1.852 1.852 0 0 1 .136 3.435a1.732 1.732 0 0 1 .143-1.617c.081-.118.153-.242.236-.384L.536 1.4l.049-.081.054-.092a4 4 0 0 1 .475-.68A1.6 1.6 0 0 1 1.9.044 1.44 1.44 0 0 1 2.26 0a1.883 1.883 0 0 1 .732.162 2.733 2.733 0 0 1 1.153.846A1.814 1.814 0 0 1 4.5 2.16a3.892 3.892 0 0 1-.885 2.1.531.531 0 0 1-.3.2l-.029.008-.058.014a4.784 4.784 0 0 1-1.148.184zm.181-3.614a.4.4 0 0 0-.1.011.6.6 0 0 0-.274.191 3.11 3.11 0 0 0-.347.5l-.023.046-.017.037-.039.063-.006.011c-.088.151-.2.339-.308.5a.681.681 0 0 0-.031.635.819.819 0 0 0 .438.477 1.6 1.6 0 0 0 .523.087 3.568 3.568 0 0 0 .8-.119 2.738 2.738 0 0 0 .574-1.357.764.764 0 0 0-.153-.5 1.7 1.7 0 0 0-.722-.505.834.834 0 0 0-.315-.077z" class="cls-3" transform="translate(112.624 88.31)"/>
            <path id="Shape-23" d="M1.966 4.411a.536.536 0 0 1-.275-.078l-.038-.023-.038-.023H1.61a3.367 3.367 0 0 1-1.449-1.4A1.86 1.86 0 0 1 .17 1.355 1.72 1.72 0 0 1 1.413.314c.155-.031.313-.072.48-.116l.056-.015.143-.037A4.216 4.216 0 0 1 2.9 0H3a1.552 1.552 0 0 1 .814.206 1.688 1.688 0 0 1 .686.854 2.747 2.747 0 0 1 .219 1.412 1.819 1.819 0 0 1-.564 1.07 3.882 3.882 0 0 1-2.109.858.54.54 0 0 1-.08.006zM1.6 1.345a.68.68 0 0 0-.471.427.825.825 0 0 0-.029.648 2.239 2.239 0 0 0 .963.914 2.747 2.747 0 0 0 1.366-.553.77.77 0 0 0 .251-.461 1.718 1.718 0 0 0-.153-.868.668.668 0 0 0-.244-.339.518.518 0 0 0-.271-.063h-.063a3.087 3.087 0 0 0-.6.11l-.1.031-.053.014c-.167.046-.383.1-.584.141z" class="cls-3" transform="translate(138.475 92.738)"/>
            <path id="Shape-24" d="M2.186 4.738a2.184 2.184 0 0 1-.544-.066A1.827 1.827 0 0 1 .639 4 3.881 3.881 0 0 1 0 1.811a.519.519 0 0 1 .107-.349c.018-.02.037-.046.055-.07A3.368 3.368 0 0 1 1.705.094 1.615 1.615 0 0 1 2.255 0a2.008 2.008 0 0 1 .973.263 1.734 1.734 0 0 1 .906 1.346c.012.144.034.288.063.455L4.2 2.1c.011.063.021.132.031.2a4.17 4.17 0 0 1 .054.823 1.593 1.593 0 0 1-.3.888 1.674 1.674 0 0 1-.92.59 3.24 3.24 0 0 1-.884.136zm.07-3.686a.536.536 0 0 0-.184.029 2.217 2.217 0 0 0-1.006.862 2.748 2.748 0 0 0 .408 1.416.766.766 0 0 0 .433.292 1.093 1.093 0 0 0 .279.033 2.253 2.253 0 0 0 .6-.094.676.676 0 0 0 .363-.205.568.568 0 0 0 .093-.322 3.052 3.052 0 0 0-.046-.608l-.025-.166V2.25c-.031-.176-.06-.373-.074-.557a.682.682 0 0 0-.376-.513.948.948 0 0 0-.458-.127z" class="cls-3" transform="translate(137.815 127.295)"/>
            <path id="Shape-25" d="M2.085 4.633a1.686 1.686 0 0 1-1-.362 2.721 2.721 0 0 1-.931-1.082 1.8 1.8 0 0 1-.091-1.205A3.877 3.877 0 0 1 1.4.133.531.531 0 0 1 1.738 0h.314A3.118 3.118 0 0 1 3.8.421a1.858 1.858 0 0 1 .806 1.3 1.729 1.729 0 0 1-.5 1.542c-.1.091-.2.192-.3.3l-.048.052c-.053.058-.1.106-.141.152a4.2 4.2 0 0 1-.611.55 1.619 1.619 0 0 1-.885.313zm-.143-3.579l-.236 2.367a.693.693 0 0 0 .38.16h.009a.592.592 0 0 0 .305-.126 3.035 3.035 0 0 0 .45-.41l.028-.029.045-.048.044-.047.026-.021.02-.021c.117-.125.251-.264.381-.384a.673.673 0 0 0 .172-.611.832.832 0 0 0-.318-.564 2.086 2.086 0 0 0-1.235-.263h-.071a2.716 2.716 0 0 0-.863 1.191.764.764 0 0 0 .036.522 1.707 1.707 0 0 0 .588.651z" class="cls-3" transform="translate(132.815 141.668)"/>
            <path id="Shape-26" d="M2.921 4.2a1.6 1.6 0 0 1-.237-.018c-.16-.023-.33-.035-.49-.046l-.073-.006-.133-.009a4.164 4.164 0 0 1-.814-.131 1.6 1.6 0 0 1-.8-.492 1.677 1.677 0 0 1-.368-1.032 2.729 2.729 0 0 1 .255-1.408A1.809 1.809 0 0 1 1.14.23 2.936 2.936 0 0 1 2.357 0a6.12 6.12 0 0 1 1.061.1.525.525 0 0 1 .313.184l.028.034.028.034a3.389 3.389 0 0 1 .918 1.798A1.852 1.852 0 0 1 4.2 3.6a1.757 1.757 0 0 1-1.277.6zm-.564-3.148a1.912 1.912 0 0 0-.779.135.772.772 0 0 0-.385.358 1.725 1.725 0 0 0-.137.868.681.681 0 0 0 .122.4.606.606 0 0 0 .293.162 3.057 3.057 0 0 0 .6.09l.115.009H2.299c.17.013.363.028.541.054a.513.513 0 0 0 .072.005.715.715 0 0 0 .512-.256.821.821 0 0 0 .238-.6 2.211 2.211 0 0 0-.615-1.176 4.721 4.721 0 0 0-.693-.056z" class="cls-3" transform="translate(110.843 135.056)"/>
            <path id="Shape-27" d="M2.463 4.7a1.356 1.356 0 0 1-.163 0 1.735 1.735 0 0 1-1.39-.837C.835 3.731.75 3.6.645 3.447L.6 3.377l-.067-.1a3.925 3.925 0 0 1-.4-.72 1.588 1.588 0 0 1-.1-.932A1.683 1.683 0 0 1 .612.7 2.724 2.724 0 0 1 1.879.031 1.887 1.887 0 0 1 2.213 0a1.851 1.851 0 0 1 .856.214 3.878 3.878 0 0 1 1.5 1.719.518.518 0 0 1 .048.359l-.017.09a3.351 3.351 0 0 1-.849 1.824 1.819 1.819 0 0 1-1.288.494zM1.3 1.493a.685.685 0 0 0-.242.342.609.609 0 0 0 .053.33 3.109 3.109 0 0 0 .3.53l.018.027.028.041.049.071.048.073c.089.135.188.287.273.436a.681.681 0 0 0 .558.307h.075A.789.789 0 0 0 3 3.462a2.211 2.211 0 0 0 .55-1.2 2.764 2.764 0 0 0-.968-1.109.8.8 0 0 0-.371-.1.818.818 0 0 0-.148.013 1.71 1.71 0 0 0-.768.427l2.222.752L1.3 1.493z" class="cls-3" transform="translate(99.217 128.337)"/>
            <path id="Shape-28" d="M1.9 4.7c-.089 0-.18 0-.271-.013a1.855 1.855 0 0 1-1.3-.818 1.732 1.732 0 0 1-.22-1.612c.056-.142.1-.287.152-.455v-.009l.024-.08.036-.117A4.287 4.287 0 0 1 .634.831a1.6 1.6 0 0 1 .659-.666A1.539 1.539 0 0 1 2 0a2.134 2.134 0 0 1 .38.034A2.755 2.755 0 0 1 3.7.6a1.83 1.83 0 0 1 .61 1.043 3.884 3.884 0 0 1-.389 2.251.53.53 0 0 1-.251.265l-.016.008-.063.032A3.6 3.6 0 0 1 1.9 4.7zM2 1.053a.457.457 0 0 0-.222.047.564.564 0 0 0-.223.251 3.027 3.027 0 0 0-.225.564l-.051.16-.016.053c-.051.165-.108.352-.175.519a.672.672 0 0 0 .113.627.827.827 0 0 0 .532.368c.059.006.117.009.174.009a2.42 2.42 0 0 0 1.112-.343 2.745 2.745 0 0 0 .255-1.451.769.769 0 0 0-.262-.457 1.729 1.729 0 0 0-.812-.324 1.123 1.123 0 0 0-.2-.024z" class="cls-3" transform="translate(105.621 100.505)"/>
            <path id="Shape-29" d="M2.144 4.51a.52.52 0 0 1-.227-.051L1.88 4.44l-.04-.019A3.361 3.361 0 0 1 .251 3.182 1.843 1.843 0 0 1 .1 1.655 1.733 1.733 0 0 1 1.223.489c.145-.045.291-.1.465-.166l.085-.032.107-.04a4.119 4.119 0 0 1 .8-.226A1.969 1.969 0 0 1 2.979 0a1.483 1.483 0 0 1 .626.132 1.678 1.678 0 0 1 .769.776 2.737 2.737 0 0 1 .366 1.379 1.819 1.819 0 0 1-.448 1.123 3.877 3.877 0 0 1-2.011 1.08.55.55 0 0 1-.137.02zm.83-3.457a1.015 1.015 0 0 0-.142.011 3.151 3.151 0 0 0-.584.172l-.048.018-.033.012-.027.01-.046.018c-.184.071-.381.145-.57.2a.674.674 0 0 0-.423.473.827.827 0 0 0 .038.648 2.216 2.216 0 0 0 1.056.807 2.756 2.756 0 0 0 1.3-.69.786.786 0 0 0 .2-.486 1.726 1.726 0 0 0-.249-.846.654.654 0 0 0-.278-.313.454.454 0 0 0-.194-.034z" class="cls-3" transform="translate(123.57 94.905)"/>
            <path id="Shape-30" d="M2.143 4.51a.518.518 0 0 1-.226-.051l-.08-.038A3.347 3.347 0 0 1 .251 3.18 1.839 1.839 0 0 1 .1 1.655 1.731 1.731 0 0 1 1.223.488C1.365.444 1.5.392 1.67.33l.019-.006L1.754.3 1.88.251a4.14 4.14 0 0 1 .793-.226A2 2 0 0 1 2.978 0 1.485 1.485 0 0 1 3.6.132a1.678 1.678 0 0 1 .769.776 2.739 2.739 0 0 1 .364 1.379 1.81 1.81 0 0 1-.441 1.123 3.883 3.883 0 0 1-2.013 1.082.533.533 0 0 1-.136.018zm.832-3.458a1.011 1.011 0 0 0-.143.011 2.987 2.987 0 0 0-.584.172l-.048.019-.11.046h-.015c-.172.066-.367.141-.551.194a.667.667 0 0 0-.423.473.816.816 0 0 0 .038.648 2.2 2.2 0 0 0 1.054.807 2.74 2.74 0 0 0 1.3-.69.778.778 0 0 0 .2-.486 1.724 1.724 0 0 0-.247-.846.689.689 0 0 0-.279-.313.464.464 0 0 0-.191-.035z" class="cls-3" transform="translate(122.489 122.969)"/>
            <path id="Shape-31" d="M2.147 4.509a.547.547 0 0 1-.23-.051l-.044-.022-.036-.018A3.35 3.35 0 0 1 .251 3.18 1.843 1.843 0 0 1 .1 1.655 1.729 1.729 0 0 1 1.223.488c.136-.041.267-.09.42-.147l.046-.017.084-.033.107-.04a4.01 4.01 0 0 1 .793-.226A2 2 0 0 1 2.978 0 1.485 1.485 0 0 1 3.6.132a1.668 1.668 0 0 1 .769.776 2.739 2.739 0 0 1 .369 1.382 1.811 1.811 0 0 1-.446 1.123 3.9 3.9 0 0 1-2.011 1.08.536.536 0 0 1-.134.016zm.828-3.458a.958.958 0 0 0-.143.013 2.976 2.976 0 0 0-.584.172l-.105.039h-.008l-.043.016c-.157.063-.376.142-.569.2a.684.684 0 0 0-.423.476.822.822 0 0 0 .038.646 2.218 2.218 0 0 0 1.056.81 2.738 2.738 0 0 0 1.3-.694.778.778 0 0 0 .2-.486 1.714 1.714 0 0 0-.248-.843.689.689 0 0 0-.278-.313.482.482 0 0 0-.193-.036z" class="cls-3" transform="translate(114.226 115.233)"/>
            <path id="Shape-32" d="M2.456 4.664a1.878 1.878 0 0 1-.626-.11A3.9 3.9 0 0 1 .1 3.062a.541.541 0 0 1-.1-.35.159.159 0 0 1 0-.042.3.3 0 0 0 0-.049A3.387 3.387 0 0 1 .6.693 1.857 1.857 0 0 1 1.966 0h.122a1.7 1.7 0 0 1 1.371.639c.091.118.188.231.322.376l.088.1.049.055a4.18 4.18 0 0 1 .494.658 1.6 1.6 0 0 1 .234.907 1.675 1.675 0 0 1-.449 1 2.739 2.739 0 0 1-1.161.836 1.831 1.831 0 0 1-.58.093zm-.362-3.613h-.062a.828.828 0 0 0-.591.267A2.229 2.229 0 0 0 1.065 2.6a2.742 2.742 0 0 0 1.114.965.824.824 0 0 0 .279.051.762.762 0 0 0 .242-.042 1.724 1.724 0 0 0 .7-.53.684.684 0 0 0 .2-.376.6.6 0 0 0-.1-.319 3.284 3.284 0 0 0-.37-.484c-.034-.035-.071-.077-.111-.125-.139-.154-.273-.306-.392-.459a.657.657 0 0 0-.532-.229z" class="cls-3" transform="translate(168.309 125.649)"/>
            <path id="Shape-33" d="M2.193 4.739a2.124 2.124 0 0 1-.5-.058 1.81 1.81 0 0 1-1.016-.652A3.858 3.858 0 0 1 0 1.848.534.534 0 0 1 .1 1.5a.236.236 0 0 0 .03-.038l.025-.033A3.35 3.35 0 0 1 1.676.1a1.623 1.623 0 0 1 .579-.1A2.021 2.021 0 0 1 3.2.246a1.732 1.732 0 0 1 .931 1.329c.015.159.045.326.074.488l.013.08c.007.04.014.081.02.125a4.035 4.035 0 0 1 .071.821 1.578 1.578 0 0 1-.286.892 1.665 1.665 0 0 1-.908.606 3.192 3.192 0 0 1-.926.152zm.067-3.688a.577.577 0 0 0-.2.033 2.227 2.227 0 0 0-.993.882A2.733 2.733 0 0 0 1.5 3.373a.77.77 0 0 0 .438.286 1.084 1.084 0 0 0 .254.028 2.2 2.2 0 0 0 .621-.105.663.663 0 0 0 .36-.214.585.585 0 0 0 .085-.322 3.074 3.074 0 0 0-.058-.607V2.35c0-.026-.009-.051-.013-.077-.035-.2-.07-.4-.088-.595a.675.675 0 0 0-.383-.507.949.949 0 0 0-.447-.118z" class="cls-3" transform="translate(154.44 153.257)"/>
            <path id="Shape-34" d="M2.31 4.687a2.017 2.017 0 0 1-.557-.087 2.749 2.749 0 0 1-1.245-.7 1.829 1.829 0 0 1-.5-1.1A3.889 3.889 0 0 1 .632.607.53.53 0 0 1 .907.369h.006L.991.337A4.006 4.006 0 0 1 2.442 0a2.732 2.732 0 0 1 .544.056 1.856 1.856 0 0 1 1.2.951 1.737 1.737 0 0 1 .054 1.622c-.059.113-.112.235-.167.364l-.036.085-.067.157-.015.034a4.133 4.133 0 0 1-.39.725 1.62 1.62 0 0 1-.724.6 1.465 1.465 0 0 1-.531.093zm-.634-2.55l.37 1.454a.978.978 0 0 0 .262.043.421.421 0 0 0 .155-.026.588.588 0 0 0 .251-.223A3.1 3.1 0 0 0 3 2.845l.018-.045v-.008c.015-.033.029-.063.044-.1.076-.183.16-.376.251-.547a.681.681 0 0 0-.046-.633.831.831 0 0 0-.492-.423 1.652 1.652 0 0 0-.332-.036 2.86 2.86 0 0 0-.981.235A2.739 2.739 0 0 0 1.056 2.7a.786.786 0 0 0 .212.48 1.729 1.729 0 0 0 .776.411l-.369-1.453z" class="cls-3" transform="translate(136.97 167.365)"/>
            <path id="Shape-35" d="M1.907 4.636a1.4 1.4 0 0 1-.284-.029A1.682 1.682 0 0 1 .7 4.024a2.748 2.748 0 0 1-.669-1.266 1.831 1.831 0 0 1 .183-1.191A3.874 3.874 0 0 1 1.932.063.517.517 0 0 1 2.176 0a.526.526 0 0 1 .116.013l.088.018a3.359 3.359 0 0 1 1.826.85A1.848 1.848 0 0 1 4.7 2.333a1.733 1.733 0 0 1-.834 1.39c-.139.08-.276.172-.417.267l-.063.04-.114.07a3.931 3.931 0 0 1-.719.4 1.753 1.753 0 0 1-.646.134zm.351-3.555a2.742 2.742 0 0 0-1.111.967.758.758 0 0 0-.081.517 1.707 1.707 0 0 0 .427.768.661.661 0 0 0 .343.239.337.337 0 0 0 .073.008.721.721 0 0 0 .257-.058 3.069 3.069 0 0 0 .528-.3c.038-.025.088-.059.138-.095l.091-.06c.137-.09.279-.184.418-.263a.678.678 0 0 0 .309-.557.831.831 0 0 0-.183-.621 2.2 2.2 0 0 0-1.209-.549z" class="cls-3" transform="translate(109.71 169.166)"/>
            <path id="Shape-36" d="M1.908 4.636a1.421 1.421 0 0 1-.286-.029A1.671 1.671 0 0 1 .7 4.024a2.727 2.727 0 0 1-.669-1.266 1.815 1.815 0 0 1 .184-1.191A3.885 3.885 0 0 1 1.931.063a.525.525 0 0 1 .361-.05l.088.018a3.363 3.363 0 0 1 1.827.85A1.855 1.855 0 0 1 4.7 2.335a1.733 1.733 0 0 1-.834 1.391c-.137.076-.266.163-.416.265l-.063.04-.113.069a4.089 4.089 0 0 1-.722.4 1.749 1.749 0 0 1-.644.132zm.347-3.555a2.753 2.753 0 0 0-1.106.968.762.762 0 0 0-.082.517 1.716 1.716 0 0 0 .427.77.689.689 0 0 0 .341.243.4.4 0 0 0 .07.006.716.716 0 0 0 .261-.06 3.158 3.158 0 0 0 .532-.3l.138-.095.033-.022c.162-.108.321-.213.476-.3a.683.683 0 0 0 .307-.557.838.838 0 0 0-.183-.623 2.246 2.246 0 0 0-1.214-.549z" class="cls-3" transform="translate(119.124 176.471)"/>
            <path id="Shape-37" d="M2.951 4.156h-.1c-.076 0-.157-.006-.258-.006h-.534a3.838 3.838 0 0 1-.726-.055A1.594 1.594 0 0 1 .5 3.673a1.673 1.673 0 0 1-.458-.992 2.72 2.72 0 0 1 .13-1.426 1.834 1.834 0 0 1 .8-.9A3.325 3.325 0 0 1 2.606 0c.2 0 .4.009.626.029a.519.519 0 0 1 .328.16l.063.063a3.358 3.358 0 0 1 1.069 1.704 1.85 1.85 0 0 1-.376 1.485 1.725 1.725 0 0 1-1.365.715zM2.563 3.1c.143 0 .257 0 .356.008h.031a.681.681 0 0 0 .528-.3.815.815 0 0 0 .188-.621 2.194 2.194 0 0 0-.721-1.118c-.114-.007-.229-.011-.341-.011a2.321 2.321 0 0 0-1.116.217.778.778 0 0 0-.351.389 1.705 1.705 0 0 0-.06.878.652.652 0 0 0 .154.391.583.583 0 0 0 .305.137 2.643 2.643 0 0 0 .524.03h.252z" class="cls-3" transform="translate(85.892 156.225)"/>
            <path id="Shape-38" d="M2.724 4.518a1.585 1.585 0 0 1-.94-.3c-.115-.081-.235-.155-.376-.241l-.04-.024-.178-.104a4.184 4.184 0 0 1-.664-.484 1.612 1.612 0 0 1-.488-.8 1.678 1.678 0 0 1 .136-1.084A2.724 2.724 0 0 1 1.041.342 1.812 1.812 0 0 1 2.114 0H2.2a3.905 3.905 0 0 1 2.089.922.538.538 0 0 1 .2.307l.019.087v.013a3.352 3.352 0 0 1 0 2A1.855 1.855 0 0 1 3.4 4.392a1.941 1.941 0 0 1-.675.125zm-.613-3.466a.766.766 0 0 0-.46.144 1.744 1.744 0 0 0-.515.712.676.676 0 0 0-.076.413.585.585 0 0 0 .188.278 3.069 3.069 0 0 0 .5.354c.024.016.051.032.08.049l.063.039.042.025.013.006c.144.088.308.188.452.29a.572.572 0 0 0 .336.1.848.848 0 0 0 .3-.06.831.831 0 0 0 .486-.429 2.19 2.19 0 0 0-.02-1.325 2.719 2.719 0 0 0-1.345-.594z" class="cls-3" transform="translate(66.494 147.085)"/>
            <path id="Shape-39" d="M2.726 4.514a1.606 1.606 0 0 1-.94-.295c-.125-.089-.257-.169-.41-.261h-.007l-.076-.047c-.033-.02-.066-.04-.1-.063a4.013 4.013 0 0 1-.666-.481 1.621 1.621 0 0 1-.49-.8 1.678 1.678 0 0 1 .14-1.085A2.735 2.735 0 0 1 1.041.341 1.8 1.8 0 0 1 2.1 0h.1a3.89 3.89 0 0 1 2.089.922.53.53 0 0 1 .2.307l.019.088a3.352 3.352 0 0 1 0 2.013A1.854 1.854 0 0 1 3.4 4.392a1.941 1.941 0 0 1-.674.122zm-.614-3.463a.756.756 0 0 0-.459.147 1.693 1.693 0 0 0-.517.71.682.682 0 0 0-.071.413.573.573 0 0 0 .188.278 2.99 2.99 0 0 0 .494.355c.048.03.1.059.143.087.16.1.344.208.509.324a.563.563 0 0 0 .334.1.847.847 0 0 0 .3-.06.821.821 0 0 0 .488-.427 2.24 2.24 0 0 0-.014-1.329 2.766 2.766 0 0 0-1.346-.6z" class="cls-3" transform="translate(74.23 138.824)"/>
            <path id="Shape-40" d="M2.35 4.731a2.073 2.073 0 0 1-.444-.048A1.73 1.73 0 0 1 .647 3.66C.593 3.531.53 3.393.439 3.212A.725.725 0 0 0 .4 3.135l-.048-.11a4 4 0 0 1-.294-.768 1.613 1.613 0 0 1 .025-.94A1.677 1.677 0 0 1 .79.486 2.72 2.72 0 0 1 2.136 0h.091a1.806 1.806 0 0 1 1.064.349 3.865 3.865 0 0 1 1.251 1.908.534.534 0 0 1 0 .364l-.016.042-.016.042a3.377 3.377 0 0 1-1.1 1.69 1.761 1.761 0 0 1-1.064.336zm-.129-3.68h-.038a1.708 1.708 0 0 0-.821.313.681.681 0 0 0-.288.307A.587.587 0 0 0 1.08 2a3.026 3.026 0 0 0 .221.567l.025.051.013.025.018.038.019.038c.087.178.178.367.251.547a.671.671 0 0 0 .509.381 1.023 1.023 0 0 0 .218.024.732.732 0 0 0 .423-.118 2.231 2.231 0 0 0 .71-1.115 2.756 2.756 0 0 0-.8-1.235.766.766 0 0 0-.462-.155z" class="cls-3" transform="translate(72.399 114.405)"/>
            <path id="Shape-41" d="M2.351 4.733a2.066 2.066 0 0 1-.445-.048A1.738 1.738 0 0 1 .645 3.662c-.051-.13-.112-.255-.181-.4l-.025-.048C.422 3.176.4 3.135.383 3.1L.35 3.027a4.15 4.15 0 0 1-.293-.77 1.6 1.6 0 0 1 .025-.936A1.677 1.677 0 0 1 .79.486 2.719 2.719 0 0 1 2.134 0h.081a1.832 1.832 0 0 1 1.077.349 3.914 3.914 0 0 1 1.25 1.908.537.537 0 0 1 0 .366l-.016.041-.016.043A3.389 3.389 0 0 1 3.414 4.4a1.757 1.757 0 0 1-1.063.333zm-.132-3.68H2.18a1.72 1.72 0 0 0-.82.313.67.67 0 0 0-.286.305.587.587 0 0 0 0 .335 3.319 3.319 0 0 0 .223.567l.074.152.023.048c.075.155.159.33.224.5a.674.674 0 0 0 .507.381 1.007 1.007 0 0 0 .217.024.739.739 0 0 0 .425-.118 2.229 2.229 0 0 0 .72-1.12 2.759 2.759 0 0 0-.8-1.233.769.769 0 0 0-.464-.154z" class="cls-3" transform="translate(71.941 100.406)"/>
            <path id="Shape-42" d="M1.843 4.713a1.9 1.9 0 0 1-1.31-.584 1.732 1.732 0 0 1-.5-1.543C.062 2.433.081 2.28.1 2.1l.006-.051.021-.155a4.07 4.07 0 0 1 .172-.8 1.6 1.6 0 0 1 .536-.78A1.663 1.663 0 0 1 1.869 0h.013a2.714 2.714 0 0 1 1.39.326 1.818 1.818 0 0 1 .783.922 3.88 3.88 0 0 1 .008 2.282.529.529 0 0 1-.2.3l-.07.054a3.371 3.371 0 0 1-1.84.821c-.04.007-.075.008-.11.008zm.036-3.661a.684.684 0 0 0-.408.1.579.579 0 0 0-.177.285 2.9 2.9 0 0 0-.122.6c0 .023-.007.048-.01.073v.025a.261.261 0 0 1-.005.037v.068c-.022.177-.046.376-.084.564a.677.677 0 0 0 .219.6.854.854 0 0 0 .564.27h.014a2.23 2.23 0 0 0 1.21-.554 2.739 2.739 0 0 0 0-1.472.765.765 0 0 0-.336-.4 1.731 1.731 0 0 0-.866-.196z" class="cls-3" transform="translate(91.609 83.291)"/>
            <path id="Shape-43" d="M2.335 4.634A2.841 2.841 0 0 1 .916 4.3a1.847 1.847 0 0 1-.875-1.26 1.734 1.734 0 0 1 .42-1.57c.117-.12.227-.251.328-.37L.922.94A4.061 4.061 0 0 1 1.5.362 1.614 1.614 0 0 1 2.373 0a1.008 1.008 0 0 1 .106 0 1.741 1.741 0 0 1 .943.309 2.713 2.713 0 0 1 .989 1.033 1.83 1.83 0 0 1 .153 1.2 3.87 3.87 0 0 1-1.236 1.917.536.536 0 0 1-.335.147H2.9c-.185.016-.374.028-.565.028zm.138-3.583h-.022a.59.59 0 0 0-.3.141 3.192 3.192 0 0 0-.427.435l-.039.046-.07.082c-.12.142-.261.307-.4.448a.681.681 0 0 0-.141.62.826.826 0 0 0 .347.547 1.767 1.767 0 0 0 .911.208c.131 0 .271-.007.4-.014a2.751 2.751 0 0 0 .8-1.235.794.794 0 0 0-.063-.522 1.735 1.735 0 0 0-.623-.621.728.728 0 0 0-.378-.136z" class="cls-3" transform="translate(116.892 73.839)"/>
            <path id="Shape-44" d="M2.056 4.464A.531.531 0 0 1 1.8 4.4l-.039-.022-.039-.022A3.353 3.353 0 0 1 .2 3.035 1.857 1.857 0 0 1 .129 1.5 1.735 1.735 0 0 1 1.316.4c.145-.034.286-.08.45-.132l.025-.01c.056-.02.12-.041.2-.063a4.165 4.165 0 0 1 .8-.188C2.86 0 2.928 0 2.994 0a1.529 1.529 0 0 1 .719.167 1.674 1.674 0 0 1 .728.815 2.733 2.733 0 0 1 .293 1.4 1.823 1.823 0 0 1-.5 1.1 3.9 3.9 0 0 1-2.067.972.529.529 0 0 1-.111.01zM3 1.052a.972.972 0 0 0-.1.006 3 3 0 0 0-.6.142l-.093.029h-.016l-.054.017c-.2.063-.393.125-.578.171a.678.678 0 0 0-.448.452.816.816 0 0 0 0 .648 2.2 2.2 0 0 0 1.019.863 2.732 2.732 0 0 0 1.335-.621.769.769 0 0 0 .221-.476 1.728 1.728 0 0 0-.2-.856.678.678 0 0 0-.26-.327A.486.486 0 0 0 3 1.052z" class="cls-3" transform="translate(135.76 76.117)"/>
            <path id="Shape-45" d="M2.5 4.586a1.971 1.971 0 0 1-.323-.027 3.889 3.889 0 0 1-1.96-1.17.523.523 0 0 1-.158-.328.156.156 0 0 0 0-.045v-.045a3.374 3.374 0 0 1 .244-2A1.857 1.857 0 0 1 1.519.055 1.957 1.957 0 0 1 1.98 0 1.639 1.639 0 0 1 3.1.421c.1.09.2.175.319.266l.063.048.08.065.08.063a4.1 4.1 0 0 1 .6.564 1.583 1.583 0 0 1 .387.854 1.674 1.674 0 0 1-.269 1.06 2.739 2.739 0 0 1-1 1.024 1.8 1.8 0 0 1-.87.223zm-.523-3.535a.9.9 0 0 0-.212.026.826.826 0 0 0-.534.366 2.222 2.222 0 0 0-.148 1.321 2.756 2.756 0 0 0 1.262.757.939.939 0 0 0 .15.013.744.744 0 0 0 .367-.094 1.721 1.721 0 0 0 .6-.644.674.674 0 0 0 .125-.4.585.585 0 0 0-.152-.3 2.877 2.877 0 0 0-.448-.412c-.042-.034-.086-.07-.133-.105l-.042-.033c-.135-.106-.287-.226-.42-.347a.6.6 0 0 0-.417-.149z" class="cls-3" transform="translate(202.438 123.193)"/>
            <path id="Shape-46" d="M2.392 4.721a1.836 1.836 0 0 1-.968-.279A3.877 3.877 0 0 1 .046 2.624a.529.529 0 0 1-.023-.364l.014-.046.012-.039A3.353 3.353 0 0 1 1.023.412 1.778 1.778 0 0 1 2.2 0a2.048 2.048 0 0 1 .3.023 1.725 1.725 0 0 1 1.333.931c.053.109.115.218.18.334l.056.1c.033.056.067.115.1.179a4.155 4.155 0 0 1 .346.747 1.593 1.593 0 0 1 .04.936 1.693 1.693 0 0 1-.646.884 2.759 2.759 0 0 1-1.308.576 1.906 1.906 0 0 1-.209.011zM2.2 1.051a.774.774 0 0 0-.485.149 2.224 2.224 0 0 0-.629 1.17 2.744 2.744 0 0 0 .888 1.176.791.791 0 0 0 .419.125.865.865 0 0 0 .093-.005 1.722 1.722 0 0 0 .794-.375.661.661 0 0 0 .265-.326.582.582 0 0 0-.027-.332 3.154 3.154 0 0 0-.261-.549l-.044-.077V2l-.038-.067c-.089-.154-.2-.345-.288-.529a.673.673 0 0 0-.534-.345 1 1 0 0 0-.153-.008z" class="cls-3" transform="translate(201.166 152.789)"/>
            <path id="Shape-47" d="M2.169 4.736a2.2 2.2 0 0 1-.626-.087 1.829 1.829 0 0 1-.982-.7A3.911 3.911 0 0 1 0 1.732a.525.525 0 0 1 .12-.345l.057-.071.007-.006A3.357 3.357 0 0 1 1.766.076 1.582 1.582 0 0 1 2.256 0a2 2 0 0 1 1.027.3 1.732 1.732 0 0 1 .86 1.379c.006.159.026.321.046.492l.025.206a4.162 4.162 0 0 1 .028.819 1.6 1.6 0 0 1-.33.878 1.68 1.68 0 0 1-.94.56 3.436 3.436 0 0 1-.8.1zm.092-3.684a.518.518 0 0 0-.163.024 2.209 2.209 0 0 0-1.039.824 2.736 2.736 0 0 0 .358 1.428.769.769 0 0 0 .425.307 1.152 1.152 0 0 0 .33.044 2.312 2.312 0 0 0 .547-.075.668.668 0 0 0 .372-.195A.592.592 0 0 0 3.2 3.1a3.082 3.082 0 0 0-.025-.608l-.016-.147v-.024c-.02-.167-.048-.394-.06-.6a.675.675 0 0 0-.361-.53.921.921 0 0 0-.476-.139z" class="cls-3" transform="translate(196.046 175.516)"/>
            <path id="Shape-48" d="M2.352 4.7a2.191 2.191 0 0 1-.313-.023 2.712 2.712 0 0 1-1.333-.516A1.814 1.814 0 0 1 .06 3.14 3.89 3.89 0 0 1 .374.878.526.526 0 0 1 .612.6C.639.589.667.574.69.56A3.506 3.506 0 0 1 2.451 0c.058 0 .115 0 .177.006A1.846 1.846 0 0 1 3.95.777a1.729 1.729 0 0 1 .282 1.6c-.051.147-.093.3-.138.473l-.032.11-.025.089a4.069 4.069 0 0 1-.281.772 1.6 1.6 0 0 1-.635.693 1.554 1.554 0 0 1-.769.188zm.088-3.651a2.344 2.344 0 0 0-1.156.382 2.766 2.766 0 0 0-.2 1.459.779.779 0 0 0 .278.444 1.734 1.734 0 0 0 .832.3 1.221 1.221 0 0 0 .167.013.485.485 0 0 0 .251-.055.592.592 0 0 0 .217-.255 3.087 3.087 0 0 0 .2-.574l.044-.162.019-.07c.046-.169.094-.343.153-.509a.677.677 0 0 0-.134-.62.824.824 0 0 0-.547-.349l-.123-.002z" class="cls-3" transform="translate(167.071 199.949)"/>
            <path id="Shape-49" d="M2.156 4.639a1.771 1.771 0 0 1-.909-.276 2.723 2.723 0 0 1-1.024-1 1.819 1.819 0 0 1-.2-1.191A3.868 3.868 0 0 1 1.2.213a.525.525 0 0 1 .325-.159.629.629 0 0 0 .088-.009h.005C1.847.023 2.084 0 2.327 0a2.774 2.774 0 0 1 1.286.291A1.856 1.856 0 0 1 4.53 1.52a1.734 1.734 0 0 1-.366 1.58c-.095.1-.18.211-.279.337l-.035.044-.087.111-.041.053a4.131 4.131 0 0 1-.564.6 1.606 1.606 0 0 1-.852.389 1.431 1.431 0 0 1-.15.006zm-.335-3.557l-.033 2.382a.757.757 0 0 0 .363.125h.037a.585.585 0 0 0 .3-.152A3.079 3.079 0 0 0 2.9 2.99l.024-.031.011-.014.019-.024L3 2.857l.038-.048c.1-.125.221-.282.345-.416a.683.683 0 0 0 .12-.627.827.827 0 0 0-.366-.534 1.661 1.661 0 0 0-.8-.179c-.156 0-.32.012-.52.031a2.759 2.759 0 0 0-.755 1.263.774.774 0 0 0 .082.517 1.733 1.733 0 0 0 .642.6z" class="cls-3" transform="translate(139.089 210.29)"/>
            <path id="Shape-50" d="M1.858 4.612a1.433 1.433 0 0 1-.386-.053 1.691 1.691 0 0 1-.883-.646A2.76 2.76 0 0 1 .012 2.6a1.819 1.819 0 0 1 .267-1.18A3.87 3.87 0 0 1 2.1.046a.526.526 0 0 1 .361-.024l.086.025a3.366 3.366 0 0 1 1.762.976A1.854 1.854 0 0 1 4.7 2.508a1.735 1.735 0 0 1-.931 1.329c-.138.066-.273.142-.433.235l-.1.058-.075.043a4.123 4.123 0 0 1-.747.347 1.776 1.776 0 0 1-.549.092zm.494-3.525a2.767 2.767 0 0 0-1.176.887.777.777 0 0 0-.118.511 1.725 1.725 0 0 0 .371.794.7.7 0 0 0 .324.268.383.383 0 0 0 .1.013.8.8 0 0 0 .234-.042 3.127 3.127 0 0 0 .549-.261l.071-.041.076-.043c.179-.1.355-.2.53-.288a.674.674 0 0 0 .347-.535.819.819 0 0 0-.141-.631 2.192 2.192 0 0 0-1.167-.633z" class="cls-3" transform="translate(109.356 209.015)"/>
            <path id="Shape-51" d="M1.8 4.251c-.09 0-.177 0-.257-.012a1.6 1.6 0 0 1-.877-.328 1.679 1.679 0 0 1-.56-.94 2.721 2.721 0 0 1-.019-1.43 1.818 1.818 0 0 1 .7-.98A3.889 3.889 0 0 1 3.007 0h.009a.525.525 0 0 1 .335.12c.021.019.044.038.068.056A3.338 3.338 0 0 1 4.66 1.764a1.854 1.854 0 0 1-.221 1.515 1.734 1.734 0 0 1-1.377.856c-.158.009-.327.029-.49.048l-.116.017-.091.01a4.927 4.927 0 0 1-.566.04zm1.033-3.194L1.128 2.719a.667.667 0 0 0 .2.37.6.6 0 0 0 .318.1c.043 0 .09.006.144.006a4.154 4.154 0 0 0 .464-.033.827.827 0 0 0 .086-.009h.01l.072-.009h.011c.173-.021.389-.048.589-.055a.677.677 0 0 0 .526-.358.823.823 0 0 0 .12-.638 2.221 2.221 0 0 0-.831-1.04 2.749 2.749 0 0 0-1.437.363.772.772 0 0 0-.309.423 1.738 1.738 0 0 0 .031.878z" class="cls-3" transform="translate(82.403 196.699)"/>
            <path id="Shape-52" d="M2.851 4.326a1.559 1.559 0 0 1-.526-.092c-.147-.05-.3-.092-.473-.139l-.1-.028-.1-.028a4.083 4.083 0 0 1-.777-.282 1.59 1.59 0 0 1-.689-.634 1.676 1.676 0 0 1-.162-1.082A2.7 2.7 0 0 1 .542.71a1.8 1.8 0 0 1 1.02-.647A2.415 2.415 0 0 1 2.13 0a4.789 4.789 0 0 1 1.692.376.529.529 0 0 1 .278.24l.029.057.01.027A3.344 3.344 0 0 1 4.7 2.629a1.854 1.854 0 0 1-.775 1.325 1.826 1.826 0 0 1-1.073.372zM2.13 1.052a1.388 1.388 0 0 0-.323.035.774.774 0 0 0-.444.278 1.713 1.713 0 0 0-.3.826.657.657 0 0 0 .042.416.576.576 0 0 0 .255.215 2.98 2.98 0 0 0 .574.2c.047.014.1.028.162.044h.015c.178.05.379.105.564.169a.543.543 0 0 0 .177.029.758.758 0 0 0 .448-.155.825.825 0 0 0 .35-.545 2.206 2.206 0 0 0-.377-1.274 3.564 3.564 0 0 0-1.143-.238z" class="cls-3" transform="translate(62.216 174.92)"/>
            <path id="Shape-53" d="M2.661 4.585a1.632 1.632 0 0 1-1.12-.422c-.12-.107-.254-.213-.381-.313L1 3.725a4 4 0 0 1-.6-.564 1.617 1.617 0 0 1-.386-.854 1.69 1.69 0 0 1 .263-1.059 2.736 2.736 0 0 1 1-1.026A1.8 1.8 0 0 1 2.14 0a1.95 1.95 0 0 1 .327.028A3.888 3.888 0 0 1 4.427 1.2a.524.524 0 0 1 .158.329c0 .026.006.051.008.078v.012a3.333 3.333 0 0 1-.244 2 1.843 1.843 0 0 1-1.228.917 1.954 1.954 0 0 1-.46.056zm-.518-3.533a.747.747 0 0 0-.366.1 1.707 1.707 0 0 0-.6.644.66.66 0 0 0-.125.4.6.6 0 0 0 .151.3 3.151 3.151 0 0 0 .448.413c.027.019.054.041.08.063l.053.041c.14.11.313.247.465.384a.592.592 0 0 0 .409.145.909.909 0 0 0 .215-.027.81.81 0 0 0 .534-.365 2.187 2.187 0 0 0 .149-1.325 2.724 2.724 0 0 0-1.262-.752.885.885 0 0 0-.151-.014z" class="cls-3" transform="translate(51.936 146.94)"/>
            <path id="Shape-54" d="M2.405 4.721a2.083 2.083 0 0 1-.3-.019 1.718 1.718 0 0 1-1.33-.935c-.069-.145-.15-.288-.235-.434l-.05-.087-.052-.093a4.149 4.149 0 0 1-.348-.747 1.611 1.611 0 0 1-.037-.936A1.671 1.671 0 0 1 .7.589 2.721 2.721 0 0 1 2 .013 1.893 1.893 0 0 1 2.222 0a1.816 1.816 0 0 1 .963.278A3.879 3.879 0 0 1 4.563 2.1a.523.523 0 0 1 .025.364l-.013.036-.013.043a3.365 3.365 0 0 1-.975 1.763 1.786 1.786 0 0 1-1.183.413zm-.188-3.67a.857.857 0 0 0-.093.005 1.722 1.722 0 0 0-.8.376.681.681 0 0 0-.262.323.575.575 0 0 0 .029.332 3.064 3.064 0 0 0 .261.55l.054.1.009.014.021.036c.1.18.2.356.286.53a.679.679 0 0 0 .534.345.983.983 0 0 0 .147.011.779.779 0 0 0 .487-.15 2.212 2.212 0 0 0 .63-1.17 2.736 2.736 0 0 0-.886-1.174.778.778 0 0 0-.418-.125z" class="cls-3" transform="translate(53.24 117.21)"/>
            <path id="Shape-55" d="M2.015 4.738a2 2 0 0 1-1-.281A1.725 1.725 0 0 1 .132 3.1C.122 2.937.1 2.773.076 2.606v-.032C.062 2.518.057 2.462.048 2.4a4.177 4.177 0 0 1-.041-.82A1.606 1.606 0 0 1 .32.7a1.671 1.671 0 0 1 .932-.58A3.3 3.3 0 0 1 2.093 0a2.214 2.214 0 0 1 .587.076 1.822 1.822 0 0 1 .993.69 3.889 3.889 0 0 1 .6 2.2.525.525 0 0 1-.116.347c-.016.023-.036.046-.054.07A3.358 3.358 0 0 1 2.536 4.65a1.575 1.575 0 0 1-.521.088zM2.1 1.052a2.253 2.253 0 0 0-.575.086.671.671 0 0 0-.368.2.6.6 0 0 0-.1.319 3.006 3.006 0 0 0 .036.608c.007.053.014.11.023.166v.035c.025.188.051.381.063.564a.676.676 0 0 0 .366.52.939.939 0 0 0 .466.135.556.556 0 0 0 .173-.026 2.232 2.232 0 0 0 1.025-.847 2.767 2.767 0 0 0-.383-1.422.775.775 0 0 0-.429-.3 1.154 1.154 0 0 0-.3-.037z" class="cls-3" transform="translate(65.907 90.254)"/>
            <path id="Shape-56" d="M1.868 4.7c-.057 0-.115 0-.173-.006A1.858 1.858 0 0 1 .37 3.923a1.727 1.727 0 0 1-.279-1.6c.049-.144.09-.293.138-.473l.021-.084.031-.112A4.274 4.274 0 0 1 .563.878 1.592 1.592 0 0 1 1.2.188 1.551 1.551 0 0 1 1.971 0a2.253 2.253 0 0 1 .313.023 2.734 2.734 0 0 1 1.33.517 1.809 1.809 0 0 1 .645 1.023 3.873 3.873 0 0 1-.309 2.261.526.526 0 0 1-.24.273l-.049.026-.029.014a3.5 3.5 0 0 1-1.764.563zm.1-3.651a.526.526 0 0 0-.255.055.575.575 0 0 0-.214.257 2.939 2.939 0 0 0-.2.572c-.018.059-.031.11-.044.162-.054.2-.109.4-.172.578a.682.682 0 0 0 .135.623.833.833 0 0 0 .544.349h.111a2.362 2.362 0 0 0 1.164-.384 2.742 2.742 0 0 0 .2-1.458.778.778 0 0 0-.278-.446 1.712 1.712 0 0 0-.827-.3 1.127 1.127 0 0 0-.162-.014z" class="cls-3" transform="translate(87.623 70.07)"/>
            <path id="Shape-57" d="M2.256 4.639A2.771 2.771 0 0 1 .972 4.35a1.855 1.855 0 0 1-.917-1.228A1.739 1.739 0 0 1 .421 1.54c.1-.112.2-.234.313-.381.03-.036.06-.073.09-.113L.863 1a4.006 4.006 0 0 1 .563-.6 1.572 1.572 0 0 1 .855-.391A1.4 1.4 0 0 1 2.438 0a1.731 1.731 0 0 1 .9.278 2.724 2.724 0 0 1 1.024 1 1.8 1.8 0 0 1 .2 1.191 3.88 3.88 0 0 1-1.171 1.959.528.528 0 0 1-.33.158h-.088c-.234.031-.473.053-.717.053zm.177-3.588h-.038a.574.574 0 0 0-.3.152 3.253 3.253 0 0 0-.413.448l-.092.119-.011.014c-.117.148-.251.313-.382.462a.68.68 0 0 0-.12.627.827.827 0 0 0 .364.537 1.7 1.7 0 0 0 .8.177c.167 0 .356-.015.519-.03A2.743 2.743 0 0 0 3.52 2.3a.764.764 0 0 0-.082-.517 1.717 1.717 0 0 0-.644-.6.737.737 0 0 0-.36-.127z" class="cls-3" transform="translate(115.34 59.79)"/>
            <path id="Shape-58" d="M2.412 4.611a.527.527 0 0 1-.15-.022l-.086-.025a3.356 3.356 0 0 1-1.762-.976 1.85 1.85 0 0 1-.391-1.483A1.727 1.727 0 0 1 .954.778c.125-.059.246-.129.376-.2l.058-.036.142-.081.037-.022a3.945 3.945 0 0 1 .748-.346A1.79 1.79 0 0 1 2.865 0a1.435 1.435 0 0 1 .386.053A1.685 1.685 0 0 1 4.135.7a2.711 2.711 0 0 1 .574 1.308 1.819 1.819 0 0 1-.265 1.18 3.884 3.884 0 0 1-1.817 1.377.538.538 0 0 1-.215.046zm.45-3.558a.77.77 0 0 0-.227.041 3.182 3.182 0 0 0-.551.261l-.029.017L2 1.4l-.063.035-.037.025c-.144.082-.324.185-.49.264a.676.676 0 0 0-.345.534.824.824 0 0 0 .139.633 2.205 2.205 0 0 0 1.168.634 2.718 2.718 0 0 0 1.174-.888.753.753 0 0 0 .118-.511 1.684 1.684 0 0 0-.372-.8.651.651 0 0 0-.324-.265.389.389 0 0 0-.105-.013z" class="cls-3" transform="translate(144.937 61.092)"/>
            <path id="Shape-59" d="M1.725 4.252a.532.532 0 0 1-.338-.122l-.072-.055V4.07A3.355 3.355 0 0 1 .076 2.487 1.854 1.854 0 0 1 .3.97 1.728 1.728 0 0 1 1.673.11C1.835.1 2 .083 2.165.063L2.28.049l.09-.01A5.265 5.265 0 0 1 2.944 0c.088 0 .172 0 .251.011a1.6 1.6 0 0 1 .877.33 1.688 1.688 0 0 1 .56.94 2.709 2.709 0 0 1 .019 1.43 1.81 1.81 0 0 1-.7.978 3.9 3.9 0 0 1-2.213.564zm1.215-3.2a4.341 4.341 0 0 0-.453.032l-.166.019c-.157.019-.392.048-.6.059a.678.678 0 0 0-.526.355.825.825 0 0 0-.118.638A2.226 2.226 0 0 0 1.9 3.194a2.744 2.744 0 0 0 1.429-.358.782.782 0 0 0 .307-.425 1.724 1.724 0 0 0-.031-.878.673.673 0 0 0-.2-.37.6.6 0 0 0-.318-.1 1.469 1.469 0 0 0-.155-.009z" class="cls-3" transform="translate(171.877 73.769)"/>
            <path id="Shape-60" d="M2.519 4.558a2.008 2.008 0 0 1-.219-.013A3.879 3.879 0 0 1 .277 3.479.532.532 0 0 1 .1 3.16a.352.352 0 0 0-.006-.044l-.006-.044v-.016a3.348 3.348 0 0 1 .141-1.993A1.861 1.861 0 0 1 1.407.082 1.94 1.94 0 0 1 1.962 0 1.613 1.613 0 0 1 3 .364c.109.088.221.168.35.261l.05.033c.054.038.11.076.169.12a3.893 3.893 0 0 1 .628.53 1.6 1.6 0 0 1 .431.831 1.679 1.679 0 0 1-.212 1.073 2.721 2.721 0 0 1-.94 1.075 1.809 1.809 0 0 1-.958.271zm-.56-3.506a.9.9 0 0 0-.251.038.814.814 0 0 0-.513.393 2.207 2.207 0 0 0-.08 1.327 2.75 2.75 0 0 0 1.3.69.975.975 0 0 0 .105.006.751.751 0 0 0 .405-.116 1.729 1.729 0 0 0 .564-.675.7.7 0 0 0 .1-.406.575.575 0 0 0-.169-.288 2.927 2.927 0 0 0-.469-.389l-.083-.06-.012-.005-.043-.032c-.161-.113-.331-.235-.484-.359a.585.585 0 0 0-.37-.125z" class="cls-3" transform="translate(211.198 129.937)"/>
            <path id="Shape-61" d="M2.425 4.7a1.855 1.855 0 0 1-.825-.2A3.913 3.913 0 0 1 .063 2.812a.53.53 0 0 1-.054-.362v-.019l.013-.066v-.01A3.368 3.368 0 0 1 .847.521 1.842 1.842 0 0 1 2.173 0h.118A1.737 1.737 0 0 1 3.7.815c.078.135.167.264.271.413.039.053.078.11.118.171a4.063 4.063 0 0 1 .41.713 1.59 1.59 0 0 1 .122.929 1.688 1.688 0 0 1-.568.934 2.705 2.705 0 0 1-1.253.69 1.832 1.832 0 0 1-.375.035zm-.258-3.649a.8.8 0 0 0-.557.195 2.208 2.208 0 0 0-.528 1.221 2.743 2.743 0 0 0 .986 1.093.818.818 0 0 0 .363.089.832.832 0 0 0 .157-.013 1.73 1.73 0 0 0 .759-.436.663.663 0 0 0 .236-.347.577.577 0 0 0-.057-.329A3.047 3.047 0 0 0 3.216 2c-.029-.044-.063-.09-.094-.139-.108-.154-.231-.329-.333-.5a.679.679 0 0 0-.564-.3z" class="cls-3" transform="translate(186.54 158.269)"/>
            <path id="Shape-62" d="M2.243 4.743a2.049 2.049 0 0 1-.3-.023 1.82 1.82 0 0 1-1.072-.564 3.878 3.878 0 0 1-.865-2.111.532.532 0 0 1 .071-.358L.1 1.646l.023-.034a3.36 3.36 0 0 1 1.4-1.45A1.638 1.638 0 0 1 2.251 0a2.046 2.046 0 0 1 .806.169A1.737 1.737 0 0 1 4.1 1.412c.023.125.056.257.091.394l.022.086c.019.063.035.125.053.2a3.978 3.978 0 0 1 .143.81 1.611 1.611 0 0 1-.2.915 1.677 1.677 0 0 1-.854.684 2.983 2.983 0 0 1-1.112.242zm.012-3.691a.626.626 0 0 0-.265.048 2.215 2.215 0 0 0-.913.964 2.778 2.778 0 0 0 .552 1.367.8.8 0 0 0 .463.246 1.064 1.064 0 0 0 .143.009 1.986 1.986 0 0 0 .724-.166.672.672 0 0 0 .341-.239.585.585 0 0 0 .056-.329 2.989 2.989 0 0 0-.11-.6c-.01-.043-.022-.087-.034-.132l-.007-.027-.011-.036c-.045-.173-.1-.369-.132-.553a.675.675 0 0 0-.427-.471.971.971 0 0 0-.38-.081z" class="cls-3" transform="translate(182.075 180.375)"/>
            <path id="Shape-63" d="M2.286 4.715a2.623 2.623 0 0 1-1.262-.28 1.824 1.824 0 0 1-.815-.895 3.9 3.9 0 0 1-.083-2.279.519.519 0 0 1 .188-.314L.349.919.383.891A3.341 3.341 0 0 1 2.194.009 1.546 1.546 0 0 1 2.359 0 1.912 1.912 0 0 1 3.63.539a1.731 1.731 0 0 1 .556 1.525c-.026.16-.041.33-.054.49v.034l-.018.172a4.066 4.066 0 0 1-.143.815 1.6 1.6 0 0 1-.5.789 1.667 1.667 0 0 1-1.035.352c-.055-.002-.104-.001-.15-.001zm.068-3.662h-.045a2.217 2.217 0 0 0-1.19.595 2.735 2.735 0 0 0 .054 1.47.763.763 0 0 0 .349.389 1.605 1.605 0 0 0 .759.154h.107a.649.649 0 0 0 .4-.114.564.564 0 0 0 .171-.286 3.4 3.4 0 0 0 .1-.6.494.494 0 0 1 .012-.061c0-.033.006-.066.009-.1v-.019c.014-.164.034-.389.068-.589a.678.678 0 0 0-.24-.589.853.853 0 0 0-.554-.25z" class="cls-3" transform="translate(156.594 195.246)"/>
            <path id="Shape-64" d="M2.293 4.681a1.979 1.979 0 0 1-.609-.1 2.729 2.729 0 0 1-1.222-.74A1.831 1.831 0 0 1 0 2.718 3.88 3.88 0 0 1 .7.545.521.521 0 0 1 .985.313L1.028.3 1.07.288A4.207 4.207 0 0 1 2.442 0a2.68 2.68 0 0 1 .632.076 1.846 1.846 0 0 1 1.17.99 1.739 1.739 0 0 1 0 1.624c-.081.14-.15.289-.221.439-.029.063-.063.13-.088.188a4.209 4.209 0 0 1-.412.711 1.574 1.574 0 0 1-.745.57 1.464 1.464 0 0 1-.485.083zm.15-3.629a3.039 3.039 0 0 0-.94.2 2.741 2.741 0 0 0-.452 1.4.771.771 0 0 0 .2.486 1.738 1.738 0 0 0 .762.439.949.949 0 0 0 .281.051.409.409 0 0 0 .138-.021.564.564 0 0 0 .256-.215 3 3 0 0 0 .3-.528v-.008l.054-.117.013-.028c.075-.159.169-.357.269-.539a.671.671 0 0 0-.024-.633.842.842 0 0 0-.477-.439 1.66 1.66 0 0 0-.381-.049z" class="cls-3" transform="translate(127.364 200.522)"/>
            <path id="Shape-65" d="M2.059 4.64h-.016a1.681 1.681 0 0 1-1.018-.4 2.717 2.717 0 0 1-.9-1.115 1.811 1.811 0 0 1-.044-1.203 3.886 3.886 0 0 1 1.4-1.8A.526.526 0 0 1 1.807 0h.109a3.345 3.345 0 0 1 1.953.489 1.863 1.863 0 0 1 .761 1.33 1.732 1.732 0 0 1-.555 1.525c-.117.1-.231.213-.358.339l-.147.149a4.311 4.311 0 0 1-.631.528 1.611 1.611 0 0 1-.881.281zM2 1.058a2.736 2.736 0 0 0-.906 1.163.753.753 0 0 0 .017.523 1.733 1.733 0 0 0 .564.67.682.682 0 0 0 .385.173h.007a.575.575 0 0 0 .306-.114 2.989 2.989 0 0 0 .465-.395l.09-.088.03-.03c.131-.131.283-.281.435-.413a.671.671 0 0 0 .194-.606.827.827 0 0 0-.3-.574 2.236 2.236 0 0 0-1.292-.311z" class="cls-3" transform="translate(98.101 195.435)"/>
            <path id="Shape-66" d="M1.8 4.562a1.448 1.448 0 0 1-.514-.092 1.692 1.692 0 0 1-.825-.72A2.754 2.754 0 0 1 0 2.4a1.819 1.819 0 0 1 .369-1.156A3.9 3.9 0 0 1 2.3.028.531.531 0 0 1 2.471 0a.516.516 0 0 1 .193.037l.042.016.042.016h.008A3.349 3.349 0 0 1 4.418 1.2a1.854 1.854 0 0 1 .261 1.51 1.715 1.715 0 0 1-1.046 1.24c-.149.056-.3.125-.452.2l-.12.055-.066.031a4.171 4.171 0 0 1-.774.283 1.912 1.912 0 0 1-.422.048zm.663-3.474l-1.11 2.106a.689.689 0 0 0 .3.292.423.423 0 0 0 .147.024.858.858 0 0 0 .188-.024 2.957 2.957 0 0 0 .57-.213l.079-.036.076-.037.043-.021c.158-.073.336-.155.508-.219a.677.677 0 0 0 .389-.5.821.821 0 0 0-.083-.645 2.226 2.226 0 0 0-1.109-.73 2.724 2.724 0 0 0-1.247.781.773.773 0 0 0-.162.5 1.707 1.707 0 0 0 .3.826z" class="cls-3" transform="translate(72.401 180.602)"/>
            <path id="Shape-67" d="M1.842 4.21a2.927 2.927 0 0 1-.37-.021 1.61 1.61 0 0 1-.872-.36 1.693 1.693 0 0 1-.522-.959A2.743 2.743 0 0 1 .11 1.443 1.818 1.818 0 0 1 .849.484 3.736 3.736 0 0 1 2.936 0h.145a.516.516 0 0 1 .338.133c.024.021.046.039.068.06a3.341 3.341 0 0 1 1.184 1.63 1.854 1.854 0 0 1-.274 1.5 1.737 1.737 0 0 1-1.405.81c-.158 0-.321.016-.492.029h-.021c-.059.006-.12.011-.188.015-.108.023-.276.033-.449.033zM2.87 1.052a2.743 2.743 0 0 0-1.441.309.752.752 0 0 0-.322.412 1.694 1.694 0 0 0 0 .878.652.652 0 0 0 .18.376.582.582 0 0 0 .313.115 1.857 1.857 0 0 0 .237.013c.1 0 .22-.006.376-.018h.014c.048 0 .1-.007.153-.014l.077-.006h.006c.172-.013.35-.027.521-.029a.668.668 0 0 0 .536-.338.831.831 0 0 0 .143-.633 2.213 2.213 0 0 0-.793-1.066z" class="cls-3" transform="translate(53.346 158.096)"/>
            <path id="Shape-68" d="M2.852 4.326a1.555 1.555 0 0 1-.525-.092c-.157-.053-.32-.1-.474-.139l-.179-.049-.021-.006a4.1 4.1 0 0 1-.772-.282 1.575 1.575 0 0 1-.689-.635 1.675 1.675 0 0 1-.17-1.083A2.732 2.732 0 0 1 .541.71 1.812 1.812 0 0 1 1.563.063 2.415 2.415 0 0 1 2.13 0a4.789 4.789 0 0 1 1.692.376.515.515 0 0 1 .278.237l.022.04.022.04A3.344 3.344 0 0 1 4.7 2.629a1.854 1.854 0 0 1-.774 1.325 1.835 1.835 0 0 1-1.073.372zM2.13 1.052a1.377 1.377 0 0 0-.322.035.762.762 0 0 0-.444.278 1.734 1.734 0 0 0-.3.826.676.676 0 0 0 .042.416.578.578 0 0 0 .257.215 2.98 2.98 0 0 0 .574.2c.046.014.1.028.162.044h.015c.178.05.379.105.564.169a.535.535 0 0 0 .176.029.765.765 0 0 0 .446-.155.825.825 0 0 0 .35-.545 2.226 2.226 0 0 0-.379-1.274 3.544 3.544 0 0 0-1.14-.238z" class="cls-3" transform="translate(43.134 130.3)"/>
            <path id="Shape-69" d="M2.693 4.557a1.623 1.623 0 0 1-1.046-.365c-.119-.1-.244-.188-.4-.292l-.036-.025-.135-.1a4.135 4.135 0 0 1-.626-.53 1.6 1.6 0 0 1-.436-.833 1.661 1.661 0 0 1 .217-1.066A2.736 2.736 0 0 1 1.173.269 1.816 1.816 0 0 1 2.129 0a2.019 2.019 0 0 1 .222.013 3.856 3.856 0 0 1 2.02 1.065.514.514 0 0 1 .175.319c.007.031.011.063.014.088a3.367 3.367 0 0 1-.141 2.006V3.5a1.855 1.855 0 0 1-1.178.978 1.945 1.945 0 0 1-.548.079zm-.564-3.505a.765.765 0 0 0-.408.115 1.73 1.73 0 0 0-.564.672.661.661 0 0 0-.1.407.593.593 0 0 0 .166.29 3.1 3.1 0 0 0 .469.387l.043.031.055.039.041.029.015.011c.15.105.319.224.469.347a.58.58 0 0 0 .376.125.884.884 0 0 0 .251-.039.81.81 0 0 0 .52-.394 2.2 2.2 0 0 0 .08-1.325 2.727 2.727 0 0 0-1.3-.69.976.976 0 0 0-.107-.006z" class="cls-3" transform="translate(43.069 100.588)"/>
            <path id="Shape-70" d="M2.468 4.7H2.35a1.731 1.731 0 0 1-1.404-.813C.877 3.772.8 3.665.717 3.54l-.045-.063c-.03-.041-.063-.085-.092-.131L.555 3.3a4.059 4.059 0 0 1-.411-.713 1.61 1.61 0 0 1-.12-.93 1.671 1.671 0 0 1 .564-.93 2.718 2.718 0 0 1 1.253-.69 1.8 1.8 0 0 1 1.2.163 3.886 3.886 0 0 1 1.531 1.692.524.524 0 0 1 .054.36.218.218 0 0 1-.009.044c0 .014-.006.029-.008.044a3.367 3.367 0 0 1-.816 1.841 1.837 1.837 0 0 1-1.325.519zm-.255-3.646a.791.791 0 0 0-.159.017 1.691 1.691 0 0 0-.762.439.668.668 0 0 0-.236.347.57.57 0 0 0 .057.328 3.024 3.024 0 0 0 .309.526c.029.045.063.091.094.139.108.153.231.33.333.5a.678.678 0 0 0 .564.3h.063a.8.8 0 0 0 .556-.2 2.217 2.217 0 0 0 .526-1.22 2.744 2.744 0 0 0-.987-1.091.8.8 0 0 0-.358-.088z" class="cls-3" transform="translate(53.245 72.681)"/>
            <path id="Shape-71" d="M2.163 4.743a2.042 2.042 0 0 1-.806-.17A1.735 1.735 0 0 1 .314 3.33C.285 3.18.244 3.024.2 2.851a.8.8 0 0 1-.021-.078l-.034-.122A4.153 4.153 0 0 1 0 1.839 1.609 1.609 0 0 1 .207.923 1.687 1.687 0 0 1 1.059.24 3.035 3.035 0 0 1 2.174 0a2.073 2.073 0 0 1 .3.021 1.816 1.816 0 0 1 1.07.565A3.883 3.883 0 0 1 4.406 2.7a.532.532 0 0 1-.071.358c-.017.025-.032.051-.046.076a3.373 3.373 0 0 1-1.4 1.452 1.642 1.642 0 0 1-.727.161zm.007-3.691a1.969 1.969 0 0 0-.717.164.685.685 0 0 0-.341.244.6.6 0 0 0-.059.33 3.074 3.074 0 0 0 .112.6l.025.1v.006l.015.06c.043.162.1.383.141.587a.675.675 0 0 0 .427.471.97.97 0 0 0 .382.081.613.613 0 0 0 .263-.053 2.214 2.214 0 0 0 .915-.967 2.73 2.73 0 0 0-.553-1.367.762.762 0 0 0-.462-.246 1.023 1.023 0 0 0-.149-.011z" class="cls-3" transform="translate(72.43 49.965)"/>
            <path id="Shape-72" d="M1.853 4.716a1.9 1.9 0 0 1-1.279-.54A1.737 1.737 0 0 1 .02 2.65c.026-.16.041-.33.055-.49v-.017c.006-.063.012-.122.025-.188a4.053 4.053 0 0 1 .144-.811A1.6 1.6 0 0 1 .745.353 1.69 1.69 0 0 1 1.779 0h.13a2.647 2.647 0 0 1 1.273.282A1.818 1.818 0 0 1 4 1.174a3.9 3.9 0 0 1 .086 2.283.521.521 0 0 1-.188.313l-.014.011c-.019.015-.037.03-.056.043a3.354 3.354 0 0 1-1.813.883 1.557 1.557 0 0 1-.16.008zm.073-3.664h-.111a.678.678 0 0 0-.4.113.593.593 0 0 0-.168.29 3.348 3.348 0 0 0-.1.6c0 .018 0 .036-.005.055q-.006.055-.009.113c-.015.171-.037.393-.07.6a.679.679 0 0 0 .24.589.858.858 0 0 0 .556.251H1.9a2.2 2.2 0 0 0 1.187-.6 2.727 2.727 0 0 0-.053-1.472.777.777 0 0 0-.352-.391 1.6 1.6 0 0 0-.756-.152z" class="cls-3" transform="translate(98.263 43.524)"/>
            <path id="Shape-73" d="M2.01 4.682a2.671 2.671 0 0 1-.637-.082A1.853 1.853 0 0 1 .2 3.614a1.73 1.73 0 0 1 0-1.622c.068-.125.128-.251.2-.394l.023-.047c.026-.058.053-.115.088-.188A4.076 4.076 0 0 1 .926.65 1.6 1.6 0 0 1 1.67.08 1.462 1.462 0 0 1 2.152 0a1.967 1.967 0 0 1 .611.105 2.74 2.74 0 0 1 1.222.74 1.819 1.819 0 0 1 .462 1.117 3.9 3.9 0 0 1-.7 2.175.534.534 0 0 1-.284.227l-.048.017-.036.013a4.194 4.194 0 0 1-1.368.288zm.147-3.629a.428.428 0 0 0-.137.021.593.593 0 0 0-.257.214 3.091 3.091 0 0 0-.3.53l-.016.033-.056.118L1.378 2c-.077.163-.165.349-.256.512a.681.681 0 0 0 .023.638.83.83 0 0 0 .477.439 1.627 1.627 0 0 0 .388.048 2.91 2.91 0 0 0 .933-.2 2.746 2.746 0 0 0 .454-1.4.788.788 0 0 0-.2-.486 1.735 1.735 0 0 0-.758-.451.908.908 0 0 0-.279-.052z" class="cls-3" transform="translate(130.734 38.004)"/>
            <path id="Shape-74" d="M2.828 4.639h-.1a3.369 3.369 0 0 1-1.955-.488 1.848 1.848 0 0 1-.759-1.33 1.736 1.736 0 0 1 .555-1.527c.118-.1.229-.212.358-.341l.147-.145A4.144 4.144 0 0 1 1.705.28 1.606 1.606 0 0 1 2.583 0H2.6a1.669 1.669 0 0 1 1.02.4 2.75 2.75 0 0 1 .9 1.115 1.832 1.832 0 0 1 .048 1.207 3.866 3.866 0 0 1-1.4 1.8.526.526 0 0 1-.335.118zm-.251-3.586a.591.591 0 0 0-.307.113 3.25 3.25 0 0 0-.464.394l-.119.117c-.125.125-.283.283-.438.417a.673.673 0 0 0-.2.6.831.831 0 0 0 .3.577 2.209 2.209 0 0 0 1.294.307 2.748 2.748 0 0 0 .908-1.162.772.772 0 0 0-.016-.516 1.712 1.712 0 0 0-.564-.673.661.661 0 0 0-.381-.171z" class="cls-3" transform="translate(151.627 31.746)"/>
            <path id="Shape-75" d="M2.266 4.562a.521.521 0 0 1-.195-.038l-.029-.011-.055-.021A3.352 3.352 0 0 1 .314 3.368a1.854 1.854 0 0 1-.256-1.513A1.727 1.727 0 0 1 1.1.614C1.24.56 1.379.5 1.554.416l.063-.03L1.74.33a4.12 4.12 0 0 1 .775-.282A1.911 1.911 0 0 1 2.931 0a1.465 1.465 0 0 1 .521.093 1.669 1.669 0 0 1 .822.722 2.693 2.693 0 0 1 .46 1.355 1.8 1.8 0 0 1-.368 1.15 3.86 3.86 0 0 1-1.932 1.216.5.5 0 0 1-.169.026zm.668-3.511a.858.858 0 0 0-.188.024 3.119 3.119 0 0 0-.57.213l-.035.012-.032.013-.086.04c-.142.063-.355.164-.553.239a.673.673 0 0 0-.389.5.821.821 0 0 0 .084.642 2.209 2.209 0 0 0 1.109.735 2.748 2.748 0 0 0 1.248-.782.764.764 0 0 0 .162-.5 1.694 1.694 0 0 0-.3-.825.684.684 0 0 0-.3-.295.423.423 0 0 0-.15-.016z" class="cls-3" transform="translate(177.415 51.46)"/>
            <path id="Shape-76" d="M1.793 4.21h-.141a.528.528 0 0 1-.337-.135l-.039-.031-.03-.026A3.361 3.361 0 0 1 .062 2.387 1.853 1.853 0 0 1 .333.878 1.737 1.737 0 0 1 1.738.067c.135 0 .274-.012.422-.024l.07-.006.1-.008.108-.009c.142-.01.3-.02.451-.02a2.783 2.783 0 0 1 .371.023 1.575 1.575 0 0 1 .865.36 1.671 1.671 0 0 1 .526.957 2.69 2.69 0 0 1-.03 1.431 1.805 1.805 0 0 1-.739.955 3.745 3.745 0 0 1-2.09.485zM2.9 1.052c-.1 0-.22.006-.385.019-.029 0-.059 0-.09.006h-.008l-.067.006c-.194.018-.4.034-.6.036a.678.678 0 0 0-.538.339.821.821 0 0 0-.141.633 2.219 2.219 0 0 0 .792 1.066A2.741 2.741 0 0 0 3.3 2.849a.782.782 0 0 0 .324-.414 1.687 1.687 0 0 0 0-.878.677.677 0 0 0-.181-.376.6.6 0 0 0-.313-.116 1.758 1.758 0 0 0-.23-.013z" class="cls-3" transform="translate(200.84 72.777)"/>
            <path id="Shape-77" d="M1.8 4.208h-.148a.515.515 0 0 1-.337-.134l-.034-.029-.035-.029a3.341 3.341 0 0 1-1.184-1.63A1.851 1.851 0 0 1 .333.878 1.732 1.732 0 0 1 1.74.068c.133 0 .264-.013.415-.025l.077-.006.147-.013h.058C2.559.011 2.718 0 2.881 0a2.932 2.932 0 0 1 .376.022 1.608 1.608 0 0 1 .871.359 1.693 1.693 0 0 1 .526.959 2.7 2.7 0 0 1-.031 1.428 1.818 1.818 0 0 1-.739.958 3.745 3.745 0 0 1-2.084.482zm1.091-3.156c-.1 0-.217.006-.376.018l-.063.005h-.036l-.063.005c-.2.017-.4.033-.6.038a.664.664 0 0 0-.537.339.816.816 0 0 0-.143.631 2.216 2.216 0 0 0 .792 1.066A2.757 2.757 0 0 0 3.3 2.845a.763.763 0 0 0 .322-.413 1.694 1.694 0 0 0 0-.878.669.669 0 0 0-.181-.376.587.587 0 0 0-.313-.113 1.834 1.834 0 0 0-.24-.014z" class="cls-3" transform="translate(226.597 74.866)"/>
            <path id="Shape-78" d="M1.793 4.21h-.141a.538.538 0 0 1-.341-.135l-.046-.041-.019-.016-.008-.005A3.358 3.358 0 0 1 .062 2.387 1.853 1.853 0 0 1 .333.878 1.729 1.729 0 0 1 1.738.067c.135 0 .274-.012.422-.024l.07-.006.1-.008.106-.009c.143-.01.3-.02.452-.02a2.784 2.784 0 0 1 .372.023 1.585 1.585 0 0 1 .864.36 1.671 1.671 0 0 1 .526.957 2.69 2.69 0 0 1-.03 1.431 1.814 1.814 0 0 1-.739.955 3.745 3.745 0 0 1-2.09.485zM2.9 1.052c-.1 0-.22.006-.385.019-.029 0-.059 0-.09.006h-.008l-.067.006c-.194.018-.4.034-.6.036a.678.678 0 0 0-.538.339.821.821 0 0 0-.141.633 2.222 2.222 0 0 0 .792 1.066l1.76-1.6a.683.683 0 0 0-.181-.376.6.6 0 0 0-.313-.116 1.758 1.758 0 0 0-.229-.013zm.719.507l-1.76 1.6A2.736 2.736 0 0 0 3.3 2.85a.789.789 0 0 0 .324-.414 1.737 1.737 0 0 0-.005-.877z" class="cls-3" transform="translate(231.942 54.67)"/>
            <path id="Shape-79" d="M2.548 4.287A5.133 5.133 0 0 1 .99 4a.533.533 0 0 1-.29-.227l-.018-.038L.658 3.7A3.353 3.353 0 0 1 0 1.792 1.848 1.848 0 0 1 .7.43 1.8 1.8 0 0 1 1.836 0a1.565 1.565 0 0 1 .449.066c.153.043.313.078.48.113l.2.044a4.1 4.1 0 0 1 .786.243 1.618 1.618 0 0 1 .724.6A1.686 1.686 0 0 1 4.7 2.132a2.7 2.7 0 0 1-.45 1.359 1.817 1.817 0 0 1-.985.7 2.522 2.522 0 0 1-.717.1zm-.709-3.234a.739.739 0 0 0-.465.188.832.832 0 0 0-.322.564A2.215 2.215 0 0 0 1.5 3.059a3.793 3.793 0 0 0 1.045.181 1.486 1.486 0 0 0 .421-.054.772.772 0 0 0 .429-.3 1.712 1.712 0 0 0 .257-.839.654.654 0 0 0-.063-.414.581.581 0 0 0-.27-.206 3.188 3.188 0 0 0-.585-.174l-.164-.036-.046-.017c-.17-.036-.363-.078-.541-.13a.527.527 0 0 0-.144-.017z" class="cls-3" transform="translate(236.275 105.728)"/>
            <path id="Shape-80" d="M2.567 4.494h-.021a3.873 3.873 0 0 1-2.117-.847.527.527 0 0 1-.209-.3c0-.013-.007-.026-.01-.038S.2 3.278.2 3.26a3.405 3.405 0 0 1-.076-2.014A1.864 1.864 0 0 1 1.2.149 1.93 1.93 0 0 1 1.926 0a1.582 1.582 0 0 1 .888.263c.137.09.286.173.427.251l.081.046.1.056a4.086 4.086 0 0 1 .684.46 1.606 1.606 0 0 1 .516.782 1.662 1.662 0 0 1-.1 1.087 2.731 2.731 0 0 1-.823 1.169 1.8 1.8 0 0 1-1.128.379zm-.648-3.442a.821.821 0 0 0-.319.069.82.82 0 0 0-.474.446 2.207 2.207 0 0 0 .063 1.327 2.735 2.735 0 0 0 1.366.549h.013a.751.751 0 0 0 .486-.162 1.714 1.714 0 0 0 .49-.73.681.681 0 0 0 .063-.414.6.6 0 0 0-.2-.271A3.32 3.32 0 0 0 2.9 1.53l-.145-.082-.043-.025-.021-.01c-.147-.082-.313-.175-.46-.271a.572.572 0 0 0-.314-.09z" class="cls-3" transform="translate(236.419 138.03)"/>
            <path id="Shape-81" d="M2.461 4.649a1.894 1.894 0 0 1-.571-.09 3.873 3.873 0 0 1-1.777-1.43A.52.52 0 0 1 0 2.782v-.088A3.391 3.391 0 0 1 .525.746 1.846 1.846 0 0 1 1.869.009C1.932 0 2 0 2.063 0a1.691 1.691 0 0 1 1.32.592c.1.12.209.232.334.362l.067.071.077.081a4.17 4.17 0 0 1 .517.639 1.606 1.606 0 0 1 .265.9 1.678 1.678 0 0 1-.414 1.012 2.757 2.757 0 0 1-1.129.878 1.819 1.819 0 0 1-.641.115zm-.393-3.6a.979.979 0 0 0-.1.005.825.825 0 0 0-.581.286 2.213 2.213 0 0 0-.326 1.29 2.717 2.717 0 0 0 1.144.923.824.824 0 0 0 .255.047.751.751 0 0 0 .269-.05 1.725 1.725 0 0 0 .684-.555.659.659 0 0 0 .179-.376.585.585 0 0 0-.11-.313 2.954 2.954 0 0 0-.382-.474l-.063-.063-.026-.027-.034-.032-.058-.063-.011-.017c-.108-.113-.231-.243-.335-.369a.636.636 0 0 0-.506-.209z" class="cls-3" transform="translate(226.914 168.955)"/>
            <path id="Shape-82" d="M2.356 4.732a1.839 1.839 0 0 1-1.075-.349 3.88 3.88 0 0 1-1.25-1.91.534.534 0 0 1 0-.366l.031-.084a3.361 3.361 0 0 1 1.1-1.69A1.761 1.761 0 0 1 2.223 0a2.076 2.076 0 0 1 .444.048 1.73 1.73 0 0 1 1.26 1.022c.055.134.118.264.188.415l.016.033.034.073.054.114a4.062 4.062 0 0 1 .294.768 1.6 1.6 0 0 1-.025.94 1.686 1.686 0 0 1-.7.833 2.749 2.749 0 0 1-1.346.483zm-.131-3.681a.737.737 0 0 0-.425.118 2.225 2.225 0 0 0-.712 1.123 2.749 2.749 0 0 0 .8 1.233.774.774 0 0 0 .462.155h.039a1.709 1.709 0 0 0 .82-.313.667.667 0 0 0 .291-.306.565.565 0 0 0-.006-.335 2.956 2.956 0 0 0-.221-.567L3.2 2.007l-.012-.024-.005-.01c-.078-.16-.165-.341-.234-.515a.678.678 0 0 0-.506-.383.994.994 0 0 0-.219-.024z" class="cls-3" transform="translate(208.644 195.733)"/>
            <path id="Shape-83" d="M2.187 4.738a2.172 2.172 0 0 1-.544-.066A1.821 1.821 0 0 1 .641 4 3.9 3.9 0 0 1 0 1.809a.518.518 0 0 1 .11-.347l.054-.071A3.391 3.391 0 0 1 1.706.095 1.612 1.612 0 0 1 2.258 0a2.03 2.03 0 0 1 .973.261 1.734 1.734 0 0 1 .906 1.346c.013.15.034.3.063.49l.03.192V2.3a3.966 3.966 0 0 1 .057.823 1.59 1.59 0 0 1-.3.889 1.674 1.674 0 0 1-.921.59 3.242 3.242 0 0 1-.883.136zm.071-3.686a.546.546 0 0 0-.188.029 2.2 2.2 0 0 0-1.005.862 2.737 2.737 0 0 0 .406 1.416.775.775 0 0 0 .438.292 1.139 1.139 0 0 0 .28.032 2.2 2.2 0 0 0 .6-.095.656.656 0 0 0 .362-.2.6.6 0 0 0 .093-.32 3.141 3.141 0 0 0-.046-.608l-.026-.166V2.27c-.026-.169-.06-.376-.076-.574a.671.671 0 0 0-.376-.513.95.95 0 0 0-.454-.129z" class="cls-3" transform="translate(183.44 215.989)"/>
            <path id="Shape-84" d="M2.358 4.713h-.051A2.684 2.684 0 0 1 .921 4.36a1.822 1.822 0 0 1-.766-.933 3.89 3.89 0 0 1 .033-2.283.539.539 0 0 1 .206-.3L.439.809.465.791A3.381 3.381 0 0 1 2.318 0H2.4a1.892 1.892 0 0 1 1.329.608A1.733 1.733 0 0 1 4.2 2.16c-.027.122-.046.251-.067.384l-.016.1c-.008.063-.017.125-.027.188v.016a4.283 4.283 0 0 1-.188.8 1.6 1.6 0 0 1-.547.761 1.64 1.64 0 0 1-.997.304zM2.4 1.051h-.02a2.239 2.239 0 0 0-1.218.532 2.732 2.732 0 0 0-.025 1.473.787.787 0 0 0 .33.408 1.728 1.728 0 0 0 .858.2h.025a.642.642 0 0 0 .383-.093.59.59 0 0 0 .184-.28 3.347 3.347 0 0 0 .135-.591l.009-.063V2.58a.3.3 0 0 1 .007-.048c.026-.176.057-.395.1-.592a.672.672 0 0 0-.21-.6.843.843 0 0 0-.558-.289z" class="cls-3" transform="translate(153.363 227.939)"/>
            <path id="Shape-85" d="M2.293 4.681a1.979 1.979 0 0 1-.609-.1 2.729 2.729 0 0 1-1.222-.74A1.831 1.831 0 0 1 0 2.718 3.88 3.88 0 0 1 .7.545.521.521 0 0 1 .985.313l.021-.006a.611.611 0 0 0 .063-.02A4.207 4.207 0 0 1 2.442 0a2.68 2.68 0 0 1 .632.076 1.854 1.854 0 0 1 1.17.99 1.739 1.739 0 0 1 0 1.624c-.081.14-.15.289-.221.439-.029.063-.063.13-.088.188a4.209 4.209 0 0 1-.412.711 1.574 1.574 0 0 1-.745.57 1.464 1.464 0 0 1-.485.083zm.15-3.629a3.039 3.039 0 0 0-.94.2 2.76 2.76 0 0 0-.452 1.4.774.774 0 0 0 .2.486 1.732 1.732 0 0 0 .764.439.939.939 0 0 0 .279.051.409.409 0 0 0 .138-.021.564.564 0 0 0 .256-.215 3 3 0 0 0 .3-.528v-.008l.054-.117.013-.028c.075-.159.169-.357.269-.539a.671.671 0 0 0-.024-.633.842.842 0 0 0-.477-.439 1.66 1.66 0 0 0-.381-.049z" class="cls-3" transform="translate(120.959 230.509)"/>
            <path id="Shape-86" d="M2.1 4.632a1.7 1.7 0 0 1-.98-.344 2.719 2.719 0 0 1-.954-1.066 1.813 1.813 0 0 1-.112-1.2A3.872 3.872 0 0 1 1.356.144a.517.517 0 0 1 .339-.135h.091C1.905 0 2.029 0 2.156 0a2.974 2.974 0 0 1 1.607.39 1.846 1.846 0 0 1 .829 1.29 1.731 1.731 0 0 1-.475 1.552c-.125.118-.241.247-.339.358l-.138.154a4.049 4.049 0 0 1-.6.559 1.61 1.61 0 0 1-.877.329zm-.3-2.175l-.08.97a.7.7 0 0 0 .381.152h.011a.6.6 0 0 0 .307-.13 2.961 2.961 0 0 0 .444-.419c.034-.036.07-.077.112-.125.1-.116.263-.29.416-.439a.674.674 0 0 0 .162-.614.831.831 0 0 0-.328-.56 1.941 1.941 0 0 0-1.091-.242H1.92a2.758 2.758 0 0 0-.844 1.212.763.763 0 0 0 .047.522 1.718 1.718 0 0 0 .6.643z" class="cls-3" transform="translate(89.249 223.392)"/>
            <path id="Shape-87" d="M1.873 4.619a1.44 1.44 0 0 1-.363-.046 1.679 1.679 0 0 1-.893-.631 2.7 2.7 0 0 1-.6-1.3 1.81 1.81 0 0 1 .245-1.179A3.884 3.884 0 0 1 2.055.048a.532.532 0 0 1 .364-.029l.043.013.044.013a3.345 3.345 0 0 1 1.779.944A1.852 1.852 0 0 1 4.7 2.463a1.737 1.737 0 0 1-.908 1.347c-.139.07-.273.149-.429.242-.057.034-.116.07-.179.1a4.158 4.158 0 0 1-.741.362 1.787 1.787 0 0 1-.57.1zm.455-3.534a2.731 2.731 0 0 0-1.159.909.768.768 0 0 0-.11.513 1.7 1.7 0 0 0 .386.787.682.682 0 0 0 .329.26.362.362 0 0 0 .1.013.73.73 0 0 0 .234-.046 3.178 3.178 0 0 0 .544-.271l.041-.023.012-.007.036-.02.059-.037.036-.021c.166-.1.328-.194.49-.276a.671.671 0 0 0 .335-.539.834.834 0 0 0-.15-.63 2.226 2.226 0 0 0-1.18-.612z" class="cls-3" transform="translate(61.09 207.148)"/>
            <path id="Shape-88" d="M1.734 4.393a1.558 1.558 0 0 1-.845-.221 1.674 1.674 0 0 1-.669-.864 2.733 2.733 0 0 1-.193-1.416A1.807 1.807 0 0 1 .606.832 3.869 3.869 0 0 1 2.734.005a.533.533 0 0 1 .358.078L3.1.091l.068.039a3.345 3.345 0 0 1 1.423 1.425 1.855 1.855 0 0 1-.036 1.532A1.737 1.737 0 0 1 3.3 4.109c-.151.025-.3.063-.482.107l-.137.033-.063.015a4.079 4.079 0 0 1-.818.126zm.959-3.318L1.2 2.933a.67.67 0 0 0 .238.343.551.551 0 0 0 .294.063h.034a2.9 2.9 0 0 0 .6-.1l.05-.013.118-.026c.18-.045.39-.1.587-.13a.672.672 0 0 0 .479-.42.831.831 0 0 0 .039-.644 2.227 2.227 0 0 0-.948-.931 2.766 2.766 0 0 0-1.373.53.774.774 0 0 0-.255.458 1.7 1.7 0 0 0 .138.868z" class="cls-3" transform="translate(38.987 183.484)"/>
            <path id="Shape-89" d="M2.917 4.2a1.591 1.591 0 0 1-.232-.018c-.158-.024-.322-.036-.49-.048h-.046l-.163-.014a4.143 4.143 0 0 1-.814-.131A1.617 1.617 0 0 1 .377 3.5a1.7 1.7 0 0 1-.37-1.031 2.729 2.729 0 0 1 .25-1.411A1.833 1.833 0 0 1 1.138.23 2.936 2.936 0 0 1 2.356 0 6.15 6.15 0 0 1 3.42.1a.514.514 0 0 1 .313.183l.026.034.029.035a3.362 3.362 0 0 1 .918 1.798A1.853 1.853 0 0 1 4.2 3.6a1.76 1.76 0 0 1-1.281.6zm-.564-3.147a1.908 1.908 0 0 0-.776.134.776.776 0 0 0-.383.358 1.725 1.725 0 0 0-.137.868.694.694 0 0 0 .12.4.607.607 0 0 0 .292.162 3.058 3.058 0 0 0 .6.09h.014l.1.008h.107c.2.014.376.029.547.055a.486.486 0 0 0 .076.006.706.706 0 0 0 .509-.256.82.82 0 0 0 .239-.6A2.217 2.217 0 0 0 3.045 1.1a4.857 4.857 0 0 0-.695-.056z" class="cls-3" transform="translate(24.857 154.433)"/>
            <path id="Shape-90" d="M2.81 4.4a1.583 1.583 0 0 1-.684-.154c-.133-.063-.278-.12-.454-.188-.053-.022-.115-.046-.194-.076a4.1 4.1 0 0 1-.74-.362 1.6 1.6 0 0 1-.618-.7 1.653 1.653 0 0 1-.053-1.094A2.7 2.7 0 0 1 .721.555 1.816 1.816 0 0 1 1.8.019 2.242 2.242 0 0 1 2.1 0a4.351 4.351 0 0 1 1.919.564.521.521 0 0 1 .251.269l.017.041.013.041A3.343 3.343 0 0 1 4.655 2.9a1.86 1.86 0 0 1-.909 1.239 1.861 1.861 0 0 1-.936.261zM2.1 1.052a1.194 1.194 0 0 0-.159.01.773.773 0 0 0-.471.229 1.729 1.729 0 0 0-.383.789.663.663 0 0 0 0 .42.578.578 0 0 0 .232.242 3.256 3.256 0 0 0 .549.263l.094.036.038.015.027.011.071.028.016.006c.157.063.319.125.469.2a.54.54 0 0 0 .232.05.8.8 0 0 0 .4-.12.824.824 0 0 0 .4-.507 2.24 2.24 0 0 0-.244-1.306A3.165 3.165 0 0 0 2.1 1.052z" class="cls-3" transform="translate(19.904 122.323)"/>
            <path id="Shape-91" d="M2.658 4.586a1.628 1.628 0 0 1-1.118-.421c-.1-.095-.211-.18-.336-.279l-.044-.035c-.03-.023-.063-.046-.091-.071L1 3.722a4.169 4.169 0 0 1-.6-.564 1.59 1.59 0 0 1-.388-.851 1.682 1.682 0 0 1 .267-1.06 2.725 2.725 0 0 1 1-1.024A1.805 1.805 0 0 1 2.144 0a1.955 1.955 0 0 1 .321.027A3.889 3.889 0 0 1 4.426 1.2a.522.522 0 0 1 .16.328.625.625 0 0 0 .008.088 3.377 3.377 0 0 1-.244 2 1.857 1.857 0 0 1-1.23.917 1.953 1.953 0 0 1-.462.053zm-.516-3.534a.751.751 0 0 0-.367.094 1.717 1.717 0 0 0-.6.644.673.673 0 0 0-.125.4.576.576 0 0 0 .149.3 3.065 3.065 0 0 0 .45.412c.023.02.048.039.074.063l.057.046.023.018c.141.111.3.236.438.364a.6.6 0 0 0 .414.145.926.926 0 0 0 .211-.025.841.841 0 0 0 .537-.366 2.224 2.224 0 0 0 .147-1.321 2.756 2.756 0 0 0-1.26-.759.946.946 0 0 0-.15-.014z" class="cls-3" transform="translate(24.67 90.164)"/>
            <path id="Shape-92" d="M2.475 4.7H2.35a1.731 1.731 0 0 1-1.4-.811C.877 3.773.8 3.665.717 3.54l-.045-.063-.05-.077-.067-.1a4.059 4.059 0 0 1-.411-.713 1.61 1.61 0 0 1-.12-.93 1.671 1.671 0 0 1 .564-.93 2.7 2.7 0 0 1 1.253-.69 1.8 1.8 0 0 1 1.2.163 3.868 3.868 0 0 1 1.531 1.692.523.523 0 0 1 .054.36c0 .029-.011.059-.017.088a3.368 3.368 0 0 1-.816 1.841 1.823 1.823 0 0 1-1.318.519zm-.261-3.647a.786.786 0 0 0-.16.017 1.71 1.71 0 0 0-.762.439.675.675 0 0 0-.236.347.592.592 0 0 0 .057.328 3.046 3.046 0 0 0 .309.526l.041.063c.015.024.036.053.054.078.113.16.232.331.335.5a.673.673 0 0 0 .564.3h.063a.8.8 0 0 0 .556-.195 2.221 2.221 0 0 0 .527-1.22 2.751 2.751 0 0 0-.99-1.092.809.809 0 0 0-.359-.088z" class="cls-3" transform="translate(38.76 60.866)"/>
            <path id="Shape-93" d="M2.216 4.743a2.066 2.066 0 0 1-.716-.13A1.733 1.733 0 0 1 .4 3.422C.363 3.283.32 3.147.272 2.99l-.015-.038-.063-.2a4.189 4.189 0 0 1-.184-.8 1.614 1.614 0 0 1 .156-.923A1.685 1.685 0 0 1 .983.3a2.9 2.9 0 0 1 1.21-.3 1.347 1.347 0 0 1 .188.009 1.811 1.811 0 0 1 1.1.505 3.881 3.881 0 0 1 .971 2.066.507.507 0 0 1-.053.359l-.019.036-.023.045a3.375 3.375 0 0 1-1.32 1.52 1.69 1.69 0 0 1-.821.2zm-.023-3.69a1.884 1.884 0 0 0-.768.2.671.671 0 0 0-.326.263.609.609 0 0 0-.042.332 3.262 3.262 0 0 0 .143.592l.006.018.015.046.005.015.026.08.01.032c.054.17.117.363.16.546a.676.676 0 0 0 .45.448.992.992 0 0 0 .343.063.648.648 0 0 0 .307-.068 2.228 2.228 0 0 0 .862-1.009 2.736 2.736 0 0 0-.626-1.334.766.766 0 0 0-.473-.221l-.092-.003z" class="cls-3" transform="translate(60.92 37.043)"/>
            <path id="Shape-94" d="M1.874 4.726a1.961 1.961 0 0 1-1.162-.413A1.725 1.725 0 0 1 0 2.853c.008-.15.006-.3 0-.478v-.22a4.322 4.322 0 0 1 .055-.823A1.6 1.6 0 0 1 .482.5a1.678 1.678 0 0 1 .993-.463A3.677 3.677 0 0 1 1.979 0 2.412 2.412 0 0 1 2.9.167a1.81 1.81 0 0 1 .9.8 3.869 3.869 0 0 1 .326 2.257.525.525 0 0 1-.156.33l-.063.063h-.005A3.355 3.355 0 0 1 2.2 4.69a1.459 1.459 0 0 1-.325.036zm.106-3.674a2.638 2.638 0 0 0-.36.026.674.674 0 0 0-.392.155.594.594 0 0 0-.135.305 3.153 3.153 0 0 0-.04.607v.169c0 .172.006.4 0 .6a.673.673 0 0 0 .3.559.912.912 0 0 0 .531.194.484.484 0 0 0 .1-.009A2.23 2.23 0 0 0 3.1 2.941a2.76 2.76 0 0 0-.206-1.458.773.773 0 0 0-.394-.346 1.342 1.342 0 0 0-.515-.085z" class="cls-3" transform="translate(89.126 20.78)"/>
            <path id="Shape-95" d="M1.888 4.7a1.927 1.927 0 0 1-.224-.009A1.84 1.84 0 0 1 .353 3.9 1.734 1.734 0 0 1 .1 2.293c.052-.144.1-.293.147-.472.016-.063.034-.125.057-.2A4.143 4.143 0 0 1 .6.856a1.587 1.587 0 0 1 .647-.679A1.529 1.529 0 0 1 1.983 0a2.181 2.181 0 0 1 .347.029A2.726 2.726 0 0 1 3.655.57a1.81 1.81 0 0 1 .627 1.03 3.875 3.875 0 0 1-.349 2.257.52.52 0 0 1-.246.269l-.038.02a.409.409 0 0 0-.04.022 3.538 3.538 0 0 1-1.721.532zm.1-3.647a.489.489 0 0 0-.236.05.6.6 0 0 0-.221.251 3.214 3.214 0 0 0-.215.57l-.016.057c-.009.034-.019.069-.031.1-.049.171-.109.384-.18.575a.672.672 0 0 0 .125.623.827.827 0 0 0 .541.359c.046 0 .094.006.143.006a2.388 2.388 0 0 0 1.132-.358 2.76 2.76 0 0 0 .226-1.456.761.761 0 0 0-.269-.448 1.711 1.711 0 0 0-.822-.313 1.127 1.127 0 0 0-.181-.016z" class="cls-3" transform="translate(120.564 13.454)"/>
            <path id="Shape-96" d="M2.15 4.652a2.7 2.7 0 0 1-1.057-.209 1.859 1.859 0 0 1-1-1.161 1.733 1.733 0 0 1 .255-1.6c.1-.122.184-.251.286-.4.03-.042.059-.086.089-.13l.028-.041a4.113 4.113 0 0 1 .517-.643 1.613 1.613 0 0 1 .825-.445A1.433 1.433 0 0 1 2.346 0a1.831 1.831 0 0 1 .824.216 2.736 2.736 0 0 1 1.091.923 1.829 1.829 0 0 1 .278 1.176 3.912 3.912 0 0 1-1.03 2.038.532.532 0 0 1-.318.181l-.037.006-.054.008h-.01a5.689 5.689 0 0 1-.941.1zm.2-3.6a.369.369 0 0 0-.066.006.577.577 0 0 0-.284.17 3.1 3.1 0 0 0-.381.477c-.029.045-.063.091-.095.139v.006c-.1.146-.222.327-.345.481a.667.667 0 0 0-.076.634.826.826 0 0 0 .4.509 1.611 1.611 0 0 0 .645.125 4.244 4.244 0 0 0 .683-.073 2.749 2.749 0 0 0 .667-1.31.779.779 0 0 0-.118-.511 1.706 1.706 0 0 0-.684-.551.773.773 0 0 0-.341-.1z" class="cls-3" transform="translate(152.785 15.789)"/>
            <path id="Shape-97" d="M2.671 4.65a.529.529 0 0 1-.071-.005l-.044-.006-.046-.005A3.373 3.373 0 0 1 .617 3.95 1.858 1.858 0 0 1 0 2.542a1.728 1.728 0 0 1 .711-1.458C.845.992.972.89 1.1.783l.09-.069.075-.059a4.034 4.034 0 0 1 .683-.461A1.7 1.7 0 0 1 2.708 0a1.412 1.412 0 0 1 .16.009 1.691 1.691 0 0 1 .972.5 2.751 2.751 0 0 1 .774 1.2 1.825 1.825 0 0 1-.078 1.2 3.914 3.914 0 0 1-1.58 1.647.513.513 0 0 1-.284.085zm.033-3.6a.637.637 0 0 0-.285.082 3 3 0 0 0-.5.345c-.045.034-.092.072-.132.1l-.032.024c-.13.1-.291.234-.448.342a.668.668 0 0 0-.257.583.815.815 0 0 0 .239.6 2.2 2.2 0 0 0 1.253.439 2.741 2.741 0 0 0 1.022-1.049.768.768 0 0 0 .036-.523 1.724 1.724 0 0 0-.492-.728.66.66 0 0 0-.362-.211h-.041z" class="cls-3" transform="translate(182.925 27.634)"/>
            <path id="Shape-98" d="M2.174 4.524a.528.528 0 0 1-.219-.048c-.014-.008-.03-.014-.046-.021l-.034-.015-.011-.005a3.347 3.347 0 0 1-1.6-1.207 1.853 1.853 0 0 1-.179-1.522A1.734 1.734 0 0 1 1.191.519c.133-.043.267-.1.41-.151l.053-.021C1.716.322 1.779.3 1.848.27a4.017 4.017 0 0 1 .784-.24A1.97 1.97 0 0 1 2.964 0a1.49 1.49 0 0 1 .6.122 1.674 1.674 0 0 1 .786.761 2.752 2.752 0 0 1 .389 1.374 1.838 1.838 0 0 1-.427 1.132A3.887 3.887 0 0 1 2.318 4.5a.5.5 0 0 1-.144.021zm.79-3.472a.919.919 0 0 0-.154.014 3.1 3.1 0 0 0-.58.183l-.063.024-.026.01-.069.027c-.184.075-.376.152-.564.211A.661.661 0 0 0 1.095 2a.826.826 0 0 0 .048.646 2.211 2.211 0 0 0 1.071.791A2.728 2.728 0 0 0 3.5 2.722a.761.761 0 0 0 .188-.488 1.733 1.733 0 0 0-.257-.842.669.669 0 0 0-.284-.307.451.451 0 0 0-.181-.033z" class="cls-3" transform="translate(208.278 47.94)"/>
            <path id="Shape-99" d="M2.592 4.362A4.55 4.55 0 0 1 .771 3.9a.509.509 0 0 1-.261-.259C.5 3.629.5 3.617.492 3.605S.477 3.577.47 3.562v-.007A3.37 3.37 0 0 1 .019 1.6 1.867 1.867 0 0 1 .857.313 1.848 1.848 0 0 1 1.863 0a1.576 1.576 0 0 1 .606.121c.125.051.262.1.4.144l.063.02c.049.015.1.032.15.05L3.13.35a4.019 4.019 0 0 1 .757.322 1.61 1.61 0 0 1 .655.669 1.663 1.663 0 0 1 .11 1.09 2.721 2.721 0 0 1-.583 1.3 1.831 1.831 0 0 1-1.056.593 2.348 2.348 0 0 1-.422.036zm-.73-3.309a.779.779 0 0 0-.423.139.824.824 0 0 0-.376.526 2.21 2.21 0 0 0 .313 1.292 3.334 3.334 0 0 0 1.211.3 1.276 1.276 0 0 0 .23-.019.773.773 0 0 0 .459-.255 1.728 1.728 0 0 0 .343-.81.673.673 0 0 0-.019-.419.581.581 0 0 0-.244-.227 3.131 3.131 0 0 0-.564-.234L2.7 1.315l-.07-.023-.017-.007h-.011c-.17-.055-.363-.118-.535-.188a.526.526 0 0 0-.2-.041z" class="cls-3" transform="translate(251.222 100.638)"/>
            <path id="Shape-100" d="M2.485 4.6a1.944 1.944 0 0 1-.389-.04A3.871 3.871 0 0 1 .178 3.326a.534.534 0 0 1-.147-.335v-.088A3.329 3.329 0 0 1 .34.914 1.842 1.842 0 0 1 1.6.041 1.957 1.957 0 0 1 2 0a1.637 1.637 0 0 1 1.17.461c.118.114.251.224.37.326l.158.135a4.016 4.016 0 0 1 .581.582 1.612 1.612 0 0 1 .358.866 1.677 1.677 0 0 1-.305 1.05 2.762 2.762 0 0 1-1.032.99 1.789 1.789 0 0 1-.81.194zm-.49-3.553a.962.962 0 0 0-.184.019.826.826 0 0 0-.547.347 2.213 2.213 0 0 0-.194 1.32 2.748 2.748 0 0 0 1.235.8.888.888 0 0 0 .18.019.743.743 0 0 0 .341-.082 1.742 1.742 0 0 0 .621-.623.667.667 0 0 0 .137-.4.564.564 0 0 0-.141-.305 3.039 3.039 0 0 0-.433-.422l-.046-.039c-.028-.026-.056-.048-.083-.07L2.873 1.6c-.133-.112-.3-.251-.438-.392a.611.611 0 0 0-.44-.157z" class="cls-3" transform="translate(251.365 150.462)"/>
            <path id="Shape-101" d="M2.364 4.729A1.822 1.822 0 0 1 1.315 4.4 3.891 3.891 0 0 1 .036 2.508a.515.515 0 0 1 0-.361c.002-.024.01-.047.018-.067l.008-.018A3.381 3.381 0 0 1 1.127.352 1.766 1.766 0 0 1 2.219 0a2.066 2.066 0 0 1 .412.041 1.737 1.737 0 0 1 1.275 1c.053.125.112.242.18.38l.033.066.059.116.035.069a4.188 4.188 0 0 1 .307.764 1.631 1.631 0 0 1-.009.936 1.679 1.679 0 0 1-.693.847 2.716 2.716 0 0 1-1.336.507c-.039.002-.082.003-.118.003zm-.145-3.678a.743.743 0 0 0-.438.125 2.237 2.237 0 0 0-.694 1.134 2.75 2.75 0 0 0 .825 1.22.779.779 0 0 0 .454.147h.05a1.7 1.7 0 0 0 .814-.33.667.667 0 0 0 .282-.313A.569.569 0 0 0 3.5 2.7a3.183 3.183 0 0 0-.231-.564l-.076-.149c-.085-.168-.181-.358-.257-.539a.672.672 0 0 0-.516-.372 1 1 0 0 0-.2-.021z" class="cls-3" transform="translate(232.233 196.571)"/>
            <path id="Shape-102" d="M2.165 4.734a2.273 2.273 0 0 1-.722-.111 1.8 1.8 0 0 1-.956-.736A3.889 3.889 0 0 1 0 1.653a.535.535 0 0 1 .133-.336l.06-.067A3.353 3.353 0 0 1 1.825.063 1.531 1.531 0 0 1 2.264 0a1.967 1.967 0 0 1 1.071.334 1.742 1.742 0 0 1 .814 1.407c0 .139.012.283.024.439v.056c0 .039.007.08.01.122s0 .056.007.084a4.016 4.016 0 0 1 0 .823 1.606 1.606 0 0 1-.365.863 1.68 1.68 0 0 1-.957.526 3.458 3.458 0 0 1-.708.08zm.093-3.681a.515.515 0 0 0-.137.017 2.225 2.225 0 0 0-1.065.792A2.76 2.76 0 0 0 1.362 3.3a.776.776 0 0 0 .415.322 1.215 1.215 0 0 0 .387.056 2.445 2.445 0 0 0 .492-.056.681.681 0 0 0 .376-.184.607.607 0 0 0 .116-.313 3.229 3.229 0 0 0-.006-.61c0-.034 0-.069-.008-.1l-.005-.063c-.018-.2-.034-.4-.036-.6a.675.675 0 0 0-.339-.537.93.93 0 0 0-.5-.162z" class="cls-3" transform="translate(197.118 231.938)"/>
            <path id="Shape-103" d="M2.339 4.7a2.156 2.156 0 0 1-.408-.041 2.689 2.689 0 0 1-1.307-.592 1.825 1.825 0 0 1-.589-1.053A3.9 3.9 0 0 1 .464.771.53.53 0 0 1 .719.51L.767.487.8.472A3.648 3.648 0 0 1 2.446 0a2.807 2.807 0 0 1 .313.018A1.853 1.853 0 0 1 4.044.86a1.726 1.726 0 0 1 .2 1.609c-.052.125-.1.258-.145.407l-.019.058-.026.08-.039.118a4.062 4.062 0 0 1-.321.755 1.612 1.612 0 0 1-.669.658 1.526 1.526 0 0 1-.686.155zm.1-3.644a2.512 2.512 0 0 0-1.09.323 2.723 2.723 0 0 0-.28 1.446.777.777 0 0 0 .254.459 1.709 1.709 0 0 0 .81.341 1.043 1.043 0 0 0 .206.023.5.5 0 0 0 .214-.048.617.617 0 0 0 .227-.244 3.05 3.05 0 0 0 .234-.564l.005-.014c.015-.043.032-.092.046-.139l.021-.063.017-.05c.051-.153.1-.313.165-.46a.667.667 0 0 0-.1-.627.814.814 0 0 0-.526-.376 1.781 1.781 0 0 0-.202-.011z" class="cls-3" transform="translate(151.001 251.218)"/>
            <path id="Shape-104" d="M2.13 4.636a1.739 1.739 0 0 1-.95-.313 2.739 2.739 0 0 1-.986-1.029A1.8 1.8 0 0 1 .04 2.1 3.868 3.868 0 0 1 1.277.177.513.513 0 0 1 1.611.03h.006L1.7.023C1.883.012 2.071 0 2.265 0A2.852 2.852 0 0 1 3.69.339 1.847 1.847 0 0 1 4.563 1.6a1.722 1.722 0 0 1-.42 1.567c-.1.105-.2.22-.313.352l-.013.016c-.046.055-.09.107-.134.157a4.145 4.145 0 0 1-.583.583 1.614 1.614 0 0 1-.866.358c-.034.001-.068.003-.104.003zm.142-3.582c-.135 0-.278.007-.4.014a2.752 2.752 0 0 0-.8 1.237.765.765 0 0 0 .063.52 1.713 1.713 0 0 0 .622.619.707.707 0 0 0 .367.14h.029a.6.6 0 0 0 .305-.14 3.293 3.293 0 0 0 .427-.434c.033-.04.071-.085.11-.129l.016-.019.008-.009c.115-.137.245-.292.376-.426a.677.677 0 0 0 .141-.618.83.83 0 0 0-.347-.547 1.758 1.758 0 0 0-.91-.209z" class="cls-3" transform="translate(100.933 251.364)"/>
            <path id="Shape-105" d="M1.82 4.585a1.449 1.449 0 0 1-.462-.074 1.7 1.7 0 0 1-.848-.69A2.76 2.76 0 0 1 0 2.483a1.829 1.829 0 0 1 .33-1.166A3.926 3.926 0 0 1 2.218.034.538.538 0 0 1 2.407 0a.518.518 0 0 1 .175.031l.03.011.055.018a3.358 3.358 0 0 1 1.71 1.066 1.849 1.849 0 0 1 .313 1.5 1.735 1.735 0 0 1-1 1.278c-.136.056-.269.125-.423.2l-.023.011-.058.029-.125.063a4.029 4.029 0 0 1-.764.307 1.852 1.852 0 0 1-.477.071zm.6-3.5a2.718 2.718 0 0 0-1.22.824.773.773 0 0 0-.145.505 1.735 1.735 0 0 0 .33.815.667.667 0 0 0 .313.283.39.39 0 0 0 .125.019.841.841 0 0 0 .2-.029 3.211 3.211 0 0 0 .564-.234c.063-.03.108-.053.15-.076l.05-.025c.145-.072.325-.162.494-.234a.671.671 0 0 0 .372-.515.836.836 0 0 0-.1-.641 2.2 2.2 0 0 0-1.134-.69z" class="cls-3" transform="translate(54.698 232.23)"/>
            <path id="Shape-106" d="M1.849 4.21a2.968 2.968 0 0 1-.376-.022 1.6 1.6 0 0 1-.867-.359A1.686 1.686 0 0 1 .08 2.87a2.71 2.71 0 0 1 .031-1.427A1.818 1.818 0 0 1 .849.484 3.738 3.738 0 0 1 2.937 0h.145a.517.517 0 0 1 .338.134l.067.059a3.4 3.4 0 0 1 1.184 1.626 1.854 1.854 0 0 1-.274 1.5 1.737 1.737 0 0 1-1.405.814c-.152 0-.306.014-.492.029h-.041l-.165.015c-.121.023-.281.033-.445.033zm1.022-3.158a2.744 2.744 0 0 0-1.441.309.76.76 0 0 0-.322.412 1.718 1.718 0 0 0 0 .878.662.662 0 0 0 .183.376.58.58 0 0 0 .313.116 1.9 1.9 0 0 0 .237.013c.1 0 .221-.006.376-.018h.017c.048 0 .1-.008.149-.013l.076-.006c.174-.014.354-.028.526-.029a.672.672 0 0 0 .538-.339.84.84 0 0 0 .143-.633 2.222 2.222 0 0 0-.793-1.066z" class="cls-3" transform="translate(19.325 197.119)"/>
            <path id="Shape-107" d="M2.829 4.363a1.565 1.565 0 0 1-.6-.12c-.142-.058-.289-.108-.465-.164l-.119-.039-.078-.028a4.07 4.07 0 0 1-.757-.324 1.6 1.6 0 0 1-.658-.667 1.694 1.694 0 0 1-.11-1.088A2.731 2.731 0 0 1 .627.627 1.82 1.82 0 0 1 1.683.038 2.332 2.332 0 0 1 2.109 0a4.549 4.549 0 0 1 1.817.465.542.542 0 0 1 .261.255l.037.08a3.334 3.334 0 0 1 .454 1.963 1.843 1.843 0 0 1-.842 1.28 1.844 1.844 0 0 1-1.008.318zm-.723-3.312a1.288 1.288 0 0 0-.231.019.773.773 0 0 0-.459.255 1.727 1.727 0 0 0-.343.806.678.678 0 0 0 .019.42.6.6 0 0 0 .244.229 3.05 3.05 0 0 0 .564.234l.023.008.077.022.063.021c.188.063.383.125.568.2a.535.535 0 0 0 .2.039.768.768 0 0 0 .425-.137.829.829 0 0 0 .376-.528A2.25 2.25 0 0 0 3.32 1.35a3.373 3.373 0 0 0-1.214-.3z" class="cls-3" transform="translate(.083 150.999)"/>
            <path id="Shape-108" d="M2.643 4.6a1.644 1.644 0 0 1-1.173-.46c-.1-.1-.207-.188-.331-.293L1.1 3.816.963 3.7l-.024-.019a4.1 4.1 0 0 1-.58-.581A1.589 1.589 0 0 1 0 2.232a1.684 1.684 0 0 1 .309-1.05A2.686 2.686 0 0 1 1.341.194 1.789 1.789 0 0 1 2.151 0a1.944 1.944 0 0 1 .389.04 3.908 3.908 0 0 1 1.919 1.235.525.525 0 0 1 .145.335c0 .029 0 .059.006.088a3.371 3.371 0 0 1-.31 1.991 1.855 1.855 0 0 1-1.26.873 1.985 1.985 0 0 1-.395.04zm-.491-3.55a.751.751 0 0 0-.341.082 1.728 1.728 0 0 0-.621.621.683.683 0 0 0-.139.4.6.6 0 0 0 .141.3 3.071 3.071 0 0 0 .437.43l.128.11c.188.154.333.284.45.4a.6.6 0 0 0 .434.16.935.935 0 0 0 .188-.019.829.829 0 0 0 .547-.347 2.213 2.213 0 0 0 .194-1.319 2.747 2.747 0 0 0-1.239-.8.909.909 0 0 0-.179-.019z" class="cls-3" transform="translate(-.002 100.935)"/>
            <path id="Shape-109" d="M2.365 4.729a2.052 2.052 0 0 1-.408-.041 1.736 1.736 0 0 1-1.279-1c-.057-.14-.125-.273-.212-.446l-.034-.067v-.006a1.159 1.159 0 0 1-.058-.111 4.068 4.068 0 0 1-.31-.764 1.6 1.6 0 0 1 .009-.94A1.688 1.688 0 0 1 .767.511 2.714 2.714 0 0 1 2.1 0h.117a1.831 1.831 0 0 1 1.05.33 3.906 3.906 0 0 1 1.284 1.889.526.526 0 0 1 0 .364l-.029.084a3.373 3.373 0 0 1-1.065 1.708 1.758 1.758 0 0 1-1.092.354zm-.14-3.677h-.058a1.7 1.7 0 0 0-.814.33.662.662 0 0 0-.281.312.593.593 0 0 0 .01.335 3.256 3.256 0 0 0 .234.564c.023.046.048.1.076.15l.041.083c.071.142.15.3.217.461a.67.67 0 0 0 .516.372 1 1 0 0 0 .2.02.751.751 0 0 0 .434-.126 2.213 2.213 0 0 0 .689-1.137A2.749 2.749 0 0 0 2.672 1.2a.773.773 0 0 0-.448-.149z" class="cls-3" transform="translate(19.181 54.7)"/>
            <path id="Shape-110" d="M1.951 4.731A1.981 1.981 0 0 1 .877 4.4a1.732 1.732 0 0 1-.809-1.407c0-.155-.014-.313-.029-.491C.033 2.439.026 2.368.021 2.3a4.015 4.015 0 0 1 0-.825 1.614 1.614 0 0 1 .36-.869 1.68 1.68 0 0 1 .96-.526A3.451 3.451 0 0 1 2.05 0a2.284 2.284 0 0 1 .718.109 1.829 1.829 0 0 1 .957.739 3.884 3.884 0 0 1 .482 2.232.528.528 0 0 1-.133.341l-.018.019-.041.046a3.348 3.348 0 0 1-1.627 1.185 1.591 1.591 0 0 1-.437.06zm.1-3.68a2.441 2.441 0 0 0-.493.056.659.659 0 0 0-.376.183.568.568 0 0 0-.115.313 3.066 3.066 0 0 0 0 .607v.045c0 .039.006.08.011.122l.006.07c.013.167.028.356.03.532a.676.676 0 0 0 .339.539.922.922 0 0 0 .492.159.518.518 0 0 0 .141-.018 2.223 2.223 0 0 0 1.065-.793 2.736 2.736 0 0 0-.309-1.442.777.777 0 0 0-.406-.324 1.256 1.256 0 0 0-.386-.05z" class="cls-3" transform="translate(54.669 19.328)"/>
            <path id="Shape-111" d="M1.911 4.7a2.789 2.789 0 0 1-.311-.022 1.858 1.858 0 0 1-1.283-.841 1.733 1.733 0 0 1-.2-1.611c.05-.125.094-.255.14-.394l.026-.072L.3 1.7c.014-.045.029-.091.046-.138A4.188 4.188 0 0 1 .67.807a1.6 1.6 0 0 1 .671-.655A1.517 1.517 0 0 1 2.02 0a2.1 2.1 0 0 1 .408.043 2.724 2.724 0 0 1 1.3.584 1.818 1.818 0 0 1 .588 1.054 3.9 3.9 0 0 1-.427 2.242.543.543 0 0 1-.255.263l-.063.029-.019.009a3.665 3.665 0 0 1-1.641.476zm.109-3.649a.463.463 0 0 0-.212.043.582.582 0 0 0-.229.244 3.136 3.136 0 0 0-.234.564l-.013.039-.011.033-.029.088c-.052.159-.125.376-.2.568a.676.676 0 0 0 .1.627.823.823 0 0 0 .527.376 1.753 1.753 0 0 0 .2.012A2.526 2.526 0 0 0 3.01 3.32a2.734 2.734 0 0 0 .278-1.442.757.757 0 0 0-.251-.459 1.741 1.741 0 0 0-.81-.342 1.1 1.1 0 0 0-.208-.024z" class="cls-3" transform="translate(100.638 .086)"/>
            <path id="Shape-112" d="M2.335 4.634A2.841 2.841 0 0 1 .916 4.3a1.839 1.839 0 0 1-.871-1.26 1.734 1.734 0 0 1 .416-1.57c.109-.112.212-.234.326-.37L.9.969.922.94A4.128 4.128 0 0 1 1.5.362 1.6 1.6 0 0 1 2.371 0a1.025 1.025 0 0 1 .106 0 1.734 1.734 0 0 1 .943.309 2.706 2.706 0 0 1 .991 1.033 1.83 1.83 0 0 1 .153 1.2 3.88 3.88 0 0 1-1.236 1.917.536.536 0 0 1-.335.147H2.9c-.185.016-.374.028-.565.028zm.138-3.583h-.022a.59.59 0 0 0-.3.141 3.192 3.192 0 0 0-.427.435c-.03.033-.063.072-.11.129-.12.142-.261.307-.4.448a.676.676 0 0 0-.141.62.826.826 0 0 0 .347.547 1.767 1.767 0 0 0 .911.208c.131 0 .271-.007.4-.014a2.744 2.744 0 0 0 .8-1.235.762.762 0 0 0-.063-.522 1.725 1.725 0 0 0-.623-.621.726.726 0 0 0-.376-.136z" class="cls-3" transform="translate(150.462)"/>
            <path id="Shape-113" d="M2.324 4.584a.531.531 0 0 1-.177-.031l-.052-.018-.032-.011h-.009a3.357 3.357 0 0 1-1.7-1.066 1.851 1.851 0 0 1-.313-1.5 1.733 1.733 0 0 1 1-1.277c.13-.056.257-.118.4-.192l.046-.023L1.608.4l.063-.028a4.167 4.167 0 0 1 .764-.309A1.878 1.878 0 0 1 2.908 0a1.436 1.436 0 0 1 .465.076 1.662 1.662 0 0 1 .846.69A2.716 2.716 0 0 1 4.728 2.1 1.814 1.814 0 0 1 4.4 3.266 3.872 3.872 0 0 1 2.513 4.55a.538.538 0 0 1-.189.034zm.582-3.532a.784.784 0 0 0-.2.031 2.923 2.923 0 0 0-.564.231l-.073.036-.079.039-.016.011c-.154.078-.346.176-.532.251a.676.676 0 0 0-.372.515.823.823 0 0 0 .107.639 2.2 2.2 0 0 0 1.134.69 2.741 2.741 0 0 0 1.222-.821.782.782 0 0 0 .145-.5 1.732 1.732 0 0 0-.332-.815.656.656 0 0 0-.309-.28.4.4 0 0 0-.13-.023z" class="cls-3" transform="translate(196.57 19.183)"/>
        </g>
    </g>
</svg>
