<svg xmlns="http://www.w3.org/2000/svg" width="47.973" height="66.71" viewBox="0 0 47.973 66.71">
    <defs>
        <style>
            .cls-1,.cls-2{fill:#674cf3}.cls-1{opacity:.4}.cls-2{opacity:.7}.cls-8{fill:#edf6ff}.cls-9{fill:#2e3e6a}
        </style>
    </defs>
    <g id="Why" transform="translate(-71.902)">
        <g id="Group_37221" transform="translate(86.675 55.198)">
            <path id="Path_39105" d="M202.4 427.857h-15.8a1.316 1.316 0 0 1-1.316-1.316v-1.579a1.316 1.316 0 0 1 1.316-1.316h15.8a1.316 1.316 0 0 1 1.316 1.316v1.579a1.316 1.316 0 0 1-1.316 1.316z" class="cls-1" transform="translate(-185.288 -423.645)"/>
        </g>
        <g id="Group_37222" transform="translate(98.521 55.198)">
            <path id="Path_39106" d="M281.469 423.646H276.2a1.316 1.316 0 0 1 1.316 1.316v1.579a1.316 1.316 0 0 1-1.316 1.316h5.265a1.316 1.316 0 0 0 1.316-1.316v-1.579a1.316 1.316 0 0 0-1.312-1.316z" class="cls-2" transform="translate(-276.204 -423.646)"/>
        </g>
        <g id="Group_37223" opacity="0.6" transform="translate(72.879 .977)">
            <path id="Path_39107" fill="#674cf3" d="M102.41 7.5A23.011 23.011 0 0 0 90.3 50.08a6.337 6.337 0 0 1 2.95 4.532l.393 2.9h17.524l.393-2.9a6.259 6.259 0 0 1 2.895-4.5A23.011 23.011 0 0 0 102.41 7.5z" transform="translate(-79.401 -7.5)"/>
        </g>
        <g id="Group_37224" transform="translate(83.847 4.686)">
            <path id="Path_39108" fill="#674cf3" d="M188.153 35.969a24.29 24.29 0 0 1-24.572 38.912 6.335 6.335 0 0 1 2.886 4.49l.393 2.9h17.524l.393-2.9a6.259 6.259 0 0 1 2.895-4.5 23.013 23.013 0 0 0 .48-38.9z" opacity="0.9" transform="translate(-163.581 -35.969)"/>
        </g>
        <g id="Group_37225" transform="translate(85.359 50.991)">
            <path id="Path_39109" d="M194.93 395.573H176.5a1.316 1.316 0 0 1-1.316-1.316v-1.579a1.316 1.316 0 0 1 1.316-1.316h18.43a1.316 1.316 0 0 1 1.316 1.316v1.579a1.316 1.316 0 0 1-1.316 1.316z" class="cls-1" transform="translate(-175.187 -391.361)"/>
        </g>
        <g id="Group_37226" transform="translate(99.837 50.992)">
            <path id="Path_39110" d="M291.571 391.362h-5.265a1.316 1.316 0 0 1 1.316 1.316v1.579a1.316 1.316 0 0 1-1.316 1.316h5.265a1.316 1.316 0 0 0 1.316-1.316v-1.579a1.316 1.316 0 0 0-1.316-1.316z" class="cls-2" transform="translate(-286.306 -391.362)"/>
        </g>
        <g id="Group_37227" transform="translate(89.044 59.415)">
            <path id="Path_39111" fill="#c3cde4" d="M213.664 462.33h-6.7a2.632 2.632 0 0 1-2.572-2.073l-.923-4.245h13.688l-.923 4.245a2.632 2.632 0 0 1-2.57 2.073z" transform="translate(-203.471 -456.012)"/>
        </g>
        <g id="Group_37228" transform="translate(95.684 59.415)">
            <path id="Path_39112" fill="#fff" d="M257.924 456.012l-.924 4.245a2.632 2.632 0 0 1-2.572 2.073h3.554a2.632 2.632 0 0 0 2.572-2.073l.923-4.245z" transform="translate(-254.429 -456.012)"/>
        </g>
        <g id="Group_37233" transform="translate(86.149 8.743)">
            <g id="Group_37229" transform="translate(7.332 28.835)">
                <circle id="Ellipse_2153" cx="2.392" cy="2.392" r="2.392" class="cls-8"/>
            </g>
            <g id="Group_37232">
                <g id="Group_37231">
                    <g id="Group_37230">
                        <path id="Path_39113" d="M190.974 91.151a2.392 2.392 0 0 1-2.392-2.392v-4.6a2.392 2.392 0 0 1 2.392-2.392 4.944 4.944 0 0 0 4.934-5.207 4.941 4.941 0 0 0-9.826-.426 5.013 5.013 0 0 0-.048.692 2.392 2.392 0 1 1-4.784 0 9.724 9.724 0 0 1 19.435-.514 9.646 9.646 0 0 1-2.659 7.208 9.768 9.768 0 0 1-4.66 2.729v2.513a2.392 2.392 0 0 1-2.392 2.392z" class="cls-8" transform="translate(-181.25 -67.099)"/>
                    </g>
                </g>
            </g>
        </g>
        <g id="Group_37234" transform="translate(71.902)">
            <path id="Path_39114" d="M108.54 0a23.963 23.963 0 0 0-22.01 14.409.977.977 0 0 0 1.793.778 22.044 22.044 0 0 1 40.484 17.456.977.977 0 1 0 1.8.769A24 24 0 0 0 108.54 0z" class="cls-9" transform="translate(-84.553)"/>
            <path id="Path_39115" d="M115.409 157.422a.977.977 0 0 0-1.359.251 22 22 0 0 1-6.625 6.3 7.2 7.2 0 0 0-3.349 5.2l-.279 2.056H87.98l-.279-2.057a7.292 7.292 0 0 0-3.4-5.231 22.1 22.1 0 0 1-9.955-23.386.977.977 0 1 0-1.912-.407 24.349 24.349 0 0 0-.529 5.006A23.973 23.973 0 0 0 83.268 165.6a5.344 5.344 0 0 1 2.5 3.832l.256 1.891a2.3 2.3 0 0 0-1.639 2.2v1.577a2.3 2.3 0 0 0 1.38 2.1 2.282 2.282 0 0 0-.063.525v1.579a2.3 2.3 0 0 0 2.293 2.293h.264l.757 3.481a3.63 3.63 0 0 0 3.527 2.843h6.7a3.63 3.63 0 0 0 3.527-2.843l.757-3.481h.264a2.3 2.3 0 0 0 2.293-2.293v-1.579a2.282 2.282 0 0 0-.063-.525 2.3 2.3 0 0 0 1.38-2.1v-1.58a2.3 2.3 0 0 0-1.639-2.2l.256-1.89a5.256 5.256 0 0 1 2.438-3.8 23.938 23.938 0 0 0 7.21-6.854.977.977 0 0 0-.251-1.359zM105.1 175.438H86.675a.339.339 0 0 1-.339-.339v-1.579a.34.34 0 0 1 .339-.339H105.1a.339.339 0 0 1 .339.339v1.58a.339.339 0 0 1-.339.338zm-.977 3.867a.339.339 0 0 1-.339.339h-7.707a.977.977 0 1 0 0 1.954h5.444l-.666 3.065a1.665 1.665 0 0 1-1.617 1.3h-6.7a1.665 1.665 0 0 1-1.617-1.3l-.666-3.065h1.261a.977.977 0 1 0 0-1.954h-3.525a.339.339 0 0 1-.339-.339v-1.579a.338.338 0 0 1 .292-.334h15.887a.338.338 0 0 1 .292.334v1.579z" class="cls-9" transform="translate(-71.902 -121.212)"/>
            <path id="Path_39116" d="M233.4 280.911a3.369 3.369 0 1 0 3.369 3.369 3.373 3.373 0 0 0-3.369-3.369zm0 4.784a1.415 1.415 0 1 1 1.415-1.415 1.416 1.416 0 0 1-1.415 1.415z" class="cls-9" transform="translate(-209.424 -244.31)"/>
            <path id="Path_39117" d="M187.82 80.454a10.7 10.7 0 0 0-3.15-20.854h-.221a10.7 10.7 0 0 0-10.7 10.7 3.369 3.369 0 0 0 6.738 0 4.034 4.034 0 0 1 .039-.557 3.963 3.963 0 1 1 3.925 4.52 3.373 3.373 0 0 0-3.369 3.369v4.6a3.369 3.369 0 0 0 6.738 0v-1.778zm-1.22-1.678a.977.977 0 0 0-.736.947v2.513a1.415 1.415 0 1 1-2.829 0v-4.6a1.416 1.416 0 0 1 1.415-1.415 5.921 5.921 0 0 0 5.91-6.234 5.932 5.932 0 0 0-5.785-5.6h-.133a5.912 5.912 0 0 0-5.91 5.918 1.415 1.415 0 0 1-2.829 0 8.834 8.834 0 0 1 .084-1.219 8.746 8.746 0 0 1 8.661-7.528h.181a8.772 8.772 0 0 1 8.555 8.282 8.743 8.743 0 0 1-6.585 8.939z" class="cls-9" transform="translate(-160.479 -51.834)"/>
        </g>
    </g>
</svg>
