<svg xmlns="http://www.w3.org/2000/svg" width="32.1" height="32.1" viewBox="0 0 32.1 32.1">
    <defs>
        <style>
            .cls-4{fill:#674cf3;stroke:#674cf3;stroke-width:.2px}
        </style>
    </defs>
    <g id="Reconciliation" transform="translate(-.9 -.9)">
        <text id="_" fill="#674cf3" font-family="Quicksand-Medium, Quicksand" font-size="10px" font-weight="500" opacity="0.3" transform="translate(20 25)">
            <tspan x="0" y="0">₹</tspan>
        </text>
        <path id="Path_39080" fill="#674cf3" d="M44.329 21.178l-9.3-4.134a.516.516 0 0 0-.42 0l-9.3 4.134a.517.517 0 0 0-.307.472v4.29a16.193 16.193 0 0 0 9.608 14.785.518.518 0 0 0 .42 0 16.193 16.193 0 0 0 9.608-14.785v-4.29a.516.516 0 0 0-.309-.472zm-9.511 12.874a5.684 5.684 0 1 1 5.682-5.684 5.684 5.684 0 0 1-5.684 5.684z" opacity="0.27" transform="translate(-11.636 -7.769)"/>
        <g id="Group_37208" opacity="0.896" transform="translate(1 1)">
            <path id="Path_39081" d="M21.152 1H6.684a1.552 1.552 0 0 0-1.55 1.55v2.584H2.55A1.552 1.552 0 0 0 1 6.684v18.6a1.552 1.552 0 0 0 1.55 1.55h14.469a1.552 1.552 0 0 0 1.55-1.55V22.7h2.584a1.552 1.552 0 0 0 1.55-1.55V2.55A1.552 1.552 0 0 0 21.152 1zm-3.617 24.286a.517.517 0 0 1-.517.517H2.55a.517.517 0 0 1-.517-.517V6.684a.517.517 0 0 1 .517-.517h10.335v3.1a1.55 1.55 0 0 0 1.55 1.55h3.1zm-3.617-18.9l3.319 3.39h-2.8a.517.517 0 0 1-.517-.517zm7.751 14.763a.517.517 0 0 1-.517.517h-2.583V10.3a1.543 1.543 0 0 0-.442-1.083L14.591 5.6a1.56 1.56 0 0 0-1.108-.466H6.167V2.55a.517.517 0 0 1 .517-.517h14.468a.517.517 0 0 1 .517.517z" class="cls-4" transform="translate(-1 -1)"/>
            <path id="Path_39082" d="M5.517 18.033h7.751a.517.517 0 0 0 0-1.033H5.517a.517.517 0 1 0 0 1.033z" class="cls-4" transform="translate(-2.933 -8.732)"/>
            <path id="Path_39083" d="M17.918 25H5.517a.517.517 0 0 0 0 1.033h12.4a.517.517 0 0 0 0-1.033z" class="cls-4" transform="translate(-2.933 -12.599)"/>
            <path id="Path_39084" d="M17.918 33H5.517a.517.517 0 0 0 0 1.033h12.4a.517.517 0 0 0 0-1.033z" class="cls-4" transform="translate(-2.933 -16.465)"/>
            <path id="Path_39085" d="M23.717 41h-6.2a.517.517 0 1 0 0 1.033h6.2a.517.517 0 0 0 0-1.033z" class="cls-4" transform="translate(-8.732 -20.331)"/>
        </g>
    </g>
</svg>
