<svg xmlns="http://www.w3.org/2000/svg" width="15.448" height="15.244" viewBox="0 0 15.448 15.244">
    <g opacity="0.6">
        <g>
            <path fill="#5b636a" d="M14.8 15.244a.645.645 0 0 1-.456-.187l-3.71-3.657a6.568 6.568 0 0 1-4.124 1.448A6.475 6.475 0 0 1 0 6.424 6.475 6.475 0 0 1 6.51 0a6.475 6.475 0 0 1 6.51 6.424 6.388 6.388 0 0 1-1.475 4.076l3.714 3.665a.625.625 0 0 1 0 .9.645.645 0 0 1-.459.179zM6.51 1.275a5.19 5.19 0 0 0-5.218 5.149 5.218 5.218 0 0 0 10.436 0A5.19 5.19 0 0 0 6.51 1.275z"/>
        </g>
    </g>
</svg>
