<svg xmlns="http://www.w3.org/2000/svg" width="32" height="33.064" viewBox="0 0 32 33.064">
    <defs>
        <style>
            .cls-2{fill:#ff7300}
        </style>
    </defs>
    <g id="Seller" transform="translate(-654 -667)">
        <g id="detective" transform="translate(661.522 675.586)">
            <g id="Group_37207" opacity="0.3">
                <path id="Path_39072" d="M28.313 44.542l-1.545 1.442 3.276 3.276 1.442-1.545a10.022 10.022 0 0 1-3.173-3.173z" class="cls-2" transform="translate(-21.633 -29.918)"/>
                <path id="Path_39073" d="M17.974 51.8a2.6 2.6 0 1 0 3.67 3.67l3.187-3.53-3.331-3.332z" class="cls-2" transform="translate(-17.148 -31.813)"/>
                <circle id="Ellipse_2151" cx="5.956" cy="5.956" r="5.956" class="cls-2" transform="translate(9.362 3.203)"/>
                <path id="Path_39074" d="M37.845 17.148A9.159 9.159 0 1 0 47 26.307a9.159 9.159 0 0 0-9.155-9.159zm0 16.183a7.024 7.024 0 1 1 7.024-7.024 7.024 7.024 0 0 1-7.024 7.024z" class="cls-2" transform="translate(-22.527 -17.148)"/>
            </g>
        </g>
        <g id="farmer" opacity="0.8" transform="translate(654 667)">
            <path id="Path_39078" d="M15.922 17.016H15.9a5.838 5.838 0 0 0 3.18-5.216v-1.778a2.674 2.674 0 0 0 2.135-2.615.534.534 0 0 0-.534-.534H18.5l-.37-4.07A1.973 1.973 0 0 0 16.159 1a3.12 3.12 0 0 0-1.217.334 4.645 4.645 0 0 1-3.463 0A3.112 3.112 0 0 0 10.263 1a1.973 1.973 0 0 0-1.975 1.8l-.37 4.07H5.737a.534.534 0 0 0-.534.534 2.674 2.674 0 0 0 2.135 2.615V11.8a5.838 5.838 0 0 0 3.18 5.216H10.5a10.135 10.135 0 0 0-3.21.521A7.729 7.729 0 0 0 2 24.878v2.28a.534.534 0 0 0 .534.534h21.354a.534.534 0 0 0 .534-.534v-2.28c0-4.245-3.34-7.862-8.5-7.862zm-5.915 5.872a.534.534 0 0 1-.534-.534v-4.206q.291-.033.585-.047a3.206 3.206 0 0 0 2.618 2.6v2.184zm5.271-4.8a2.135 2.135 0 0 1-4.135 0zM13.745 20.7a3.206 3.206 0 0 0 2.618-2.6q.294.014.585.047v4.206a.534.534 0 0 1-.534.534h-2.669zM10.263 2.068a2.365 2.365 0 0 1 .821.258 5.7 5.7 0 0 0 4.255 0 2.365 2.365 0 0 1 .821-.258.91.91 0 0 1 .911.832l.129 1.445H9.22L9.352 2.9a.91.91 0 0 1 .911-.832zm-1.14 3.345H17.3l.133 1.459H8.991zM6.362 7.94h13.7a1.6 1.6 0 0 1-1.51 1.068H7.872a1.6 1.6 0 0 1-1.51-1.068zm2.044 3.86v-1.724h9.609V11.8a4.8 4.8 0 1 1-9.609 0zm0 6.531v4.023a1.6 1.6 0 0 0 1.6 1.6h6.406a1.6 1.6 0 0 0 1.6-1.6v-4.023a6.787 6.787 0 0 1 1.068.328v7.966H7.339v-7.966a6.575 6.575 0 0 1 1.068-.328zm-5.338 6.547a6.661 6.661 0 0 1 3.2-5.7v7.444h-3.2zm20.286 1.746h-3.2v-7.443a6.661 6.661 0 0 1 3.2 5.7z" class="cls-2" transform="translate(-2 -1)"/>
        </g>
    </g>
</svg>
