<svg xmlns="http://www.w3.org/2000/svg" width="16" height="16" viewBox="0 0 16 16">
    <g>
        <g>
            <path fill="#dbdbdb" d="M15.971 3.819L14.828.391A.571.571 0 0 0 14.286 0H1.714a.571.571 0 0 0-.542.391L.029 3.819A.582.582 0 0 0 0 3.985v.587a2.845 2.845 0 0 0 1.143 2.273v7.441A1.714 1.714 0 0 0 2.857 16h10.286a1.714 1.714 0 0 0 1.714-1.714V6.845A2.845 2.845 0 0 0 16 4.571v-.586a.581.581 0 0 0-.029-.166zM12 1.143h1.874l.762 2.286H12zm-3.429 0h2.286v2.286H8.571zm-3.429 0h2.287v2.286H5.143zm-3.017 0H4v2.286H1.364zm7.018 13.714H6.857v-4.571h2.286v4.571zm4.571-.571a.571.571 0 0 1-.571.571h-2.857V9.714a.571.571 0 0 0-.571-.571H6.286a.571.571 0 0 0-.571.571v5.143H2.857a.571.571 0 0 1-.571-.571V7.371a2.825 2.825 0 0 0 2.286-.525A2.9 2.9 0 0 0 8 6.847a2.9 2.9 0 0 0 3.429 0 2.825 2.825 0 0 0 2.286.525v6.914zm-.571-8a1.689 1.689 0 0 1-1.284-.593.571.571 0 0 0-.861 0 1.724 1.724 0 0 1-2.568 0 .591.591 0 0 0-.83-.026l-.025.025A1.724 1.724 0 0 1 5 5.693a.591.591 0 0 0-.835-.025l-.025.025a1.689 1.689 0 0 1-1.284.593 1.714 1.714 0 0 1-1.713-1.715h13.714a1.714 1.714 0 0 1-1.714 1.715z"/>
        </g>
    </g>
</svg>
