<svg xmlns="http://www.w3.org/2000/svg" width="9.935" height="16.298" viewBox="0 0 9.935 16.298">
    <g>
        <g fill="#dbdbdb" stroke="#dbdbdb">
            <path stroke-width="0.3px" d="M106.985 14.753V1.242A1.243 1.243 0 0 0 105.743 0h-7.151a1.243 1.243 0 0 0-1.242 1.242v13.514A1.243 1.243 0 0 0 98.592 16h7.151a1.248 1.248 0 0 0 1.242-1.247zM98.151 2.879h8.03v9.092h-8.03zM98.592.8h7.151a.441.441 0 0 1 .441.441v.837h-8.033v-.836A.441.441 0 0 1 98.592.8zm-.441 13.952v-1.983h8.03v1.984a.441.441 0 0 1-.441.441h-7.148a.441.441 0 0 1-.441-.441z" transform="translate(-97.2 .15) translate(97.35) translate(-97.35)"/>
            <path stroke-width="0.4px" d="M209.576 416.6h-1.624a.4.4 0 1 0 0 .8h1.624a.4.4 0 0 0 0-.8z" transform="translate(-97.2 .15) translate(97.35) translate(-203.948 -402.985)"/>
        </g>
    </g>
</svg>
