<svg xmlns="http://www.w3.org/2000/svg" width="181.001" height="287.77" viewBox="0 0 181.001 287.77">
    <defs>
        <clipPath id="clip-path">
            <path d="M0 0H181V117H0z" class="cls-1"/>
        </clipPath>
        <clipPath id="clip-path-2">
            <path d="M0 0H28.62V63.751H0z" class="cls-1"/>
        </clipPath>
        <style>
            .cls-1{fill:none}.cls-4{fill:#cceaef}
        </style>
    </defs>
    <g id="right_pattern" transform="translate(-1099 -140)">
        <path id="Intersection_5" fill="#cceaef" d="M-13965-2432a54.009 54.009 0 0 1 49-53.773v107.542a54 54 0 0 1-49-53.769z" opacity="0.54" transform="translate(15196 2806)"/>
        <g id="Repeat_Grid_1" clip-path="url(#clip-path)" transform="translate(1099 272)">
            <g transform="translate(-1098 -320)">
                <circle id="Ellipse_1464" cx="3" cy="3" r="3" class="cls-4" transform="translate(1098 320)"/>
                <circle id="Ellipse_1466" cx="3" cy="3" r="3" class="cls-4" transform="translate(1142 320)"/>
                <circle id="Ellipse_1465" cx="3" cy="3" r="3" class="cls-4" transform="translate(1120 320)"/>
                <circle id="Ellipse_1467" cx="3" cy="3" r="3" class="cls-4" transform="translate(1164 320)"/>
            </g>
            <g transform="translate(-1010 -320)">
                <circle id="Ellipse_1464-2" cx="3" cy="3" r="3" class="cls-4" transform="translate(1098 320)"/>
                <circle id="Ellipse_1466-2" cx="3" cy="3" r="3" class="cls-4" transform="translate(1142 320)"/>
                <circle id="Ellipse_1465-2" cx="3" cy="3" r="3" class="cls-4" transform="translate(1120 320)"/>
                <circle id="Ellipse_1467-2" cx="3" cy="3" r="3" class="cls-4" transform="translate(1164 320)"/>
            </g>
            <g transform="translate(-922 -320)">
                <circle id="Ellipse_1464-3" cx="3" cy="3" r="3" class="cls-4" transform="translate(1098 320)"/>
                <circle id="Ellipse_1466-3" cx="3" cy="3" r="3" class="cls-4" transform="translate(1142 320)"/>
                <circle id="Ellipse_1465-3" cx="3" cy="3" r="3" class="cls-4" transform="translate(1120 320)"/>
                <circle id="Ellipse_1467-3" cx="3" cy="3" r="3" class="cls-4" transform="translate(1164 320)"/>
            </g>
            <g transform="translate(-1098 -298)">
                <circle id="Ellipse_1464-4" cx="3" cy="3" r="3" class="cls-4" transform="translate(1098 320)"/>
                <circle id="Ellipse_1466-4" cx="3" cy="3" r="3" class="cls-4" transform="translate(1142 320)"/>
                <circle id="Ellipse_1465-4" cx="3" cy="3" r="3" class="cls-4" transform="translate(1120 320)"/>
                <circle id="Ellipse_1467-4" cx="3" cy="3" r="3" class="cls-4" transform="translate(1164 320)"/>
            </g>
            <g transform="translate(-1010 -298)">
                <circle id="Ellipse_1464-5" cx="3" cy="3" r="3" class="cls-4" transform="translate(1098 320)"/>
                <circle id="Ellipse_1466-5" cx="3" cy="3" r="3" class="cls-4" transform="translate(1142 320)"/>
                <circle id="Ellipse_1465-5" cx="3" cy="3" r="3" class="cls-4" transform="translate(1120 320)"/>
                <circle id="Ellipse_1467-5" cx="3" cy="3" r="3" class="cls-4" transform="translate(1164 320)"/>
            </g>
            <g transform="translate(-922 -298)">
                <circle id="Ellipse_1464-6" cx="3" cy="3" r="3" class="cls-4" transform="translate(1098 320)"/>
                <circle id="Ellipse_1466-6" cx="3" cy="3" r="3" class="cls-4" transform="translate(1142 320)"/>
                <circle id="Ellipse_1465-6" cx="3" cy="3" r="3" class="cls-4" transform="translate(1120 320)"/>
                <circle id="Ellipse_1467-6" cx="3" cy="3" r="3" class="cls-4" transform="translate(1164 320)"/>
            </g>
            <g transform="translate(-1098 -276)">
                <circle id="Ellipse_1464-7" cx="3" cy="3" r="3" class="cls-4" transform="translate(1098 320)"/>
                <circle id="Ellipse_1466-7" cx="3" cy="3" r="3" class="cls-4" transform="translate(1142 320)"/>
                <circle id="Ellipse_1465-7" cx="3" cy="3" r="3" class="cls-4" transform="translate(1120 320)"/>
                <circle id="Ellipse_1467-7" cx="3" cy="3" r="3" class="cls-4" transform="translate(1164 320)"/>
            </g>
            <g transform="translate(-1010 -276)">
                <circle id="Ellipse_1464-8" cx="3" cy="3" r="3" class="cls-4" transform="translate(1098 320)"/>
                <circle id="Ellipse_1466-8" cx="3" cy="3" r="3" class="cls-4" transform="translate(1142 320)"/>
                <circle id="Ellipse_1465-8" cx="3" cy="3" r="3" class="cls-4" transform="translate(1120 320)"/>
                <circle id="Ellipse_1467-8" cx="3" cy="3" r="3" class="cls-4" transform="translate(1164 320)"/>
            </g>
            <g transform="translate(-922 -276)">
                <circle id="Ellipse_1464-9" cx="3" cy="3" r="3" class="cls-4" transform="translate(1098 320)"/>
                <circle id="Ellipse_1466-9" cx="3" cy="3" r="3" class="cls-4" transform="translate(1142 320)"/>
                <circle id="Ellipse_1465-9" cx="3" cy="3" r="3" class="cls-4" transform="translate(1120 320)"/>
                <circle id="Ellipse_1467-9" cx="3" cy="3" r="3" class="cls-4" transform="translate(1164 320)"/>
            </g>
            <g transform="translate(-1098 -254)">
                <circle id="Ellipse_1464-10" cx="3" cy="3" r="3" class="cls-4" transform="translate(1098 320)"/>
                <circle id="Ellipse_1466-10" cx="3" cy="3" r="3" class="cls-4" transform="translate(1142 320)"/>
                <circle id="Ellipse_1465-10" cx="3" cy="3" r="3" class="cls-4" transform="translate(1120 320)"/>
                <circle id="Ellipse_1467-10" cx="3" cy="3" r="3" class="cls-4" transform="translate(1164 320)"/>
            </g>
            <g transform="translate(-1010 -254)">
                <circle id="Ellipse_1464-11" cx="3" cy="3" r="3" class="cls-4" transform="translate(1098 320)"/>
                <circle id="Ellipse_1466-11" cx="3" cy="3" r="3" class="cls-4" transform="translate(1142 320)"/>
                <circle id="Ellipse_1465-11" cx="3" cy="3" r="3" class="cls-4" transform="translate(1120 320)"/>
                <circle id="Ellipse_1467-11" cx="3" cy="3" r="3" class="cls-4" transform="translate(1164 320)"/>
            </g>
            <g transform="translate(-922 -254)">
                <circle id="Ellipse_1464-12" cx="3" cy="3" r="3" class="cls-4" transform="translate(1098 320)"/>
                <circle id="Ellipse_1466-12" cx="3" cy="3" r="3" class="cls-4" transform="translate(1142 320)"/>
                <circle id="Ellipse_1465-12" cx="3" cy="3" r="3" class="cls-4" transform="translate(1120 320)"/>
                <circle id="Ellipse_1467-12" cx="3" cy="3" r="3" class="cls-4" transform="translate(1164 320)"/>
            </g>
            <g transform="translate(-1098 -232)">
                <circle id="Ellipse_1464-13" cx="3" cy="3" r="3" class="cls-4" transform="translate(1098 320)"/>
                <circle id="Ellipse_1466-13" cx="3" cy="3" r="3" class="cls-4" transform="translate(1142 320)"/>
                <circle id="Ellipse_1465-13" cx="3" cy="3" r="3" class="cls-4" transform="translate(1120 320)"/>
                <circle id="Ellipse_1467-13" cx="3" cy="3" r="3" class="cls-4" transform="translate(1164 320)"/>
            </g>
            <g transform="translate(-1010 -232)">
                <circle id="Ellipse_1464-14" cx="3" cy="3" r="3" class="cls-4" transform="translate(1098 320)"/>
                <circle id="Ellipse_1466-14" cx="3" cy="3" r="3" class="cls-4" transform="translate(1142 320)"/>
                <circle id="Ellipse_1465-14" cx="3" cy="3" r="3" class="cls-4" transform="translate(1120 320)"/>
                <circle id="Ellipse_1467-14" cx="3" cy="3" r="3" class="cls-4" transform="translate(1164 320)"/>
            </g>
            <g transform="translate(-922 -232)">
                <circle id="Ellipse_1464-15" cx="3" cy="3" r="3" class="cls-4" transform="translate(1098 320)"/>
                <circle id="Ellipse_1466-15" cx="3" cy="3" r="3" class="cls-4" transform="translate(1142 320)"/>
                <circle id="Ellipse_1465-15" cx="3" cy="3" r="3" class="cls-4" transform="translate(1120 320)"/>
                <circle id="Ellipse_1467-15" cx="3" cy="3" r="3" class="cls-4" transform="translate(1164 320)"/>
            </g>
            <g transform="translate(-1098 -210)">
                <circle id="Ellipse_1464-16" cx="3" cy="3" r="3" class="cls-4" transform="translate(1098 320)"/>
                <circle id="Ellipse_1466-16" cx="3" cy="3" r="3" class="cls-4" transform="translate(1142 320)"/>
                <circle id="Ellipse_1465-16" cx="3" cy="3" r="3" class="cls-4" transform="translate(1120 320)"/>
                <circle id="Ellipse_1467-16" cx="3" cy="3" r="3" class="cls-4" transform="translate(1164 320)"/>
            </g>
            <g transform="translate(-1010 -210)">
                <circle id="Ellipse_1464-17" cx="3" cy="3" r="3" class="cls-4" transform="translate(1098 320)"/>
                <circle id="Ellipse_1466-17" cx="3" cy="3" r="3" class="cls-4" transform="translate(1142 320)"/>
                <circle id="Ellipse_1465-17" cx="3" cy="3" r="3" class="cls-4" transform="translate(1120 320)"/>
                <circle id="Ellipse_1467-17" cx="3" cy="3" r="3" class="cls-4" transform="translate(1164 320)"/>
            </g>
            <g transform="translate(-922 -210)">
                <circle id="Ellipse_1464-18" cx="3" cy="3" r="3" class="cls-4" transform="translate(1098 320)"/>
                <circle id="Ellipse_1466-18" cx="3" cy="3" r="3" class="cls-4" transform="translate(1142 320)"/>
                <circle id="Ellipse_1465-18" cx="3" cy="3" r="3" class="cls-4" transform="translate(1120 320)"/>
                <circle id="Ellipse_1467-18" cx="3" cy="3" r="3" class="cls-4" transform="translate(1164 320)"/>
            </g>
        </g>
        <g id="Repeat_Grid_3" clip-path="url(#clip-path-2)" transform="translate(1251.379 140)">
            <g transform="translate(-0.188 -208.249)">
                <path id="Icon_ionic-ios-arrow-forward" d="M20.679 20.5L11.742 9.679a2.352 2.352 0 0 1 0-2.889 1.5 1.5 0 0 1 2.391 0l10.125 12.262a2.364 2.364 0 0 1 .049 2.82L14.14 34.22a1.5 1.5 0 0 1-2.391 0 2.352 2.352 0 0 1 0-2.889z" class="cls-4" transform="translate(35.004 197.002) rotate(90)"/>
                <path id="Icon_ionic-ios-arrow-forward-2" d="M20.679 20.5L11.742 9.679a2.352 2.352 0 0 1 0-2.889 1.5 1.5 0 0 1 2.391 0l10.125 12.262a2.364 2.364 0 0 1 .049 2.82L14.14 34.22a1.5 1.5 0 0 1-2.391 0 2.352 2.352 0 0 1 0-2.889z" class="cls-4" transform="translate(35.004 207.002) rotate(90)"/>
            </g>
            <g transform="translate(-0.188 -188.249)">
                <path id="Icon_ionic-ios-arrow-forward-3" d="M20.679 20.5L11.742 9.679a2.352 2.352 0 0 1 0-2.889 1.5 1.5 0 0 1 2.391 0l10.125 12.262a2.364 2.364 0 0 1 .049 2.82L14.14 34.22a1.5 1.5 0 0 1-2.391 0 2.352 2.352 0 0 1 0-2.889z" class="cls-4" transform="translate(35.004 197.002) rotate(90)"/>
                <path id="Icon_ionic-ios-arrow-forward-4" d="M20.679 20.5L11.742 9.679a2.352 2.352 0 0 1 0-2.889 1.5 1.5 0 0 1 2.391 0l10.125 12.262a2.364 2.364 0 0 1 .049 2.82L14.14 34.22a1.5 1.5 0 0 1-2.391 0 2.352 2.352 0 0 1 0-2.889z" class="cls-4" transform="translate(35.004 207.002) rotate(90)"/>
            </g>
            <g transform="translate(-0.188 -168.249)">
                <path id="Icon_ionic-ios-arrow-forward-5" d="M20.679 20.5L11.742 9.679a2.352 2.352 0 0 1 0-2.889 1.5 1.5 0 0 1 2.391 0l10.125 12.262a2.364 2.364 0 0 1 .049 2.82L14.14 34.22a1.5 1.5 0 0 1-2.391 0 2.352 2.352 0 0 1 0-2.889z" class="cls-4" transform="translate(35.004 197.002) rotate(90)"/>
                <path id="Icon_ionic-ios-arrow-forward-6" d="M20.679 20.5L11.742 9.679a2.352 2.352 0 0 1 0-2.889 1.5 1.5 0 0 1 2.391 0l10.125 12.262a2.364 2.364 0 0 1 .049 2.82L14.14 34.22a1.5 1.5 0 0 1-2.391 0 2.352 2.352 0 0 1 0-2.889z" class="cls-4" transform="translate(35.004 207.002) rotate(90)"/>
            </g>
        </g>
    </g>
</svg>
