<svg xmlns="http://www.w3.org/2000/svg" width="32" height="32.005" viewBox="0 0 32 32.005">
    <defs>
        <style>
            .cls-2{fill:#4c7bff}
        </style>
    </defs>
    <g id="tracking" transform="translate(-.999 -.99)">
        <path id="Path_39090" fill="#4c7bff" d="M48.865 19H38.548A1.549 1.549 0 0 0 37 20.548v19.6a1.549 1.549 0 0 0 1.548 1.552h10.317a1.549 1.549 0 0 0 1.548-1.548v-19.6A1.549 1.549 0 0 0 48.865 19zm.516 21.15a.516.516 0 0 1-.516.516H38.548a.516.516 0 0 1-.516-.516v-.516h11.349zm-3.126-13.182c-1.113-1-3.5-.751-3.524-.749a.516.516 0 1 1-.113-1.025c.116-.014 2.865-.3 4.324 1a2.68 2.68 0 0 1 .891 2.088c0 1.952-2.053 2.169-3.864 2.361-2.09.221-3.358.45-3.358 1.766a1.776 1.776 0 0 0 .571 1.417 4.375 4.375 0 0 0 2.976.65.516.516 0 0 1 .128 1.024 5.184 5.184 0 0 1-3.786-.9 2.787 2.787 0 0 1-.92-2.19c0-2.339 2.374-2.59 4.281-2.792 2-.212 2.941-.412 2.941-1.335a1.669 1.669 0 0 0-.546-1.318zm2.094 8.024a1.548 1.548 0 1 1-1.549-1.548 1.548 1.548 0 0 1 1.548 1.548zM42.1 23.874l-1.032 2.063a.516.516 0 0 1-.923 0l-1.032-2.063a.516.516 0 0 1 .461-.747h2.063a.516.516 0 0 1 .461.747zm7.277-2.81H38.032v-.516a.516.516 0 0 1 .516-.516h10.317a.516.516 0 0 1 .516.516z" opacity="0.303" transform="translate(-17.413 -8.703)"/>
        <path id="Path_39091" d="M35.579 24a2.579 2.579 0 1 0 2.579 2.579A2.579 2.579 0 0 0 35.579 24zm0 4.127a1.548 1.548 0 1 1 1.548-1.548 1.548 1.548 0 0 1-1.548 1.548z" class="cls-2" transform="translate(-15.483 -11.133)"/>
        <path id="Path_39092" d="M20.087 8.733a6.7 6.7 0 0 0-3.035 12.68l2.444 4.344H3.837a1.806 1.806 0 1 1 0-3.611h6.19a2.837 2.837 0 1 0 0-5.675H3.063a1.032 1.032 0 1 1 0-2.063h3.1a.534.534 0 0 0 .449-.263l1.92-3.414a5.159 5.159 0 1 0-4.74 0l1.488 2.645H3.063a2.063 2.063 0 0 0 0 4.127h6.964a1.806 1.806 0 1 1 0 3.611h-6.19a2.837 2.837 0 0 0 0 5.675h16.25a.516.516 0 0 0 .516-.516.5.5 0 0 0-.075-.252l2.594-4.608a6.7 6.7 0 0 0-3.035-12.68zM4.383 9.875a4.127 4.127 0 1 1 3.551 0 .515.515 0 0 0-.227.213L6.158 12.84 4.61 10.087a.515.515 0 0 0-.227-.213zm18.145 10.68a.518.518 0 0 0-.227.213L20.087 24.7l-2.214-3.937a.518.518 0 0 0-.227-.213 5.675 5.675 0 1 1 4.883 0z" class="cls-2"/>
        <path id="Path_39093" d="M11.127 9.063a2.063 2.063 0 1 0-2.063 2.063 2.063 2.063 0 0 0 2.063-2.063zm-3.1 0A1.032 1.032 0 1 1 9.063 10.1a1.032 1.032 0 0 1-1.031-1.037z" class="cls-2" transform="translate(-2.905 -2.91)"/>
    </g>
</svg>
