<svg xmlns="http://www.w3.org/2000/svg" width="34.838" height="32.508" viewBox="0 0 34.838 32.508">
    <defs>
        <style>
            .cls-1{fill:#f49917;stroke:#f49917;stroke-width:.5px}
        </style>
    </defs>
    <g id="box_1_" data-name="box (1)" transform="translate(-8.75 -25.377)">
        <path id="Path_3145" d="M41.247 39.422h-1.732a1.705 1.705 0 0 0-1.628-1.251h-1.848v-4.52a.477.477 0 0 0-.233-.421L22.768 25.7a.482.482 0 0 0-.484 0L9.242 33.23a.485.485 0 0 0-.242.421v15.062a.487.487 0 0 0 .243.421l13.044 7.531a.487.487 0 0 0 .243.065.512.512 0 0 0 .25-.065l6.864-3.959v2.862a2.06 2.06 0 0 0 2.078 2.066h9.525a2.072 2.072 0 0 0 2.091-2.066V41.52a2.1 2.1 0 0 0-2.091-2.098zm-3.347-.278a.706.706 0 0 1 .706.706v.05a.706.706 0 0 1-.706.706h-2.823a.706.706 0 0 1-.706-.706v-.05a.706.706 0 0 1 .706-.706zM22.53 26.682l5.42 3.129-12.07 6.969-5.42-3.129zM22.068 55.4L9.973 48.432V34.493l12.095 6.969zm.463-14.782l-5.677-3.277 12.07-6.968 5.676 3.278zm7.114.9v10.064l-6.6 3.819V41.462l12.025-6.969v3.678h.015a1.705 1.705 0 0 0-1.628 1.251h-1.735a2.088 2.088 0 0 0-2.078 2.098zm12.72 14.048a1.1 1.1 0 0 1-1.118 1.093h-9.525a1.086 1.086 0 0 1-1.1-1.093V41.52a1.114 1.114 0 0 1 1.1-1.125h1.75a1.664 1.664 0 0 0 1.609 1.182h2.806A1.664 1.664 0 0 0 39.5 40.4h1.75a1.125 1.125 0 0 1 1.118 1.125z" class="cls-1" data-name="Path 3145"/>
        <path id="Path_3146" d="M337.485 281.279H338a.488.488 0 0 0 0-.977h-.019v-1.325h1.347a.47.47 0 0 0 .464.33.49.49 0 0 0 .491-.487v-.329a.5.5 0 0 0-.494-.491h-2.3a.487.487 0 0 0-.485.491v2.3a.485.485 0 0 0 .485.488z" class="cls-1" data-name="Path 3146" transform="translate(-305.209 -234.831)"/>
        <path id="Path_3147" d="M337.488 345.279h2.3a.488.488 0 0 0 .488-.488v-2.3a.488.488 0 0 0-.488-.488h-2.3a.488.488 0 0 0-.488.488v2.3a.488.488 0 0 0 .488.488zm.488-2.3h1.324v1.321h-1.325z" class="cls-1" data-name="Path 3147" transform="translate(-305.21 -294.385)"/>
        <path id="Path_3148" d="M338 408.3h-.019v-1.325h1.319a.491.491 0 1 0 .982 0v-.471a.509.509 0 0 0-.494-.507h-2.3a.5.5 0 0 0-.485.507v2.3a.471.471 0 0 0 .485.471H338a.488.488 0 0 0 0-.977z" class="cls-1" data-name="Path 3148" transform="translate(-305.209 -353.947)"/>
        <path id="Path_3149" d="M357.053 284.682l-1.43 1.43-.435-.435a.488.488 0 1 0-.691.691l.78.78a.488.488 0 0 0 .691 0l1.776-1.776a.488.488 0 0 0-.691-.691z" class="cls-1" data-name="Path 3149" transform="translate(-321.359 -240.915)"/>
        <path id="Path_3150" d="M357.053 413.931l-1.43 1.43-.435-.435a.488.488 0 1 0-.691.691l.78.78a.488.488 0 0 0 .691 0l1.776-1.776a.488.488 0 0 0-.691-.691z" class="cls-1" data-name="Path 3150" transform="translate(-321.359 -361.191)"/>
        <path id="Path_3151" d="M417.446 295h-3.067a.488.488 0 0 0 0 .977h3.067a.488.488 0 0 0 0-.977z" class="cls-1" data-name="Path 3151" transform="translate(-376.77 -250.645)"/>
        <path id="Path_3152" d="M417.446 359h-3.067a.488.488 0 1 0 0 .977h3.067a.488.488 0 0 0 0-.977z" class="cls-1" data-name="Path 3152" transform="translate(-376.77 -310.197)"/>
        <path id="Path_3153" d="M417.446 423h-3.067a.488.488 0 1 0 0 .977h3.067a.488.488 0 0 0 0-.977z" class="cls-1" data-name="Path 3153" transform="translate(-376.77 -369.761)"/>
    </g>
</svg>
