<svg xmlns="http://www.w3.org/2000/svg" width="16.3" height="16.3" viewBox="0 0 16.3 16.3">
    <defs>
        <style>
            .cls-1{fill:#6c757d;stroke:#6c757d;stroke-width:.3px}
        </style>
    </defs>
    <g id="add_task" data-name="add task" transform="translate(.15 .15)">
        <path id="Path_2878" d="M15.158 10.022v-6.6A3.422 3.422 0 0 0 11.74 0H3.418A3.422 3.422 0 0 0 0 3.418v8.322a3.422 3.422 0 0 0 3.418 3.418h6.6a3.647 3.647 0 0 0 5.135-5.135zM3.418 14.6a2.859 2.859 0 0 1-2.857-2.86V3.418A2.859 2.859 0 0 1 3.418.561h8.322a2.859 2.859 0 0 1 2.86 2.857v6.061c-.021-.017-.044-.031-.065-.047a3.906 3.906 0 0 0-.18-.129l-.02-.012a3.641 3.641 0 0 0-.454-.249l-.063-.031a3.329 3.329 0 0 0-.188-.074c-.04-.015-.08-.031-.121-.044-.058-.019-.117-.036-.176-.053s-.1-.027-.152-.039l-.161-.035a3.124 3.124 0 0 0-.2-.03c-.044-.006-.087-.013-.132-.017a3.466 3.466 0 0 0-.339-.017A3.653 3.653 0 0 0 8.8 11.509H7.579a.281.281 0 1 0 0 .561h1.137a3.722 3.722 0 0 0-.014.281c0 .114.007.227.017.339 0 .045.011.088.017.132a3.13 3.13 0 0 0 .065.357l.038.15c.013.05.034.12.054.178.013.04.028.078.043.117.024.065.048.129.076.192l.026.055a3.613 3.613 0 0 0 .258.469l.007.012c.041.062.085.121.13.181l.046.065H3.418zm8.933.842a3.071 3.071 0 0 1-2.06-.794q-.1-.091-.195-.191l-.04-.044q-.088-.1-.167-.2l-.036-.048q-.078-.108-.146-.221l-.028-.046a3.132 3.132 0 0 1-.127-.244l-.019-.039a2.132 2.132 0 0 1-.1-.266c0-.011-.008-.022-.012-.033a3.389 3.389 0 0 1-.077-.279c0-.011-.006-.022-.008-.033a2.958 2.958 0 0 1-.046-.282c0-.013 0-.026-.006-.04a3.044 3.044 0 0 1-.017-.325 3.091 3.091 0 0 1 3.088-3.088 3 3 0 0 1 .326.018l.037.006c.1.012.191.026.284.046l.031.008c.095.022.189.047.281.077l.031.011q.136.046.268.1l.037.018q.126.059.246.128l.043.026c.077.046.151.1.224.148l.046.034q.106.08.205.169l.042.038q.1.094.194.2a3.082 3.082 0 0 1-2.3 5.146z" class="cls-1" data-name="Path 2878"/>
        <path id="Path_2879" d="M40.421 38.579h-1.316v-1.316a.263.263 0 1 0-.526 0v1.316h-1.316a.263.263 0 1 0 0 .526h1.316v1.316a.263.263 0 1 0 .526 0v-1.316h1.316a.263.263 0 1 0 0-.526z" class="cls-1" data-name="Path 2879" transform="translate(-26.263 -26.263)"/>
        <path id="Path_2880" d="M26.263 12.526H31A.263.263 0 0 0 31 12h-4.737a.263.263 0 0 0 0 .526z" class="cls-1" data-name="Path 2880" transform="translate(-18.455 -8.624)"/>
        <path id="Path_2881" d="M26.263 26.526H31A.263.263 0 0 0 31 26h-4.737a.263.263 0 0 0 0 .526z" class="cls-1" data-name="Path 2881" transform="translate(-18.455 -18.685)"/>
        <path id="Path_2882" d="M10.571 7.092L8.926 9.01l-1.005-.754a.263.263 0 1 0-.316.421l1.2.9a.263.263 0 0 0 .358-.039l1.8-2.105a.263.263 0 1 0-.4-.342z" class="cls-1" data-name="Path 2882" transform="translate(-5.526 -5.158)"/>
        <path id="Path_2883" d="M10.571 21.092L8.926 23.01l-1.006-.754a.263.263 0 1 0-.316.421l1.2.9a.263.263 0 0 0 .358-.039l1.8-2.105a.263.263 0 1 0-.4-.342z" class="cls-1" data-name="Path 2883" transform="translate(-5.526 -15.027)"/>
        <path id="Path_2884" d="M10.571 36.092L8.926 38.01l-1.006-.754a.263.263 0 1 0-.316.421l1.2.9a.263.263 0 0 0 .358-.039l1.8-2.1a.263.263 0 1 0-.4-.342z" class="cls-1" data-name="Path 2884" transform="translate(-5.526 -25.761)"/>
    </g>
</svg>
