<svg xmlns="http://www.w3.org/2000/svg" width="48" height="48" viewBox="0 0 48 48">
    <defs>
        <style>
            .cls-1,.cls-8{fill:none}.cls-2,.cls-4,.cls-7{fill:#1b84e7}.cls-2{stroke:#1b84e7}.cls-3{fill:#fff;stroke:#fff;stroke-width:.1px}.cls-5{fill:#f49917;stroke:#f49917;stroke-width:.5px}.cls-6,.cls-7{stroke:none}
        </style>
    </defs>
    <g id="admin" transform="translate(-301 -434)">
        <g id="meeting" transform="translate(88)">
            <g id="field_work" data-name="field work" transform="translate(-252 -14)">
                <g id="Group_722" data-name="Group 722">
                    <g id="Path_2097" class="cls-1" data-name="Path 2097">
                        <path d="M24 0A24 24 0 1 1 0 24 24 24 0 0 1 24 0z" class="cls-6" transform="translate(465 448)"/>
                        <path d="M24 1A22.925 22.925 0 0 0 7.737 7.737 22.925 22.925 0 0 0 1 24a22.925 22.925 0 0 0 6.737 16.263A22.925 22.925 0 0 0 24 47a22.925 22.925 0 0 0 16.263-6.737A22.925 22.925 0 0 0 47 24a22.925 22.925 0 0 0-6.737-16.263A22.925 22.925 0 0 0 24 1m0-1c13.255 0 24 10.745 24 24S37.255 48 24 48 0 37.255 0 24 10.745 0 24 0z" class="cls-7" transform="translate(465 448)"/>
                    </g>
                    <g id="Ellipse_212" class="cls-2" data-name="Ellipse 212" transform="translate(497 449)">
                        <circle cx="6" cy="6" r="6" class="cls-6"/>
                        <circle cx="6" cy="6" r="5.5" class="cls-8"/>
                    </g>
                    <path id="Path_2099" d="M5.614 10.006L4.4 8.633a.316.316 0 0 0-.487 0 .421.421 0 0 0 0 .549l1.458 1.644a.32.32 0 0 0 .491 0l3.684-4.155a.421.421 0 0 0 0-.549.316.316 0 0 0-.487 0z" class="cls-3" data-name="Path 2099" transform="translate(496.193 446.992)"/>
                </g>
            </g>
        </g>
        <g id="avatar" transform="translate(278.927 446.256)">
            <g id="Group_735" data-name="Group 735" transform="translate(36.073)">
                <path id="Path_2542" d="M142.1 13.141h.157a4.451 4.451 0 0 0 3.449-1.54c1.883-2.192 1.57-5.949 1.536-6.308-.122-2.692-1.355-3.98-2.373-4.581a5.307 5.307 0 0 0-2.63-.712h-.083a5.31 5.31 0 0 0-2.632.692c-1.027.6-2.28 1.889-2.4 4.6-.034.359-.347 4.116 1.536 6.308a4.433 4.433 0 0 0 3.44 1.541zm-3.674-7.722v-.04c.161-3.621 2.651-4.01 3.718-4.01h.059c1.321.03 3.566.586 3.718 4.01a.1.1 0 0 0 0 .04c0 .035.347 3.47-1.208 5.278a3.159 3.159 0 0 1-2.519 1.081h-.049a3.149 3.149 0 0 1-2.514-1.081c-1.541-1.797-1.208-5.248-1.203-5.278z" class="cls-4" data-name="Path 2542" transform="translate(-131.98)"/>
                <path id="Path_2543" d="M56.486 265.525v-.015-.126c-.03-1-.094-3.338-2.251-4.086l-.05-.015a14.243 14.243 0 0 1-4.125-1.909.663.663 0 0 0-.934.167.688.688 0 0 0 .164.949 15.375 15.375 0 0 0 4.538 2.106c1.158.419 1.287 1.677 1.322 2.828a1.03 1.03 0 0 0 0 .126 9.313 9.313 0 0 1-.1 1.561 18.063 18.063 0 0 1-8.762 2.071 18.167 18.167 0 0 1-8.767-2.076 8.816 8.816 0 0 1-.1-1.561v-.126c.035-1.151.164-2.409 1.322-2.828a15.519 15.519 0 0 0 4.538-2.106.688.688 0 0 0 .164-.949.663.663 0 0 0-.934-.167 14.087 14.087 0 0 1-4.125 1.909l-.05.015c-2.157.753-2.222 3.091-2.251 4.086a1.031 1.031 0 0 1 0 .126v.015a7.864 7.864 0 0 0 .253 2.288.646.646 0 0 0 .258.318 18.577 18.577 0 0 0 9.7 2.414 18.633 18.633 0 0 0 9.7-2.414.673.673 0 0 0 .258-.318 8.252 8.252 0 0 0 .232-2.283z" class="cls-4" data-name="Path 2543" transform="translate(-36.073 -246.54)"/>
            </g>
        </g>
        <path id="tie" d="M2.9.055a.092.092 0 0 0-.14-.036l-1.1.85L.569.019a.092.092 0 0 0-.14.036L.231.51A.092.092 0 0 0 .244.6l.93 1.141L.824 4.6a.092.092 0 0 0 .024.073l.75.81a.092.092 0 0 0 .135 0l.75-.81a.092.092 0 0 0 .022-.073l-.35-2.859L3.086.6A.092.092 0 0 0 3.1.51zM.549.236l1 .777-.221.634L.421.532zM1.665 5.29l-.653-.706.325-2.664a.091.091 0 0 0 .112-.058l.215-.617.215.617a.091.091 0 0 0 .112.058l.326 2.664zM2 1.647l-.221-.634 1-.777.129.3zm0 0" class="cls-5" transform="translate(323.269 461.964)"/>
    </g>
</svg>
