<svg xmlns="http://www.w3.org/2000/svg" width="23.853" height="24.301" viewBox="0 0 23.853 24.301">
    <defs>
        <style>
            .cls-1{fill:#1515af;stroke:#1515af;stroke-width:.3px}
        </style>
    </defs>
    <g id="analysis" transform="translate(-4.656 .15)">
        <g id="Group_1034" data-name="Group 1034" transform="translate(4.809)">
            <g id="Group_1033" data-name="Group 1033">
                <path id="Path_2895" d="M28.275 1.633a.353.353 0 0 0-.24-.124l-5.223-.446-.095-.753a.354.354 0 0 0-.395-.31l-4.845.612A.352.352 0 0 0 17.418.6l-6.66-.567a.357.357 0 0 0-.382.322l-.1 1.162-5.159.649a.357.357 0 0 0-.307.395L7.445 23.5a.973.973 0 0 0 .031.28.357.357 0 0 0 .324.22h17.34a.353.353 0 0 0 .353-.353v-.46l.684.058a.357.357 0 0 0 .382-.322l1.8-21.032a.353.353 0 0 0-.084-.258zM7.448 17.861L5.557 2.823l1.891-.238zM11.05.767l3.093.264-3.149.4zM22.06.749l.181 1.436h-11.6zm3.826 21.762l-.392-.034V12.15a.353.353 0 1 0-.707 0v11.144H8.154V2.891h16.633V10.5a.353.353 0 1 0 .707 0V2.538a.353.353 0 0 0-.353-.353h-2.188L22.9 1.78l4.721.4z" class="cls-1" data-name="Path 2895" transform="translate(-4.809)"/>
            </g>
        </g>
        <g id="Group_1036" data-name="Group 1036" transform="translate(15.952 6.092)">
            <g id="Group_1035" data-name="Group 1035">
                <path id="Path_2896" d="M268.415 86.806h-1.853a.347.347 0 0 0-.289.155l-.787 1.18a5.138 5.138 0 0 0-3-.964.347.347 0 0 0-.348.348v4.819a.347.347 0 0 0 .348.348h4.814a.347.347 0 0 0 .348-.348 5.153 5.153 0 0 0-1.625-3.758l.722-1.084h1.667a.348.348 0 1 0 0-.7zM266.942 92h-4.11v-4.11a4.445 4.445 0 0 1 2.268.835l-.31.465a.347.347 0 1 0 .578.386l.265-.4A4.459 4.459 0 0 1 266.942 92z" class="cls-1" data-name="Path 2896" transform="translate(-262.137 -86.806)"/>
            </g>
        </g>
        <g id="Group_1038" data-name="Group 1038" transform="translate(10.582 6.031)">
            <g id="Group_1037" data-name="Group 1037">
                <path id="Path_2897" d="M138.01 136.65h-3.143l-.554-.886a5.148 5.148 0 0 0 1.45-3.585.347.347 0 0 0-.348-.348h-4.471v-4.471a.347.347 0 0 0-.348-.348 5.166 5.166 0 1 0 3.193 9.225l.59.944a.348.348 0 0 0 .295.163h3.336a.348.348 0 0 0 0-.7zm-4.895-2.8a.348.348 0 1 0-.589.368l.893 1.428a4.47 4.47 0 1 1-3.169-7.923v4.458a.347.347 0 0 0 .348.348h4.458a4.454 4.454 0 0 1-1.123 2.628z" class="cls-1" data-name="Path 2897" transform="translate(-126.43 -125.013)"/>
            </g>
        </g>
    </g>
</svg>
