<svg xmlns="http://www.w3.org/2000/svg" width="13.447" height="15" viewBox="0 0 13.447 15">
    <defs>
        <style>
            .cls-1{fill:#343a40}
        </style>
    </defs>
    <path id="approval_1_" d="M6.3 14.414a.586.586 0 0 1-.587.586H2.344A2.346 2.346 0 0 1 0 12.656V2.344A2.346 2.346 0 0 1 2.344 0h7.2a2.346 2.346 0 0 1 2.344 2.344v6.211a.586.586 0 0 1-1.172 0V2.344a1.173 1.173 0 0 0-1.168-1.172h-7.2a1.173 1.173 0 0 0-1.176 1.172v10.312a1.173 1.173 0 0 0 1.172 1.172h3.369a.586.586 0 0 1 .586.586zm6.9-4.871a.586.586 0 0 0-.817.135L9.5 13.713a.335.335 0 0 1-.482.025l-1.87-1.8a.586.586 0 1 0-.812.845l1.872 1.8A1.511 1.511 0 0 0 9.245 15h.1a1.51 1.51 0 0 0 1.074-.56l.02-.026 2.9-4.051a.586.586 0 0 0-.135-.817zM8.962 3.516H2.926a.586.586 0 1 0 0 1.172h6.036a.586.586 0 1 0 0-1.172zm.586 2.93a.586.586 0 0 0-.586-.586H2.926a.586.586 0 1 0 0 1.172h6.036a.586.586 0 0 0 .586-.587zM2.926 8.2a.586.586 0 1 0 0 1.172h3.666a.586.586 0 1 0 0-1.172zm0 0" class="cls-1" data-name="approval (1)"/>
</svg>
