<svg xmlns="http://www.w3.org/2000/svg" width="122" height="32" viewBox="0 0 122 32">
    <g id="prefix__Attach_File" data-name="Attach File" transform="translate(-887 -516)">
        <g id="prefix__Group_2549" data-name="Group 2549" transform="translate(205 113)">
            <g id="prefix__Rectangle_739" data-name="Rectangle 739" transform="translate(682 403)" style="fill:#1b84e7;stroke:#1b84e7">
                <rect width="122" height="32" rx="5" style="stroke:none"/>
                <rect width="121" height="31" x=".5" y=".5" rx="4.5" style="fill:none"/>
            </g>
            <text id="prefix__ATTACH_FILE-2" data-name="ATTACH FILE" transform="translate(714 424)" style="font-size:12px;font-family:OpenSans-SemiBold,Open Sans;font-weight:600;letter-spacing:.05em;fill:#f8f9fa">
                <tspan x="0" y="0">ATTACH FILE</tspan>
            </text>
        </g>
        <g id="prefix__paperclip" transform="translate(865.958 524.174)">
            <g id="prefix__Group_2597" data-name="Group 2597" transform="translate(33.042 1.955)">
                <path id="prefix__Path_4426" d="M39.06 1.02a3.272 3.272 0 0 0-4.747 0l-5 5.193a.421.421 0 0 0 0 .58.384.384 0 0 0 .558 0l5-5.193a2.559 2.559 0 0 1 3.631 0 2.744 2.744 0 0 1 0 3.771l-6.98 7.329a1.574 1.574 0 0 1-2.234 0 1.688 1.688 0 0 1 0-2.321l6.7-7.043a.59.59 0 0 1 .838 0 .634.634 0 0 1 0 .871L30.4 10.963a.471.471 0 0 0 0 .58.384.384 0 0 0 .558 0l6.421-6.753a1.477 1.477 0 0 0 0-2.031 1.378 1.378 0 0 0-1.955 0L28.729 9.8a2.547 2.547 0 0 0 0 3.481 2.319 2.319 0 0 0 3.351 0l6.98-7.333a3.588 3.588 0 0 0 0-4.928z" data-name="Path 4426" transform="translate(-28.041)" style="fill:#f8f9fa"/>
            </g>
        </g>
    </g>
</svg>
