<svg xmlns="http://www.w3.org/2000/svg" width="13.911" height="16.3" viewBox="0 0 13.911 16.3">
    <defs>
        <style>
            .cls-1{fill:#343a40;stroke:#343a40;stroke-width:.3px}
        </style>
    </defs>
    <g id="avatar_1_" data-name="avatar (1)" transform="translate(-35.922 .15)">
        <g id="Group_861" data-name="Group 861" transform="translate(36.073)">
            <path id="Path_2652" d="M140.57 8.389h.109a3.217 3.217 0 0 0 2.4-.983c1.309-1.4 1.091-3.8 1.068-4.027a3.263 3.263 0 0 0-1.652-2.924A3.941 3.941 0 0 0 140.666 0h-.058a3.953 3.953 0 0 0-1.829.442 3.266 3.266 0 0 0-1.669 2.937c-.024.229-.241 2.628 1.067 4.027a3.2 3.2 0 0 0 2.393.983zm-2.553-4.93v-.026A2.422 2.422 0 0 1 140.6.874h.041a2.431 2.431 0 0 1 2.584 2.56.06.06 0 0 0 0 .026c0 .023.241 2.215-.84 3.369a2.288 2.288 0 0 1-1.751.69h-.034a2.28 2.28 0 0 1-1.747-.69c-1.07-1.148-.839-3.35-.836-3.369z" class="cls-1" data-name="Path 2652" transform="translate(-133.825)"/>
            <path id="Path_2653" d="M49.682 263.254v-.01-.081a2.514 2.514 0 0 0-1.5-2.608l-.033-.01a9.677 9.677 0 0 1-2.75-1.219.455.455 0 0 0-.623.106.427.427 0 0 0 .109.606 10.444 10.444 0 0 0 3.025 1.344c.772.268.858 1.07.881 1.806a.631.631 0 0 0 0 .081 5.7 5.7 0 0 1-.07 1 12.459 12.459 0 0 1-5.841 1.322 12.53 12.53 0 0 1-5.845-1.325 5.394 5.394 0 0 1-.07-1v-.081c.023-.735.109-1.538.881-1.806a10.542 10.542 0 0 0 3.025-1.344.427.427 0 0 0 .109-.606.455.455 0 0 0-.623-.106 9.569 9.569 0 0 1-2.75 1.219l-.033.01a2.518 2.518 0 0 0-1.5 2.608.631.631 0 0 1 0 .081v.01a4.817 4.817 0 0 0 .169 1.461.416.416 0 0 0 .172.2 12.791 12.791 0 0 0 6.468 1.541 12.83 12.83 0 0 0 6.468-1.541.434.434 0 0 0 .172-.2 5.053 5.053 0 0 0 .159-1.458z" class="cls-1" data-name="Path 2653" transform="translate(-36.073 -250.455)"/>
        </g>
    </g>
</svg>
