<svg xmlns="http://www.w3.org/2000/svg" width="18" height="18" viewBox="0 0 18 18">
    <defs>
        <style>
            .cls-1{fill:#f49917}
        </style>
    </defs>
    <g id="bank_1_" transform="translate(0 -1.999)">
        <g id="Group_2991" transform="translate(0 1.999)">
            <g id="Group_2990">
                <circle id="Ellipse_259" cx="1" cy="1" r="1" class="cls-1" transform="translate(7.861 2.974)"/>
                <path id="Path_4498" d="M17.3 470H.7a.714.714 0 0 0 0 1.428h16.6a.714.714 0 0 0 0-1.428z" class="cls-1" transform="translate(0 -453.428)"/>
                <path id="Path_4499" d="M18 6.422a.708.708 0 0 0-.418-.647L9.268 2.06a.7.7 0 0 0-.572 0L.417 5.776A.708.708 0 0 0 0 6.422v1.914a.705.705 0 0 0 .7.708.629.629 0 0 1 .6.708V16.44a.705.705 0 0 0 .7.708h14.066a.708.708 0 0 0 0-1.415h-2.109V9.748a.7.7 0 1 1 1.406 0v3.132a.7.7 0 1 0 1.406 0V9.748c0-.166.038-.708.527-.708a.705.705 0 0 0 .7-.708v-.018c0-.006.004-.014.004-.014zM4.113 15.727H2.707V9.748a.7.7 0 1 1 1.406 0zm2.813 0H5.52V9.748a.7.7 0 1 1 1.406 0zm2.813 0H8.332V9.748a.7.7 0 1 1 1.406 0zm2.813 0h-1.407V9.748a.7.7 0 1 1 1.406 0zm4.042-8.137H1.406v-.709l7.577-3.4 7.611 3.4z" class="cls-1" transform="translate(0 -1.999)"/>
            </g>
        </g>
    </g>
</svg>
