<svg xmlns="http://www.w3.org/2000/svg" width="18.231" height="12.2" viewBox="0 0 18.231 12.2">
    <defs>
        <style>
            .prefix__cls-1{fill:#1b84e7;stroke:#1b84e7;stroke-width:.2px}
        </style>
    </defs>
    <g id="prefix__view_1_" data-name="view (1)" transform="translate(.116 -92.735)">
        <g id="prefix__Group_1289" data-name="Group 1289" transform="translate(0 92.835)">
            <g id="prefix__Group_1288" data-name="Group 1288">
                <path id="prefix__Path_3231" d="M17.886 98.469c-.161-.23-3.992-5.634-8.886-5.634S.275 98.239.114 98.469a.644.644 0 0 0 0 .733c.161.23 3.992 5.634 8.886 5.634s8.725-5.4 8.886-5.634a.644.644 0 0 0 0-.733zM9 103.594c-3.6 0-6.726-3.587-7.651-4.759.923-1.174 4.039-4.759 7.651-4.759s6.726 3.586 7.651 4.759c-.923 1.174-4.039 4.759-7.651 4.759z" class="prefix__cls-1" data-name="Path 3231" transform="translate(0 -92.835)"/>
            </g>
        </g>
        <g id="prefix__Group_1291" data-name="Group 1291" transform="translate(5.374 95.209)">
            <g id="prefix__Group_1290" data-name="Group 1290">
                <path id="prefix__Path_3232" d="M158.348 154.725a3.626 3.626 0 1 0 3.626 3.626 3.63 3.63 0 0 0-3.626-3.626zm0 6.043a2.417 2.417 0 1 1 2.417-2.417 2.42 2.42 0 0 1-2.417 2.417z" class="prefix__cls-1" data-name="Path 3232" transform="translate(-154.722 -154.725)"/>
            </g>
        </g>
    </g>
</svg>
