<svg xmlns="http://www.w3.org/2000/svg" id="calendar_6_" width="15.47" height="15.47" data-name="calendar (6)" viewBox="0 0 15.47 15.47">
    <defs>
        <style>
            .cls-1{fill:#343a40}
        </style>
    </defs>
    <g id="Group_1600" data-name="Group 1600">
        <g id="Group_1599" data-name="Group 1599">
            <path id="Path_3352" d="M14.866 10.636a.6.6 0 0 0 .6-.6v-6.41a2.42 2.42 0 0 0-2.417-2.417h-.786V.6a.6.6 0 0 0-1.209 0v.6H8.309V.6A.6.6 0 0 0 7.1.6v.6H4.381V.6a.6.6 0 0 0-1.208 0v.6h-.756A2.42 2.42 0 0 0 0 3.626v9.427a2.42 2.42 0 0 0 2.417 2.417h10.636a2.42 2.42 0 0 0 2.417-2.417.6.6 0 1 0-1.209 0 1.21 1.21 0 0 1-1.209 1.209H2.417a1.21 1.21 0 0 1-1.209-1.209V3.626a1.21 1.21 0 0 1 1.209-1.209h.755v.6a.6.6 0 0 0 1.209 0v-.6H7.1v.6a.6.6 0 1 0 1.209 0v-.6h2.75v.6a.6.6 0 0 0 1.209 0v-.6h.786a1.21 1.21 0 0 1 1.209 1.209v6.406a.6.6 0 0 0 .603.604z" class="cls-1" data-name="Path 3352"/>
            <path id="Path_3353" d="M138.751 201.262l-3.111 4.345a.36.36 0 0 1-.519.027l-2.014-1.934a.631.631 0 0 0-.874.91l2.016 1.936a1.627 1.627 0 0 0 1.119.447h.107a1.627 1.627 0 0 0 1.157-.6l.021-.028 3.125-4.365a.631.631 0 1 0-1.026-.735z" class="cls-1" data-name="Path 3353" transform="translate(-128.218 -195.084)"/>
        </g>
    </g>
</svg>
