<svg xmlns="http://www.w3.org/2000/svg" id="calendar" width="14.471" height="14.47" viewBox="0 0 14.471 14.47">
    <defs>
        <style>
            .cls-1{fill:#343a40}
        </style>
    </defs>
    <g id="Group_464" data-name="Group 464">
        <g id="Group_463" data-name="Group 463">
            <circle id="Ellipse_107" cx=".604" cy=".604" r=".604" class="cls-1" data-name="Ellipse 107" transform="translate(10.283 5.338)"/>
            <path id="Path_2345" d="M12.209 1.13h-.735V.565a.565.565 0 1 0-1.13 0v.565H7.772V.565a.565.565 0 0 0-1.13 0v.565H4.1V.565a.565.565 0 0 0-1.13 0v.565h-.709A2.264 2.264 0 0 0 0 3.391v8.818a2.264 2.264 0 0 0 2.261 2.261h4.324a.565.565 0 1 0 0-1.13H2.261a1.132 1.132 0 0 1-1.13-1.13V3.391a1.132 1.132 0 0 1 1.13-1.13h.707v.565a.565.565 0 1 0 1.13 0v-.565h2.544v.565a.565.565 0 0 0 1.13 0v-.565h2.572v.565a.565.565 0 1 0 1.13 0v-.565h.735a1.132 1.132 0 0 1 1.13 1.13v3.222a.565.565 0 1 0 1.13 0V3.391a2.264 2.264 0 0 0-2.26-2.261z" class="cls-1" data-name="Path 2345"/>
            <path id="Path_2346" d="M14.2 10.547a3.656 3.656 0 1 0 3.66 3.653 3.66 3.66 0 0 0-3.66-3.653zm0 6.1a2.448 2.448 0 1 1 2.451-2.447 2.45 2.45 0 0 1-2.451 2.451z" class="cls-1" data-name="Path 2346" transform="translate(-3.39 -3.39)"/>
            <path id="Path_2347" d="M15.973 14.13H15.7v-.635a.6.6 0 1 0-1.209 0v1.239a.6.6 0 0 0 .6.6h.876a.6.6 0 1 0 0-1.209z" class="cls-1" data-name="Path 2347" transform="translate(-4.492 -3.686)"/>
            <circle id="Ellipse_108" cx=".604" cy=".604" r=".604" class="cls-1" data-name="Ellipse 108" transform="translate(7.839 5.338)"/>
            <circle id="Ellipse_109" cx=".604" cy=".604" r=".604" class="cls-1" data-name="Ellipse 109" transform="translate(5.394 7.783)"/>
            <circle id="Ellipse_110" cx=".604" cy=".604" r=".604" class="cls-1" data-name="Ellipse 110" transform="translate(2.95 5.338)"/>
            <circle id="Ellipse_111" cx=".604" cy=".604" r=".604" class="cls-1" data-name="Ellipse 111" transform="translate(2.95 7.783)"/>
            <circle id="Ellipse_112" cx=".604" cy=".604" r=".604" class="cls-1" data-name="Ellipse 112" transform="translate(2.95 10.227)"/>
            <circle id="Ellipse_113" cx=".604" cy=".604" r=".604" class="cls-1" data-name="Ellipse 113" transform="translate(5.394 10.227)"/>
            <circle id="Ellipse_114" cx=".604" cy=".604" r=".604" class="cls-1" data-name="Ellipse 114" transform="translate(5.394 5.338)"/>
        </g>
    </g>
</svg>
