<svg xmlns="http://www.w3.org/2000/svg" width="48" height="48" viewBox="0 0 48 48">
    <defs>
        <style>
            .cls-1,.cls-9{fill:none}.cls-2,.cls-3,.cls-5,.cls-8{fill:#1b84e7}.cls-2{opacity:.1}.cls-3{stroke:#1b84e7}.cls-4{fill:#fff;stroke:#fff;stroke-width:.1px}.cls-6{fill:#f49917}.cls-7,.cls-8{stroke:none}
        </style>
    </defs>
    <g id="campaign" transform="translate(-388 -429)">
        <g id="field_work" data-name="field work" transform="translate(-77 -19)">
            <g id="Group_722" data-name="Group 722">
                <g id="Path_2097" class="cls-1" data-name="Path 2097">
                    <path d="M24 0A24 24 0 1 1 0 24 24 24 0 0 1 24 0z" class="cls-7" transform="translate(465 448)"/>
                    <path d="M24 1A22.925 22.925 0 0 0 7.737 7.737 22.925 22.925 0 0 0 1 24a22.925 22.925 0 0 0 6.737 16.263A22.925 22.925 0 0 0 24 47a22.925 22.925 0 0 0 16.263-6.737A22.925 22.925 0 0 0 47 24a22.925 22.925 0 0 0-6.737-16.263A22.925 22.925 0 0 0 24 1m0-1c13.255 0 24 10.745 24 24S37.255 48 24 48 0 37.255 0 24 10.745 0 24 0z" class="cls-8" transform="translate(465 448)"/>
                </g>
                <path id="Path_2826" d="M24 0A24 24 0 1 1 0 24 24 24 0 0 1 24 0z" class="cls-2" data-name="Path 2826" transform="translate(465 448)"/>
                <g id="Ellipse_212" class="cls-3" data-name="Ellipse 212" transform="translate(497 449)">
                    <circle cx="6" cy="6" r="6" class="cls-7"/>
                    <circle cx="6" cy="6" r="5.5" class="cls-9"/>
                </g>
                <path id="Path_2099" d="M5.614 10.006L4.4 8.633a.316.316 0 0 0-.487 0 .421.421 0 0 0 0 .549l1.458 1.644a.32.32 0 0 0 .491 0l3.684-4.155a.421.421 0 0 0 0-.549.316.316 0 0 0-.487 0z" class="cls-4" data-name="Path 2099" transform="translate(496.193 446.992)"/>
            </g>
        </g>
        <g id="marketing" transform="translate(336.999 442)">
            <g id="Group_736" data-name="Group 736" transform="translate(66.001)">
                <path id="Path_2544" d="M99.089 296.565a2.807 2.807 0 0 0 .739-1.929 2.325 2.325 0 1 0-4.609 0 2.075 2.075 0 0 0-2.765 0 2.325 2.325 0 1 0-4.609 0 2.807 2.807 0 0 0 .739 1.929A4.786 4.786 0 0 0 86 300.951a.5.5 0 0 0 .461.526h3.463a5.321 5.321 0 0 0-.237 1.579.5.5 0 0 0 .461.526h1.844a.531.531 0 0 0 0-1.053h-1.35a3.4 3.4 0 0 1 3.192-3.158 3.4 3.4 0 0 1 3.192 3.158H95.68a.531.531 0 0 0 0 1.053h1.844a.5.5 0 0 0 .461-.526 5.322 5.322 0 0 0-.237-1.579h3.463a.5.5 0 0 0 .461-.526 4.786 4.786 0 0 0-2.583-4.386zm-1.565-3.508a1.593 1.593 0 1 1-1.383 1.579 1.492 1.492 0 0 1 1.383-1.579zm-3.687 2.105a1.593 1.593 0 0 1 0 3.158 1.593 1.593 0 0 1 0-3.158zm-5.07-.526a1.395 1.395 0 1 1 1.383 1.579 1.492 1.492 0 0 1-1.383-1.579zm1.622 5.789h-3.432a3.4 3.4 0 0 1 3.193-3.158 2.911 2.911 0 0 1 1.549.452 2.679 2.679 0 0 0 .574.951 4.343 4.343 0 0 0-1.883 1.755zm6.895 0a4.342 4.342 0 0 0-1.884-1.755 2.679 2.679 0 0 0 .574-.951 2.911 2.911 0 0 1 1.549-.452 3.4 3.4 0 0 1 3.193 3.158h-3.432z" class="cls-5" data-name="Path 2544" transform="translate(-84.949 -279.633)"/>
                <path id="Path_2545" d="M179.527 157.535a.526.526 0 0 0-.526-.526.526.526 0 1 0 .527.526z" class="cls-6" data-name="Path 2545" transform="translate(-173.249 -149.702)"/>
                <path id="Path_2546" d="M139 158.062a.526.526 0 0 0 0-1.053.526.526 0 0 0 0 1.053z" class="cls-6" data-name="Path 2546" transform="translate(-135.106 -149.702)"/>
                <path id="Path_2547" d="M219.528 157.535a.526.526 0 0 0-.526-.526.526.526 0 1 0 .527.526z" class="cls-6" data-name="Path 2547" transform="translate(-211.392 -149.702)"/>
                <path id="Path_2548" d="M82.259 0h-8.393a1.622 1.622 0 0 0-1.517 1.707V4.2h-.619a.5.5 0 0 0-.468.526.5.5 0 0 0 .468.526h4.182a.622.622 0 0 1 .581.654v6.211l-1.163 1.305v-1.09a.5.5 0 0 0-.468-.526h-7.344a.622.622 0 0 1-.581-.654V5.9a.622.622 0 0 1 .581-.654h.47a.5.5 0 0 0 .468-.526.5.5 0 0 0-.468-.526h-.47A1.622 1.622 0 0 0 66 5.9v5.248a1.622 1.622 0 0 0 1.517 1.707h6.877v1.835a.531.531 0 0 0 .289.486.423.423 0 0 0 .179.04.443.443 0 0 0 .331-.154l2.1-2.361a.562.562 0 0 0 .137-.372V8.662h3.314V10.5a.531.531 0 0 0 .289.486.423.423 0 0 0 .179.04.443.443 0 0 0 .331-.154l2.1-2.361a.562.562 0 0 0 .137-.372V1.707A1.622 1.622 0 0 0 82.259 0zm.581 7.918l-1.162 1.308v-1.09a.5.5 0 0 0-.468-.526h-3.781V5.9a1.622 1.622 0 0 0-1.517-1.7h-2.628V1.707a.622.622 0 0 1 .581-.654h8.394a.622.622 0 0 1 .581.654z" class="cls-5" data-name="Path 2548" transform="translate(-66.001)"/>
                <path id="Path_2549" d="M139 80.772a.526.526 0 0 0 0-1.053.526.526 0 0 0 0 1.053z" class="cls-6" data-name="Path 2549" transform="translate(-135.106 -75.86)"/>
                <path id="Path_2550" d="M246.527 492a.526.526 0 1 0 .527.526.526.526 0 0 0-.527-.526z" class="cls-6" data-name="Path 2550" transform="translate(-237.64 -469.105)"/>
            </g>
        </g>
    </g>
</svg>
