<svg xmlns="http://www.w3.org/2000/svg" width="48" height="48" viewBox="0 0 48 48">
    <defs>
        <style>
            .cls-1{opacity:.4}.cls-2,.cls-3,.cls-9{fill:none}.cls-2{opacity:.1}.cls-4,.cls-6,.cls-8{fill:#6c757d}.cls-4{stroke:#6c757d}.cls-5{fill:#fff;stroke:#fff;stroke-width:.1px}.cls-7,.cls-8{stroke:none}
        </style>
    </defs>
    <g id="CAMP" transform="translate(-479 -429)">
        <g id="meeting" class="cls-1" transform="translate(305 -5)">
            <g id="field_work" data-name="field work" transform="translate(-258 -14)">
                <g id="Group_722" data-name="Group 722">
                    <path id="Path_2097" d="M24 0A24 24 0 1 1 0 24 24 24 0 0 1 24 0z" class="cls-2" data-name="Path 2097" transform="translate(432 448)"/>
                    <g id="Path_2644" class="cls-3" data-name="Path 2644">
                        <path d="M24 0A24 24 0 1 1 0 24 24 24 0 0 1 24 0z" class="cls-7" transform="translate(432 448)"/>
                        <path d="M24 1A22.925 22.925 0 0 0 7.737 7.737 22.925 22.925 0 0 0 1 24a22.925 22.925 0 0 0 6.737 16.263A22.925 22.925 0 0 0 24 47a22.925 22.925 0 0 0 16.263-6.737A22.925 22.925 0 0 0 47 24a22.925 22.925 0 0 0-6.737-16.263A22.925 22.925 0 0 0 24 1m0-1c13.255 0 24 10.745 24 24S37.255 48 24 48 0 37.255 0 24 10.745 0 24 0z" class="cls-8" transform="translate(432 448)"/>
                    </g>
                    <g id="Ellipse_212" class="cls-4" data-name="Ellipse 212" transform="translate(464 449)">
                        <circle cx="6" cy="6" r="6" class="cls-7"/>
                        <circle cx="6" cy="6" r="5.5" class="cls-9"/>
                    </g>
                    <path id="Path_2099" d="M5.614 10.006L4.4 8.633a.316.316 0 0 0-.487 0 .421.421 0 0 0 0 .549l1.458 1.644a.32.32 0 0 0 .491 0l3.684-4.155a.421.421 0 0 0 0-.549.316.316 0 0 0-.487 0z" class="cls-5" data-name="Path 2099" transform="translate(463.193 446.992)"/>
                </g>
            </g>
        </g>
        <g id="camp-2" class="cls-1" data-name="camp" transform="translate(530.002 441)">
            <path id="Path_2642" d="M22.063 81.031a1.876 1.876 0 0 0-.774.167 1.876 1.876 0 0 0-.774-.167 1.937 1.937 0 0 0-.387.039v-5.6a2.267 2.267 0 0 0 .774.141 2.325 2.325 0 0 0 2.323-2.323 2.266 2.266 0 0 0-.168-.852 2.3 2.3 0 0 0 .277-3.477 2.278 2.278 0 0 0 .278-1.09 2.319 2.319 0 0 0-1.651-2.22 2.318 2.318 0 0 0-4.44 0 2.319 2.319 0 0 0-1.651 2.22 2.278 2.278 0 0 0 .278 1.09 2.3 2.3 0 0 0 .277 3.477 2.266 2.266 0 0 0-.168.852 2.325 2.325 0 0 0 2.323 2.323 2.267 2.267 0 0 0 .774-.141v5.957a1.38 1.38 0 0 0-.083.069l-8.494-13.445a.4.4 0 0 0-.655 0L.947 82.58H.386a.387.387 0 0 0-.386.387v1.548a.387.387 0 0 0 .387.387h23.224a.387.387 0 0 0 .389-.387v-1.548a1.938 1.938 0 0 0-1.935-1.935zm-3.484-6.193a1.55 1.55 0 0 1-1.548-1.548 1.519 1.519 0 0 1 .227-.794.388.388 0 0 0-.155-.544 1.533 1.533 0 0 1-.219-2.608.387.387 0 0 0 .078-.544 1.529 1.529 0 0 1-.319-.929 1.545 1.545 0 0 1 1.267-1.519.387.387 0 0 0 .311-.311 1.544 1.544 0 0 1 3.038 0 .387.387 0 0 0 .311.311 1.536 1.536 0 0 1 .948 2.448.387.387 0 0 0 .078.544 1.533 1.533 0 0 1-.219 2.608.388.388 0 0 0-.155.544 1.516 1.516 0 0 1 .228.794 1.55 1.55 0 0 1-1.55 1.548 1.514 1.514 0 0 1-.774-.219v-4.653l1.822-1.822-.548-.544-1.275 1.275V67.1h-.774v4.485l-1.275-1.275-.547.547 1.822 1.822v1.943a1.514 1.514 0 0 1-.774.219zm2.515 7.13a.387.387 0 0 0 .389 0 1.141 1.141 0 0 1 .579-.162 1.16 1.16 0 0 1 1.09.774h-3.727a1.16 1.16 0 0 1 1.09-.774 1.141 1.141 0 0 1 .579.162zM10.45 68.983l8.316 13.167a1.9 1.9 0 0 0-.148.43h-1.374l-6.466-10.271a.4.4 0 0 0-.655 0L3.656 82.58H1.863zm-.387 13.6H4.571l5.492-8.723zm.774-8.723l5.492 8.723h-5.492zm12.387 10.268H.773v-.774h22.451zm0 0" class="cls-6" data-name="Path 2642" transform="translate(-39 -60.903)"/>
            <path id="Path_2643" d="M1.84 5.267a1.93 1.93 0 0 0 1.644.926h.008a1.931 1.931 0 0 0 1.54.774A1.888 1.888 0 0 0 6 6.7a1.888 1.888 0 0 0 .968.266A1.921 1.921 0 0 0 8.686 5.92a1.936 1.936 0 1 0 .992-3.6 1.742 1.742 0 0 0-.342.035 1.916 1.916 0 0 0-1.129-.421 2.312 2.312 0 0 0-3.281-.779A2.705 2.705 0 1 0 1.84 5.267zM7.618 2.49a.383.383 0 0 0 .4.233l.064-.008a.359.359 0 0 1 .052-.006 1.153 1.153 0 0 1 .826.346.387.387 0 0 0 .388.1 1.139 1.139 0 0 1 .329-.055 1.161 1.161 0 1 1-.826 1.977.388.388 0 0 0-.388-.1L8.387 5a.386.386 0 0 0-.29.291 1.149 1.149 0 0 1-1.854.64.388.388 0 0 0-.487 0 1.143 1.143 0 0 1-.724.263 1.161 1.161 0 0 1-1.007-.6.385.385 0 0 0-.388-.194l-.04.005a.917.917 0 0 1-.113.011 1.161 1.161 0 1 1 0-2.323 1.141 1.141 0 0 1 .592.169.387.387 0 0 0 .585-.3 1.542 1.542 0 0 1 2.957-.472zM2.71.774a1.941 1.941 0 0 1 1.643.916 2.3 2.3 0 0 0-.364.7 1.876 1.876 0 0 0-.5-.07 1.937 1.937 0 0 0-1.935 1.93A1.931 1.931 0 0 1 2.71.774zm0 0" class="cls-6" data-name="Path 2643" transform="translate(-39.001)"/>
        </g>
    </g>
</svg>
