<svg xmlns="http://www.w3.org/2000/svg" width="40" height="40" viewBox="0 0 40 40">
    <defs>
        <style>
            .cls-1,.cls-3{fill:#1b84e7}.cls-1{opacity:.1}.cls-2,.cls-5{fill:none}.cls-2{stroke:#1b84e7;opacity:.5}.cls-4{stroke:none}
        </style>
    </defs>
    <g id="campaign_status" data-name="campaign status" transform="translate(-656 -134)">
        <g id="Group_747" data-name="Group 747" transform="translate(656 134)">
            <circle id="Ellipse_221" cx="20" cy="20" r="20" class="cls-1" data-name="Ellipse 221"/>
            <g id="Ellipse_222" class="cls-2" data-name="Ellipse 222">
                <circle cx="20" cy="20" r="20" class="cls-4"/>
                <circle cx="20" cy="20" r="19.5" class="cls-5"/>
            </g>
        </g>
        <g id="doctor-stethoscope" transform="translate(669.334 145.667)">
            <ellipse id="Ellipse_254" cx="1.042" cy="1.042" class="cls-3" data-name="Ellipse 254" rx="1.042" ry="1.042" transform="translate(5.833)"/>
            <ellipse id="Ellipse_255" cx="1.042" cy="1.042" class="cls-3" data-name="Ellipse 255" rx="1.042" ry="1.042" transform="translate(10)"/>
            <path id="Path_2625" d="M32.1 6.287a2.389 2.389 0 0 0-2.089-1.2v.849a1.558 1.558 0 0 1 1.352 2.337l-2.734 4.725a1.563 1.563 0 0 1-2.7 0l-2.743-4.729a1.558 1.558 0 0 1 1.352-2.337v-.849a2.407 2.407 0 0 0-2.089 3.611l2.734 4.725a2.383 2.383 0 0 0 1.664 1.166v2.279c0 2.226-1.317 4.037-2.936 4.037s-2.936-1.811-2.936-4.037V14.15a2.127 2.127 0 1 0-.851 0v2.713c0 2.694 1.7 4.886 3.787 4.886s3.789-2.191 3.789-4.886v-2.279a2.383 2.383 0 0 0 1.664-1.166L32.1 8.694a2.377 2.377 0 0 0 0-2.407z" class="cls-3" data-name="Path 2625" transform="translate(-18.422 -4.35)"/>
        </g>
    </g>
</svg>
