<svg xmlns="http://www.w3.org/2000/svg" width="40" height="40" viewBox="0 0 40 40">
    <defs>
        <style>
            .cls-1,.cls-3{fill:#f27510}.cls-1{opacity:.1}.cls-2,.cls-5{fill:none}.cls-2{stroke:#f27510;opacity:.51}.cls-4{stroke:none}
        </style>
    </defs>
    <g id="cancelling_request" data-name="cancelling request" transform="translate(-108 -118)">
        <circle id="Ellipse_353" cx="20" cy="20" r="20" class="cls-1" data-name="Ellipse 353" transform="translate(108 118)"/>
        <g id="Ellipse_352" class="cls-2" data-name="Ellipse 352" transform="translate(108 118)">
            <circle cx="20" cy="20" r="20" class="cls-4"/>
            <circle cx="20" cy="20" r="19.5" class="cls-5"/>
        </g>
        <g id="decline" transform="translate(120 130.001)">
            <path id="Path_3058" d="M65.16 98.637h-2.914a.488.488 0 1 0 0 .977h2.914a.488.488 0 0 0 0-.977zm0 0" class="cls-3" data-name="Path 3058" transform="translate(-59.747 -95.42)"/>
            <path id="Path_3059" d="M65.16 158.641h-2.914a.488.488 0 0 0 0 .977h2.914a.488.488 0 0 0 0-.977zm0 0" class="cls-3" data-name="Path 3059" transform="translate(-59.747 -153.467)"/>
            <path id="Path_3060" d="M65.16 218.645h-2.914a.488.488 0 0 0 0 .977h2.914a.488.488 0 0 0 0-.977zm0 0" class="cls-3" data-name="Path 3060" transform="translate(-59.747 -211.513)"/>
            <path id="Path_3061" d="M65.16 278.648h-2.914a.488.488 0 0 0 0 .977h2.914a.488.488 0 0 0 0-.977zm0 0" class="cls-3" data-name="Path 3061" transform="translate(-59.747 -269.559)"/>
            <path id="Path_3062" d="M65.16 339.656h-2.914a.488.488 0 0 0 0 .977h2.914a.488.488 0 0 0 0-.977zm0 0" class="cls-3" data-name="Path 3062" transform="translate(-59.747 -328.577)"/>
            <path id="Path_3063" d="M202.148 99.614h2.914a.488.488 0 1 0 0-.977h-2.914a.488.488 0 1 0 0 .977zm0 0" class="cls-3" data-name="Path 3063" transform="translate(-195.078 -95.42)"/>
            <path id="Path_3064" d="M202.148 159.618h2.914a.488.488 0 1 0 0-.977h-2.914a.488.488 0 1 0 0 .977zm0 0" class="cls-3" data-name="Path 3064" transform="translate(-195.078 -153.467)"/>
            <path id="Path_3065" d="M204.04 219.133a.488.488 0 0 0-.488-.488h-1.4a.488.488 0 0 0 0 .977h1.4a.488.488 0 0 0 .488-.489zm0 0" class="cls-3" data-name="Path 3065" transform="translate(-195.08 -211.513)"/>
            <path id="Path_3066" d="M321.874 341.147a.488.488 0 0 0-.691-.007l-.7.686-.7-.686a.488.488 0 0 0-.683.7l.686.671-.686.671a.488.488 0 1 0 .683.7l.7-.686.7.686a.488.488 0 1 0 .683-.7l-.686-.671.686-.671a.488.488 0 0 0 .007-.69zm0 0" class="cls-3" data-name="Path 3066" transform="translate(-308.544 -329.874)"/>
            <path id="Path_3067" d="M14.834 9.783A4.035 4.035 0 0 0 12.49 8.6V1.97A1.973 1.973 0 0 0 10.52 0H1.971A1.973 1.973 0 0 0 0 1.97V13.3a1.973 1.973 0 0 0 1.97 1.971h6.877a4.028 4.028 0 0 0 3.09 1.425 4.067 4.067 0 0 0 2.9-6.917zM.979 13.3V1.97a.993.993 0 0 1 .992-.992h8.549a.993.993 0 0 1 .992.992v6.62a4.069 4.069 0 0 0-3.285 5.71H1.971a.993.993 0 0 1-.992-1zm10.958 2.418a3.088 3.088 0 0 1 0-6.175h.056a3.088 3.088 0 0 1-.056 6.175zm0 0" class="cls-3" data-name="Path 3067"/>
        </g>
    </g>
</svg>
