<svg xmlns="http://www.w3.org/2000/svg" width="40" height="40" viewBox="0 0 40 40">
    <defs>
        <style>
            .cls-1,.cls-3{fill:#5393d3}.cls-1{opacity:.1}.cls-2,.cls-5{fill:none}.cls-2{stroke:#5393d3;opacity:.5}.cls-4{stroke:none}
        </style>
    </defs>
    <g id="candidate_request" data-name="candidate request" transform="translate(-656 -134)">
        <g id="Group_747" data-name="Group 747" transform="translate(656 134)">
            <circle id="Ellipse_221" cx="20" cy="20" r="20" class="cls-1" data-name="Ellipse 221"/>
            <g id="Ellipse_222" class="cls-2" data-name="Ellipse 222">
                <circle cx="20" cy="20" r="20" class="cls-4"/>
                <circle cx="20" cy="20" r="19.5" class="cls-5"/>
            </g>
        </g>
        <g id="doctor-stethoscope" transform="translate(669.334 145.667)">
            <g id="human-resources" transform="translate(-2.334 -.667)">
                <path id="Path_2861" d="M15.71 3.581h-3.871a2.581 2.581 0 1 0-5.161 0H2.29A1.292 1.292 0 0 0 1 4.871v7.742A1.292 1.292 0 0 0 2.29 13.9h4.486l-.516 1.035H5.9a1.292 1.292 0 0 0-1.29 1.29V17h8.774v-.774a1.292 1.292 0 0 0-1.29-1.29h-.354l-.516-1.036h4.486A1.292 1.292 0 0 0 17 12.613V4.871a1.292 1.292 0 0 0-1.29-1.29zM9.258 1.516a2.062 2.062 0 0 1 1.608 3.356 2.064 2.064 0 0 0-.756-.588 1.29 1.29 0 1 0-1.7 0 2.069 2.069 0 0 0-.756.588 2.062 2.062 0 0 1 1.604-3.356zm-3.613 6.71a1.032 1.032 0 1 1 1.032-1.032 1.033 1.033 0 0 1-1.032 1.032zm2.046 2.064H3.6a1.809 1.809 0 0 1 1.787-1.548H5.9a1.809 1.809 0 0 1 1.791 1.548zM6.206 5.752a1.546 1.546 0 0 0-1.58 2.6 2.325 2.325 0 0 0-1.562 2.192v.258h5.162v-.258a2.306 2.306 0 0 0-.135-.774h1.9a2.547 2.547 0 1 0-.165-.516H7.833a2.332 2.332 0 0 0-1.169-.9 1.542 1.542 0 0 0 0-2.329l.7-.7a2.57 2.57 0 0 0 3.956-.2h4.134v6.71H6.268l-.368-.361a.52.52 0 0 0-.365-.151H2.548V5.129h4.28zm6.149 4.022a1.55 1.55 0 0 1 1.237.617 2.049 2.049 0 0 1-2.473 0 1.55 1.55 0 0 1 1.236-.617zm-.774-1.29a.774.774 0 1 1 .774.774.775.775 0 0 1-.774-.774zm1.626.962a1.29 1.29 0 1 0-1.7 0 2.066 2.066 0 0 0-.756.588 2.065 2.065 0 1 1 3.217 0 2.069 2.069 0 0 0-.761-.589zM9.258 4.613a1.55 1.55 0 0 1 1.237.617 2.049 2.049 0 0 1-2.473 0 1.551 1.551 0 0 1 1.237-.617zm-.774-1.29a.774.774 0 1 1 .774.774.775.775 0 0 1-.774-.774zM12.1 15.452a.775.775 0 0 1 .774.774v.258H5.129v-.258a.775.775 0 0 1 .774-.774zm-5.26-.516l.513-1.036h3.294l.516 1.032zm9.647-2.323a.775.775 0 0 1-.774.774H2.29a.775.775 0 0 1-.774-.774V4.871A.775.775 0 0 1 2.29 4.1h4.44a2.556 2.556 0 0 0 .165.516H2.548a.517.517 0 0 0-.516.516v6.194a.517.517 0 0 0 .516.516h2.99l.362.358a.52.52 0 0 0 .365.151h9.183a.517.517 0 0 0 .516-.516V5.129a.517.517 0 0 0-.516-.516h-3.83a2.556 2.556 0 0 0 .165-.516h3.927a.775.775 0 0 1 .774.774z" class="cls-3" data-name="Path 2861"/>
                <path id="Path_2862" d="M7 45h.516v.516H7z" class="cls-3" data-name="Path 2862" transform="translate(-4.452 -32.645)"/>
                <path id="Path_2863" d="M11 45h.516v.516H11z" class="cls-3" data-name="Path 2863" transform="translate(-7.419 -32.645)"/>
                <path id="Path_2864" d="M15 45h.516v.516H15z" class="cls-3" data-name="Path 2864" transform="translate(-10.387 -32.645)"/>
                <path id="Path_2865" d="M9 19h.516v.516H9z" class="cls-3" data-name="Path 2865" transform="translate(-5.935 -13.355)"/>
                <path id="Path_2866" d="M9 23h.516v.516H9z" class="cls-3" data-name="Path 2866" transform="translate(-5.935 -16.323)"/>
                <path id="Path_2867" d="M9 27h.516v.516H9z" class="cls-3" data-name="Path 2867" transform="translate(-5.935 -19.29)"/>
            </g>
        </g>
    </g>
</svg>
