<svg xmlns="http://www.w3.org/2000/svg" width="16.168" height="16.168" viewBox="0 0 16.168 16.168">
    <defs>
        <style>
            .cls-1{fill:#dc3545}
        </style>
    </defs>
    <path id="Path_3280" d="M14 8.194l.917-.917A4.263 4.263 0 0 0 8.89 1.249L1.249 8.89a4.263 4.263 0 0 0 6.028 6.028L8.195 14A4.262 4.262 0 1 0 14 8.194zM7.642 11.9a4.253 4.253 0 0 0 .158 1.156l-1.192 1.192A3.315 3.315 0 0 1 1.919 9.56L5.376 6.1 8.55 9.277a4.241 4.241 0 0 0-.908 2.623zm3.789 3.281a3.315 3.315 0 0 1 0-6.563zM9.213 8.6L6.046 5.433 9.56 1.919a3.315 3.315 0 0 1 4.689 4.689L13.056 7.8a4.259 4.259 0 0 0-3.843.8zm3.165 6.584V8.623a3.315 3.315 0 0 1 0 6.563z" class="cls-1" data-name="Path 3280" transform="translate(0 .001)"/>
</svg>
