<svg xmlns="http://www.w3.org/2000/svg" width="24.3" height="24.3" viewBox="0 0 24.3 24.3">
    <defs>
        <style>
            .cls-1{fill:#dc3545;stroke:#dc3545;stroke-width:.3px}
        </style>
    </defs>
    <g id="charts" transform="translate(.15 .15)">
        <g id="Group_1052" data-name="Group 1052">
            <g id="Group_1051" data-name="Group 1051">
                <path id="Path_2905" d="M1.6 20v-1.444l3.656-4.024A1.176 1.176 0 0 0 6.8 14.5l2.828 2.12A1.2 1.2 0 0 0 12 16.4a1 1 0 0 0-.024-.22l3.136-3.48a1.256 1.256 0 0 0 .488.1 1.2 1.2 0 0 0 .772-.288l2.932 2.6a1.22 1.22 0 0 0-.1.484 1.215 1.215 0 1 0 .656-1.064L16.8 11.8a1.178 1.178 0 0 0 0-.2 1.2 1.2 0 0 0-2.4 0 1.176 1.176 0 0 0 .136.54l-2.992 3.324a1.188 1.188 0 0 0-1.748.284L7.2 13.784a.927.927 0 0 0 0-.184 1.2 1.2 0 1 0-2.4 0 1 1 0 0 0 .024.22L1.6 17.364v-4.4l3.86-3.508A1.224 1.224 0 0 0 6 9.6a1.2 1.2 0 0 0 1.2-1.2 1.039 1.039 0 0 0-.024-.224L10.2 4.8a1.178 1.178 0 0 0 .2 0 1.2 1.2 0 0 0 .856-.36l3.2 1.064a1.2 1.2 0 0 0 2.344-.472l2.8-1.752a1.2 1.2 0 1 0-.4-.88 1.207 1.207 0 0 0 0 .168L16.4 4.32a1.2 1.2 0 0 0-1.892.364L11.6 3.708a1 1 0 0 0 0-.108 1.2 1.2 0 1 0-2.112.772L6.74 7.464A1.176 1.176 0 0 0 6 7.2a1.2 1.2 0 0 0-1.2 1.2 1.164 1.164 0 0 0 .108.488L1.6 11.9V0H.8v.8H0v.8h.8v4H0v.8h.8v4H0v.8h.8v4H0v.8h.8v4.4a.4.4 0 0 0 .4.4h4.4v.8h.8v-.8h4v.8h.8v-.8h4v.8h.8v-.8h4v.8h.8v-.8H24V20zm18.8-4.8a.4.4 0 1 1-.4.4.4.4 0 0 1 .4-.4zm-4.8-4a.4.4 0 1 1-.4.4.4.4 0 0 1 .4-.4zM10.8 16a.4.4 0 1 1-.4.4.4.4 0 0 1 .4-.4zM6 13.2a.4.4 0 1 1-.4.4.4.4 0 0 1 .4-.4zM20.4 2a.4.4 0 1 1-.4.4.4.4 0 0 1 .4-.4zm-4.8 2.8a.4.4 0 1 1-.4.4.4.4 0 0 1 .4-.4zm-5.2-1.6a.4.4 0 1 1-.4.4.4.4 0 0 1 .4-.4zM6 8a.4.4 0 1 1-.4.4A.4.4 0 0 1 6 8z" class="cls-1" data-name="Path 2905"/>
            </g>
        </g>
        <g id="Group_1054" data-name="Group 1054" transform="translate(7.6 23.2)">
            <g id="Group_1053" data-name="Group 1053">
                <path id="Rectangle_1182" d="M0 0h.8v.8H0z" class="cls-1" data-name="Rectangle 1182"/>
            </g>
        </g>
        <g id="Group_1056" data-name="Group 1056" transform="translate(9.2 23.2)">
            <g id="Group_1055" data-name="Group 1055">
                <path id="Rectangle_1183" d="M0 0h.8v.8H0z" class="cls-1" data-name="Rectangle 1183"/>
            </g>
        </g>
        <g id="Group_1058" data-name="Group 1058" transform="translate(10.8 23.2)">
            <g id="Group_1057" data-name="Group 1057">
                <path id="Rectangle_1184" d="M0 0h.8v.8H0z" class="cls-1" data-name="Rectangle 1184"/>
            </g>
        </g>
        <g id="Group_1060" data-name="Group 1060" transform="translate(12.4 23.2)">
            <g id="Group_1059" data-name="Group 1059">
                <path id="Rectangle_1185" d="M0 0h.8v.8H0z" class="cls-1" data-name="Rectangle 1185"/>
            </g>
        </g>
        <g id="Group_1062" data-name="Group 1062" transform="translate(14 23.2)">
            <g id="Group_1061" data-name="Group 1061">
                <path id="Rectangle_1186" d="M0 0h.8v.8H0z" class="cls-1" data-name="Rectangle 1186"/>
            </g>
        </g>
        <g id="Group_1064" data-name="Group 1064" transform="translate(15.6 23.2)">
            <g id="Group_1063" data-name="Group 1063">
                <path id="Rectangle_1187" d="M0 0h.8v.8H0z" class="cls-1" data-name="Rectangle 1187"/>
            </g>
        </g>
    </g>
</svg>
