<svg xmlns="http://www.w3.org/2000/svg" width="21.3" height="21.3" viewBox="0 0 21.3 21.3">
    <defs>
        <style>
            .cls-1{fill:#00b7b7;stroke:#00b7b7;stroke-width:.3px}
        </style>
    </defs>
    <g id="checked" transform="translate(.15 .15)">
        <g id="Group_1714" data-name="Group 1714">
            <path id="Path_3367" d="M10.5 0A10.5 10.5 0 1 0 21 10.5 10.512 10.512 0 0 0 10.5 0zm0 19.951a9.451 9.451 0 1 1 9.451-9.451 9.461 9.461 0 0 1-9.451 9.451z" class="cls-1" data-name="Path 3367"/>
            <path id="Path_3368" d="M166.981 182.064l-4.28 4.257-1.562-1.571a.557.557 0 0 0-.792.783l1.953 1.967a.555.555 0 0 0 .788 0l4.676-4.649a.555.555 0 1 0-.783-.788z" class="cls-1" data-name="Path 3368" transform="translate(-153.558 -174.282)"/>
        </g>
    </g>
</svg>
