<svg xmlns="http://www.w3.org/2000/svg" width="17.675" height="24.302" viewBox="0 0 17.675 24.302">
    <defs>
        <style>
            .cls-1,.cls-2{fill:#6f42c1}.cls-1{stroke:#6f42c1;stroke-width:.3px}
        </style>
    </defs>
    <g id="cogwheels" transform="translate(-70.538 .15)">
        <g id="Group_1066" data-name="Group 1066" transform="translate(70.688)">
            <g id="Group_1065" data-name="Group 1065">
                <path id="Path_2906" d="M87.916 4.755L83.307.146A.5.5 0 0 0 82.954 0H72.249a1.562 1.562 0 0 0-1.561 1.561v20.881A1.562 1.562 0 0 0 72.249 24H86.5a1.562 1.562 0 0 0 1.561-1.561V5.109a.5.5 0 0 0-.145-.354zm-1.561-.146h-2.9v-2.9zm.707 17.833A.561.561 0 0 1 86.5 23H72.249a.561.561 0 0 1-.561-.561V1.561A.561.561 0 0 1 72.249 1h10.205v4.109a.5.5 0 0 0 .5.5h4.109z" class="cls-1" data-name="Path 2906" transform="translate(-70.688)"/>
                <path id="Path_2907" d="M185.691 199.968a2 2 0 1 0 2 2 2 2 0 0 0-2-2zm0 3a1 1 0 1 1 1-1 1 1 0 0 1-1 1z" class="cls-2" data-name="Path 2907" transform="translate(-178.393 -190.593)"/>
                <path id="Path_2908" d="M132.4 147.045a.5.5 0 0 0 .3-.233l1-1.732a.5.5 0 0 0-.183-.683l-.578-.334a3.962 3.962 0 0 0 0-1.11l.578-.334a.5.5 0 0 0 .183-.683l-1-1.732a.5.5 0 0 0-.683-.183l-.58.335a4.033 4.033 0 0 0-.959-.555v-.668a.5.5 0 0 0-.5-.5h-2a.5.5 0 0 0-.5.5v.668a4.035 4.035 0 0 0-.959.555l-.58-.335a.5.5 0 0 0-.683.183l-1 1.732a.5.5 0 0 0 .183.683l.578.334a3.962 3.962 0 0 0 0 1.11l-.578.334a.5.5 0 0 0-.183.683l1 1.732a.5.5 0 0 0 .683.183l.58-.335a4.035 4.035 0 0 0 .959.555v.668a.5.5 0 0 0 .5.5h2a.5.5 0 0 0 .5-.5v-.668a4.035 4.035 0 0 0 .959-.555l.58.335a.5.5 0 0 0 .383.05zm-1.36-1.358a3.014 3.014 0 0 1-1.2.7.5.5 0 0 0-.357.479v.521h-1v-.521a.5.5 0 0 0-.357-.479 3.015 3.015 0 0 1-1.2-.7.5.5 0 0 0-.594-.07l-.454.262-.5-.866.452-.261a.5.5 0 0 0 .236-.549 2.977 2.977 0 0 1 0-1.39.5.5 0 0 0-.236-.549l-.452-.261.5-.866.454.262a.5.5 0 0 0 .594-.07 3.016 3.016 0 0 1 1.2-.7.5.5 0 0 0 .357-.479v-.521h1v.521a.5.5 0 0 0 .357.479 3.016 3.016 0 0 1 1.2.7.5.5 0 0 0 .594.07l.454-.262.5.866-.452.261a.5.5 0 0 0-.236.549 2.977 2.977 0 0 1 0 1.39.5.5 0 0 0 .236.549l.452.261-.5.866-.454-.262a.5.5 0 0 0-.594.07z" class="cls-2" data-name="Path 2908" transform="translate(-121.684 -132.134)"/>
                <path id="Path_2909" d="M281.5 336.964v.3a1.739 1.739 0 0 0-.332.138l-.211-.211a.5.5 0 1 0-.707.707l.211.211a1.739 1.739 0 0 0-.138.332h-.3a.5.5 0 0 0 0 1h.3a1.739 1.739 0 0 0 .138.332l-.211.211a.5.5 0 0 0 .707.707l.211-.211a1.74 1.74 0 0 0 .332.138v.3a.5.5 0 0 0 1 0v-.3a1.735 1.735 0 0 0 .332-.138l.211.211a.5.5 0 1 0 .707-.707l-.211-.211a1.741 1.741 0 0 0 .138-.332h.3a.5.5 0 0 0 0-1h-.3a1.738 1.738 0 0 0-.138-.332l.211-.211a.5.5 0 0 0-.707-.707l-.211.211a1.743 1.743 0 0 0-.332-.138v-.3a.5.5 0 1 0-1 0zm1.25 1.975a.75.75 0 1 1-.75-.75.751.751 0 0 1 .754.75z" class="cls-2" data-name="Path 2909" transform="translate(-269.739 -320.691)"/>
                <path id="Path_2910" d="M127.485 442.837H124.7a.5.5 0 0 0 0 1h2.789a.5.5 0 0 0 0-1z" class="cls-2" data-name="Path 2910" transform="translate(-121.688 -422.077)"/>
                <path id="Path_2911" d="M228.592 442.837h-.05a.5.5 0 0 0 0 1h.05a.5.5 0 0 0 0-1z" class="cls-2" data-name="Path 2911" transform="translate(-220.665 -422.077)"/>
            </g>
        </g>
    </g>
</svg>
