<svg xmlns="http://www.w3.org/2000/svg" width="16.199" height="16.314" viewBox="0 0 16.199 16.314">
    <defs>
        <style>
            .cls-1{fill:#6c757d;stroke:#707070;stroke-width:.2px}
        </style>
    </defs>
    <g id="contact_" data-name="contact" transform="translate(.063 .214)">
        <g id="Group_1072" data-name="Group 1072" transform="translate(4.544 10.94)">
            <g id="Group_1071" data-name="Group 1071">
                <path id="Path_2937" d="M144.754 350.161a.312.312 0 1 0 .092.221.315.315 0 0 0-.092-.221z" class="cls-1" data-name="Path 2937" transform="translate(-144.221 -350.069)"/>
            </g>
        </g>
        <g id="Group_1074" data-name="Group 1074" transform="translate(.038 .001)">
            <g id="Group_1073" data-name="Group 1073">
                <path id="Path_2938" d="M15.513 11.4l-2.259-2.255a1.785 1.785 0 0 0-2.525 0l-.788.788-.315.315-3.812-3.813 1.1-1.1a1.787 1.787 0 0 0 0-2.525L4.659.551a1.787 1.787 0 0 0-2.525 0l-.6.6a5.138 5.138 0 0 0 0 7.259l2.2 2.2a.313.313 0 0 0 .442-.442l-2.2-2.2a4.514 4.514 0 0 1-.387-5.934L3.968 4.4a.313.313 0 1 0 .442-.44l-2.4-2.4.566-.567a1.162 1.162 0 0 1 1.641 0L6.475 3.25a1.162 1.162 0 0 1 0 1.641L5.151 6.214a.312.312 0 0 0 0 .442l4.255 4.255a.312.312 0 0 0 .442 0l.315-.315 3.873 3.873a4.509 4.509 0 0 1-5.936-.386l-2.226-2.227a.313.313 0 0 0-.442.442l2.227 2.227a5.133 5.133 0 0 0 7.259 0l.6-.6a1.785 1.785 0 0 0 0-2.525zm-.442 2.083l-.567.567-3.9-3.9.567-.567a1.16 1.16 0 0 1 1.641 0l2.259 2.259a1.16 1.16 0 0 1 0 1.641z" class="cls-1" data-name="Path 2938" transform="translate(-.038 -.029)"/>
            </g>
        </g>
        <g id="Group_1076" data-name="Group 1076" transform="translate(4.635 4.599)">
            <g id="Group_1075" data-name="Group 1075">
                <path id="Path_2939" d="M147.664 147.262a.312.312 0 1 0 .092.221.314.314 0 0 0-.092-.221z" class="cls-1" data-name="Path 2939" transform="translate(-147.131 -147.17)"/>
            </g>
        </g>
        <g id="Group_1078" data-name="Group 1078" transform="translate(11.046 1.25)">
            <g id="Group_1077" data-name="Group 1077">
                <path id="Path_2940" d="M354.454 41.008a1.083 1.083 0 0 0-2.164.076.313.313 0 0 0 .625 0 .459.459 0 1 1 .559.447.525.525 0 0 0-.413.515v.563a.313.313 0 0 0 .625 0v-.487a1.078 1.078 0 0 0 .768-1.114z" class="cls-1" data-name="Path 2940" transform="translate(-352.29 -40)"/>
            </g>
        </g>
        <g id="Group_1080" data-name="Group 1080" transform="translate(11.817 4.658)">
            <g id="Group_1079" data-name="Group 1079">
                <path id="Path_2941" d="M377.494 149.151a.313.313 0 1 0 .092.221.315.315 0 0 0-.092-.221z" class="cls-1" data-name="Path 2941" transform="translate(-376.961 -149.06)"/>
            </g>
        </g>
        <g id="Group_1082" data-name="Group 1082" transform="translate(8.223)">
            <g id="Group_1081" data-name="Group 1081">
                <path id="Path_2942" d="M268.211 0h-4.687a1.564 1.564 0 0 0-1.562 1.563v3.561a1.564 1.564 0 0 0 1.563 1.563h1.185l.915 1.191a.312.312 0 0 0 .248.122.313.313 0 0 0 .248-.123l.907-1.19h1.184a1.564 1.564 0 0 0 1.563-1.563V1.563A1.564 1.564 0 0 0 268.211 0zm.938 5.124a.939.939 0 0 1-.937.938h-1.339a.313.313 0 0 0-.249.123l-.753.989-.76-.989a.312.312 0 0 0-.248-.122h-1.339a.939.939 0 0 1-.937-.938V1.563a.939.939 0 0 1 .938-.938h4.688a.939.939 0 0 1 .938.938z" class="cls-1" data-name="Path 2942" transform="translate(-261.961)"/>
            </g>
        </g>
    </g>
</svg>
