<svg xmlns="http://www.w3.org/2000/svg" width="161.171" height="32.4" viewBox="0 0 161.171 32.4">
    <defs>
        <style>
            .cls-1{fill:#fff}.cls-2,.cls-6{fill:#58595b}.cls-2{stroke:#58595b;stroke-width:.8px}.cls-3,.cls-5{fill:#426ab2}.cls-3,.cls-4{fill-rule:evenodd}.cls-4,.cls-7{fill:#f99d3f}
        </style>
    </defs>
    <g id="logo_c-square" data-name="logo c-square" transform="translate(-91.6 -16)">
        <g id="csquare_logo" data-name="csquare logo" transform="translate(24.9 2.8)">
            <path id="Path_3100" d="M111.329 66.924v9.633c0 2.76-1.717 4.973-3.838 4.973H71.738c-2.121 0-3.838-2.239-3.838-4.973V61.3h32.521l5.454 5.624z" class="cls-1" data-name="Path 3100" transform="translate(-.592 -36.564)"/>
            <path id="Path_3101" d="M106.93 22.6h-1.465a.554.554 0 0 1 .025.2.49.49 0 0 1-.025.2h1.44c2 0 3.637 2.066 3.637 4.611v19.5c0 2.545-1.616 4.611-3.637 4.611H71.141c-2 0-3.637-2.066-3.637-4.611v-19.5C67.5 25.069 69.121 23 71.141 23h1.44a.554.554 0 0 1-.025-.2c0-.076.025-.151.025-.2h-1.44c-2.223 0-4.041 2.242-4.041 5.014v19.5c0 2.771 1.818 5.039 4.041 5.039H106.9c2.223 0 4.041-2.267 4.041-5.039v-19.5c.03-2.772-1.789-5.014-4.011-5.014z" class="cls-2" data-name="Path 3101" transform="translate(0 -6.953)"/>
            <g id="Group_1118" data-name="Group 1118" transform="translate(67.334 25.264)">
                <path id="Path_3102" d="M111.4 66.924v.417h-5.63l-5.454-5.6H68V61.3h32.5l5.454 5.624z" class="cls-2" data-name="Path 3102" transform="translate(-68 -61.3)"/>
            </g>
            <path id="Path_3103" d="M146.772 61.3v.026a1.97 1.97 0 0 1-.026.391 3 3 0 0 1-2.968 2.6h-1.484a3 3 0 0 1-2.968-2.6 1.97 1.97 0 0 1-.026-.391V61.3h7.472z" class="cls-1" data-name="Path 3103" transform="translate(-54.076 -35.989)"/>
            <path id="Path_3104" d="M104.3 17.651c-6.9.377-9.243 7.343-5.337 12.3L95.6 32.713c-5.728-7.82-3.072-12.171.234-16.446l-3.7-3.068a15.262 15.262 0 0 0-4.3 7.67 17.585 17.585 0 0 0-.443 2.816v2.087a16.5 16.5 0 0 0 16.689 15.339h.234v-23.46z" class="cls-3" data-name="Path 3104" transform="translate(-15.015)"/>
            <path id="Path_3105" d="M155.526 17.651c6.9.377 9.243 7.343 5.337 12.3l3.359 2.766c5.728-7.82 3.072-12.171-.234-16.446l3.7-3.068a15.262 15.262 0 0 1 4.3 7.67 17.584 17.584 0 0 1 .443 2.816v2.087a16.5 16.5 0 0 1-16.689 15.339h-.242V17.651z" class="cls-4" data-name="Path 3105" transform="translate(-66.737)"/>
            <g id="Group_1119" data-name="Group 1119" transform="translate(84.539 37.986)">
                <path id="Path_3106" d="M136.3 111.5h.937v.312h-.312v1.38h-.312v-1.38h-.313z" class="cls-1" data-name="Path 3106" transform="translate(-136.3 -111.5)"/>
                <path id="Path_3107" d="M140.512 111.5h.312l.391 1.172.391-1.172h.312l.286 1.692h-.312l-.182-1.067-.365 1.067h-.286l-.365-1.067-.182 1.067h-.312z" class="cls-1" data-name="Path 3107" transform="translate(-139.185 -111.5)"/>
            </g>
        </g>
        <g id="csquare_logo-2" data-name="csquare logo" transform="translate(136.5 -132)">
            <g id="Group_1120" data-name="Group 1120" transform="translate(7.5 168.65)">
                <path id="Path_3108" d="M12.91 199.319l-.448.336a2.251 2.251 0 0 0-.858-.709 2.742 2.742 0 0 0-1.119-.261 2.348 2.348 0 0 0-1.231.336 2.469 2.469 0 0 0-.9.858 2.236 2.236 0 0 0-.3 1.231 2.31 2.31 0 0 0 .709 1.716 2.391 2.391 0 0 0 1.753.672 2.505 2.505 0 0 0 1.977-.933l.448.336a2.846 2.846 0 0 1-1.045.821 3.393 3.393 0 0 1-1.38.3 2.956 2.956 0 0 1-2.313-.97 2.863 2.863 0 0 1-.709-1.977 2.788 2.788 0 0 1 .858-2.052 2.954 2.954 0 0 1 2.164-.821 3.438 3.438 0 0 1 1.418.3 2.491 2.491 0 0 1 .976.817z" class="cls-5" data-name="Path 3108" transform="translate(-7.5 -198.013)"/>
                <path id="Path_3109" d="M24.5 198h.522v5.708H24.5z" class="cls-5" data-name="Path 3109" transform="translate(-18.158 -197.888)"/>
                <path id="Path_3110" d="M32.69 202.112v4.141h-.522v-.709a2.2 2.2 0 0 1-.746.6 1.843 1.843 0 0 1-.9.187 2.029 2.029 0 0 1-1.492-.634 2.162 2.162 0 0 1 0-3.059 2.091 2.091 0 0 1 1.497-.638 2.023 2.023 0 0 1 .933.224 2.289 2.289 0 0 1 .709.634v-.746zm-2.127.41a1.6 1.6 0 0 0-.821.224 1.531 1.531 0 0 0-.6.6 1.617 1.617 0 0 0 0 1.642 1.628 1.628 0 0 0 .6.634 1.617 1.617 0 0 0 1.642 0 1.53 1.53 0 0 0 .6-.6 1.635 1.635 0 0 0 .224-.858 1.576 1.576 0 0 0-.485-1.194 1.546 1.546 0 0 0-1.159-.448z" class="cls-5" data-name="Path 3110" transform="translate(-20.603 -200.396)"/>
                <path id="Path_3111" d="M42.91 197.7a.385.385 0 1 1-.3.112.712.712 0 0 1 .3-.112zm-.261 1.716h.522v4.141h-.522z" class="cls-5" data-name="Path 3111" transform="translate(-29.442 -197.7)"/>
                <path id="Path_3112" d="M46.7 202.112h.56v.6a1.738 1.738 0 0 1 .522-.522 1.11 1.11 0 0 1 .56-.187.9.9 0 0 1 .485.149l-.261.448a.878.878 0 0 0-.3-.075.806.806 0 0 0-.522.224 1.443 1.443 0 0 0-.373.672 5.634 5.634 0 0 0-.112 1.418v1.38H46.7z" class="cls-5" data-name="Path 3112" transform="translate(-32.075 -200.396)"/>
                <path id="Path_3113" d="M52.5 202.3h.56l1.38 3.022 1.38-3.022h.56l-1.9 4.141h-.112z" class="cls-5" data-name="Path 3113" transform="translate(-35.712 -200.584)"/>
                <path id="Path_3114" d="M66.664 202a2.032 2.032 0 0 1 1.567.672 2.183 2.183 0 0 1 .56 1.492 2.055 2.055 0 0 1-.6 1.492 1.975 1.975 0 0 1-1.53.634 2.137 2.137 0 0 1-1.567-.634 2.116 2.116 0 0 1-.6-1.492 2.1 2.1 0 0 1 2.17-2.164zm0 .522a1.419 1.419 0 0 0-1.119.485 1.726 1.726 0 0 0-.485 1.194 1.6 1.6 0 0 0 .224.821 1.531 1.531 0 0 0 .6.6 1.617 1.617 0 0 0 1.642 0 1.531 1.531 0 0 0 .6-.6 1.6 1.6 0 0 0 .224-.821 1.633 1.633 0 0 0-.485-1.194 1.694 1.694 0 0 0-1.201-.485z" class="cls-5" data-name="Path 3114" transform="translate(-43.597 -200.396)"/>
                <path id="Path_3115" d="M77.5 202.3h.56l1.418 3.171 1.38-3.171h.56l-2.462 5.633H78.4l.783-1.828z" class="cls-5" data-name="Path 3115" transform="translate(-51.828 -200.584)"/>
                <path id="Path_3116" d="M93.59 202.112v4.141h-.522v-.709a2.2 2.2 0 0 1-.746.6 1.757 1.757 0 0 1-.9.187 2.029 2.029 0 0 1-1.492-.634 2.162 2.162 0 0 1 0-3.059 2.091 2.091 0 0 1 1.497-.638 2.023 2.023 0 0 1 .933.224 2.289 2.289 0 0 1 .709.634v-.746zm-2.127.41a1.6 1.6 0 0 0-.821.224 1.531 1.531 0 0 0-.6.6 1.617 1.617 0 0 0 0 1.642 1.628 1.628 0 0 0 .6.634 1.617 1.617 0 0 0 1.642 0 1.531 1.531 0 0 0 .6-.6 1.635 1.635 0 0 0 .224-.858 1.576 1.576 0 0 0-.485-1.194 1.546 1.546 0 0 0-1.159-.448z" class="cls-5" data-name="Path 3116" transform="translate(-59.302 -200.396)"/>
                <path id="Path_3117" d="M104 202.112h.522v.746a2.234 2.234 0 0 1 .709-.634 1.635 1.635 0 0 1 .858-.224 1.5 1.5 0 0 1 .821.224 1.458 1.458 0 0 1 .522.634 3.264 3.264 0 0 1 .187 1.231v2.127h-.519v-1.977a4.255 4.255 0 0 0-.075-.933 1.467 1.467 0 0 0-.336-.634 1.042 1.042 0 0 0-.672-.224 1.245 1.245 0 0 0-.858.336 1.466 1.466 0 0 0-.485.784 6.707 6.707 0 0 0-.075 1.119v1.53H104z" class="cls-5" data-name="Path 3117" transform="translate(-68.607 -200.396)"/>
                <path id="Path_3118" d="M120.441 203.033l-.41.261a1.915 1.915 0 0 0-2.761-.224 1.576 1.576 0 0 0-.485 1.194 1.7 1.7 0 0 0 .858 1.492 1.773 1.773 0 0 0 .9.224 1.853 1.853 0 0 0 1.492-.709l.41.261a1.726 1.726 0 0 1-.783.672 2.742 2.742 0 0 1-1.119.261 2.224 2.224 0 0 1-1.6-.634 1.975 1.975 0 0 1-.634-1.53 2.279 2.279 0 0 1 .3-1.119 2.073 2.073 0 0 1 .821-.783 2.461 2.461 0 0 1 1.194-.3 2.839 2.839 0 0 1 .783.112 1.467 1.467 0 0 1 .634.336 1.347 1.347 0 0 1 .4.486z" class="cls-5" data-name="Path 3118" transform="translate(-76.399 -200.458)"/>
                <path id="Path_3119" d="M133.356 204.935l.448.224a2.064 2.064 0 0 1-.522.709 2.311 2.311 0 0 1-.634.41 2.682 2.682 0 0 1-.821.149 1.927 1.927 0 0 1-1.567-.671 2.251 2.251 0 0 1-.56-1.492 2.083 2.083 0 0 1 .485-1.38 2 2 0 0 1 1.642-.783 2.02 2.02 0 0 1 1.679.783 2.222 2.222 0 0 1 .448 1.418h-3.694a1.694 1.694 0 0 0 .448 1.194 1.494 1.494 0 0 0 1.082.448 1.547 1.547 0 0 0 .6-.112 2.378 2.378 0 0 0 .522-.3c.108-.149.258-.332.444-.597zm0-1.119a1.89 1.89 0 0 0-.3-.672 1.423 1.423 0 0 0-.522-.41 1.69 1.69 0 0 0-1.753.224 1.736 1.736 0 0 0-.485.858z" class="cls-5" data-name="Path 3119" transform="translate(-84.886 -200.458)"/>
                <path id="Path_3120" d="M148.087 199.1h1.53l1.045 1.455 1.045-1.455h1.53l-1.791 2.5 2.052 2.8h-1.53l-1.268-1.753-1.27 1.753h-1.53l2.015-2.8z" class="cls-6" data-name="Path 3120" transform="translate(-96.423 -198.578)"/>
                <path id="Path_3121" d="M175.21 199.319l-.448.336a2.569 2.569 0 0 0-.858-.709 2.742 2.742 0 0 0-1.119-.261 2.348 2.348 0 0 0-1.231.336 2.469 2.469 0 0 0-.9.858 2.237 2.237 0 0 0-.3 1.231 2.31 2.31 0 0 0 .709 1.716 2.391 2.391 0 0 0 1.753.672 2.505 2.505 0 0 0 1.977-.933l.448.336a2.845 2.845 0 0 1-1.045.821 3.392 3.392 0 0 1-1.38.3 2.956 2.956 0 0 1-2.313-.97 2.863 2.863 0 0 1-.709-1.977 2.788 2.788 0 0 1 .858-2.052 2.954 2.954 0 0 1 2.164-.821 3.437 3.437 0 0 1 1.418.3 2.256 2.256 0 0 1 .976.817z" class="cls-7" data-name="Path 3121" transform="translate(-110.292 -198.013)"/>
                <path id="Path_3122" d="M188.664 202a2.032 2.032 0 0 1 1.567.672 2.183 2.183 0 0 1 .56 1.492 2.055 2.055 0 0 1-.6 1.492 1.975 1.975 0 0 1-1.53.634 2.137 2.137 0 0 1-1.567-.634 2.116 2.116 0 0 1-.6-1.492 2.1 2.1 0 0 1 2.17-2.164zm0 .522a1.419 1.419 0 0 0-1.119.485 1.576 1.576 0 0 0-.485 1.194 1.6 1.6 0 0 0 .224.821 1.53 1.53 0 0 0 .6.6 1.617 1.617 0 0 0 1.642 0 1.531 1.531 0 0 0 .6-.6 1.6 1.6 0 0 0 .224-.821 1.633 1.633 0 0 0-.485-1.194 1.694 1.694 0 0 0-1.201-.485z" class="cls-7" data-name="Path 3122" transform="translate(-120.856 -200.396)"/>
                <path id="Path_3123" d="M200.575 202.112h.522v.709a1.979 1.979 0 0 1 .56-.56 1.733 1.733 0 0 1 .858-.224 1.5 1.5 0 0 1 .56.112 1.342 1.342 0 0 1 .448.3 1.3 1.3 0 0 1 .3.56 2.188 2.188 0 0 1 .672-.746 1.452 1.452 0 0 1 .858-.261 1.261 1.261 0 0 1 .746.224 1.282 1.282 0 0 1 .485.6 3.089 3.089 0 0 1 .149 1.157v2.238h-.56v-2.238a2.328 2.328 0 0 0-.112-.9 1.166 1.166 0 0 0-.336-.41.9.9 0 0 0-.56-.149 1.228 1.228 0 0 0-.709.224 1.282 1.282 0 0 0-.485.6 3.518 3.518 0 0 0-.149 1.268v1.6h-.522v-2.127a5.477 5.477 0 0 0-.075-1.007.751.751 0 0 0-.336-.41.9.9 0 0 0-.56-.149 1.042 1.042 0 0 0-.672.224 1.282 1.282 0 0 0-.485.6 3.089 3.089 0 0 0-.149 1.157v1.753h-.523v-4.141z" class="cls-7" data-name="Path 3123" transform="translate(-129.745 -200.396)"/>
                <path id="Path_3124" d="M220.137 202.112h.522v.746a1.86 1.86 0 0 1 .709-.634 1.773 1.773 0 0 1 .9-.224 2.029 2.029 0 0 1 1.492.634 2.162 2.162 0 0 1 0 3.059 2.029 2.029 0 0 1-1.492.634 2.254 2.254 0 0 1-.9-.187 2.768 2.768 0 0 1-.746-.6v2.2h-.522v-5.633zm2.127.41a1.5 1.5 0 0 0-1.157.485 1.729 1.729 0 0 0-.261 2.052 1.531 1.531 0 0 0 .6.6 1.617 1.617 0 0 0 1.642 0 1.409 1.409 0 0 0 .6-.634 1.7 1.7 0 0 0 .224-.821 1.6 1.6 0 0 0-.224-.821 1.321 1.321 0 0 0-.6-.6 1.343 1.343 0 0 0-.824-.261z" class="cls-7" data-name="Path 3124" transform="translate(-142.134 -200.396)"/>
                <path id="Path_3125" d="M237.556 204.935l.448.224a2.065 2.065 0 0 1-.522.709 2.311 2.311 0 0 1-.634.41 2.682 2.682 0 0 1-.821.149 1.927 1.927 0 0 1-1.567-.671 2.252 2.252 0 0 1-.56-1.492 2.083 2.083 0 0 1 .485-1.38 2 2 0 0 1 1.642-.783 2.02 2.02 0 0 1 1.679.783 2.222 2.222 0 0 1 .448 1.418h-3.694a1.7 1.7 0 0 0 .448 1.194 1.494 1.494 0 0 0 1.082.448 1.547 1.547 0 0 0 .6-.112 2.378 2.378 0 0 0 .522-.3 2.754 2.754 0 0 0 .444-.597zm0-1.119a1.888 1.888 0 0 0-.3-.672 1.423 1.423 0 0 0-.522-.41 1.69 1.69 0 0 0-1.753.224 1.736 1.736 0 0 0-.485.858z" class="cls-7" data-name="Path 3125" transform="translate(-150.873 -200.458)"/>
                <path id="Path_3126" d="M248.009 198.2h.522v1.53h.858v.448h-.858v3.656h-.522v-3.656h-.709v-.448h.709z" class="cls-7" data-name="Path 3126" transform="translate(-159.646 -198.013)"/>
                <path id="Path_3127" d="M258.156 204.935l.448.224a2.064 2.064 0 0 1-.522.709 2.309 2.309 0 0 1-.634.41 2.682 2.682 0 0 1-.821.149 1.927 1.927 0 0 1-1.567-.671 2.252 2.252 0 0 1-.56-1.492 2.083 2.083 0 0 1 .485-1.38 2 2 0 0 1 1.641-.783 2.02 2.02 0 0 1 1.679.783 2.222 2.222 0 0 1 .448 1.418h-3.693a1.7 1.7 0 0 0 .448 1.194 1.494 1.494 0 0 0 1.082.448 1.547 1.547 0 0 0 .6-.112 2.378 2.378 0 0 0 .522-.3c.108-.149.258-.332.444-.597zm0-1.119a1.891 1.891 0 0 0-.3-.672 1.423 1.423 0 0 0-.522-.41 1.689 1.689 0 0 0-1.753.224 1.736 1.736 0 0 0-.485.858z" class="cls-7" data-name="Path 3127" transform="translate(-164.16 -200.458)"/>
                <path id="Path_3128" d="M268.5 202.112h.522v.746a2.235 2.235 0 0 1 .709-.634 1.635 1.635 0 0 1 .858-.224 1.5 1.5 0 0 1 .821.224 1.457 1.457 0 0 1 .522.634 3.263 3.263 0 0 1 .187 1.231v2.127h-.519v-1.977a4.253 4.253 0 0 0-.075-.933 1.467 1.467 0 0 0-.336-.634 1.042 1.042 0 0 0-.672-.224 1.245 1.245 0 0 0-.858.336 1.466 1.466 0 0 0-.485.784 6.7 6.7 0 0 0-.075 1.119v1.53h-.522v-4.1z" class="cls-7" data-name="Path 3128" transform="translate(-172.937 -200.396)"/>
                <path id="Path_3129" d="M284.941 203.033l-.41.261a1.915 1.915 0 0 0-2.761-.224 1.576 1.576 0 0 0-.485 1.194 1.7 1.7 0 0 0 .858 1.492 1.772 1.772 0 0 0 .9.224 1.853 1.853 0 0 0 1.492-.709l.41.261a1.726 1.726 0 0 1-.783.672 2.742 2.742 0 0 1-1.119.261 2.224 2.224 0 0 1-1.6-.634 1.976 1.976 0 0 1-.634-1.53 2.279 2.279 0 0 1 .3-1.119 2.073 2.073 0 0 1 .821-.783 2.461 2.461 0 0 1 1.194-.3 2.84 2.84 0 0 1 .783.112 1.466 1.466 0 0 1 .634.336 1.347 1.347 0 0 1 .4.486z" class="cls-7" data-name="Path 3129" transform="translate(-180.648 -200.458)"/>
                <path id="Path_3130" d="M293.4 202.3h.56l1.418 3.171 1.38-3.171h.56l-2.462 5.633h-.56l.783-1.828z" class="cls-7" data-name="Path 3130" transform="translate(-188.547 -200.584)"/>
            </g>
            <g id="Group_1121" data-name="Group 1121" transform="translate(21.192 152.075)">
                <path id="Path_3131" d="M56.512 154.774l-1.679 1.6a5.224 5.224 0 0 0-3.88-1.828 4.134 4.134 0 0 0-3.059 1.231 4.226 4.226 0 0 0-1.268 3.059 4.573 4.573 0 0 0 .56 2.276 3.957 3.957 0 0 0 1.567 1.567 4.531 4.531 0 0 0 2.238.56 4.753 4.753 0 0 0 1.94-.41 6.59 6.59 0 0 0 1.9-1.418l1.642 1.716a8.445 8.445 0 0 1-2.649 1.9 6.929 6.929 0 0 1-2.873.522 6.61 6.61 0 0 1-4.85-1.865 6.523 6.523 0 0 1-1.9-4.813 6.849 6.849 0 0 1 .858-3.4 6.325 6.325 0 0 1 2.461-2.371 7.154 7.154 0 0 1 6.492-.224 6.977 6.977 0 0 1 2.5 1.898z" class="cls-6" data-name="Path 3131" transform="translate(-44.2 -152.2)"/>
            </g>
            <g id="Group_1123" data-name="Group 1123" transform="translate(34.828 152)">
                <g id="Group_1122" data-name="Group 1122">
                    <path id="Path_3132" d="M93.4 154.127l-1.791 1.567a2.483 2.483 0 0 0-1.94-1.306 1.051 1.051 0 0 0-.783.261.837.837 0 0 0-.3.56.915.915 0 0 0 .224.6 15.53 15.53 0 0 0 1.791 1.642q1.4 1.175 1.679 1.455a4.743 4.743 0 0 1 1.045 1.418 3.24 3.24 0 0 1 .3 1.492 3.405 3.405 0 0 1-1.082 2.574 3.994 3.994 0 0 1-2.835 1.007 4.348 4.348 0 0 1-2.388-.672 5.449 5.449 0 0 1-1.716-2.089l2.052-1.231q.9 1.679 2.127 1.679a1.439 1.439 0 0 0 1.045-.373 1.009 1.009 0 0 0 .41-.858 1.391 1.391 0 0 0-.336-.858 8.5 8.5 0 0 0-1.418-1.343 14.871 14.871 0 0 1-2.686-2.612 3.226 3.226 0 0 1-.6-1.828 3 3 0 0 1 1.007-2.276A3.466 3.466 0 0 1 89.7 152a4.007 4.007 0 0 1 1.828.448 8.2 8.2 0 0 1 1.872 1.679z" class="cls-6" data-name="Path 3132" transform="translate(-85.6 -152)"/>
                    <path id="Path_3133" d="M123.165 163.455l2.2 2.873h-2.873l-1.119-1.455a6.262 6.262 0 0 1-3.1.783 6.416 6.416 0 0 1-4.775-1.977 6.752 6.752 0 0 1-1.007-8.058 6.864 6.864 0 0 1 2.425-2.425 6.523 6.523 0 0 1 3.32-.9 6.37 6.37 0 0 1 4.663 1.94 6.5 6.5 0 0 1 1.94 4.775 6.391 6.391 0 0 1-1.674 4.444zm-1.492-1.94a4.345 4.345 0 0 0 .783-2.537 4.193 4.193 0 0 0-1.231-3.059 3.9 3.9 0 0 0-2.947-1.268 3.967 3.967 0 0 0-2.985 1.231 4.217 4.217 0 0 0-1.194 3.134 4.114 4.114 0 0 0 1.53 3.358 4.2 4.2 0 0 0 4.328.634l-2.276-2.947h2.91z" class="cls-6" data-name="Path 3133" transform="translate(-101.9 -152.188)"/>
                    <path id="Path_3134" d="M153 152.3h2.5v8.394a4.774 4.774 0 0 0 .187 1.53 1.45 1.45 0 0 0 .634.709 1.893 1.893 0 0 0 1.045.261 2.079 2.079 0 0 0 1.119-.3 1.843 1.843 0 0 0 .672-.746 5.788 5.788 0 0 0 .187-1.753v-8.1h2.5v7.76a11.214 11.214 0 0 1-.224 2.723 3.275 3.275 0 0 1-.858 1.455 3.785 3.785 0 0 1-1.418 1.045 4.953 4.953 0 0 1-1.9.336 4.834 4.834 0 0 1-2.462-.634 3.692 3.692 0 0 1-1.492-1.642 8.543 8.543 0 0 1-.448-3.283V152.3z" class="cls-6" data-name="Path 3134" transform="translate(-127.855 -152.188)"/>
                    <path id="Path_3135" d="M185.748 152.3h2.574l5.148 13.356h-2.649l-1.045-2.761h-5.447l-1.082 2.761H180.6zm1.306 3.544l-1.791 4.589h3.582z" class="cls-6" data-name="Path 3135" transform="translate(-145.158 -152.188)"/>
                    <path id="Path_3136" d="M219.3 152.3h2.686a8.871 8.871 0 0 1 3.134.41 3.166 3.166 0 0 1 1.492 1.306 4.062 4.062 0 0 1 .56 2.164 3.829 3.829 0 0 1-.634 2.2 3.683 3.683 0 0 1-1.9 1.343l3.171 5.932h-2.761l-2.985-5.633h-.224v5.6H219.3zm2.537 5.223h.783a3.058 3.058 0 0 0 1.679-.336 1.206 1.206 0 0 0 .448-1.045 1.184 1.184 0 0 0-.224-.746 1.03 1.03 0 0 0-.6-.448 3.979 3.979 0 0 0-1.38-.149h-.709z" class="cls-6" data-name="Path 3136" transform="translate(-169.42 -152.188)"/>
                    <path id="Path_3137" d="M247.7 152.3h7.275v2.462h-4.738v2.388h4.738v2.425h-4.738v3.507h4.738v2.5H247.7z" class="cls-6" data-name="Path 3137" transform="translate(-187.224 -152.188)"/>
                </g>
            </g>
            <path id="Rectangle_1305" d="M0 0h4.477v1.679H0z" class="cls-6" data-name="Rectangle 1305" transform="translate(30.126 157.828)"/>
        </g>
    </g>
</svg>
