<svg xmlns="http://www.w3.org/2000/svg" width="83.728" height="72" viewBox="0 0 83.728 72">
    <defs>
        <style>
            .cls-1{opacity:.595}.cls-2{fill:#f27510}
        </style>
    </defs>
    <g id="danger" class="cls-1" transform="translate(0 -35.857)">
        <g id="Group_790" data-name="Group 790" transform="translate(0 35.857)">
            <g id="Group_789" data-name="Group 789">
                <path id="Path_2592" d="M82.648 96.451L48.3 39.495a7.522 7.522 0 0 0-12.883 0L1.078 96.451a7.522 7.522 0 0 0 6.442 11.406h68.687a7.522 7.522 0 0 0 6.441-11.406zm-4.638 4.9a2.074 2.074 0 0 1-1.8 1.052H7.52a2.071 2.071 0 0 1-1.773-3.14L40.09 42.31a2.071 2.071 0 0 1 3.546 0L77.98 99.266a2.073 2.073 0 0 1 .03 2.087z" class="cls-2" data-name="Path 2592" transform="translate(0 -35.857)"/>
            </g>
        </g>
        <g id="Group_792" data-name="Group 792" transform="translate(38.192 58.267)">
            <g id="Group_791" data-name="Group 791">
                <path id="Path_2593" d="M237.275 173.005c-2.076 0-3.7 1.114-3.7 3.089 0 6.027.709 14.687.709 20.713 0 1.57 1.368 2.228 2.988 2.228 1.215 0 2.937-.658 2.937-2.228 0-6.027.709-14.687.709-20.713.003-1.975-1.668-3.089-3.643-3.089z" class="cls-2" data-name="Path 2593" transform="translate(-233.578 -173.005)"/>
            </g>
        </g>
        <g id="Group_794" data-name="Group 794" transform="translate(38.04 87.761)">
            <g id="Group_793" data-name="Group 793">
                <path id="Path_2594" d="M236.551 353.306a3.9 3.9 0 1 0 0 7.8 3.9 3.9 0 0 0 0-7.8z" class="cls-2" data-name="Path 2594" transform="translate(-232.651 -353.306)"/>
            </g>
        </g>
    </g>
</svg>
