<svg xmlns="http://www.w3.org/2000/svg" width="4.049" height="19.484" viewBox="0 0 4.049 19.484">
    <defs>
        <style>
            .cls-1{fill:#fff}
        </style>
    </defs>
    <g id="danger" transform="translate(-10.214 -6.069)">
        <g id="Group_792" transform="translate(10.294 6.069)">
            <g id="Group_791">
                <path id="Path_2593" d="M235.509 173.005c-1.085 0-1.932.582-1.932 1.614 0 3.149.37 7.673.37 10.822 0 .82.715 1.164 1.561 1.164.635 0 1.535-.344 1.535-1.164 0-3.149.37-7.673.37-10.822a1.7 1.7 0 0 0-1.904-1.614z" class="cls-1" transform="translate(-233.578 -173.005)"/>
            </g>
        </g>
        <g id="Group_794" transform="translate(10.214 21.479)">
            <g id="Group_793">
                <path id="Path_2594" d="M234.688 353.306a2.037 2.037 0 0 0 0 4.075 2.038 2.038 0 0 0 0-4.075z" class="cls-1" transform="translate(-232.651 -353.306)"/>
            </g>
        </g>
    </g>
</svg>
