<svg xmlns="http://www.w3.org/2000/svg" id="delete" width="15" height="18" viewBox="0 0 15 18">
    <defs>
        <style>
            .cls-1{fill:#dc3545}
        </style>
    </defs>
    <path id="Path_2516" d="M222.857 154.7a.449.449 0 0 0-.458.439v8.292a.459.459 0 0 0 .917 0v-8.292a.449.449 0 0 0-.459-.439zm0 0" class="cls-1" data-name="Path 2516" transform="translate(-212.814 -148.65)"/>
    <path id="Path_2517" d="M104.857 154.7a.449.449 0 0 0-.458.439v8.292a.459.459 0 0 0 .917 0v-8.292a.449.449 0 0 0-.459-.439zm0 0" class="cls-1" data-name="Path 2517" transform="translate(-99.899 -148.65)"/>
    <path id="Path_2518" d="M1.225 5.357v10.386a2.293 2.293 0 0 0 .634 1.6A2.157 2.157 0 0 0 3.405 18h8.183a2.156 2.156 0 0 0 1.545-.651 2.293 2.293 0 0 0 .634-1.6V5.357a1.612 1.612 0 0 0 1.214-1.765 1.639 1.639 0 0 0-1.638-1.4H11.13v-.528a1.635 1.635 0 0 0-.5-1.182A1.722 1.722 0 0 0 9.417 0H5.576a1.722 1.722 0 0 0-1.213.482 1.635 1.635 0 0 0-.5 1.182v.527H1.649a1.639 1.639 0 0 0-1.638 1.4 1.612 1.612 0 0 0 1.214 1.766zm10.363 11.8H3.405a1.349 1.349 0 0 1-1.315-1.414V5.395H12.9v10.348a1.349 1.349 0 0 1-1.311 1.413zM4.729 1.664a.8.8 0 0 1 .245-.586.845.845 0 0 1 .6-.236h3.843a.845.845 0 0 1 .6.236.8.8 0 0 1 .245.586v.527H4.729zm-3.08 1.37h11.7a.759.759 0 1 1 0 1.518h-11.7a.759.759 0 1 1 0-1.518zm0 0" class="cls-1" data-name="Path 2518" transform="translate(.003 .001)"/>
    <path id="Path_2519" d="M163.857 154.7a.449.449 0 0 0-.458.439v8.292a.459.459 0 0 0 .917 0v-8.292a.449.449 0 0 0-.459-.439zm0 0" class="cls-1" data-name="Path 2519" transform="translate(-156.357 -148.65)"/>
</svg>
