<svg xmlns="http://www.w3.org/2000/svg" width="32" height="32" viewBox="0 0 32 32">
    <defs>
        <style>
            .cls-1{fill:#f2f2f2}.cls-2{fill:#dc3545}
        </style>
    </defs>
    <g id="delete" transform="translate(-1058 -487)">
        <circle id="Ellipse_196" cx="16" cy="16" r="16" class="cls-1" data-name="Ellipse 196" transform="translate(1058 487)"/>
        <g id="delete-2" data-name="delete" transform="translate(1066.003 493.741)">
            <path id="Path_2516" d="M222.857 154.7a.449.449 0 0 0-.458.439v8.292a.459.459 0 0 0 .917 0v-8.292a.449.449 0 0 0-.459-.439zm0 0" class="cls-2" data-name="Path 2516" transform="translate(-212.63 -148.651)"/>
            <path id="Path_2517" d="M104.857 154.7a.449.449 0 0 0-.458.439v8.292a.459.459 0 0 0 .917 0v-8.292a.449.449 0 0 0-.459-.439zm0 0" class="cls-2" data-name="Path 2517" transform="translate(-99.815 -148.651)"/>
            <path id="Path_2518" d="M1.248 5.357v10.386a2.271 2.271 0 0 0 .646 1.6A2.216 2.216 0 0 0 3.468 18H11.8a2.215 2.215 0 0 0 1.574-.651 2.271 2.271 0 0 0 .646-1.6V5.357a1.614 1.614 0 0 0 1.237-1.765 1.66 1.66 0 0 0-1.668-1.4h-2.255v-.528a1.621 1.621 0 0 0-.508-1.182A1.771 1.771 0 0 0 9.59 0H5.679a1.771 1.771 0 0 0-1.236.482 1.621 1.621 0 0 0-.508 1.182v.527H1.679a1.66 1.66 0 0 0-1.668 1.4 1.614 1.614 0 0 0 1.237 1.766zM11.8 17.156H3.468a1.36 1.36 0 0 1-1.339-1.412V5.395H13.14v10.348a1.36 1.36 0 0 1-1.34 1.413zM4.815 1.664a.794.794 0 0 1 .25-.586.869.869 0 0 1 .614-.236H9.59a.869.869 0 0 1 .613.236.794.794 0 0 1 .25.586v.527H4.815zm-3.136 1.37h11.91a.76.76 0 1 1 0 1.518H1.679a.76.76 0 1 1 0-1.518zm0 0" class="cls-2" data-name="Path 2518"/>
            <path id="Path_2519" d="M163.857 154.7a.449.449 0 0 0-.458.439v8.292a.459.459 0 0 0 .917 0v-8.292a.449.449 0 0 0-.459-.439zm0 0" class="cls-2" data-name="Path 2519" transform="translate(-156.223 -148.651)"/>
        </g>
    </g>
</svg>
