<svg xmlns="http://www.w3.org/2000/svg" width="15.459" height="17.972" viewBox="0 0 15.459 17.972">
    <defs>
        <style>
            .prefix__cls-2{fill:#6c757d}
        </style>
    </defs>
    <g id="prefix__delete" style="opacity:.5">
        <path id="prefix__Path_2516" d="M222.9 154.7a.453.453 0 0 0-.5.383v7.234a.518.518 0 0 0 1 0v-7.234a.453.453 0 0 0-.5-.383zm0 0" class="prefix__cls-2" data-name="Path 2516" transform="translate(-212.758 -147.703)"/>
        <path id="prefix__Path_2517" d="M104.9 154.7a.453.453 0 0 0-.5.383v7.234a.518.518 0 0 0 1 0v-7.234a.453.453 0 0 0-.5-.383zm0 0" class="prefix__cls-2" data-name="Path 2517" transform="translate(-99.898 -147.703)"/>
        <path id="prefix__Path_2518" d="M1.263 5.349v10.37a2.227 2.227 0 0 0 2.247 2.252h8.434a2.227 2.227 0 0 0 2.247-2.252V5.349a1.613 1.613 0 0 0 1.252-1.762 1.673 1.673 0 0 0-1.688-1.4h-2.284v-.526a1.608 1.608 0 0 0-.514-1.18A1.806 1.806 0 0 0 9.705 0H5.747A1.806 1.806 0 0 0 4.5.481a1.608 1.608 0 0 0-.514 1.18v.526H1.7a1.673 1.673 0 0 0-1.688 1.4 1.613 1.613 0 0 0 1.251 1.762zm10.68 11.78H3.509a1.366 1.366 0 0 1-1.355-1.41V5.386H13.3v10.333a1.366 1.366 0 0 1-1.357 1.41zM4.873 1.661a.788.788 0 0 1 .253-.585.886.886 0 0 1 .621-.235h3.958a.886.886 0 0 1 .621.236.787.787 0 0 1 .253.585v.526H4.873zM1.7 3.029h12.053a.781.781 0 0 1 .8.758.781.781 0 0 1-.8.758H1.7a.781.781 0 0 1-.8-.758.781.781 0 0 1 .8-.758zm0 0" class="prefix__cls-2" data-name="Path 2518" transform="translate(.003 .001)"/>
        <path id="prefix__Path_2519" d="M163.9 154.7a.453.453 0 0 0-.5.383v7.234a.518.518 0 0 0 1 0v-7.234a.453.453 0 0 0-.5-.383zm0 0" class="prefix__cls-2" data-name="Path 2519" transform="translate(-156.328 -147.703)"/>
    </g>
</svg>
