<svg xmlns="http://www.w3.org/2000/svg" width="151" height="25" viewBox="0 0 151 25">
    <defs>
        <style>
            .prefix__cls-3{fill:#fff;stroke:#fff;stroke-width:.5px}
        </style>
    </defs>
    <g id="prefix__Group_2553" data-name="Group 2553" transform="translate(-940.5 -688)">
        <rect id="prefix__backgroundColor" width="150" height="24" rx="3" transform="translate(941 688.5)" style="fill:#1515af;stroke:#1515af;stroke-miterlimit:10"/>
        <text id="prefix__Active" transform="translate(1026 706)" style="font-size:14px;font-family:OpenSans-Regular,Open Sans;fill:#fff">
            <tspan x="-52.589" y="0">Dispatch Details</tspan>
        </text>
        <g id="prefix__Group_895" data-name="Group 895" transform="translate(-209.19 71.501)">
            <path id="prefix__Path_2489" d="M11.174 45.649a.3.3 0 0 0-.3.306v2.715a.912.912 0 0 1-.9.917H1.508a.912.912 0 0 1-.9-.917V40.7a.912.912 0 0 1 .9-.917h2.677a.306.306 0 0 0 0-.612H1.508A1.52 1.52 0 0 0 0 40.7v7.97a1.52 1.52 0 0 0 1.508 1.53h8.46a1.52 1.52 0 0 0 1.508-1.529v-2.716a.3.3 0 0 0-.3-.306zm0 0" class="prefix__cls-3" data-name="Path 2489" transform="translate(1162.19 585.3)"/>
            <path id="prefix__Path_2490" d="M114.892.59a1.123 1.123 0 0 0-1.589 0l-4.454 4.454a.25.25 0 0 0-.064.11l-.585 2.115a.25.25 0 0 0 .307.307l2.115-.586a.25.25 0 0 0 .11-.064l4.454-4.454a1.125 1.125 0 0 0 0-1.589zm-5.5 4.616l3.645-3.646 1.176 1.176-3.646 3.646zm-.235.471l.939.939-1.3.36zm5.674-3.559l-.265.265-1.176-1.176.265-.265a.624.624 0 0 1 .883 0l.293.293a.625.625 0 0 1 .001.884zm0 0" class="prefix__cls-3" data-name="Path 2490" transform="translate(1058.675 623.238)"/>
        </g>
    </g>
</svg>
