<svg xmlns="http://www.w3.org/2000/svg" width="12.32" height="14.3" viewBox="0 0 12.32 14.3">
    <defs>
        <style>
            .cls-1{fill:#343a40;stroke:#343a40;stroke-width:.3px}
        </style>
    </defs>
    <g id="doctor-stethoscope" transform="translate(-18.272 .15)">
        <circle id="Ellipse_254" cx=".745" cy=".745" r=".745" class="cls-1" transform="translate(23.308)"/>
        <circle id="Ellipse_255" cx=".745" cy=".745" r=".745" class="cls-1" transform="translate(27.077)"/>
        <path id="Path_2625" d="M30.142 6.067a2.068 2.068 0 0 0-1.791-.984v.694a1.338 1.338 0 0 1 1.159.637 1.208 1.208 0 0 1 0 1.273l-2.344 3.863a1.373 1.373 0 0 1-2.318 0l-2.343-3.863a1.208 1.208 0 0 1 0-1.273 1.338 1.338 0 0 1 1.159-.637v-.694a2.068 2.068 0 0 0-1.791.984 1.867 1.867 0 0 0 0 1.968l2.344 3.865a2.043 2.043 0 0 0 1.426.953v1.863c0 1.82-1.129 3.3-2.516 3.3s-2.516-1.48-2.516-3.3v-2.221a1.762 1.762 0 0 0 1.458-1.7 1.825 1.825 0 0 0-3.646 0 1.762 1.762 0 0 0 1.458 1.7v2.218c0 2.2 1.456 3.994 3.246 3.994s3.246-1.792 3.246-3.994V12.85a2.043 2.043 0 0 0 1.427-.95l2.344-3.863a1.866 1.866 0 0 0-.002-1.97z" class="cls-1" transform="translate(0 -4.707)"/>
    </g>
</svg>
