<svg xmlns="http://www.w3.org/2000/svg" width="17" height="20" viewBox="0 0 17 20">
    <defs>
        <style>
            .cls-1{fill:#1b84e7}
        </style>
    </defs>
    <g id="doctor-stethoscope" transform="translate(-18.422)">
        <circle id="Ellipse_254" cx="1.096" cy="1.096" r="1.096" class="cls-1" transform="translate(25.307)"/>
        <circle id="Ellipse_255" cx="1.096" cy="1.096" r="1.096" class="cls-1" transform="translate(30.617)"/>
        <path id="Path_2625" d="M35.025 6.487a2.924 2.924 0 0 0-2.537-1.4v.991a1.892 1.892 0 0 1 1.642.909 1.735 1.735 0 0 1 0 1.818l-3.32 5.514a1.937 1.937 0 0 1-3.284 0L24.206 8.8a1.736 1.736 0 0 1 0-1.818 1.893 1.893 0 0 1 1.642-.909v-.99a2.924 2.924 0 0 0-2.537 1.4 2.682 2.682 0 0 0 0 2.809l3.32 5.514a2.894 2.894 0 0 0 2.02 1.36v2.659c0 2.6-1.6 4.711-3.565 4.711s-3.565-2.113-3.565-4.711v-3.162a2.585 2.585 0 1 0-1.034 0v3.166c0 3.144 2.063 5.7 4.6 5.7s4.6-2.558 4.6-5.7V16.17a2.894 2.894 0 0 0 2.02-1.36l3.318-5.51a2.681 2.681 0 0 0 0-2.813z" class="cls-1" transform="translate(0 -4.531)"/>
    </g>
</svg>
