<svg xmlns="http://www.w3.org/2000/svg" width="72" height="111.917" viewBox="0 0 72 111.917">
    <defs>
        <style>
            .prefix__cls-3{fill:#eef3f7}.prefix__cls-4{fill:#fff}.prefix__cls-6{fill:#343a40}.prefix__cls-7{fill:#fefefe}.prefix__cls-8{fill:#1caf9a}.prefix__cls-12{fill:#0f7986}
        </style>
    </defs>
    <g id="prefix__doctor_female" data-name="doctor female" transform="translate(-109.964 -57.299)">
        <path id="prefix__Path_3866" d="M205.71 237.511L204 246.09l-5.72 1.967 3.385 53.4 21.765-.123 1.017-54.288-3.647-1.146-1.862-8.752-13.224.363z" data-name="Path 3866" transform="translate(-66.544 -135.386)" style="fill:#f0ba7d"/>
        <path id="prefix__Path_3867" d="M191.917 342.31c9.523 4.6 19.319 5.566 29.63.26l-.351 39.718a63.473 63.473 0 0 1-29.629-.479z" data-name="Path 3867" transform="translate(-61.477 -214.739)" style="fill:#1b84e7"/>
        <path id="prefix__Path_3868" d="M264.5 275.471L281.092 280c4.3 1.328 8.145 3.872 8.268 8.443l.91 33.782a62.714 62.714 0 0 1-12.191 6.647l-1.059-18.683-2.905 20.15a62.7 62.7 0 0 1-19.8 3.186c-.181 0-.36-.005-.54-.007l-.007-17.127z" class="prefix__cls-3" data-name="Path 3868" transform="translate(-108.306 -164.304)"/>
        <g id="prefix__Group_1738" data-name="Group 1738" transform="translate(109.964 110.996)">
            <path id="prefix__Path_3869" d="M264.346 274.993l2.186.882 7.457 11.194-8.74-.141 5.417 2.9-16.893 26.2 10.573-41.033z" class="prefix__cls-4" data-name="Path 3869" transform="translate(-218.479 -274.939)"/>
            <path id="prefix__Path_3870" d="M136.583 274.774L119.917 279c-4.325 1.252-8.212 3.727-8.416 8.3l-1.537 34.471a62.733 62.733 0 0 0 12.073 6.568l1.419-19.077 2.6 20.561a62.7 62.7 0 0 0 19.214 3.165l-.007-17.127-8.675-41.087z" class="prefix__cls-4" data-name="Path 3870" transform="translate(-109.964 -274.774)"/>
        </g>
        <path id="prefix__Path_3871" d="M188.78 274.306l-2.606 1-7.247 10.906 8.742.014-5.468 2.8 15.1 26.48-8.515-41.2z" class="prefix__cls-3" data-name="Path 3871" transform="translate(-51.971 -163.504)"/>
        <path id="prefix__Path_3872" d="M182.387 108.393c-.279 2.812.284 9.054 3.7 8.817 0 0 4.909 14.307 14.36 15.927 8.159-1.491 13.123-14.449 13.5-15.682 1.124.384 4.269-4.849 1.858-9.129-.692-1.228-2.649-.234-2.649-.234l-.156-3.574C200.106 105.77 192.066 93.3 192.066 93.3c-4.915 5.347-6.1 8.4-6.623 15.048a4.378 4.378 0 0 0-1.948-.595 1.913 1.913 0 0 0-1.108.641z" data-name="Path 3872" transform="translate(-54.503 -27.164)" style="fill:#fed298"/>
        <path id="prefix__Path_3873" d="M179.452 110.381l1.678-8.387c-4.861-4.763-7.395-11.948-7.395-11.948-3.312.368-4.642-8.718-2.414-9.035a3.252 3.252 0 0 1 1.7.173c.5-7.021 1.86-9.156 6.535-15.048 0 0 8.166 13.675 21.109 12.423l.185 2.949a1.538 1.538 0 0 1 2.663.364c1.516 2.482-.467 8.124-2.3 8.469-.26.87-2.3 7.288-6.633 11.686l1.745 8.166c4.857 1.566 9.54 2.775 14.241 4.019-2.388-14.489-3.756-30.168-6.608-43.552-2.736-12.843-17.695-16.435-26.3-10.731 0 0-7.417 2.975-8.771 12.841s-.836 10.816-.836 10.816l-2.39 30.378c4.432-1.12 9.563-2.133 13.789-3.58z" class="prefix__cls-6" data-name="Path 3873" transform="translate(-42.029)"/>
        <path id="prefix__Path_3874" d="M337.03 391.409a4.505 4.505 0 1 1 5.206-3.673 4.506 4.506 0 0 1-5.206 3.673z" class="prefix__cls-7" data-name="Path 3874" transform="translate(-168.309 -245.11)"/>
        <path id="prefix__Path_3875" d="M337.882 391.958a4.243 4.243 0 1 1 4.9-3.459 4.242 4.242 0 0 1-4.9 3.459z" class="prefix__cls-8" data-name="Path 3875" transform="translate(-169.116 -245.918)"/>
        <path id="prefix__Path_3876" d="M344.031 395.921a2.348 2.348 0 1 1 2.713-1.914 2.348 2.348 0 0 1-2.713 1.914z" data-name="Path 3876" transform="translate(-174.944 -251.751)" style="fill:#ebecec"/>
        <path id="prefix__Path_3877" d="M351.147 382.548l1.032.178.555-3.213-1.031-.178-.555 3.213z" class="prefix__cls-7" data-name="Path 3877" transform="translate(-181.783 -242.764)"/>
        <path id="prefix__Path_3878" d="M149.438 353.26l1.933-.384a3.052 3.052 0 0 0 2.393-3.579l-2.273-11.453c-.858-4.322-4.239-6.526-8.1-7.014a14.572 14.572 0 0 0-8.8 1.744c-3.376 1.922-5.651 5.247-4.791 9.576l2.273 11.454a3.039 3.039 0 0 0 1.3 1.935 3.032 3.032 0 0 0 2.282.458l1.932-.384-.158-.8-1.932.384a2.228 2.228 0 0 1-1.674-.336 2.231 2.231 0 0 1-.951-1.419l-2.272-11.45c-.78-3.928 1.3-6.956 4.394-8.714a13.75 13.75 0 0 1 8.3-1.646c3.536.447 6.629 2.45 7.406 6.37l2.274 11.454a2.239 2.239 0 0 1-1.756 2.624l-1.933.384.158.8z" data-name="Path 3878" transform="translate(-14.831 -206.07)" style="fill:#00b7b7"/>
        <path id="prefix__Path_3879" d="M151.269 338.714l-.347-1.75c-.884-4.456-4.363-6.727-8.335-7.23a14.842 14.842 0 0 0-8.961 1.777c-3.472 1.977-5.81 5.4-4.924 9.864l.348 1.75 1.327-.264-.347-1.749c-.753-3.794 1.268-6.723 4.261-8.427a13.492 13.492 0 0 1 8.132-1.612c3.427.433 6.422 2.369 7.174 6.155l.347 1.75 1.327-.263z" class="prefix__cls-6" data-name="Path 3879" transform="translate(-13.997 -205.272)"/>
        <g id="prefix__Group_1739" data-name="Group 1739" transform="translate(121.039 145.914)">
            <path id="prefix__Path_3880" d="M155.15 427.64l1.034-.205a1.136 1.136 0 1 0-.223-1.126l-1.034.2z" class="prefix__cls-8" data-name="Path 3880" transform="translate(-154.927 -423.518)"/>
            <path id="prefix__Path_3881" d="M203.754 418.587l-1.033.205a1.136 1.136 0 1 1-.224-1.127l1.034-.205.223 1.127z" class="prefix__cls-8" data-name="Path 3881" transform="translate(-189.324 -417.284)"/>
        </g>
        <path id="prefix__Path_3882" d="M163.559 324.269l-.394-1.987-.784.156-.783.155.4 2.007q.448-.131.906-.222.325-.065.655-.109z" data-name="Path 3882" transform="translate(-38.924 -199.757)" style="fill:#666"/>
        <g id="prefix__Group_1740" data-name="Group 1740" transform="translate(122.538 146.215)">
            <path id="prefix__Path_3883" d="M161.435 427.484a.344.344 0 1 0-.4-.27.343.343 0 0 0 .4.27z" class="prefix__cls-12" data-name="Path 3883" transform="translate(-161.024 -424.771)"/>
            <path id="prefix__Path_3884" d="M203.088 419.2a.344.344 0 1 0-.4-.27.343.343 0 0 0 .4.27z" class="prefix__cls-12" data-name="Path 3884" transform="translate(-192.454 -418.522)"/>
        </g>
        <path id="prefix__Path_3885" d="M343.846 396.61a2.22 2.22 0 1 1 2.565-1.811 2.221 2.221 0 0 1-2.565 1.811z" class="prefix__cls-7" data-name="Path 3885" transform="translate(-174.883 -252.462)"/>
        <g id="prefix__Group_1741" data-name="Group 1741" transform="translate(122.792 110.651)">
            <path id="prefix__Path_3886" d="M172.965 275.019c-.035 0-12.237.1-10.176 10.777l-1.135.217c-2.324-12.035 11.259-12.146 11.3-12.146l.013 1.152z" class="prefix__cls-6" data-name="Path 3886" transform="translate(-161.387 -273.867)"/>
            <path id="prefix__Path_3887" d="M307.691 274.091a11.547 11.547 0 0 1 8.8 4.2c2.9 3.526 4.931 10 3.411 21.874l-1.144-.145c1.471-11.491-.43-17.678-3.158-21a10.417 10.417 0 0 0-7.938-3.779l.027-1.152z" class="prefix__cls-6" data-name="Path 3887" transform="translate(-271.764 -274.036)"/>
        </g>
    </g>
</svg>
