<svg xmlns="http://www.w3.org/2000/svg" width="64" height="64" viewBox="0 0 64 64">
    <defs>
        <style>
            .cls-1,.cls-2{fill:#1b84e7}.cls-1{opacity:.1}.cls-2{stroke:#1b84e7;stroke-width:.3px}
        </style>
    </defs>
    <g id="dr._addition_deletion" data-name="dr. addition deletion" transform="translate(-1086 -168)">
        <circle id="Ellipse_318" cx="32" cy="32" r="32" class="cls-1" data-name="Ellipse 318" transform="translate(1086 168)"/>
        <g id="stethoscope" transform="translate(1101 172.492)">
            <g id="Group_1104" data-name="Group 1104" transform="translate(0 11.508)">
                <g id="Group_1103" data-name="Group 1103">
                    <path id="Path_3006" d="M33.571 29.439a3.921 3.921 0 0 0-3.321-3.321V25.1a4.944 4.944 0 0 0-4.762-5.1 4.963 4.963 0 0 0-4.762 4.945h.032l-.032.006v11.04a6.16 6.16 0 0 1-5.882 6.4 6.162 6.162 0 0 1-5.882-6.4v-.956c.812 0 1.681-.589 1.681-2.241v-1.407a7.944 7.944 0 0 0 6.162-7.506v-1.169h-1.12l-.024-7.291a2.8 2.8 0 0 0-2.3-2.742 1.672 1.672 0 1 0-.038 1.142 1.681 1.681 0 0 1 1.221 1.6l.025 7.287h-1.12V23.9a4.455 4.455 0 0 1-3.224 4.18 5.094 5.094 0 0 1-3.081 0 4.452 4.452 0 0 1-3.223-4.18v-1.188h-1.68V15.43a1.681 1.681 0 0 1 1.244-1.616 1.688 1.688 0 1 0-.035-1.138 2.8 2.8 0 0 0-2.33 2.754v7.282H0v1.165a7.944 7.944 0 0 0 6.162 7.509V32.8c0 1.652.868 2.241 1.681 2.241v.956a7.28 7.28 0 0 0 7 7.515 7.282 7.282 0 0 0 7-7.515V24.98a3.834 3.834 0 0 1 3.641-3.856A3.824 3.824 0 0 1 29.13 25.1v1.017a3.921 3.921 0 1 0 4.441 3.321zm-21.807-15.69a.56.56 0 1 1 .56-.56.56.56 0 0 1-.56.56zm-6.722-1.12a.56.56 0 1 1-.56.56.56.56 0 0 1 .56-.56zM1.12 23.877v-.045H2.8v.068a5.566 5.566 0 0 0 4 5.245 6.233 6.233 0 0 0 3.763 0 5.567 5.567 0 0 0 4-5.245v-.064h1.12v.045A6.867 6.867 0 0 1 9.971 30.4a7.991 7.991 0 0 1-2.363.116 7.317 7.317 0 0 1-.774-.117 6.865 6.865 0 0 1-5.714-6.522zm6.723 10.039c-.5 0-.56-.784-.56-1.12v-1.189c.045.006.091.008.136.012l.168.016c.265.024.532.039.8.04h.028c.269 0 .536-.016.8-.04l.173-.016c.044-.005.09-.007.134-.012V32.8c0 .336-.056 1.12-.56 1.12zM29.69 32.8a2.8 2.8 0 1 1 2.8-2.8 2.8 2.8 0 0 1-2.8 2.8z" class="cls-2" data-name="Path 3006" transform="translate(0 -11.508)"/>
                </g>
            </g>
            <g id="Group_1106" data-name="Group 1106" transform="translate(28.113 28.35)">
                <g id="Group_1105" data-name="Group 1105">
                    <path id="Path_3007" d="M401.65 251.515a1.65 1.65 0 1 0 1.65 1.65 1.65 1.65 0 0 0-1.65-1.65zm0 2.2a.55.55 0 1 1 .55-.55.55.55 0 0 1-.55.549z" class="cls-2" data-name="Path 3007" transform="translate(-400 -251.515)"/>
                </g>
            </g>
        </g>
    </g>
</svg>
