<svg xmlns="http://www.w3.org/2000/svg" width="17.071" height="16.255" viewBox="0 0 17.071 16.255">
    <defs>
        <style>
            .cls-1{fill:#f49917;stroke:#f49917;stroke-width:.3px}
        </style>
    </defs>
    <g id="Group_1104" data-name="Group 1104" transform="translate(.15 .153)">
        <path id="Path_3006" d="M16.735 20.447a1.955 1.955 0 0 0-1.655-1.655v-.508a2.465 2.465 0 0 0-2.374-2.541 2.474 2.474 0 0 0-2.374 2.465h.016-.016v5.5A3.071 3.071 0 0 1 7.4 26.9a3.072 3.072 0 0 1-2.932-3.188v-.477c.4 0 .838-.293.838-1.117v-.7a3.96 3.96 0 0 0 3.072-3.742v-.582h-.559l-.012-3.634a1.4 1.4 0 0 0-1.149-1.367.833.833 0 1 0-.019.569.838.838 0 0 1 .608.8l.013 3.633H6.7v.59a2.221 2.221 0 0 1-1.607 2.083 2.539 2.539 0 0 1-1.536 0 2.219 2.219 0 0 1-1.6-2.083v-.59h-.84v-3.63a.838.838 0 0 1 .62-.805.842.842 0 1 0-.017-.567 1.4 1.4 0 0 0-1.161 1.37v3.63H0v.581a3.96 3.96 0 0 0 3.072 3.743v.7c0 .824.433 1.117.838 1.117v.477A3.629 3.629 0 0 0 7.4 27.46a3.63 3.63 0 0 0 3.491-3.746v-5.49a1.911 1.911 0 0 1 1.815-1.924 1.906 1.906 0 0 1 1.815 1.983v.507a1.955 1.955 0 1 0 2.214 1.655zM5.864 12.625a.279.279 0 1 1 .279-.279.279.279 0 0 1-.279.279zm-3.351-.559a.279.279 0 1 1-.279.279.279.279 0 0 1 .279-.278zM.559 17.674v-.022H1.4v.032A2.775 2.775 0 0 0 3.39 20.3a3.107 3.107 0 0 0 1.876 0 2.775 2.775 0 0 0 1.995-2.615v-.032h.559v.022a3.423 3.423 0 0 1-2.848 3.251 3.984 3.984 0 0 1-1.178.058 3.648 3.648 0 0 1-.386-.058 3.422 3.422 0 0 1-2.849-3.252zm3.351 5c-.251 0-.279-.391-.279-.559v-.593l.068.006.084.008c.132.012.265.02.4.02H4.2c.134 0 .267-.008.4-.02l.086-.008.067-.006v.593c0 .168-.028.559-.279.559zm10.89-.554a1.4 1.4 0 1 1 1.4-1.4 1.4 1.4 0 0 1-1.4 1.4z" class="cls-1" data-name="Path 3006" transform="translate(0 -11.508)"/>
    </g>
</svg>
