<svg xmlns="http://www.w3.org/2000/svg" width="18" height="18" viewBox="0 0 18 18">
    <defs>
        <style>
            .cls-1{fill:#fff}.cls-2{fill:#343a40;stroke:#343a40;stroke-width:.3px}
        </style>
    </defs>
    <g id="Group_1632" data-name="Group 1632" transform="translate(-867.984 -256)">
        <path id="Rectangle_533" d="M0 0h18v18H0z" class="cls-1" data-name="Rectangle 533" transform="translate(867.984 256)"/>
        <g id="edit" transform="translate(871.985 259)">
            <path id="Path_3338" d="M90.859.915L86.7 5.075a.262.262 0 0 0-.068.12l-.359 1.375a.262.262 0 0 0 .32.32l1.375-.357a.262.262 0 0 0 .12-.068l4.16-4.16.838-.838a.262.262 0 0 0 0-.371L92.068.077a.262.262 0 0 0-.371 0l-.838.838zm-3.092 5.128l-.874.227.227-.87 3.925-3.925.647.647zm4.115-5.41l.647.647-.467.467-.646-.647z" class="cls-2" data-name="Path 3338" transform="translate(-83.883)"/>
            <path id="Path_3339" d="M40.816 24.27a.262.262 0 0 0-.262.261v8.384h-8.23v-9.976h4.856a.261.261 0 1 0 0-.522h-5.119a.262.262 0 0 0-.262.261v10.5a.262.262 0 0 0 .262.261h8.755a.262.262 0 0 0 .262-.261v-8.647a.262.262 0 0 0-.262-.261z" class="cls-2" data-name="Path 3339" transform="translate(-31.799 -21.437)"/>
        </g>
    </g>
</svg>
