<svg xmlns="http://www.w3.org/2000/svg" width="18" height="18" viewBox="0 0 18 18">
    <defs>
        <style>
            .cls-1{fill:#1b84e7}
        </style>
    </defs>
    <g id="edit_icon" data-name="edit icon" transform="translate(0 -.261)">
        <path id="Path_2489" d="M16.758 48.883a.455.455 0 0 0-.452.458v4.071a1.368 1.368 0 0 1-1.357 1.375H2.261A1.368 1.368 0 0 1 .9 53.412V41.465a1.368 1.368 0 0 1 1.357-1.375h4.019a.459.459 0 0 0 0-.917H2.261A2.279 2.279 0 0 0 0 41.465v11.947A2.279 2.279 0 0 0 2.261 55.7h12.688a2.279 2.279 0 0 0 2.261-2.292v-4.067a.455.455 0 0 0-.452-.458zm0 0" class="cls-1" data-name="Path 2489" transform="translate(0 -37.444)"/>
        <path id="Path_2490" d="M118.314.758a1.7 1.7 0 0 0-2.4 0l-6.729 6.729a.377.377 0 0 0-.1.166l-.885 3.194a.377.377 0 0 0 .464.464l3.194-.885a.377.377 0 0 0 .166-.1l6.733-6.726a1.7 1.7 0 0 0 0-2.4zm-8.307 6.974l5.507-5.507L117.29 4l-5.507 5.507zm-.355.712l1.419 1.419-1.963.544zm8.571-5.376l-.4.4-1.776-1.776.4-.4a.943.943 0 0 1 1.333 0l.443.443a.944.944 0 0 1 .001 1.332zm0 0" class="cls-1" data-name="Path 2490" transform="translate(-101.253)"/>
    </g>
</svg>
