<svg xmlns="http://www.w3.org/2000/svg" width="16" height="16" viewBox="0 0 16 16">
    <defs>
        <style>
            .cls-1{fill:#1b84e7}
        </style>
    </defs>
    <g id="Edit" transform="translate(-128 -369.5)">
        <path id="Path_2489" d="M14.9 47.816a.4.4 0 0 0-.4.408v3.623a1.217 1.217 0 0 1-1.207 1.224H2.011A1.217 1.217 0 0 1 .8 51.847V41.213a1.217 1.217 0 0 1 1.207-1.224h3.574a.409.409 0 0 0 0-.816h-3.57A2.028 2.028 0 0 0 0 41.213v10.634a2.028 2.028 0 0 0 2.011 2.036h11.284a2.028 2.028 0 0 0 2.011-2.04v-3.62a.4.4 0 0 0-.4-.408zm0 0" class="cls-1" data-name="Path 2489" transform="translate(128 331.617)"/>
        <path id="Path_2490" d="M117.093.7a1.5 1.5 0 0 0-2.111 0l-5.917 5.917a.332.332 0 0 0-.088.146L108.2 9.57a.332.332 0 0 0 .408.408l2.809-.778a.331.331 0 0 0 .146-.088l5.919-5.912a1.5 1.5 0 0 0 0-2.111zm-7.305 6.133l4.843-4.843 1.562 1.561-4.843 4.843zm-.312.626l1.248 1.248-1.724.477zm7.537-4.728l-.352.352L115.1 1.52l.352-.352a.829.829 0 0 1 1.172 0l.39.39a.83.83 0 0 1 0 1.171zm0 0" class="cls-1" data-name="Path 2490" transform="translate(26.082 369.238)"/>
    </g>
</svg>
