<svg xmlns="http://www.w3.org/2000/svg" width="12.3" height="16.3" viewBox="0 0 12.3 16.3">
    <defs>
        <style>
            .cls-1{fill:#dc3545;stroke:#dc3545;stroke-width:.3px}
        </style>
    </defs>
    <g id="chemist" transform="translate(-67.35 .15)">
        <g id="Group_2882" transform="translate(67.5)">
            <path id="Path_4495" d="M77.194 8.567a3.337 3.337 0 0 1-2.022-3.051V2a1.021 1.021 0 0 0 .8-.988A1.026 1.026 0 0 0 74.932 0h-.411a.237.237 0 0 0-.239.234.237.237 0 0 0 .239.234h.411a.553.553 0 0 1 .557.547.553.553 0 0 1-.557.547h-2.864a.553.553 0 0 1-.557-.547.553.553 0 0 1 .557-.547H73.5a.237.237 0 0 0 .239-.234A.237.237 0 0 0 73.5 0h-1.432a1.026 1.026 0 0 0-1.034 1.016 1.021 1.021 0 0 0 .8.988v.989a.239.239 0 0 0 .477 0v-.962h2.387v3.485A3.806 3.806 0 0 0 77 9a3.338 3.338 0 0 1 2.021 2.975 6.326 6.326 0 0 0-2.737-.747 6.046 6.046 0 0 0-2.784.755 6.091 6.091 0 0 0-2.785-.755 6.322 6.322 0 0 0-2.737.747A3.338 3.338 0 0 1 70 9a3.806 3.806 0 0 0 2.307-3.48V4a.239.239 0 0 0-.477 0v1.516a3.337 3.337 0 0 1-2.022 3.051 3.806 3.806 0 0 0-2.307 3.48v.594A3.4 3.4 0 0 0 70.922 16h5.156a3.47 3.47 0 0 0 2.148-.744.231.231 0 0 0 .036-.33.242.242 0 0 0-.336-.035 2.945 2.945 0 0 1-1.848.64h-5.156a2.957 2.957 0 0 1-2.528-1.411 10.115 10.115 0 0 0 4.714-1.412 6.578 6.578 0 0 1 3.177-1.016 6.087 6.087 0 0 1 2.738.81v.138a2.842 2.842 0 0 1-.468 1.565.232.232 0 0 0 .071.324.242.242 0 0 0 .33-.07 3.3 3.3 0 0 0 .545-1.819v-.594a3.806 3.806 0 0 0-2.307-3.48zm-9.028 5.09a2.83 2.83 0 0 1-.188-1.016V12.5a6.082 6.082 0 0 1 2.738-.81 5.148 5.148 0 0 1 2.257.556l-.089.046a9.5 9.5 0 0 1-4.719 1.365z" class="cls-1" transform="translate(-67.5)"/>
            <path id="Path_4496" d="M192.5 297.274a.774.774 0 1 0 .774-.774.775.775 0 0 0-.774.774zm1.054 0a.28.28 0 1 1-.28-.28.28.28 0 0 1 .28.28z" class="cls-1" transform="translate(-188.541 -287.285)"/>
            <path id="Path_4497" d="M268.274 262.757a.774.774 0 1 0-.774-.774.775.775 0 0 0 .774.774zm0-1.054a.28.28 0 1 1-.28.28.28.28 0 0 1 .28-.283z" class="cls-1" transform="translate(-261.165 -253.091)"/>
            <path id="Path_4498" d="M226.408 192.672a.774.774 0 1 0 .774.774.775.775 0 0 0-.774-.774zm0 1.054a.28.28 0 1 1 .28-.28.28.28 0 0 1-.28.28z" class="cls-1" transform="translate(-220.625 -186.684)"/>
        </g>
    </g>
</svg>
