<svg xmlns="http://www.w3.org/2000/svg" width="13.221" height="16.2" viewBox="0 0 13.221 16.2">
    <defs>
        <style>
            .cls-1{fill:#f49917;stroke:#f49917;stroke-width:.2px}
        </style>
    </defs>
    <g id="doctor-stethoscope" transform="translate(-18.322 .1)">
        <circle id="Ellipse_254" cx=".916" cy=".916" r=".916" class="cls-1" transform="translate(23.614)"/>
        <circle id="Ellipse_255" cx=".916" cy=".916" r=".916" class="cls-1" transform="translate(27.619)"/>
        <path id="Path_2625" d="M31.118 6.205a2.216 2.216 0 0 0-1.94-1.122v.792a1.452 1.452 0 0 1 1.255 2.178L27.9 12.458a1.448 1.448 0 0 1-2.511 0l-2.544-4.405A1.452 1.452 0 0 1 24.1 5.875v-.792a2.244 2.244 0 0 0-1.94 3.366l2.54 4.405a2.213 2.213 0 0 0 1.545 1.087v2.125c0 2.075-1.223 3.764-2.726 3.764s-2.726-1.688-2.726-3.764v-2.53a1.975 1.975 0 1 0-.79 0v2.53c0 2.512 1.577 4.556 3.516 4.556s3.516-2.044 3.516-4.556v-2.125a2.213 2.213 0 0 0 1.545-1.087l2.539-4.405a2.224 2.224 0 0 0-.001-2.244z" class="cls-1" transform="translate(0 -4.621)"/>
    </g>
</svg>
