<svg xmlns="http://www.w3.org/2000/svg" width="25" height="27" viewBox="0 0 25 27">
    <defs>
        <style>
            .cls-1,.cls-2{fill:#f49917}.cls-1{stroke:#f49917;stroke-width:.7px}.cls-3,.cls-7{fill:none}.cls-3,.cls-5{stroke:#fff}.cls-3{stroke-width:2px}.cls-4{fill:#fff}.cls-5{fill:#1965d7;stroke-width:1.5px}.cls-6{stroke:none}
        </style>
    </defs>
    <g id="Group_1184" data-name="Group 1184" transform="translate(-27 -787.5)">
        <path id="Path_3159" d="M133.087 75.922a4.8 4.8 0 1 0-4.8-4.8 4.8 4.8 0 0 0 4.8 4.8zm0-8.856a4.055 4.055 0 1 1-4.055 4.055 4.055 4.055 0 0 1 4.055-4.055z" class="cls-1" data-name="Path 3159" transform="translate(-96.286 725.039)"/>
        <path id="Path_3160" d="M182.373 97.427a.658.658 0 0 1-.658-.658.317.317 0 1 0-.634 0 1.293 1.293 0 0 0 1 1.258v.306a.317.317 0 1 0 .634 0v-.319a1.291 1.291 0 0 0-.341-2.536.658.658 0 1 1 .658-.658.317.317 0 1 0 .634 0 1.293 1.293 0 0 0-1.056-1.269v-.235a.317.317 0 1 0-.634 0v.276a1.291 1.291 0 0 0 .4 2.52.658.658 0 1 1 0 1.315z" class="cls-2" data-name="Path 3160" transform="translate(-145.573 700.489)"/>
        <g id="Group_1182" data-name="Group 1182" transform="translate(0 98.5)">
            <g id="Rectangle_1361" class="cls-3" data-name="Rectangle 1361" transform="translate(27 689)">
                <rect width="20" height="24" class="cls-6" rx="4"/>
                <rect width="18" height="22" x="1" y="1" class="cls-7" rx="3"/>
            </g>
            <path id="Rectangle_1365" d="M1 0h13v2H1a1 1 0 0 1-1-1 1 1 0 0 1 1-1z" class="cls-4" data-name="Rectangle 1365" transform="translate(31 704)"/>
            <path id="Rectangle_1366" d="M1 0h13v2H1a1 1 0 0 1-1-1 1 1 0 0 1 1-1z" class="cls-4" data-name="Rectangle 1366" transform="translate(31 707)"/>
            <g id="Ellipse_364" class="cls-5" data-name="Ellipse 364" transform="translate(40 704)">
                <circle cx="6" cy="6" r="6" class="cls-6"/>
                <circle cx="6" cy="6" r="5.25" class="cls-7"/>
            </g>
            <path id="Path_3182" d="M329.235 371.389l-2.092 2.092-1.075-1.085a.317.317 0 0 0-.45.446l1.3 1.307a.312.312 0 0 0 .224.089.312.312 0 0 0 .224-.088l2.317-2.315a.316.316 0 0 0-.448-.446z" class="cls-1" data-name="Path 3182" transform="translate(-281.825 337.389)"/>
        </g>
    </g>
</svg>
