<svg xmlns="http://www.w3.org/2000/svg" width="40" height="40" viewBox="0 0 40 40">
    <defs>
        <style>
            .cls-1,.cls-3{fill:#f49917}.cls-1{opacity:.1}.cls-2,.cls-5{fill:none}.cls-2,.cls-3{stroke:#f49917}.cls-2{opacity:.51}.cls-3{stroke-width:.2px}.cls-4{stroke:none}
        </style>
    </defs>
    <g id="expense" transform="translate(-108 -438)">
        <g id="expense_status_icon" data-name="expense status icon" transform="translate(-548 304)">
            <g id="Group_747" data-name="Group 747" transform="translate(656 134)">
                <circle id="Ellipse_221" cx="20" cy="20" r="20" class="cls-1" data-name="Ellipse 221"/>
                <g id="Ellipse_222" class="cls-2" data-name="Ellipse 222">
                    <circle cx="20" cy="20" r="20" class="cls-4"/>
                    <circle cx="20" cy="20" r="19.5" class="cls-5"/>
                </g>
            </g>
        </g>
        <g id="expensive" transform="translate(118.381 448.401)">
            <g id="Group_1009" data-name="Group 1009" transform="translate(1.419 1.399)">
                <g id="Group_1008" data-name="Group 1008">
                    <path id="Path_2828" d="M63.612 313.655a6.978 6.978 0 0 1-1.835-1.323 6.848 6.848 0 0 1-1.033-1.315.443.443 0 1 0-.767.443l.008.014a7.736 7.736 0 0 0 1.166 1.485 7.857 7.857 0 0 0 2.068 1.49.443.443 0 0 0 .394-.794z" class="cls-3" data-name="Path 2828" transform="translate(-58.816 -299.343)"/>
                    <path id="Path_2829" d="M138.675 153.786a1.772 1.772 0 0 1-1.772-1.772h-.886a2.661 2.661 0 0 0 2.215 2.618v.926h.886v-.926a2.658 2.658 0 0 0-.443-5.276 1.772 1.772 0 1 1 1.772-1.772h.886a2.661 2.661 0 0 0-2.215-2.618v-.926h-.886v.926a2.658 2.658 0 0 0 .443 5.276 1.772 1.772 0 0 1 0 3.544z" class="cls-3" data-name="Path 2829" transform="translate(-130.703 -141.823)"/>
                    <path id="Path_2831" d="M42.379 106.333a7.975 7.975 0 0 0-2.03 7.841.443.443 0 1 0 .852-.243 7.085 7.085 0 0 1 11.819-6.963q.253.252.474.521a7.055 7.055 0 0 1-.237 9.252l-.02.02-.008.008-.016.016c-.06.068-.124.137-.194.206a7.087 7.087 0 0 1-6.384 1.939.443.443 0 0 0-.172.869 7.973 7.973 0 0 0 7.184-2.181c.07-.069.133-.138.2-.208a.439.439 0 0 0 .032-.032 7.974 7.974 0 0 0-11.5-11.046z" class="cls-3" data-name="Path 2831" transform="translate(-40.037 -104.004)"/>
                </g>
            </g>
        </g>
    </g>
</svg>
