<svg xmlns="http://www.w3.org/2000/svg" width="20" height="24" viewBox="0 0 20 24">
    <defs>
        <style>
            .cls-1,.cls-5{fill:none}.cls-1{stroke:#fff;stroke-width:2px}.cls-2,.cls-3{fill:#f49917}.cls-2{stroke:#f49917;stroke-width:.7px}.cls-4{stroke:none}
        </style>
    </defs>
    <g id="claim_entry" data-name="claim entry" transform="translate(-213 -301)">
        <g id="Rectangle_1367" class="cls-1" data-name="Rectangle 1367" transform="translate(213 301)">
            <rect width="20" height="24" class="cls-4" rx="4"/>
            <rect width="18" height="22" x="1" y="1" class="cls-5" rx="3"/>
        </g>
        <path id="Path_3184" d="M218.2 301s1.8 7.2-4 5.2" class="cls-1" data-name="Path 3184" transform="translate(0 .5)"/>
        <path id="Path_3189" d="M218.2 301s1.8 7.2-4 5.2" class="cls-1" data-name="Path 3189" transform="rotate(-90 225.082 312.525)"/>
        <path id="Path_3186" d="M218.2 301s1.8 7.2-4 5.2" class="cls-1" data-name="Path 3186" transform="rotate(90 222.625 310.926)"/>
        <path id="Path_3188" d="M218.2 301s1.8 7.2-4 5.2" class="cls-1" data-name="Path 3188" transform="rotate(180 223.054 312.776)"/>
        <path id="Path_3159" d="M133.087 75.922a4.8 4.8 0 1 0-4.8-4.8 4.8 4.8 0 0 0 4.8 4.8zm0-8.856a4.055 4.055 0 1 1-4.055 4.055 4.055 4.055 0 0 1 4.055-4.055z" class="cls-2" data-name="Path 3159" transform="translate(89.714 242.038)"/>
        <path id="Path_3160" d="M182.373 97.427a.658.658 0 0 1-.658-.658.317.317 0 1 0-.634 0 1.293 1.293 0 0 0 1 1.258v.306a.317.317 0 1 0 .634 0v-.319a1.291 1.291 0 0 0-.341-2.536.658.658 0 1 1 .658-.658.317.317 0 1 0 .634 0 1.293 1.293 0 0 0-1.056-1.269v-.235a.317.317 0 1 0-.634 0v.276a1.291 1.291 0 0 0 .4 2.52.658.658 0 1 1 0 1.315z" class="cls-3" data-name="Path 3160" transform="translate(40.427 217.489)"/>
    </g>
</svg>
