<svg xmlns="http://www.w3.org/2000/svg" width="16.249" height="16.2" viewBox="0 0 16.249 16.2">
    <defs>
        <style>
            .cls-1{fill:#00b7b7;stroke:#00b7b7;stroke-width:.2px}
        </style>
    </defs>
    <g id="carton-box" transform="translate(.125 .1)">
        <path id="Path_4499" d="M14.659 19.059H2a1 1 0 0 1-1-1.006V9.335A.334.334 0 0 1 1.333 9h13.993a.334.334 0 0 1 .333.335v8.717a1 1 0 0 1-1 1.007zM1.666 9.671v8.382a.334.334 0 0 0 .334.335h12.66a.334.334 0 0 0 .333-.335V9.671z" class="cls-1" transform="translate(-.329 -3.059)"/>
        <path id="Path_4500" d="M12.7 14.012H8.006a1.006 1.006 0 1 1 0-2.012H12.7a1.006 1.006 0 1 1 0 2.012zm-4.694-1.341a.335.335 0 1 0 0 .671H12.7a.335.335 0 0 0 0-.671z" class="cls-1" transform="translate(-2.353 -4.007)"/>
        <path id="Path_4501" d="M15.667 8.023H.333A.334.334 0 0 1 0 7.688V4.335A.334.334 0 0 1 .333 4h15.334a.334.334 0 0 1 .333.335v3.353a.334.334 0 0 1-.333.335zm-15-.671h14.666V4.671H.667z" class="cls-1" transform="translate(0 -1.339)"/>
        <path id="Path_4502" d="M15.667 3.353a.331.331 0 0 1-.267-.134L13.5.671h-11L.6 3.219a.332.332 0 0 1-.467.067.336.336 0 0 1-.067-.469l2-2.682A.332.332 0 0 1 2.333 0h11.334a.332.332 0 0 1 .267.134l2 2.682a.336.336 0 0 1-.067.469.333.333 0 0 1-.2.068z" class="cls-1"/>
    </g>
</svg>
