<svg xmlns="http://www.w3.org/2000/svg" width="16" height="10.198" viewBox="0 0 16 10.198">
    <defs>
        <style>
            .prefix__cls-1{fill:#1b84e7}
        </style>
    </defs>
    <g id="prefix__view" transform="translate(0 -92.835)">
        <g id="prefix__Group_2025" data-name="Group 2025" transform="translate(0 92.835)">
            <g id="prefix__Group_2024" data-name="Group 2024">
                <path id="prefix__Path_4439" d="M15.9 97.623c-.143-.2-3.549-4.788-7.9-4.788S.244 97.427.1 97.623a.528.528 0 0 0 0 .623c.143.2 3.549 4.788 7.9 4.788s7.755-4.592 7.9-4.788a.527.527 0 0 0 0-.623zM8 101.978c-3.2 0-5.979-3.048-6.8-4.044.82-1 3.59-4.044 6.8-4.044s5.979 3.047 6.8 4.044c-.82.998-3.589 4.044-6.8 4.044z" class="prefix__cls-1" data-name="Path 4439" transform="translate(0 -92.835)"/>
            </g>
        </g>
        <g id="prefix__Group_2027" data-name="Group 2027" transform="translate(4.819 94.753)">
            <g id="prefix__Group_2026" data-name="Group 2026">
                <path id="prefix__Path_4440" d="M157.9 154.725a3.181 3.181 0 1 0 3.181 3.181 3.184 3.184 0 0 0-3.181-3.181zm0 5.3a2.12 2.12 0 1 1 2.12-2.12 2.123 2.123 0 0 1-2.12 2.121z" class="prefix__cls-1" data-name="Path 4440" transform="translate(-154.722 -154.725)"/>
            </g>
        </g>
    </g>
</svg>
