<svg xmlns="http://www.w3.org/2000/svg" width="20.2" height="14.2" viewBox="0 0 20.2 14.2">
    <defs>
        <style>
            .cls-1{fill:#1b84e7;stroke:#1b84e7;stroke-width:.2px}
        </style>
    </defs>
    <g id="family" transform="translate(.1 -74.511)">
        <g id="Group_2654" transform="translate(16.992 82.372)">
            <g id="Group_2653">
                <path id="Path_4432" d="M438.145 278.175a.4.4 0 0 0-.641.494 3.037 3.037 0 0 1 .636 1.87.4.4 0 0 0 .81 0 3.84 3.84 0 0 0-.805-2.364z" class="cls-1" transform="translate(-437.419 -278.017)"/>
            </g>
        </g>
        <g id="Group_2656" transform="translate(0 74.611)">
            <g id="Group_2655">
                <path id="Path_4433" d="M16.472 80.012a2.942 2.942 0 0 0 1.321-2.449 2.989 2.989 0 0 0-5.977 0 2.942 2.942 0 0 0 1.32 2.448 5.185 5.185 0 0 0-1.6.876 2.225 2.225 0 0 0-3.062 0 5.189 5.189 0 0 0-1.6-.876 2.942 2.942 0 0 0 1.32-2.448 2.989 2.989 0 0 0-5.977 0 2.942 2.942 0 0 0 1.321 2.449A5.148 5.148 0 0 0 0 84.864v.01c0 .595.342 1.473 1.972 2.277A15.163 15.163 0 0 0 6.588 88.4a27.308 27.308 0 0 0 6.825 0 15.162 15.162 0 0 0 4.615-1.246c1.63-.8 1.972-1.682 1.972-2.277a5.148 5.148 0 0 0-3.528-4.865zM12.6 77.564a2.2 2.2 0 1 1 2.2 2.177 2.194 2.194 0 0 1-2.2-2.177zm-3.77 4.093a1.434 1.434 0 0 1 2.341 0 1.386 1.386 0 0 1 .254.8 1.425 1.425 0 0 1-2.849 0 1.384 1.384 0 0 1 .254-.8zm-5.838-4.093a2.2 2.2 0 1 1 2.2 2.177 2.193 2.193 0 0 1-2.2-2.177zm3.255 10a13.732 13.732 0 0 1-3.924-1.108c-.99-.486-1.535-1.047-1.538-1.577a4.423 4.423 0 0 1 7.224-3.358 2.162 2.162 0 0 0 .583 2.623 3.714 3.714 0 0 0-2.345 3.422zm6.723.1a26.634 26.634 0 0 1-5.938 0v-.1a2.969 2.969 0 0 1 5.938 0zm4.708-1.212a13.729 13.729 0 0 1-3.924 1.108 3.714 3.714 0 0 0-2.344-3.428 2.162 2.162 0 0 0 .583-2.623 4.423 4.423 0 0 1 7.224 3.358c-.001.539-.548 1.102-1.539 1.591z" class="cls-1" transform="translate(0 -74.611)"/>
            </g>
        </g>
        <g id="Group_2658" transform="translate(16.114 81.683)">
            <g id="Group_2657">
                <path id="Path_4434" d="M416.021 258.344a.405.405 0 0 0 0 .81.405.405 0 0 0 0-.81z" class="cls-1" transform="translate(-415.63 -258.344)"/>
            </g>
        </g>
    </g>
</svg>
