<svg xmlns="http://www.w3.org/2000/svg" width="11.501" height="11.549" viewBox="0 0 11.501 11.549">
    <defs>
        <style>
            .cls-1{fill:#343a40}
        </style>
    </defs>
    <g id="Group_860" data-name="Group 860" transform="translate(-1632.25 -95.226)">
        <path id="Rectangle_1043" d="M0 0H4.978V1.643H0z" class="cls-1" data-name="Rectangle 1043" transform="translate(1632.25 105.132)"/>
        <path id="Rectangle_1044" d="M0 0H4.978V1.643H0z" class="cls-1" data-name="Rectangle 1044" transform="translate(1632.25 101.847)"/>
        <path id="Rectangle_1045" d="M0 0H4.978V1.643H0z" class="cls-1" data-name="Rectangle 1045" transform="translate(1632.25 98.511)"/>
        <path id="Rectangle_1046" d="M0 0H4.978V1.643H0z" class="cls-1" data-name="Rectangle 1046" transform="translate(1632.25 95.226)"/>
        <path id="Rectangle_1047" d="M0 0H4.929V1.643H0z" class="cls-1" data-name="Rectangle 1047" transform="translate(1638.822 105.132)"/>
        <path id="Rectangle_1048" d="M0 0H4.929V1.643H0z" class="cls-1" data-name="Rectangle 1048" transform="translate(1638.822 101.847)"/>
        <path id="Rectangle_1049" d="M0 0H4.929V1.643H0z" class="cls-1" data-name="Rectangle 1049" transform="translate(1638.822 98.511)"/>
        <path id="Rectangle_1050" d="M0 0H4.929V1.643H0z" class="cls-1" data-name="Rectangle 1050" transform="translate(1638.822 95.226)"/>
    </g>
</svg>
