<svg xmlns="http://www.w3.org/2000/svg" width="20" height="20" viewBox="0 0 20 20">
    <defs>
        <style>
            .prefix__cls-2{fill:#fff}
        </style>
    </defs>
    <g id="prefix__Group_2363" data-name="Group 2363" transform="translate(.114)">
        <circle id="prefix__Ellipse_209" cx="10" cy="10" r="10" data-name="Ellipse 209" transform="translate(-.114)" style="fill:#dc3545"/>
        <g id="prefix__delete" transform="translate(5.442 4)">
            <path id="prefix__Path_2516" d="M222.832 154.7a.436.436 0 0 0-.434.438v8.273a.434.434 0 1 0 .867 0v-8.273a.436.436 0 0 0-.433-.438zm0 0" class="prefix__cls-2" data-name="Path 2516" transform="translate(-216.551 -152.767)"/>
            <path id="prefix__Path_2517" d="M104.832 154.7a.436.436 0 0 0-.434.438v8.273a.434.434 0 1 0 .867 0v-8.273a.436.436 0 0 0-.433-.438zm0 0" class="prefix__cls-2" data-name="Path 2517" transform="translate(-101.654 -152.767)"/>
            <path id="prefix__Path_2518" d="M.771 3.563v6.908a1.571 1.571 0 0 0 .4 1.067 1.326 1.326 0 0 0 .975.433h5.16a1.326 1.326 0 0 0 .975-.433 1.571 1.571 0 0 0 .4-1.067V3.563a1.071 1.071 0 0 0 .766-1.174 1.052 1.052 0 0 0-1.033-.932h-1.4v-.35A1.118 1.118 0 0 0 6.7.32 1.057 1.057 0 0 0 5.937 0H3.515a1.057 1.057 0 0 0-.765.32 1.118 1.118 0 0 0-.315.786v.35h-1.4a1.052 1.052 0 0 0-1.033.932 1.071 1.071 0 0 0 .769 1.175zm6.535 7.847h-5.16a.878.878 0 0 1-.829-.939V3.588h6.819v6.883a.878.878 0 0 1-.83.939zM2.981 1.106a.548.548 0 0 1 .155-.39.518.518 0 0 1 .38-.157h2.421a.518.518 0 0 1 .38.157.547.547 0 0 1 .155.39v.35H2.981zm-1.942.911h7.375a.5.5 0 0 1 0 1.009H1.039a.5.5 0 0 1 0-1.009zm0 0" class="prefix__cls-2" data-name="Path 2518" transform="translate(.003 .001)"/>
            <path id="prefix__Path_2519" d="M163.832 154.7a.436.436 0 0 0-.434.438v8.273a.434.434 0 1 0 .867 0v-8.273a.436.436 0 0 0-.433-.438zm0 0" class="prefix__cls-2" data-name="Path 2519" transform="translate(-159.103 -152.767)"/>
        </g>
    </g>
</svg>
