<svg xmlns="http://www.w3.org/2000/svg" id="Group_1727" width="18" height="18" viewBox="0 0 18 18">
    <defs>
        <style>
            .cls-1{fill:#f49917}
        </style>
    </defs>
    <g id="Group_1726">
        <path id="Path_3369" d="M283.74 203.825a.7.7 0 0 0 .995 0l1.835-1.817a2.105 2.105 0 0 0 0-2.99l-1.8-1.814a.7.7 0 0 0-1 .99l1.6 1.615h-5.67a.7.7 0 0 0 0 1.407h5.668l-1.626 1.61a.7.7 0 0 0-.002.999z" class="cls-1" transform="translate(-269.194 -190.076)"/>
        <path id="Path_3370" d="M15.188 1.406h-.914V.7a.7.7 0 0 0-1.406 0v.7h-3.2V.7a.7.7 0 0 0-1.406 0v.7H5.1V.7a.7.7 0 0 0-1.409 0v.7h-.878A2.816 2.816 0 0 0 0 4.219v10.969A2.816 2.816 0 0 0 2.813 18h12.375A2.816 2.816 0 0 0 18 15.188a.7.7 0 0 0-1.406 0 1.408 1.408 0 0 1-1.406 1.406H2.813a1.408 1.408 0 0 1-1.406-1.406V4.219a1.408 1.408 0 0 1 1.406-1.406h.879v.7a.7.7 0 0 0 1.406 0v-.7h3.164v.7a.7.7 0 0 0 1.406 0v-.7h3.2v.7a.7.7 0 0 0 1.406 0v-.7h.914a1.408 1.408 0 0 1 1.406 1.406V5.8A.7.7 0 0 0 18 5.8V4.219a2.816 2.816 0 0 0-2.812-2.813z" class="cls-1"/>
    </g>
</svg>
