<svg xmlns="http://www.w3.org/2000/svg" width="32" height="32" viewBox="0 0 32 32">
    <defs>
        <style>
            .cls-1,.cls-4{fill:none}.cls-1{stroke:#1515af;stroke-width:1.5px;opacity:.5}.cls-2{fill:#1515af}.cls-3{stroke:none}
        </style>
    </defs>
    <g id="Group_1687" data-name="Group 1687" transform="translate(-475 -1298)">
        <g id="Group_1262" data-name="Group 1262" transform="translate(474.834 1297.945)">
            <g id="Ellipse_318" class="cls-1" data-name="Ellipse 318" transform="translate(.166 .055)">
                <circle cx="16" cy="16" r="16" class="cls-3"/>
                <circle cx="16" cy="16" r="15.25" class="cls-4"/>
            </g>
        </g>
        <g id="hospital_3_" data-name="hospital (3)" transform="translate(482.75 1305.862)">
            <g id="Group_1297" data-name="Group 1297">
                <g id="Group_1296" data-name="Group 1296">
                    <path id="Path_3284" d="M8.157 0a8.157 8.157 0 1 0 8.157 8.157A8.162 8.162 0 0 0 8.157 0zm0 15.607a7.45 7.45 0 1 1 7.45-7.45 7.458 7.458 0 0 1-7.45 7.45z" class="cls-2" data-name="Path 3284"/>
                </g>
            </g>
            <g id="Group_1299" data-name="Group 1299" transform="translate(3.435 3.435)">
                <g id="Group_1298" data-name="Group 1298">
                    <path id="Path_3285" d="M81.481 75.306h-2.543v-2.543a.362.362 0 0 0-.363-.363h-2.906a.362.362 0 0 0-.363.363v2.543h-2.543a.362.362 0 0 0-.363.363v2.906a.362.362 0 0 0 .363.363h2.543v2.543a.362.362 0 0 0 .363.363h2.906a.362.362 0 0 0 .363-.363v-2.543h2.543a.362.362 0 0 0 .363-.363v-2.906a.39.39 0 0 0-.363-.363zm-.343 2.906h-2.563a.362.362 0 0 0-.363.363v2.543h-2.18v-2.543a.362.362 0 0 0-.363-.363h-2.543v-2.18h2.543a.362.362 0 0 0 .363-.363v-2.543h2.2v2.543a.362.362 0 0 0 .363.363h2.543z" class="cls-2" data-name="Path 3285" transform="translate(-72.4 -72.4)"/>
                </g>
            </g>
        </g>
    </g>
</svg>
