<svg xmlns="http://www.w3.org/2000/svg" width="32" height="32" viewBox="0 0 32 32">
    <defs>
        <style>
            .cls-1,.cls-4{fill:none}.cls-1{stroke:#1b84e7;stroke-width:1.5px;opacity:.5}.cls-2{fill:#1b84e7}.cls-3{stroke:none}
        </style>
    </defs>
    <g id="Group_1688" data-name="Group 1688" transform="translate(-475 -1346)">
        <g id="Group_1263" data-name="Group 1263" transform="translate(475 1346)">
            <g id="Ellipse_318" class="cls-1" data-name="Ellipse 318">
                <circle cx="16" cy="16" r="16" class="cls-3"/>
                <circle cx="16" cy="16" r="15.25" class="cls-4"/>
            </g>
        </g>
        <g id="leaf_2_" data-name="leaf (2)" transform="translate(482.968 1353.968)">
            <path id="Path_3289" d="M183.412 270.965h-.482v-.482a.482.482 0 0 0-.965 0v.482h-.482a.482.482 0 0 0 0 .965h.482v.482a.482.482 0 1 0 .965 0v-.482h.482a.482.482 0 1 0 0-.965zm0 0" class="cls-2" data-name="Path 3289" transform="translate(-175.18 -261.318)"/>
            <path id="Path_3290" d="M12.348.74a2.407 2.407 0 0 0-.692 1.953L6.814 6.787H.483A.482.482 0 0 0 0 7.269c0 3.221 1.531 6.231 4.57 7.073a2.4 2.4 0 0 0-.678 1.674.482.482 0 0 0 .482.482h5.788a.482.482 0 0 0 .482-.482 2.4 2.4 0 0 0-.679-1.675c3.061-.849 4.537-3.893 4.537-7.072a.482.482 0 0 0-.482-.482h-1.882L13.8 4.843A2.411 2.411 0 1 0 12.348.74zM9.6 15.533H4.939a1.449 1.449 0 0 1 1.361-.964h1.933a1.449 1.449 0 0 1 1.364.965zM8.233 13.6H6.3c-3.5 0-5.164-2.866-5.325-5.853h12.551c-.16 2.987-1.815 5.853-5.293 5.853zm2.635-6.817h-2.56l3.674-3.106a2.412 2.412 0 0 0 .832.834zm4.209-3.318a1.447 1.447 0 1 1 0-2.046 1.449 1.449 0 0 1-.001 2.05zm0 0" class="cls-2" data-name="Path 3290" transform="translate(-.001 -.034)"/>
            <path id="Path_3291" d="M31.719.007a.482.482 0 0 0-.561.561c.179.979.745 3.595 1.5 4.347a2.415 2.415 0 0 0 2.838.424l.056.117a.482.482 0 0 0 .878-.4q-.081-.179-.176-.35a2.415 2.415 0 0 0-.186-3.2c-.748-.748-3.375-1.32-4.347-1.5zm3.665 3.544l-.684-.682a.482.482 0 1 0-.682.682l.682.682q.14.14.264.291a1.449 1.449 0 0 1-1.629-.291A9.382 9.382 0 0 1 32.249 1.1a9.375 9.375 0 0 1 3.135 1.089 1.45 1.45 0 0 1 .275 1.662q-.131-.154-.275-.3zm0 0" class="cls-2" data-name="Path 3291" transform="translate(-30.148 .001)"/>
        </g>
    </g>
</svg>
