<svg xmlns="http://www.w3.org/2000/svg" width="22.848" height="25.113" viewBox="0 0 22.848 25.113">
    <defs>
        <style>
            .cls-1{fill:none;stroke:#1b84e7;stroke-linejoin:round}
        </style>
    </defs>
    <path id="hexagun" d="M8511.578 7431.329c-.043-2.358 0-8.317 0-8.317a4.3 4.3 0 0 1 1.824-3.042c1.661-1.047 7.063-4.1 7.063-4.1a4.072 4.072 0 0 1 3.323-.333c1.993.586 7.477 4.228 7.477 4.228a4.6 4.6 0 0 1 2.035 3.251c.206 2.149 0 8.513 0 8.513a4.491 4.491 0 0 1-1.414 2.887c-1.37 1.3-7.018 4.188-7.018 4.188a4.345 4.345 0 0 1-4.489.21c-2.491-1.3-6.977-4.1-6.977-4.1a4.04 4.04 0 0 1-1.824-3.385z" class="cls-1" transform="translate(-8511.057 -7414.803)"/>
</svg>
