<svg xmlns="http://www.w3.org/2000/svg" width="20" height="24" viewBox="0 0 20 24">
    <defs>
        <style>
            .cls-1,.cls-4{fill:none}.cls-1{stroke:#fff;stroke-width:2px}.cls-2{fill:#f49917;stroke:#f49917;stroke-width:.4px}.cls-3{stroke:none}
        </style>
    </defs>
    <g id="dr._missed_list" data-name="dr. missed list" transform="translate(-27 -722)">
        <g id="Rectangle_1360" class="cls-1" data-name="Rectangle 1360" transform="translate(27 722)">
            <rect width="20" height="24" class="cls-3" rx="4"/>
            <rect width="18" height="22" x="1" y="1" class="cls-4" rx="3"/>
        </g>
        <path id="stethoscope_1_" d="M3.562 9.5a1.724 1.724 0 0 0 1.125.5c1.688 0 2.063-1.25 2.125-2.25.125-1.437.5-1.375.688-1.375.437 0 .562.25.562.688a1.289 1.289 0 0 0-.625 1.063 1.25 1.25 0 1 0 1.25-1.25h-.125c-.125-.563-.437-1.126-1.125-1.126-1 0-1.25.875-1.313 1.813-.062 1.313-.5 1.812-1.437 1.812a.955.955 0 0 1-.625-.25c-.375-.312-.313-1.437-.313-1.437 1.25 0 2.5-1.125 2.937-3l-.125-.062a10.214 10.214 0 0 0 .312-2.25A1.9 1.9 0 0 0 6.25.813a2.045 2.045 0 0 0-1.312-.5A.656.656 0 0 0 4.375 0a.626.626 0 0 0-.625.625.59.59 0 0 0 .625.625.5.5 0 0 0 .5-.312 1.5 1.5 0 0 1 .937.375 1.212 1.212 0 0 1 .438 1.062 10.767 10.767 0 0 1-.312 2.187L5.812 4.5C5.625 5.187 5 6.75 3.75 6.75h-.625c-1.25 0-1.875-1.563-2.062-2.25l-.125.063a10.767 10.767 0 0 1-.313-2.188 1.212 1.212 0 0 1 .438-1.062A1.759 1.759 0 0 1 2 .938a.5.5 0 0 0 .5.312.59.59 0 0 0 .625-.625A.59.59 0 0 0 2.5 0a.656.656 0 0 0-.563.313 2.045 2.045 0 0 0-1.312.5A1.9 1.9 0 0 0 0 2.375a11.273 11.273 0 0 0 .312 2.313l-.125.062c.438 1.813 1.688 2.937 2.938 2.937 0 0-.062 1.375.438 1.813zm5.188-.75a.625.625 0 1 1 .625-.625.626.626 0 0 1-.625.625z" class="cls-2" data-name="stethoscope (1)" transform="translate(31.9 729)"/>
    </g>
</svg>
