<svg xmlns="http://www.w3.org/2000/svg" width="16.315" height="16.315" viewBox="0 0 16.315 16.315">
    <defs>
        <style>
            .cls-1{fill:#1515af}
        </style>
    </defs>
    <g id="Group_1626" data-name="Group 1626" transform="translate(-484.75 -815.862)">
        <path id="Path_3284" d="M8.157 0a8.157 8.157 0 1 0 8.157 8.157A8.162 8.162 0 0 0 8.157 0zm0 15.607a7.45 7.45 0 1 1 7.45-7.45 7.458 7.458 0 0 1-7.45 7.45z" class="cls-1" data-name="Path 3284" transform="translate(484.75 815.862)"/>
        <path id="Path_3285" d="M81.481 75.306h-2.543v-2.543a.362.362 0 0 0-.363-.363h-2.906a.362.362 0 0 0-.363.363v2.543h-2.543a.362.362 0 0 0-.363.363v2.906a.362.362 0 0 0 .363.363h2.543v2.543a.362.362 0 0 0 .363.363h2.906a.362.362 0 0 0 .363-.363v-2.543h2.543a.362.362 0 0 0 .363-.363v-2.906a.39.39 0 0 0-.363-.363zm-.343 2.906h-2.563a.362.362 0 0 0-.363.363v2.543h-2.18v-2.543a.362.362 0 0 0-.363-.363h-2.543v-2.18h2.543a.362.362 0 0 0 .363-.363v-2.543h2.2v2.543a.362.362 0 0 0 .363.363h2.543z" class="cls-1" data-name="Path 3285" transform="translate(415.785 746.897)"/>
    </g>
</svg>
