<svg xmlns="http://www.w3.org/2000/svg" width="16" height="16" viewBox="0 0 16 16">
    <defs>
        <style>
            .cls-1{fill:#6c757d}
        </style>
    </defs>
    <g id="info" transform="translate(30 44.813)">
        <g id="help" transform="translate(-30 -43)">
            <path id="Path_2588" d="M8 0a8 8 0 1 0 8 8 8.009 8.009 0 0 0-8-8zm0 15.015A7.015 7.015 0 1 1 15.015 8 7.023 7.023 0 0 1 8 15.015z" class="cls-1" data-name="Path 2588" transform="translate(0 -1.813)"/>
            <circle id="Ellipse_235" cx=".833" cy=".833" r=".833" class="cls-1" data-name="Ellipse 235" transform="translate(7.294 2.981)"/>
            <path id="Path_2589" d="M30.635 28.342a.5.5 0 0 0-.5.5v4.234a.5.5 0 0 0 1 0V28.84a.5.5 0 0 0-.5-.498z" class="cls-1" data-name="Path 2589" transform="translate(-22.724 -22.404)"/>
        </g>
    </g>
</svg>
