<svg xmlns="http://www.w3.org/2000/svg" width="32.38" height="32" viewBox="0 0 32.38 32">
    <defs>
        <style>
            .cls-1{fill:#00b7b7}
        </style>
    </defs>
    <g id="money" transform="translate(0 -3)">
        <g id="Group_830" data-name="Group 830" transform="translate(24.041 16.54)">
            <g id="Group_829" data-name="Group 829">
                <path id="Path_2630" d="M388.322 223.916a8.483 8.483 0 0 0-3.465-3.066.651.651 0 1 0-.564 1.173 7.167 7.167 0 0 1 3.228 9.817.651.651 0 1 0 1.149.612 8.473 8.473 0 0 0-.348-8.536z" class="cls-1" data-name="Path 2630" transform="translate(-383.924 -220.785)"/>
            </g>
        </g>
        <g id="Group_832" data-name="Group 832" transform="translate(21.918 16.012)">
            <g id="Group_831" data-name="Group 831">
                <path id="Path_2631" d="M347.695 209h-.044a.651.651 0 0 0 0 1.3h.041a.651.651 0 0 0 0-1.3z" class="cls-1" data-name="Path 2631" transform="translate(-347 -209.001)"/>
            </g>
        </g>
        <g id="Group_834" data-name="Group 834" transform="translate(13.325 19.617)">
            <g id="Group_833" data-name="Group 833">
                <path id="Path_2632" d="M217.367 283.485a7.167 7.167 0 0 1-3.228-9.817.651.651 0 1 0-1.149-.612 8.467 8.467 0 0 0 3.813 11.6.651.651 0 1 0 .564-1.174z" class="cls-1" data-name="Path 2632" transform="translate(-212.002 -272.711)"/>
            </g>
        </g>
        <g id="Group_836" data-name="Group 836" transform="translate(19.983 31.094)">
            <g id="Group_835" data-name="Group 835">
                <path id="Path_2633" d="M317.07 449h-.038a.651.651 0 0 0-.006 1.3h.044a.651.651 0 0 0 0-1.3z" class="cls-1" data-name="Path 2633" transform="translate(-316.378 -448.999)"/>
            </g>
        </g>
        <g id="Group_838" data-name="Group 838" transform="translate(0 3)">
            <g id="Group_837" data-name="Group 837">
                <path id="Path_2634" d="M24.5 13.888a2.9 2.9 0 0 0-.281-.517h1.646a2.909 2.909 0 1 0 0-5.818H20.8A2.907 2.907 0 0 0 18.4 3H2.909a2.909 2.909 0 0 0 0 5.818h5.064a2.9 2.9 0 0 0 0 3.289H6.324a2.907 2.907 0 0 0-1.808 5.186 2.9 2.9 0 0 0 0 4.553 2.9 2.9 0 0 0 0 4.553 2.907 2.907 0 0 0 1.808 5.186h7.453A10.749 10.749 0 1 0 24.5 13.888zm1.365-5.07a1.644 1.644 0 1 1 0 3.289H10.372a1.644 1.644 0 0 1 0-3.289zM2.909 7.553a1.644 1.644 0 1 1 0-3.289H18.4a1.644 1.644 0 0 1 0 3.289zm3.415 5.818h15.494a1.643 1.643 0 0 1 .717.165c-.3-.025-.6-.039-.907-.039a10.718 10.718 0 0 0-7.608 3.162h-7.7a1.644 1.644 0 0 1 0-3.289zm0 4.553h6.616a10.72 10.72 0 0 0-1.625 3.289H6.324a1.644 1.644 0 1 1 0-3.289zm0 4.553h4.7a10.76 10.76 0 0 0-.039 3.289H6.324a1.644 1.644 0 1 1 0-3.289zm0 7.842a1.644 1.644 0 0 1 0-3.289h4.919a10.709 10.709 0 0 0 1.517 3.289zm15.3 3.415a9.486 9.486 0 1 1 9.486-9.486 9.5 9.5 0 0 1-9.482 9.487z" class="cls-1" data-name="Path 2634" transform="translate(0 -3)"/>
            </g>
        </g>
    </g>
</svg>
