<svg xmlns="http://www.w3.org/2000/svg" width="64" height="64" viewBox="0 0 64 64">
    <defs>
        <style>
            .cls-1,.cls-2{fill:#00b7b7}.cls-1{opacity:.1}.cls-2{stroke:#00b7b7;stroke-width:.3px}
        </style>
    </defs>
    <g id="leave_status_icon" data-name="leave status icon" transform="translate(-195 -168)">
        <circle id="Ellipse_312" cx="32" cy="32" r="32" class="cls-1" data-name="Ellipse 312" transform="translate(195 168)"/>
        <g id="sunset" transform="translate(210.822 184)">
            <path id="Path_2996" d="M329.4 276.549a5.393 5.393 0 1 0 5.393-5.393 5.393 5.393 0 0 0-5.393 5.393zm5.393-4.315a4.315 4.315 0 1 1-4.315 4.315 4.315 4.315 0 0 1 4.313-4.315zm0 0" class="cls-2" data-name="Path 2996" transform="translate(-311.242 -256.305)"/>
            <path id="Path_2997" d="M370.9 561.637h6.164v1.079H370.9zm0 0" class="cls-2" data-name="Path 2997" transform="translate(-350.355 -530.714)"/>
            <path id="Path_2998" d="M329.4 522.9h10.787v1.079H329.4zm0 0" class="cls-2" data-name="Path 2998" transform="translate(-311.242 -494.137)"/>
            <path id="Path_2999" d="M116.379 522.9h1.079v1.079h-1.079zm0 0" class="cls-2" data-name="Path 2999" transform="translate(-109.803 -494.137)"/>
            <path id="Path_3000" d="M58.285 542.27h1.079v1.079h-1.079zm0 0" class="cls-2" data-name="Path 3000" transform="translate(-54.87 -512.426)"/>
            <path id="Path_3001" d="M6.632 25.8a40.387 40.387 0 0 0 5.131-15.785l4.96 4.93a.532.532 0 0 0 .373.155.5.5 0 0 0 .086-.007.532.532 0 0 0 .391-.288 5.206 5.206 0 0 0-.973-6.018l-.436-.436h3.751a.534.534 0 0 0 .506-.7 5.207 5.207 0 0 0-4.946-3.564h-.693l2.663-2.679A.533.533 0 0 0 17.3.552a5.209 5.209 0 0 0-6.021.977l-.509.509a5.216 5.216 0 0 0-.462.533 5.124 5.124 0 0 0-.458-.533l-.509-.509A5.206 5.206 0 0 0 3.325.552a.533.533 0 0 0-.14.853l2.667 2.679h-.7A5.207 5.207 0 0 0 .206 7.648a.534.534 0 0 0 .506.7H4.46l-.436.436a5.206 5.206 0 0 0-.978 6.016.533.533 0 0 0 .391.288.506.506 0 0 0 .086.007.533.533 0 0 0 .376-.155l4.619-4.591a28.9 28.9 0 0 1-5.576 14.097A19.9 19.9 0 0 0 .765 24l-.333-.034-.107 1.065.311.03c.533.076 1.063.184 1.59.306-.107.134-.213.27-.324.4l.818.684A30.023 30.023 0 0 0 9.7 9.179l.614-.61.46.457a38.989 38.989 0 0 1-6.765 18.932l.874.611c.419-.6.819-1.22 1.207-1.853a18.916 18.916 0 0 1 6.453 5.055l.825-.676a19.92 19.92 0 0 0-3.542-3.363h22.352v-1.066H8.245c-.523-.316-1.062-.6-1.613-.868zM16.9 13.615l-5.635-5.6a4.114 4.114 0 0 1 4.071 1.018l.509.509a4.14 4.14 0 0 1 1.055 4.073zm2.2-6.331h-4.418a5.2 5.2 0 0 0-3.3-.394 4.136 4.136 0 0 1 3.368-1.739h.72a4.141 4.141 0 0 1 3.63 2.133zm-7.575-4.492l.509-.509a4.144 4.144 0 0 1 4.077-1.054l-3.162 3.18a5.2 5.2 0 0 0-2.518 1.976 4.036 4.036 0 0 1 1.095-3.592zm-2.938-.509l.509.509a4.047 4.047 0 0 1 .613.808A5.073 5.073 0 0 0 9.3 5.373a5.2 5.2 0 0 0-1.627-.964l-3.16-3.18a4.142 4.142 0 0 1 4.075 1.054zM5.15 5.151h.72a4.137 4.137 0 0 1 3.375 1.738 5.2 5.2 0 0 0-3.3.395H1.526a4.141 4.141 0 0 1 3.626-2.133zm-1.427 8.464a4.14 4.14 0 0 1 1.055-4.074l.509-.509a4.076 4.076 0 0 1 2.892-1.19 4.218 4.218 0 0 1 1.182.17zm0 0" class="cls-2" data-name="Path 3001"/>
        </g>
    </g>
</svg>
