<svg xmlns="http://www.w3.org/2000/svg" width="10.1" height="16.1" viewBox="0 0 10.1 16.1">
    <defs>
        <style>
            .cls-1,.cls-2{fill:#6c757d;stroke:#6c757d}.cls-1{stroke-width:.1px}.cls-2{stroke-width:.2px}
        </style>
    </defs>
    <g id="leave" transform="translate(.05 .05)">
        <path id="Path_2885" d="M8.529 4.267H6.765V1.333h.588a.281.281 0 0 0 .294-.267v-.8A.281.281 0 0 0 7.353 0H2.647a.281.281 0 0 0-.294.267v.8a.281.281 0 0 0 .294.267h.588v2.933H1.471A1.409 1.409 0 0 0 0 5.6v8.267A1.409 1.409 0 0 0 1.471 15.2v.533a.281.281 0 0 0 .294.267h1.176a.281.281 0 0 0 .294-.267V15.2h3.53v.533a.281.281 0 0 0 .294.267h1.176a.281.281 0 0 0 .294-.267V15.2A1.409 1.409 0 0 0 10 13.867V5.6a1.409 1.409 0 0 0-1.471-1.333zM2.941.533h4.118V.8H2.941zm.882.8h2.353v2.934H3.824zM2.647 15.467h-.588V15.2h.588zm5.294 0h-.588V15.2h.588zm1.471-1.6a.844.844 0 0 1-.882.8H1.471a.844.844 0 0 1-.882-.8V5.6a.844.844 0 0 1 .882-.8h7.058a.844.844 0 0 1 .882.8zm0 0" class="cls-1" data-name="Path 2885"/>
        <path id="Path_2886" d="M128.271 160a.271.271 0 0 0-.271.271v8.4a.271.271 0 0 0 .542 0v-8.4a.271.271 0 0 0-.271-.271zm0 0" class="cls-2" data-name="Path 2886" transform="translate(-123.271 -154.833)"/>
        <path id="Path_2887" d="M192.271 176a.271.271 0 0 0-.271.271v7.313a.271.271 0 1 0 .542 0v-7.312a.271.271 0 0 0-.271-.272zm0 0" class="cls-2" data-name="Path 2887" transform="translate(-184.906 -170.292)"/>
        <path id="Path_2888" d="M64.271 176a.271.271 0 0 0-.271.271v7.313a.271.271 0 1 0 .542 0v-7.312a.271.271 0 0 0-.271-.272zm0 0" class="cls-2" data-name="Path 2888" transform="translate(-61.635 -170.292)"/>
    </g>
</svg>
