<svg xmlns="http://www.w3.org/2000/svg" width="14.5" height="14.5" viewBox="0 0 14.5 14.5">
    <defs>
        <style>
            .cls-1{fill:#1b84e7;stroke:#1b84e7;stroke-width:.5px}
        </style>
    </defs>
    <path id="like" d="M20.255 9.518a1.709 1.709 0 0 0 .419-1.162 1.758 1.758 0 0 0-.392-1.007 1.533 1.533 0 0 0-.382-1.8 3.4 3.4 0 0 0-2.418-.562A9.707 9.707 0 0 0 16 5.17c-.151.026-.31.059-.473.094a4.982 4.982 0 0 1 .376-1.7 3.053 3.053 0 0 0-.078-2.84A1.939 1.939 0 0 0 14.289 0a.766.766 0 0 0-.581.258 1.923 1.923 0 0 0-.253 1.4c-.4 1.036-1.512 3.578-2.455 4.283a.32.32 0 0 0-.048.041 3.139 3.139 0 0 0-.59.861 1.271 1.271 0 0 0-.6-.146H7.928a1.237 1.237 0 0 0-1.253 1.214v4.757a1.237 1.237 0 0 0 1.253 1.218h1.837a1.275 1.275 0 0 0 .723-.223l.708.082a31.182 31.182 0 0 0 4.015.214c.358.026.7.041 1.009.041a6.945 6.945 0 0 0 1.4-.123 2.627 2.627 0 0 0 1.87-1.13 1.748 1.748 0 0 0 .2-1.121 1.842 1.842 0 0 0 .684-1.519 1.93 1.93 0 0 0-.119-.589zM7.928 13.1a.434.434 0 0 1-.44-.427V7.908a.434.434 0 0 1 .44-.427h1.837a.434.434 0 0 1 .44.427v4.757a.434.434 0 0 1-.44.427H7.928zm11.556-3.92a.385.385 0 0 0-.054.477 1.194 1.194 0 0 1 .139.489A1.163 1.163 0 0 1 19 11.154a.392.392 0 0 0-.139.451 1.007 1.007 0 0 1-.081.755 1.893 1.893 0 0 1-1.331.744 8.159 8.159 0 0 1-2.2.064h-.042a30.57 30.57 0 0 1-3.915-.208l-.3-.035a1.207 1.207 0 0 0 .027-.258V7.908a1.207 1.207 0 0 0-.057-.363 2.425 2.425 0 0 1 .56-1C12.873 5.5 14.2 1.982 14.252 1.83a.361.361 0 0 0 .018-.2 1.78 1.78 0 0 1 .04-.845 1.094 1.094 0 0 1 .849.4 2.431 2.431 0 0 1-.036 2.128c-.506 1.49-.548 2.275-.148 2.62a.671.671 0 0 0 .657.114c.184-.041.358-.076.524-.1l.039-.009c.925-.2 2.581-.316 3.156.193a.824.824 0 0 1 .1 1.069.384.384 0 0 0 .072.509 1.1 1.1 0 0 1 .334.682 1.074 1.074 0 0 1-.373.784z" class="cls-1" transform="translate(-6.426 .25)"/>
</svg>
