<svg xmlns="http://www.w3.org/2000/svg" width="17.775" height="23.949" viewBox="0 0 17.775 23.949">
    <defs>
        <style>
            .cls-1{opacity:.41}.cls-2{fill:#6c757d}.cls-3{fill:#343a40}
        </style>
    </defs>
    <g id="marketing" class="cls-1" transform="translate(-66.001)">
        <g id="Group_736" data-name="Group 736" transform="translate(66.001)">
            <path id="Path_2544" d="M99.089 296.565a2.807 2.807 0 0 0 .739-1.929 2.325 2.325 0 1 0-4.609 0 2.075 2.075 0 0 0-2.765 0 2.325 2.325 0 1 0-4.609 0 2.807 2.807 0 0 0 .739 1.929A4.786 4.786 0 0 0 86 300.951a.5.5 0 0 0 .461.526h3.463a5.321 5.321 0 0 0-.237 1.579.5.5 0 0 0 .461.526h1.844a.531.531 0 0 0 0-1.053h-1.35a3.4 3.4 0 0 1 3.192-3.158 3.4 3.4 0 0 1 3.192 3.158H95.68a.531.531 0 0 0 0 1.053h1.844a.5.5 0 0 0 .461-.526 5.322 5.322 0 0 0-.237-1.579h3.463a.5.5 0 0 0 .461-.526 4.786 4.786 0 0 0-2.583-4.386zm-1.565-3.508a1.593 1.593 0 1 1-1.383 1.579 1.492 1.492 0 0 1 1.383-1.579zm-3.687 2.105a1.593 1.593 0 0 1 0 3.158 1.593 1.593 0 0 1 0-3.158zm-5.07-.526a1.395 1.395 0 1 1 1.383 1.579 1.492 1.492 0 0 1-1.383-1.579zm1.622 5.789h-3.432a3.4 3.4 0 0 1 3.193-3.158 2.911 2.911 0 0 1 1.549.452 2.679 2.679 0 0 0 .574.951 4.343 4.343 0 0 0-1.883 1.755zm6.895 0a4.342 4.342 0 0 0-1.884-1.755 2.679 2.679 0 0 0 .574-.951 2.911 2.911 0 0 1 1.549-.452 3.4 3.4 0 0 1 3.193 3.158h-3.432z" class="cls-2" data-name="Path 2544" transform="translate(-84.949 -279.633)"/>
            <path id="Path_2545" d="M179.527 157.535a.526.526 0 0 0-.526-.526.526.526 0 1 0 .527.526z" class="cls-3" data-name="Path 2545" transform="translate(-173.249 -149.702)"/>
            <path id="Path_2546" d="M139 158.062a.526.526 0 0 0 0-1.053.526.526 0 0 0 0 1.053z" class="cls-3" data-name="Path 2546" transform="translate(-135.106 -149.702)"/>
            <path id="Path_2547" d="M219.528 157.535a.526.526 0 0 0-.526-.526.526.526 0 1 0 .527.526z" class="cls-3" data-name="Path 2547" transform="translate(-211.392 -149.702)"/>
            <path id="Path_2548" d="M82.259 0h-8.393a1.622 1.622 0 0 0-1.517 1.707V4.2h-.619a.5.5 0 0 0-.468.526.5.5 0 0 0 .468.526h4.182a.622.622 0 0 1 .581.654v6.211l-1.163 1.305v-1.09a.5.5 0 0 0-.468-.526h-7.344a.622.622 0 0 1-.581-.654V5.9a.622.622 0 0 1 .581-.654h.47a.5.5 0 0 0 .468-.526.5.5 0 0 0-.468-.526h-.47A1.622 1.622 0 0 0 66 5.9v5.248a1.622 1.622 0 0 0 1.517 1.707h6.877v1.835a.531.531 0 0 0 .289.486.423.423 0 0 0 .179.04.443.443 0 0 0 .331-.154l2.1-2.361a.562.562 0 0 0 .137-.372V8.662h3.314V10.5a.531.531 0 0 0 .289.486.423.423 0 0 0 .179.04.443.443 0 0 0 .331-.154l2.1-2.361a.562.562 0 0 0 .137-.372V1.707A1.622 1.622 0 0 0 82.259 0zm.581 7.918l-1.162 1.308v-1.09a.5.5 0 0 0-.468-.526h-3.781V5.9a1.622 1.622 0 0 0-1.517-1.7h-2.628V1.707a.622.622 0 0 1 .581-.654h8.394a.622.622 0 0 1 .581.654z" class="cls-2" data-name="Path 2548" transform="translate(-66.001)"/>
            <path id="Path_2549" d="M139 80.772a.526.526 0 0 0 0-1.053.526.526 0 0 0 0 1.053z" class="cls-3" data-name="Path 2549" transform="translate(-135.106 -75.86)"/>
            <path id="Path_2550" d="M246.527 492a.526.526 0 1 0 .527.526.526.526 0 0 0-.527-.526z" class="cls-3" data-name="Path 2550" transform="translate(-237.64 -469.105)"/>
        </g>
    </g>
</svg>
