<svg xmlns="http://www.w3.org/2000/svg" width="24" height="19.219" viewBox="0 0 24 19.219">
    <defs>
        <style>
            .cls-1{fill:#1b84e7}
        </style>
    </defs>
    <g id="master_icon" data-name="master icon" transform="translate(0 -51)">
        <g id="Group_1032" data-name="Group 1032" transform="translate(0 51)">
            <g id="Group_1031" data-name="Group 1031">
                <path id="Path_2890" d="M272.262 112.523h2.538a.762.762 0 0 0 0-1.523h-2.539a.762.762 0 0 0 0 1.523z" class="cls-1" data-name="Path 2890" transform="translate(-258.97 -108.085)"/>
                <path id="Path_2891" d="M23.3 51H.7a.7.7 0 0 0-.7.7v17.816a.7.7 0 0 0 .7.7h22.6a.7.7 0 0 0 .7-.7V51.7a.7.7 0 0 0-.7-.7zM1.406 52.406H5.2v1.406H1.4zm1.875 16.407H1.406v-8.438h1.875zm0-9.844H1.406v-.937h1.875zm6.437 9.844h-5.03v-8.438h5.031v8.438zm0-9.844h-5.03v-.937h5.031v.938zm6.438 9.844h-5.031v-8.438h5.031zm0-9.844h-5.031v-.937h5.031zm6.437 9.844h-5.03v-8.438h5.031zm0-9.844h-5.03v-.937h5.031zm0-2.344H1.406v-1.406h4.5a.7.7 0 0 0 .7-.7v-2.113h15.988z" class="cls-1" data-name="Path 2891" transform="translate(0 -51)"/>
                <path id="Path_2892" d="M382.762 112.523h2.538a.762.762 0 0 0 0-1.523h-2.539a.762.762 0 0 0 0 1.523z" class="cls-1" data-name="Path 2892" transform="translate(-364.602 -108.085)"/>
                <path id="Path_2893" d="M161.762 112.523h2.538a.762.762 0 0 0 0-1.523h-2.539a.762.762 0 0 0 0 1.523z" class="cls-1" data-name="Path 2893" transform="translate(-153.57 -108.085)"/>
            </g>
        </g>
    </g>
</svg>
