<svg xmlns="http://www.w3.org/2000/svg" width="40" height="40" viewBox="0 0 40 40">
    <defs>
        <style>
            .cls-1,.cls-3,.cls-4{fill:#dc3545}.cls-1{opacity:.1}.cls-2,.cls-6{fill:none}.cls-2,.cls-3,.cls-4{stroke:#dc3545}.cls-2{opacity:.5}.cls-3{stroke-width:.1px}.cls-4{stroke-width:.2px}.cls-5{stroke:none}
        </style>
    </defs>
    <g id="material_request" data-name="material request" transform="translate(-656 -134)">
        <g id="Group_747" data-name="Group 747" transform="translate(656 134)">
            <circle id="Ellipse_221" cx="20" cy="20" r="20" class="cls-1" data-name="Ellipse 221"/>
            <g id="Ellipse_222" class="cls-2" data-name="Ellipse 222">
                <circle cx="20" cy="20" r="20" class="cls-5"/>
                <circle cx="20" cy="20" r="19.5" class="cls-6"/>
            </g>
        </g>
        <g id="to-do-list" transform="translate(669.561 145.952)">
            <path id="Path_2850" d="M11.467 1.6H11.2v-.267A1.335 1.335 0 0 0 9.867 0H1.333A1.335 1.335 0 0 0 0 1.333v11.734A1.335 1.335 0 0 0 1.333 14.4H1.6v.267A1.335 1.335 0 0 0 2.933 16h8.533a1.335 1.335 0 0 0 1.334-1.333V2.933A1.335 1.335 0 0 0 11.467 1.6zM9.067.533v1.223l-.345-.345a.267.267 0 0 0-.377 0L8 1.756V.533zM.533 13.067V1.333a.8.8 0 0 1 .8-.8h6.134V2.4a.267.267 0 0 0 .455.189l.611-.611.611.611A.267.267 0 0 0 9.6 2.4V.533h.267a.8.8 0 0 1 .8.8v11.734a.8.8 0 0 1-.8.8H1.333a.8.8 0 0 1-.8-.8zm11.733 1.6a.8.8 0 0 1-.8.8H2.933a.8.8 0 0 1-.8-.8V14.4h7.734a1.335 1.335 0 0 0 1.333-1.333V2.133h.267a.8.8 0 0 1 .8.8zm0 0" class="cls-3" data-name="Path 2850"/>
            <path id="Path_2851" d="M50.664 66.709a.268.268 0 0 0-.25-.176h-2.146A.268.268 0 0 0 48 66.8v2.146a.268.268 0 0 0 .268.268h2.146a.268.268 0 0 0 .268-.268v-1.5l.726-.726-.379-.379zm-.518 1.97h-1.61V67.07h1.61v.157l-.537.537-.347-.347-.379.379.537.537a.268.268 0 0 0 .379 0l.347-.347zm0 0" class="cls-4" data-name="Path 2851" transform="translate(-46.39 -64.119)"/>
            <path id="Path_2852" d="M51.03 178.344l-.365.365a.268.268 0 0 0-.25-.176h-2.146a.268.268 0 0 0-.269.267v2.146a.268.268 0 0 0 .268.268h2.146a.268.268 0 0 0 .268-.268v-1.5l.726-.726zm-.883 2.336h-1.61v-1.61h1.61v.157l-.537.536-.347-.347-.379.379.537.537a.268.268 0 0 0 .379 0l.347-.347zm0 0" class="cls-4" data-name="Path 2852" transform="translate(-46.391 -172.407)"/>
            <path id="Path_2853" d="M50.414 288h-2.146a.268.268 0 0 0-.268.268v2.146a.268.268 0 0 0 .268.268h2.146a.268.268 0 0 0 .268-.268v-2.146a.268.268 0 0 0-.268-.268zm-.268 2.146h-1.61v-1.61h1.61zm0 0" class="cls-4" data-name="Path 2853" transform="translate(-46.39 -278.411)"/>
            <path id="Path_2854" d="M160 120h2.683v.537H160zm0 0" class="cls-4" data-name="Path 2854" transform="translate(-154.675 -116.001)"/>
            <path id="Path_2855" d="M160 88h1.61v.537H160zm0 0" class="cls-4" data-name="Path 2855" transform="translate(-154.671 -85.067)"/>
            <path id="Path_2856" d="M160 232h2.683v.537H160zm0 0" class="cls-4" data-name="Path 2856" transform="translate(-154.675 -224.268)"/>
            <path id="Path_2857" d="M160 200h1.61v.537H160zm0 0" class="cls-4" data-name="Path 2857" transform="translate(-154.671 -193.335)"/>
            <path id="Path_2858" d="M160 336h2.683v.536H160zm0 0" class="cls-4" data-name="Path 2858" transform="translate(-154.675 -324.802)"/>
            <path id="Path_2859" d="M160 304h1.61v.537H160zm0 0" class="cls-4" data-name="Path 2859" transform="translate(-154.671 -293.869)"/>
            <path id="Path_2860" d="M224 304h.537v.537H224zm0 0" class="cls-4" data-name="Path 2860" transform="translate(-216.535 -293.869)"/>
        </g>
    </g>
</svg>
