<svg xmlns="http://www.w3.org/2000/svg" id="medicine_2_" width="13" height="20" viewBox="0 0 13 20">
    <defs>
        <style>
            .cls-1{fill:#1b84e7}
        </style>
    </defs>
    <g id="Group_2677">
        <g id="Group_2676">
            <path id="Path_4437" d="M83.309 5.716V4.658a2 2 0 0 0 1.878-1.99v-.683A2 2 0 0 0 83.174 0h-7.22a1.977 1.977 0 0 0-1.989 1.976v.692a1.982 1.982 0 0 0 1.83 1.99v1.058a3.016 3.016 0 0 0-2.745 3V17a3 3 0 0 0 3 3h6.994a3 3 0 0 0 3.006-2.99v-8.3a3.008 3.008 0 0 0-2.741-2.994zM82.635.961h.539a1.037 1.037 0 0 1 1.05 1.024v.683a1.049 1.049 0 0 1-1.05 1.032h-.539zm-2.5 0h1.541V3.7H80.13zm-2.553 0h1.589V3.7h-1.593zm-.819 3.7h5.587v1.06h-5.591zm-1.83-1.986v-.69A1.021 1.021 0 0 1 75.945.961h.669V3.7h-.66a1.026 1.026 0 0 1-1.026-1.023zm10.158 14.363a2.052 2.052 0 0 1-2.052 2.048h-6.974a2.052 2.052 0 0 1-2.052-2.048V8.73a2.052 2.052 0 0 1 2.052-2.048h6.975a2.052 2.052 0 0 1 2.051 2.048z" class="cls-1" transform="translate(-73.05)"/>
        </g>
    </g>
    <g id="Group_2679" transform="translate(4.101 10.465)">
        <g id="Group_2678">
            <path id="Path_4438" d="M161.877 218.807h-1.45v-1.431a.475.475 0 0 0-.951 0v1.431h-1.45a.475.475 0 0 0 0 .951h1.45v1.469a.475.475 0 1 0 .951 0v-1.469h1.45a.475.475 0 0 0 0-.951z" class="cls-1" transform="translate(-157.55 -216.9)"/>
        </g>
    </g>
    <g id="Group_2681" transform="translate(2.275 8.684)">
        <g id="Group_2680">
            <path id="Path_4439" d="M123.377 178a4.227 4.227 0 1 0 4.227 4.227 4.227 4.227 0 0 0-4.227-4.227zm0 7.5a3.276 3.276 0 1 1 3.276-3.276 3.276 3.276 0 0 1-3.276 3.276z" class="cls-1" transform="translate(-119.15 -178)"/>
        </g>
    </g>
</svg>
