<svg xmlns="http://www.w3.org/2000/svg" id="menu" width="20" height="20" viewBox="0 0 20 20">
    <defs>
        <style>
            .cls-1{fill:#6c757d}
        </style>
    </defs>
    <g id="Group_991" data-name="Group 991">
        <g id="Group_990" data-name="Group 990">
            <path id="Rectangle_1162" d="M0 0h5.278v5.278H0z" class="cls-1" data-name="Rectangle 1162" transform="translate(7.361 7.361)"/>
            <path id="Rectangle_1163" d="M0 0h5.278v5.278H0z" class="cls-1" data-name="Rectangle 1163"/>
            <path id="Rectangle_1164" d="M0 0h5.278v5.278H0z" class="cls-1" data-name="Rectangle 1164" transform="translate(7.361 14.722)"/>
            <path id="Rectangle_1165" d="M0 0h5.278v5.278H0z" class="cls-1" data-name="Rectangle 1165" transform="translate(0 7.361)"/>
            <path id="Rectangle_1166" d="M0 0h5.278v5.278H0z" class="cls-1" data-name="Rectangle 1166" transform="translate(0 14.722)"/>
            <path id="Rectangle_1167" d="M0 0h5.278v5.278H0z" class="cls-1" data-name="Rectangle 1167" transform="translate(14.722)"/>
            <path id="Rectangle_1168" d="M0 0h5.278v5.278H0z" class="cls-1" data-name="Rectangle 1168" transform="translate(7.361)"/>
            <path id="Rectangle_1169" d="M0 0h5.278v5.278H0z" class="cls-1" data-name="Rectangle 1169" transform="translate(14.722 7.361)"/>
            <path id="Rectangle_1170" d="M0 0h5.278v5.278H0z" class="cls-1" data-name="Rectangle 1170" transform="translate(14.722 14.722)"/>
        </g>
    </g>
</svg>
