<svg xmlns="http://www.w3.org/2000/svg" width="14.219" height="14.202" viewBox="0 0 14.219 14.202">
    <defs>
        <style>
            .cls-1{fill:#fff;stroke:#fff;stroke-width:.2px}
        </style>
    </defs>
    <g id="phone-call" transform="translate(-1.883 .102)">
        <path id="Path_3369" d="M13.991 11.522a1.074 1.074 0 0 0-.533-.8L10 8.738a1.084 1.084 0 0 0-1.3.173l-.68.68a.5.5 0 0 1-.666.037 19.663 19.663 0 0 1-1.57-1.411 19.669 19.669 0 0 1-1.412-1.57.5.5 0 0 1 .037-.666l.68-.68A1.084 1.084 0 0 0 5.262 4L3.274.542a1.082 1.082 0 0 0-1.7-.225L.546 1.342c-.716.715-.727 2.024-.033 3.685a16.275 16.275 0 0 0 3.509 4.95 16.274 16.274 0 0 0 4.95 3.509 5.773 5.773 0 0 0 2.169.514 2.068 2.068 0 0 0 1.517-.545l1.025-1.025a1.074 1.074 0 0 0 .308-.908zM9.778 9.131l3.454 1.989a.628.628 0 0 1 .192.918l-4.59-2.62.186-.186a.63.63 0 0 1 .758-.1zM2.418.459a.624.624 0 0 1 .462.309l1.989 3.454a.629.629 0 0 1-.1.758l-.169.171L1.964.576a.621.621 0 0 1 .37-.123.64.64 0 0 1 .084.006zm9.919 12.675c-.568.568-1.731.545-3.189-.065a15.817 15.817 0 0 1-4.8-3.412 15.817 15.817 0 0 1-3.412-4.8C.322 3.393.3 2.231.867 1.663L1.628.9l2.638 4.583-.177.177a.952.952 0 0 0-.07 1.271 20.122 20.122 0 0 0 1.444 1.606 20.133 20.133 0 0 0 1.606 1.445.951.951 0 0 0 1.271-.07l.16-.162 4.6 2.623z" class="cls-1" data-name="Path 3369" transform="translate(2)"/>
    </g>
</svg>
