<svg xmlns="http://www.w3.org/2000/svg" width="16.463" height="16.463" viewBox="0 0 16.463 16.463">
    <defs>
        <style>
            .cls-1{fill:#1b84e7}
        </style>
    </defs>
    <path id="Path_3290" d="M12.348.74a2.407 2.407 0 0 0-.692 1.953L6.814 6.787H.483A.482.482 0 0 0 0 7.269c0 3.221 1.531 6.231 4.57 7.073a2.4 2.4 0 0 0-.678 1.674.482.482 0 0 0 .482.482h5.788a.482.482 0 0 0 .482-.482 2.4 2.4 0 0 0-.679-1.675c3.061-.849 4.537-3.893 4.537-7.072a.482.482 0 0 0-.482-.482h-1.882L13.8 4.843A2.411 2.411 0 1 0 12.348.74zM9.6 15.533H4.939a1.449 1.449 0 0 1 1.361-.964h1.933a1.449 1.449 0 0 1 1.364.965zM8.233 13.6H6.3c-3.5 0-5.164-2.866-5.325-5.853h12.551c-.16 2.987-1.815 5.853-5.293 5.853zm2.635-6.817h-2.56l3.674-3.106a2.412 2.412 0 0 0 .832.834zm4.209-3.318a1.447 1.447 0 1 1 0-2.046 1.449 1.449 0 0 1-.001 2.05zm0 0" class="cls-1" data-name="Path 3290" transform="translate(-.001 -.035)"/>
</svg>
