<svg xmlns="http://www.w3.org/2000/svg" width="14" height="16" viewBox="0 0 14 16">
    <defs>
        <style>
            .cls-1{fill:#6c757d}
        </style>
    </defs>
    <g id="password" transform="translate(-32)">
        <g id="Group_783" data-name="Group 783" transform="translate(32)">
            <g id="Group_782" data-name="Group 782">
                <circle id="Ellipse_231" cx=".62" cy=".62" r=".62" class="cls-1" data-name="Ellipse 231" transform="translate(9.946 10.195)"/>
                <path id="Path_2587" d="M45.375 11.313a.625.625 0 0 0 .625-.625V8.375a2.5 2.5 0 0 0-2.5-2.5h-.751v-2.2a3.751 3.751 0 0 0-7.5 0v2.2H34.5a2.5 2.5 0 0 0-2.5 2.5V13.5a2.5 2.5 0 0 0 2.5 2.5h9a2.5 2.5 0 0 0 2.5-2.5.625.625 0 1 0-1.25 0 1.251 1.251 0 0 1-1.25 1.25h-9a1.251 1.251 0 0 1-1.25-1.25V8.375a1.251 1.251 0 0 1 1.25-1.25h9a1.251 1.251 0 0 1 1.25 1.25v2.313a.625.625 0 0 0 .625.625zM41.5 5.875h-5v-2.2a2.5 2.5 0 0 1 5 0z" class="cls-1" data-name="Path 2587" transform="translate(-32)"/>
                <circle id="Ellipse_232" cx=".62" cy=".62" r=".62" class="cls-1" data-name="Ellipse 232" transform="translate(5.223 10.195)"/>
                <circle id="Ellipse_233" cx=".62" cy=".62" r=".62" class="cls-1" data-name="Ellipse 233" transform="translate(2.877 10.195)"/>
                <circle id="Ellipse_234" cx=".62" cy=".62" r=".62" class="cls-1" data-name="Ellipse 234" transform="translate(7.569 10.195)"/>
            </g>
        </g>
    </g>
</svg>
