<svg xmlns="http://www.w3.org/2000/svg" width="13" height="15.479" viewBox="0 0 13 15.479">
    <defs>
        <style>
            .cls-1{fill:#343a40}
        </style>
    </defs>
    <g id="pin_1_" data-name="pin (1)" transform="translate(-41)">
        <g id="Group_1607" data-name="Group 1607" transform="translate(41)">
            <g id="Group_1606" data-name="Group 1606">
                <path id="Path_3354" d="M165.219 84.647a.6.6 0 1 0-.161-1.2 1.659 1.659 0 0 1-.221.015 1.629 1.629 0 1 1 1.629-1.629 1.651 1.651 0 0 1-.021.265.6.6 0 0 0 1.191.194 2.834 2.834 0 1 0-2.417 2.352z" class="cls-1" data-name="Path 3354" transform="translate(-158.336 -76.609)"/>
                <path id="Path_3355" d="M53.025 376.618a7.342 7.342 0 0 0-1.9-.61.6.6 0 1 0-.241 1.183 4.123 4.123 0 0 1 1.873.691 3.3 3.3 0 0 1-1.512.627 18.481 18.481 0 0 1-7.493 0 3.3 3.3 0 0 1-1.512-.627 4.123 4.123 0 0 1 1.873-.691.6.6 0 1 0-.241-1.183 7.343 7.343 0 0 0-1.9.61c-.647.339-.975.764-.975 1.265 0 .749.731 1.328 2.171 1.723a17.126 17.126 0 0 0 4.329.494 17.126 17.126 0 0 0 4.329-.494c1.441-.394 2.171-.974 2.171-1.723.003-.5-.325-.926-.972-1.265z" class="cls-1" data-name="Path 3355" transform="translate(-41 -364.621)"/>
                <path id="Path_3356" d="M87.721 13.223a.594.594 0 0 0 1.023 0 16.892 16.892 0 0 1 1.975-2.473c1.364-1.5 2.775-3.06 2.777-5.37a5.413 5.413 0 0 0-1.549-3.818 5.177 5.177 0 0 0-7.414 0A5.436 5.436 0 0 0 83 5.381c0 2.312 1.406 3.871 2.763 5.378a17.083 17.083 0 0 1 1.958 2.464zm.511-11.972a4.1 4.1 0 0 1 4.054 4.129c0 1.814-1.136 3.065-2.449 4.513a23.6 23.6 0 0 0-1.6 1.9 23.869 23.869 0 0 0-1.584-1.888C85.341 8.454 84.212 7.2 84.21 5.381a4.037 4.037 0 0 1 4.023-4.13z" class="cls-1" data-name="Path 3356" transform="translate(-81.733)"/>
            </g>
        </g>
    </g>
</svg>
