<svg xmlns="http://www.w3.org/2000/svg" width="40" height="40" viewBox="0 0 40 40">
    <defs>
        <style>
            .cls-1,.cls-3{fill:#f27510}.cls-1{opacity:.1}.cls-2,.cls-5{fill:none}.cls-2{stroke:#f27510;opacity:.51}.cls-4{stroke:none}
        </style>
    </defs>
    <g id="Pending" transform="translate(-108 -118)">
        <circle id="Ellipse_353" cx="20" cy="20" r="20" class="cls-1" data-name="Ellipse 353" transform="translate(108 118)"/>
        <g id="Ellipse_352" class="cls-2" data-name="Ellipse 352" transform="translate(108 118)">
            <circle cx="20" cy="20" r="20" class="cls-4"/>
            <circle cx="20" cy="20" r="19.5" class="cls-5"/>
        </g>
        <g id="Group_1263" data-name="Group 1263" transform="translate(-511.59 44.971)">
            <path id="Path_2593" d="M235.164 173.005c-.891 0-1.586.481-1.586 1.335 0 2.6.3 6.346.3 8.95 0 .678.587.963 1.282.963.521 0 1.26-.284 1.26-.963 0-2.6.3-6.346.3-8.95a1.4 1.4 0 0 0-1.556-1.335z" class="cls-3" data-name="Path 2593" transform="translate(404.319 -87.976)"/>
            <path id="Path_2594" d="M234.324 353.306a1.685 1.685 0 0 0 0 3.37 1.685 1.685 0 0 0 0-3.37z" class="cls-3" data-name="Path 2594" transform="translate(405.182 -255.647)"/>
        </g>
    </g>
</svg>
