<svg xmlns="http://www.w3.org/2000/svg" width="206.001" height="224" viewBox="0 0 206.001 224">
    <path fill="#e9e7ee" d="M8511.731 7564.6c-.4-22.012 0-77.628 0-77.628s1.563-18.625 17.241-28.395 66.623-38.295 66.623-38.295 12.534-8.6 31.345-3.125 70.544 39.467 70.544 39.467 17.245 10.29 19.2 30.347 0 79.451 0 79.451a41.769 41.769 0 0 1-13.326 26.964c-12.931 12.113-66.228 39.074-66.228 39.074a41.278 41.278 0 0 1-42.318 1.956c-23.521-12.115-65.843-38.294-65.843-38.294a37.757 37.757 0 0 1-17.238-31.522z" opacity="0.5" transform="translate(-8511.556 -7415.337)"/>
</svg>
