<svg xmlns="http://www.w3.org/2000/svg" width="60" height="44" viewBox="0 0 60 44">
    <defs>
        <style>
            .prefix__cls-2{fill:#707070}
        </style>
    </defs>
    <g id="prefix__picture" transform="translate(0 -68.267)" style="opacity:.5">
        <g id="prefix__Group_2594" data-name="Group 2594" transform="translate(0 68.267)">
            <g id="prefix__Group_2593" data-name="Group 2593">
                <path id="prefix__Path_4425" d="M53.571 68.267H6.429A6.516 6.516 0 0 0 0 74.867v30.8a6.516 6.516 0 0 0 6.429 6.6h47.142a6.516 6.516 0 0 0 6.429-6.6v-30.8a6.516 6.516 0 0 0-6.429-6.6zm2.143 25.489L42.229 79.912a2.1 2.1 0 0 0-3.03 0l-17.77 18.244-7.056-7.245a2.1 2.1 0 0 0-3.03 0l-7.057 7.245V74.867a2.172 2.172 0 0 1 2.143-2.2h47.142a2.172 2.172 0 0 1 2.143 2.2v18.889z" class="prefix__cls-2" data-name="Path 4425" transform="translate(0 -68.267)"/>
            </g>
        </g>
        <g id="prefix__Group_2596" data-name="Group 2596" transform="translate(12.822 77.128)">
            <g id="prefix__Group_2595" data-name="Group 2595">
                <circle id="prefix__Ellipse_256" cx="6.494" cy="6.494" r="6.494" class="prefix__cls-2" data-name="Ellipse 256"/>
            </g>
        </g>
    </g>
</svg>
