<svg xmlns="http://www.w3.org/2000/svg" width="40.6" height="40.6" viewBox="0 0 40.6 40.6">
    <defs>
        <style>
            .prefix__cls-1{fill:#6c757d;stroke:#fff;stroke-width:.6px}
        </style>
    </defs>
    <g id="prefix__plus_2_" data-name="plus (2)" transform="translate(.3 .3)">
        <path id="prefix__Path_3375" d="M20 0a20 20 0 1 0 20 20A20.023 20.023 0 0 0 20 0zm0 38.462A18.462 18.462 0 1 1 38.462 20 18.483 18.483 0 0 1 20 38.462z" class="prefix__cls-1" data-name="Path 3375"/>
        <path id="prefix__Path_3376" d="M32.017 22.472h-8.633v-8.683a.752.752 0 1 0-1.5 0v8.682h-8.633a.79.79 0 0 0 0 1.579h8.632v9.472a.752.752 0 1 0 1.5 0V24.05h8.632a.79.79 0 0 0 0-1.579z" class="prefix__cls-1" data-name="Path 3376" transform="translate(-2.634 -3.282)"/>
    </g>
</svg>
