<svg xmlns="http://www.w3.org/2000/svg" width="15.471" height="15.471" viewBox="0 0 15.471 15.471">
    <defs>
        <clipPath id="clip-path">
            <path id="Rectangle_2754" fill="#fff" stroke="#707070" d="M0 0H15.471V15.471H0z" data-name="Rectangle 2754"/>
        </clipPath>
        <style>
            .cls-3{fill:#1b84e7}
        </style>
    </defs>
    <g id="Mask_Group_118" clip-path="url(#clip-path)" data-name="Mask Group 118">
        <g id="calendar">
            <g id="Group_1999" data-name="Group 1999">
                <g id="Group_1998" data-name="Group 1998">
                    <circle id="Ellipse_1288" cx=".604" cy=".604" r=".604" class="cls-3" data-name="Ellipse 1288" transform="translate(11.06 5.741)"/>
                    <path id="Path_4420" d="M13.054 1.209h-.786V.6a.6.6 0 1 0-1.208 0v.6H8.31V.6A.6.6 0 0 0 7.1.6v.6H4.382V.6a.6.6 0 0 0-1.209 0v.6h-.756A2.42 2.42 0 0 0 0 3.626v9.428a2.42 2.42 0 0 0 2.417 2.417h4.624a.6.6 0 1 0 0-1.209H2.417a1.21 1.21 0 0 1-1.209-1.209V3.626a1.21 1.21 0 0 1 1.209-1.209h.755v.6a.6.6 0 1 0 1.209 0v-.6H7.1v.6a.6.6 0 1 0 1.209 0v-.6h2.75v.6a.6.6 0 1 0 1.209 0v-.6h.786a1.21 1.21 0 0 1 1.209 1.209v3.445a.6.6 0 0 0 1.209 0V3.626a2.42 2.42 0 0 0-2.418-2.417z" class="cls-3" data-name="Path 4420"/>
                    <path id="Path_4421" d="M14.2 10.547a3.656 3.656 0 1 0 3.66 3.653 3.66 3.66 0 0 0-3.66-3.653zm0 6.1a2.448 2.448 0 1 1 2.451-2.447 2.45 2.45 0 0 1-2.451 2.451z" class="cls-3" data-name="Path 4421" transform="translate(-2.388 -2.388)"/>
                    <path id="Path_4422" d="M15.973 14.13H15.7v-.635a.6.6 0 1 0-1.209 0v1.239a.6.6 0 0 0 .6.6h.876a.6.6 0 1 0 0-1.209z" class="cls-3" data-name="Path 4422" transform="translate(-3.281 -2.919)"/>
                    <circle id="Ellipse_1289" cx=".604" cy=".604" r=".604" class="cls-3" data-name="Ellipse 1289" transform="translate(8.431 5.741)"/>
                    <circle id="Ellipse_1290" cx=".604" cy=".604" r=".604" class="cls-3" data-name="Ellipse 1290" transform="translate(5.802 8.37)"/>
                    <circle id="Ellipse_1291" cx=".604" cy=".604" r=".604" class="cls-3" data-name="Ellipse 1291" transform="translate(3.173 5.741)"/>
                    <circle id="Ellipse_1292" cx=".604" cy=".604" r=".604" class="cls-3" data-name="Ellipse 1292" transform="translate(3.173 8.37)"/>
                    <circle id="Ellipse_1293" cx=".604" cy=".604" r=".604" class="cls-3" data-name="Ellipse 1293" transform="translate(3.173 10.999)"/>
                    <circle id="Ellipse_1294" cx=".604" cy=".604" r=".604" class="cls-3" data-name="Ellipse 1294" transform="translate(5.802 10.999)"/>
                    <circle id="Ellipse_1295" cx=".604" cy=".604" r=".604" class="cls-3" data-name="Ellipse 1295" transform="translate(5.802 5.741)"/>
                </g>
            </g>
        </g>
    </g>
</svg>
