<svg xmlns="http://www.w3.org/2000/svg" width="32.498" height="32.499" viewBox="0 0 32.498 32.499">
    <defs>
        <style>
            .cls-1{opacity:.8}.cls-2{fill:#343a40;stroke:#343a40;stroke-width:.5px}
        </style>
    </defs>
    <g id="rainy" class="cls-1" transform="translate(.249 .25)">
        <path id="Path_3008" d="M144.416 372.312a.625.625 0 0 0-1.082 0l-1.083 1.875a1.875 1.875 0 1 0 3.248 0zm-.541 3.437a.626.626 0 0 1-.625-.625.615.615 0 0 1 .083-.312l.542-.938.542.939a.614.614 0 0 1 .083.311.626.626 0 0 1-.625.626zm0 0" class="cls-2" data-name="Path 3008" transform="translate(-133.125 -348.751)"/>
        <path id="Path_3009" d="M262 375.125a1.875 1.875 0 1 0 3.5-.937l-1.083-1.875a.625.625 0 0 0-1.082 0l-1.083 1.875a1.875 1.875 0 0 0-.252.937zm1.333-.312l.542-.938.542.939a.613.613 0 0 1 .083.311.625.625 0 1 1-1.25 0 .615.615 0 0 1 .083-.312zm0 0" class="cls-2" data-name="Path 3009" transform="translate(-245.625 -348.751)"/>
        <path id="Path_3010" d="M383.875 377a1.875 1.875 0 0 0 1.624-2.812l-1.083-1.875a.625.625 0 0 0-1.082 0l-1.083 1.875a1.875 1.875 0 0 0 1.624 2.812zm-.542-2.187l.542-.938.542.939a.613.613 0 0 1 .083.311.625.625 0 1 1-1.25 0 .615.615 0 0 1 .083-.312zm0 0" class="cls-2" data-name="Path 3010" transform="translate(-358.125 -348.751)"/>
        <path id="Path_3011" d="M323.875 437a1.875 1.875 0 0 0 1.624-2.812l-1.083-1.875a.625.625 0 0 0-1.082 0l-1.083 1.875a1.875 1.875 0 0 0 1.624 2.812zm-.542-2.187l.542-.938.542.939a.614.614 0 0 1 .083.312.625.625 0 0 1-1.25 0 .615.615 0 0 1 .083-.313zm0 0" class="cls-2" data-name="Path 3011" transform="translate(-301.875 -405.001)"/>
        <path id="Path_3012" d="M205.75 435.125a1.874 1.874 0 0 0-.251-.937l-1.083-1.875a.625.625 0 0 0-1.082 0l-1.083 1.875a1.875 1.875 0 1 0 3.5.937zm-1.875.625a.626.626 0 0 1-.625-.625.615.615 0 0 1 .083-.312l.542-.938.542.939a.614.614 0 0 1 .083.312.626.626 0 0 1-.625.624zm0 0" class="cls-2" data-name="Path 3012" transform="translate(-189.375 -405.001)"/>
        <path id="Path_3013" d="M283.25 332.625a.625.625 0 1 1-.625-.625.625.625 0 0 1 .625.625zm0 0" class="cls-2" data-name="Path 3013" transform="translate(-264.375 -311.251)"/>
        <path id="Path_3014" d="M26.687 11.375a4.943 4.943 0 0 0-.51.027 7.216 7.216 0 0 0-4.4-5.165A7.153 7.153 0 0 0 8.388 3.761a3.207 3.207 0 0 0-.263-.011 4.381 4.381 0 0 0-4.336 3.789 4.375 4.375 0 0 0 .586 8.71h.346A4.377 4.377 0 0 0 8.875 22h6.562a.625.625 0 0 0 0-1.25H8.875a3.125 3.125 0 1 1 0-6.25.625.625 0 0 0 .625-.625 3.128 3.128 0 0 1 3.125-3.125 3.185 3.185 0 0 1 .52.054.625.625 0 0 0 .669-.353A5.905 5.905 0 0 1 25.047 12.2a.625.625 0 0 0 .756.532 4.06 4.06 0 1 1 .884 8.021h-5.625a.625.625 0 0 0 0 1.25h5.625a5.312 5.312 0 1 0 0-10.625zm-13.8-1.864c-.087-.011-.172-.011-.262-.011a4.382 4.382 0 0 0-4.336 3.789A4.346 4.346 0 0 0 5.377 15h-1a3.125 3.125 0 0 1 0-6.25A.625.625 0 0 0 5 8.125 3.128 3.128 0 0 1 8.125 5a3.184 3.184 0 0 1 .52.054.624.624 0 0 0 .669-.354 5.9 5.9 0 0 1 11.128 1.161 7.152 7.152 0 0 0-7.554 3.65zm0 0" class="cls-2" data-name="Path 3014"/>
    </g>
</svg>
