<svg xmlns="http://www.w3.org/2000/svg" id="prefix__cancel" width="115" height="115" viewBox="0 0 115 115">
    <g id="prefix__submit">
        <g id="prefix__Path_2096" data-name="Path 2096" style="opacity:.2;fill:#dc3545">
            <path d="M57.5 114.5c-7.695 0-15.16-1.507-22.187-4.48-3.377-1.428-6.635-3.196-9.682-5.254-3.018-2.04-5.857-4.381-8.436-6.96-2.58-2.58-4.921-5.419-6.96-8.437-2.06-3.047-3.827-6.305-5.256-9.682C2.007 72.66.5 65.195.5 57.5s1.507-15.16 4.48-22.187c1.428-3.377 3.196-6.635 5.254-9.682 2.04-3.018 4.381-5.857 6.96-8.436 2.58-2.58 5.419-4.921 8.437-6.96 3.047-2.06 6.305-3.827 9.682-5.256C42.34 2.007 49.805.5 57.5.5s15.16 1.507 22.187 4.48c3.377 1.428 6.635 3.196 9.682 5.254 3.018 2.04 5.857 4.381 8.436 6.96 2.58 2.58 4.921 5.419 6.96 8.437 2.06 3.047 3.827 6.305 5.256 9.682 2.972 7.027 4.479 14.492 4.479 22.187s-1.507 15.16-4.48 22.187c-1.428 3.377-3.196 6.635-5.254 9.682-2.04 3.018-4.381 5.857-6.96 8.436-2.58 2.58-5.419 4.921-8.437 6.96-3.047 2.06-6.305 3.827-9.682 5.256-7.027 2.972-14.492 4.479-22.187 4.479z" style="stroke:none"/>
            <path d="M57.5 1c-7.628 0-15.027 1.494-21.992 4.44-3.348 1.416-6.577 3.168-9.597 5.209-2.992 2.021-5.806 4.342-8.363 6.9-2.557 2.556-4.878 5.37-6.9 8.362-2.04 3.02-3.792 6.25-5.208 9.597C2.494 42.473 1 49.872 1 57.5s1.494 15.027 4.44 21.992c1.416 3.348 3.168 6.577 5.209 9.597 2.021 2.992 4.342 5.806 6.9 8.363 2.556 2.556 5.37 4.878 8.362 6.9 3.02 2.04 6.25 3.792 9.597 5.208C42.473 112.506 49.872 114 57.5 114s15.027-1.494 21.992-4.44c3.348-1.416 6.577-3.168 9.597-5.209 2.992-2.021 5.806-4.343 8.363-6.9 2.556-2.556 4.878-5.37 6.9-8.362 2.04-3.02 3.792-6.25 5.208-9.597C112.506 72.527 114 65.128 114 57.5s-1.494-15.027-4.44-21.992c-1.416-3.348-3.168-6.577-5.209-9.597-2.021-2.992-4.343-5.806-6.9-8.363-2.556-2.557-5.37-4.878-8.362-6.9-3.02-2.04-6.25-3.792-9.597-5.208C72.527 2.494 65.128 1 57.5 1m0-1C89.256 0 115 25.744 115 57.5S89.256 115 57.5 115 0 89.256 0 57.5 25.744 0 57.5 0z" style="fill:#d1efeb;stroke:none"/>
        </g>
        <path id="prefix__Path_2097" d="M34.007 0A34.007 34.007 0 1 1 0 34.007 34.007 34.007 0 0 1 34.007 0z" data-name="Path 2097" transform="translate(23.859 24.563)" style="fill:#dc3545"/>
    </g>
    <path id="prefix__Path_2576" d="M211.766 314.13l8.541-8.541a1.441 1.441 0 1 0-2.037-2.037l-8.541 8.541-8.541-8.541a1.44 1.44 0 1 0-2.037 2.037l8.541 8.541-8.541 8.541a1.44 1.44 0 1 0 2.037 2.037l8.541-8.541 8.541 8.541a1.441 1.441 0 1 0 2.037-2.037z" data-name="Path 2576" transform="translate(-152.73 -256.129)" style="fill:#fff;stroke:#fff;stroke-width:.8px;opacity:.9"/>
</svg>
