<svg xmlns="http://www.w3.org/2000/svg" width="40" height="40" viewBox="0 0 40 40">
    <defs>
        <style>
            .cls-1,.cls-3{fill:#dc3545}.cls-1{opacity:.1}.cls-2,.cls-5{fill:none}.cls-2{stroke:#dc3545;stroke-width:.5px;opacity:.5}.cls-3{opacity:.9}.cls-4{stroke:none}
        </style>
    </defs>
    <g id="reject" transform="translate(-656 -328)">
        <g id="Group_747" data-name="Group 747" transform="translate(656 328)">
            <circle id="Ellipse_221" cx="20" cy="20" r="20" class="cls-1" data-name="Ellipse 221"/>
            <g id="Ellipse_222" class="cls-2" data-name="Ellipse 222">
                <circle cx="20" cy="20" r="20" class="cls-4"/>
                <circle cx="20" cy="20" r="19.75" class="cls-5"/>
            </g>
        </g>
        <g id="Group_752" data-name="Group 752" transform="translate(668.5 340.5)">
            <path id="Path_2576" d="M208.359 311.255l6.309-6.308a1.064 1.064 0 1 0-1.5-1.5l-6.309 6.309-6.309-6.309a1.064 1.064 0 1 0-1.5 1.5l6.309 6.308-6.309 6.308a1.064 1.064 0 1 0 1.5 1.5l6.309-6.309 6.309 6.309a1.064 1.064 0 0 0 1.5-1.5z" class="cls-3" data-name="Path 2576" transform="translate(-198.729 -303.13)"/>
        </g>
    </g>
</svg>
