<svg xmlns="http://www.w3.org/2000/svg" width="20" height="24" viewBox="0 0 20 24">
    <defs>
        <style>
            .cls-1,.cls-5{fill:none}.cls-1{stroke:#fff;stroke-width:2px}.cls-2,.cls-3{fill:#f49917;stroke:#f49917}.cls-3{stroke-width:.8px}.cls-4{stroke:none}
        </style>
    </defs>
    <g id="reports" transform="translate(-159 -394)">
        <g id="Rectangle_1334" class="cls-1" data-name="Rectangle 1334" transform="translate(159 394)">
            <rect width="20" height="24" class="cls-4" rx="4"/>
            <rect width="18" height="22" x="1" y="1" class="cls-5" rx="3"/>
        </g>
        <g id="analysis_1_" data-name="analysis (1)" transform="translate(152.26 394.954)">
            <g id="Group_1175" data-name="Group 1175" transform="translate(17.044 5.046)">
                <g id="Group_1174" data-name="Group 1174">
                    <path id="Path_3157" d="M268.008 86.806h-1.733a.325.325 0 0 0-.27.145l-.736 1.1a4.8 4.8 0 0 0-2.807-.9.325.325 0 0 0-.325.325v4.506a.325.325 0 0 0 .325.325h4.506a.325.325 0 0 0 .325-.325 4.818 4.818 0 0 0-1.52-3.514l.676-1.013h1.559a.325.325 0 1 0 0-.65zm-1.377 4.853h-3.844v-3.844a4.157 4.157 0 0 1 2.121.78l-.29.435a.325.325 0 1 0 .541.361l.248-.372a4.17 4.17 0 0 1 1.224 2.64z" class="cls-2" data-name="Path 3157" transform="translate(-262.137 -86.806)"/>
                </g>
            </g>
            <g id="Group_1177" data-name="Group 1177" transform="translate(10.24 7.675)">
                <g id="Group_1176" data-name="Group 1176">
                    <path id="Path_3158" d="M137.17 136.025h-2.934l-.517-.829a4.82 4.82 0 0 0 1.353-3.352.325.325 0 0 0-.324-.325h-4.173v-4.181a.325.325 0 0 0-.324-.325 4.831 4.831 0 1 0 2.98 8.627l.551.883a.324.324 0 0 0 .275.153h3.113a.325.325 0 0 0 0-.65zm-4.568-2.62a.325.325 0 1 0-.55.344l.833 1.335a4.177 4.177 0 1 1-2.958-7.41v4.169a.325.325 0 0 0 .324.325h4.16a4.169 4.169 0 0 1-1.048 2.457z" class="cls-3" data-name="Path 3158" transform="translate(-125.43 -127.013)"/>
                </g>
            </g>
        </g>
    </g>
</svg>
