<svg xmlns="http://www.w3.org/2000/svg" width="40" height="40" viewBox="0 0 40 40">
    <defs>
        <style>
            .cls-1,.cls-4,.cls-5{fill:#1515af}.cls-1{opacity:.1}.cls-2,.cls-7{fill:none}.cls-2,.cls-4,.cls-5{stroke:#1515af}.cls-2{opacity:.5}.cls-3{opacity:.8}.cls-4{stroke-width:.3px}.cls-5{stroke-width:.2px;opacity:.9}.cls-6{stroke:none}
        </style>
    </defs>
    <g id="rps" transform="translate(-656 -134)">
        <g id="Group_747" data-name="Group 747" transform="translate(656 134)">
            <circle id="Ellipse_221" cx="20" cy="20" r="20" class="cls-1" data-name="Ellipse 221"/>
            <g id="Ellipse_222" class="cls-2" data-name="Ellipse 222">
                <circle cx="20" cy="20" r="20" class="cls-6"/>
                <circle cx="20" cy="20" r="19.5" class="cls-7"/>
            </g>
        </g>
        <g id="airplane" class="cls-3" transform="translate(667.393 112.286)">
            <g id="Group_1010" data-name="Group 1010" transform="translate(.136 35.714)">
                <path id="Path_2834" d="M17.826 109.973a6.51 6.51 0 0 0-2.944-.709H11.6l-2.947-2.121H6.127l2.08 2.121H6.074l-2.34-2.121H2.195l1.03 2.364-.37.063v.891l.166.121a6.889 6.889 0 0 0 4.08 1.334h.586l-1.9 1.94.266.179a1.587 1.587 0 0 1 .232.191l.076.076h1.517l3.315-2.386h3.624a6.438 6.438 0 0 0 2.593-.543l.381-.166a.686.686 0 0 0 .035-1.234zm-10.444-2.3h1.11l2.21 1.591H8.943zm-4.387 0h.541l1.755 1.591h-.358a3.336 3.336 0 0 0-.556.047l-.623.106zm14.591 3.046l-.381.166a5.925 5.925 0 0 1-2.388.5h-2.888l.436-.314-.3-.433-4.352 3.133H6.6l2.676-2.729-.368-.375-.7.718H7.1a6.378 6.378 0 0 1-3.726-1.2v-.169l1.088-.185a2.826 2.826 0 0 1 .47-.04h9.949a6 6 0 0 1 2.711.653.151.151 0 0 1-.008.272z" class="cls-4" data-name="Path 2834" transform="translate(-2.195 -103.403)"/>
                <path id="Rectangle_1176" d="M0 0h5.303v.53H0z" class="cls-4" data-name="Rectangle 1176" transform="translate(8.576 11.43)"/>
                <path id="Rectangle_1177" d="M0 0h.53v.53H0z" class="cls-4" data-name="Rectangle 1177" transform="translate(7.675 11.43)"/>
                <path id="Rectangle_1178" d="M0 0h4.243v.53H0z" class="cls-4" data-name="Rectangle 1178" transform="translate(2.264)"/>
                <path id="Rectangle_1179" d="M0 0h.53v.53H0z" class="cls-4" data-name="Rectangle 1179" transform="translate(1.204)"/>
                <path id="Rectangle_1180" d="M0 0h3.977v.53H0z" class="cls-4" data-name="Rectangle 1180" transform="translate(1.204 1.326)"/>
                <path id="Rectangle_1181" d="M0 0h.53v.53H0z" class="cls-4" data-name="Rectangle 1181" transform="translate(.143 1.326)"/>
            </g>
        </g>
        <path id="Path_2829" d="M137.382 149.046a.91.91 0 0 1-.91-.91h-.455a1.366 1.366 0 0 0 1.137 1.345v.476h.455v-.476a1.365 1.365 0 0 0-.227-2.71.91.91 0 1 1 .91-.91h.455a1.366 1.366 0 0 0-1.138-1.345v-.476h-.455v.476a1.365 1.365 0 0 0 .228 2.71.91.91 0 0 1 0 1.82z" class="cls-5" data-name="Path 2829" transform="translate(541.896 1.861)"/>
    </g>
</svg>
