<svg xmlns="http://www.w3.org/2000/svg" width="24.522" height="24.4" viewBox="0 0 24.522 24.4">
    <defs>
        <style>
            .cls-1{opacity:.6}.cls-2{fill:#6c757d;stroke:#707070;stroke-width:.4px}
        </style>
    </defs>
    <g id="rub-el-hizb" class="cls-1" transform="translate(.253 .199)">
        <path id="Path_2645" d="M60.466 50.343v-3.5a.7.7 0 0 0-.7-.7h-3.5L53.8 43.676a.7.7 0 0 0-.984 0l-2.474 2.474h-3.5a.7.7 0 0 0-.7.7v3.5l-2.474 2.474a.7.7 0 0 0 0 .984l2.474 2.474v3.5a.7.7 0 0 0 .7.7h3.5l2.474 2.474a.7.7 0 0 0 .984 0l2.474-2.474h3.5a.7.7 0 0 0 .7-.7v-3.5l2.465-2.482a.7.7 0 0 0 0-.984zm2.177 3.16l-2.535 2.535a.21.21 0 0 0-.062.148v.489h-.939a.21.21 0 1 0 0 .42h.939v.84h-4.051a.21.21 0 1 0 0 .42h4.051v1.417a.276.276 0 0 1-.276.276h-3.585a.21.21 0 0 0-.148.062L53.5 62.644a.276.276 0 0 1-.39 0l-2.535-2.535a.21.21 0 0 0-.148-.062h-3.584a.276.276 0 0 1-.276-.276v-1.12h1.943a.21.21 0 0 0 0-.42h-1.943v-2.044a.21.21 0 0 0-.062-.148L43.971 53.5a.276.276 0 0 1 0-.39l.39-.39H47.1a.21.21 0 0 0 0-.42h-2.319l1.725-1.725a.21.21 0 0 0 .062-.148v-.893h5.426a.21.21 0 0 0 0-.42h-5.427v-1.133h2.24a.21.21 0 1 0 0-.42h-2.24v-.716a.276.276 0 0 1 .276-.276h3.585a.21.21 0 0 0 .148-.062l2.535-2.535a.276.276 0 0 1 .39 0l2.535 2.535a.21.21 0 0 0 .148.062h3.586a.276.276 0 0 1 .276.276v1.532h-1.309a.21.21 0 0 0 0 .42h1.309v1.633a.21.21 0 0 0 .062.148l2.535 2.535a.276.276 0 0 1-.001.387z" class="cls-2" data-name="Path 2645" transform="translate(-41.299 -41.308)"/>
        <path id="Path_2646" d="M23.773 11.431l-3.044-3.043v-4.3a.806.806 0 0 0-.8-.8h-4.3L12.577.236a.8.8 0 0 0-1.138 0L8.4 3.279H4.1a.806.806 0 0 0-.8.8v4.3L.243 11.431a.806.806 0 0 0 0 1.138l3.043 3.043v4.3a.806.806 0 0 0 .8.8H8.4l3.043 3.043a.8.8 0 0 0 1.138 0l3.043-3.043h4.3a.806.806 0 0 0 .8-.8v-4.3l3.043-3.043a.806.806 0 0 0 .006-1.138zm-.3.841l-3.1 3.1a.21.21 0 0 0-.062.149v4.391a.385.385 0 0 1-.384.384h-4.394a.21.21 0 0 0-.149.062l-3.1 3.1a.384.384 0 0 1-.544 0l-3.1-3.1a.21.21 0 0 0-.149-.062H4.092a.385.385 0 0 1-.384-.384v-4.386a.21.21 0 0 0-.062-.149l-3.1-3.1a.385.385 0 0 1 0-.544l3.1-3.1a.21.21 0 0 0 .062-.149v-4.4a.385.385 0 0 1 .384-.384h4.391a.21.21 0 0 0 .149-.062l3.1-3.1a.384.384 0 0 1 .544 0l3.1 3.1a.21.21 0 0 0 .149.062h4.391a.385.385 0 0 1 .384.384v4.391a.21.21 0 0 0 .062.149l3.1 3.1a.385.385 0 0 1 .013.548z" class="cls-2" data-name="Path 2646"/>
    </g>
</svg>
