<svg xmlns="http://www.w3.org/2000/svg" width="25" height="27" viewBox="0 0 25 27">
    <defs>
        <style>
            .cls-1,.cls-2,.cls-7{fill:none}.cls-1,.cls-4{stroke:#fff}.cls-1{stroke-width:2px}.cls-2,.cls-5{stroke:#f49917}.cls-3{fill:#fff}.cls-4{fill:#1629b9;stroke-width:1.5px}.cls-5{fill:#f49917;stroke-width:.2px}.cls-6{stroke:none}
        </style>
    </defs>
    <g id="Group_1181" data-name="Group 1181" transform="translate(-27 -689)">
        <g id="Rectangle_1361" class="cls-1" data-name="Rectangle 1361" transform="translate(27 689)">
            <rect width="20" height="24" class="cls-6" rx="4"/>
            <rect width="18" height="22" x="1" y="1" class="cls-7" rx="3"/>
        </g>
        <g id="Rectangle_1362" class="cls-2" data-name="Rectangle 1362" transform="translate(32 695)">
            <path d="M1 0h1.5a1 1 0 0 1 1 1v6H0V1a1 1 0 0 1 1-1z" class="cls-6"/>
            <rect width="2.5" height="6" x=".5" y=".5" class="cls-7" rx=".5"/>
        </g>
        <g id="Rectangle_1363" class="cls-2" data-name="Rectangle 1363" transform="translate(35.262 694.143)">
            <path d="M1 0h1.5a1 1 0 0 1 1 1v6.857H0V1a1 1 0 0 1 1-1z" class="cls-6"/>
            <rect width="2.5" height="6.857" x=".5" y=".5" class="cls-7" rx=".5"/>
        </g>
        <g id="Rectangle_1364" class="cls-2" data-name="Rectangle 1364" transform="translate(38.525 693)">
            <path d="M1 0h1.5a1 1 0 0 1 1 1v8H0V1a1 1 0 0 1 1-1z" class="cls-6"/>
            <rect width="2.5" height="8" x=".5" y=".5" class="cls-7" rx=".5"/>
        </g>
        <path id="Rectangle_1365" d="M1 0h13v2H1a1 1 0 0 1-1-1 1 1 0 0 1 1-1z" class="cls-3" data-name="Rectangle 1365" transform="translate(31 704)"/>
        <path id="Rectangle_1366" d="M1 0h13v2H1a1 1 0 0 1-1-1 1 1 0 0 1 1-1z" class="cls-3" data-name="Rectangle 1366" transform="translate(31 707)"/>
        <g id="Ellipse_364" class="cls-4" data-name="Ellipse 364" transform="translate(40 704)">
            <circle cx="6" cy="6" r="6" class="cls-6"/>
            <circle cx="6" cy="6" r="5.25" class="cls-7"/>
        </g>
        <path id="Path_3181" d="M182.373 97.427a.658.658 0 0 1-.658-.658.317.317 0 1 0-.634 0 1.293 1.293 0 0 0 1 1.258v.306a.317.317 0 1 0 .634 0v-.319a1.291 1.291 0 0 0-.341-2.536.658.658 0 1 1 .658-.658.317.317 0 1 0 .634 0 1.293 1.293 0 0 0-1.056-1.269v-.235a.317.317 0 1 0-.634 0v.276a1.291 1.291 0 0 0 .4 2.52.658.658 0 1 1 0 1.315z" class="cls-5" data-name="Path 3181" transform="translate(-136.582 614)"/>
    </g>
</svg>
