<svg xmlns="http://www.w3.org/2000/svg" width="40" height="40" viewBox="0 0 40 40">
    <defs>
        <style>
            .cls-1,.cls-3{fill:#f27510}.cls-1{opacity:.1}.cls-2,.cls-5{fill:none}.cls-2{stroke:#f27510;opacity:.5}.cls-4{stroke:none}
        </style>
    </defs>
    <g id="secondary_sales" data-name="secondary sales" transform="translate(-656 -134)">
        <g id="Group_747" data-name="Group 747" transform="translate(656 134)">
            <circle id="Ellipse_221" cx="20" cy="20" r="20" class="cls-1" data-name="Ellipse 221"/>
            <g id="Ellipse_222" class="cls-2" data-name="Ellipse 222">
                <circle cx="20" cy="20" r="20" class="cls-4"/>
                <circle cx="20" cy="20" r="19.5" class="cls-5"/>
            </g>
        </g>
        <g id="goal" transform="translate(668 146)">
            <path id="Path_2842" d="M7.254 5.517a.829.829 0 0 0 .828-.828.818.818 0 0 0-.049-.27l1.545-1.235a.817.817 0 0 0 1.007-.106l1.368.684a.876.876 0 0 0-.01.1.828.828 0 0 0 1.655 0 .815.815 0 0 0-.033-.219L15.05 2.6a.817.817 0 0 0 1.1-.128L17.464 3v.033a.828.828 0 0 0 1.655 0 .818.818 0 0 0-.049-.27l1.545-1.236a.826.826 0 1 0-.393-.7.818.818 0 0 0 .049.27l-1.548 1.236a.814.814 0 0 0-1.053.157l-1.316-.526v-.033a.828.828 0 1 0-1.622.219L13.25 3.19a.819.819 0 0 0-1.052.077l-1.368-.684a.876.876 0 0 0 .01-.1.828.828 0 1 0-1.655 0 .818.818 0 0 0 .049.27L7.688 3.988a.826.826 0 1 0-.434 1.529zM21.047.552a.276.276 0 1 1-.276.276.276.276 0 0 1 .276-.276zm-2.759 2.207a.276.276 0 1 1-.276.276.276.276 0 0 1 .276-.276zm-2.759-1.1a.276.276 0 1 1-.276.276.276.276 0 0 1 .276-.28zm-2.758 1.927a.276.276 0 1 1-.276.276.276.276 0 0 1 .276-.276zm-2.759-1.379a.276.276 0 1 1-.276.276.276.276 0 0 1 .276-.276zM7.254 4.414a.276.276 0 1 1-.276.276.276.276 0 0 1 .276-.276zm0 0" class="cls-3" data-name="Path 2842" transform="translate(-6.205)"/>
            <path id="Path_2843" d="M406.426 72h1.655v6.069h-1.655zm0 0" class="cls-3" data-name="Path 2843" transform="translate(-392.411 -69.517)"/>
            <path id="Path_2844" d="M326.426 136h1.655v3.862h-1.655zm0 0" class="cls-3" data-name="Path 2844" transform="translate(-315.17 -131.31)"/>
            <path id="Path_2845" d="M86.426 120h1.655v4.414h-1.655zm0 0" class="cls-3" data-name="Path 2845" transform="translate(-83.446 -115.862)"/>
            <path id="Path_2846" d="M6.426 184h1.655v2.207H6.426zm0 0" class="cls-3" data-name="Path 2846" transform="translate(-6.205 -177.655)"/>
            <path id="Path_2847" d="M13.892 226.529l-.306.459.9.6h-2.444a4.136 4.136 0 0 0-8.234.552c0 .093.008.184.014.276H1.408l.9-.6-.308-.459-2 1.333 2 1.333.306-.459-.9-.6h2.485a4.138 4.138 0 0 0 8.192-.828h2.4l-.9.6.306.459 2-1.333zm-9.532 1.609a3.584 3.584 0 0 1 5.9-2.735l-.357.421a3.033 3.033 0 0 0-4.272 4.276l-.421.357a3.587 3.587 0 0 1-.851-2.317zm3.586-.276a1.1 1.1 0 0 1 .276 2.168v.591H7.67v-.591a1.1 1.1 0 0 1-.828-1.064h.552a.552.552 0 1 0 .552-.552 1.1 1.1 0 0 1-.276-2.168v-.591h.552v.591a1.1 1.1 0 0 1 .828 1.064H8.5a.552.552 0 1 0-.552.552zm0 3.862a3.588 3.588 0 0 1-2.317-.851l.357-.421a3.033 3.033 0 0 0 4.274-4.275l.421-.357a3.584 3.584 0 0 1-2.735 5.9zm0 0" class="cls-3" data-name="Path 2847" transform="translate(0 -216.276)"/>
            <path id="Path_2848" d="M246.426 107.621a4.656 4.656 0 0 1 1.655.517V104h-1.655zm0 0" class="cls-3" data-name="Path 2848" transform="translate(-237.929 -100.413)"/>
            <path id="Path_2849" d="M166.426 162.208a4.654 4.654 0 0 1 1.655-.517V160h-1.655zm0 0" class="cls-3" data-name="Path 2849" transform="translate(-160.688 -154.483)"/>
        </g>
    </g>
</svg>
