<svg xmlns="http://www.w3.org/2000/svg" width="15.171" height="16.302" viewBox="0 0 15.171 16.302">
    <defs>
        <style>
            .cls-1{fill:#343a40;stroke:#343a40;stroke-width:.3px}
        </style>
    </defs>
    <g id="shopping-cart" transform="translate(-17.049 .151)">
        <path id="Path_3227" d="M21.438 10.535h8.816a1.819 1.819 0 0 0 1.815-1.815V4.971a.042.042 0 0 0 0-.02v-.023-.02a.209.209 0 0 1-.007-.023c0-.007 0-.013-.007-.02s0-.013-.007-.02a.16.16 0 0 1-.01-.023.072.072 0 0 0-.01-.016l-.01-.02c0-.007-.007-.01-.01-.016s-.01-.013-.013-.02a.058.058 0 0 0-.013-.016c0-.007-.01-.01-.013-.016s-.01-.01-.013-.016-.01-.01-.013-.013l-.016-.016c-.007 0-.01-.01-.016-.013s-.013-.01-.02-.013l-.016-.01a.069.069 0 0 1-.02-.013l-.02-.01-.02-.01-.02-.01c-.007 0-.013 0-.02-.007a.061.061 0 0 0-.023-.007.142.142 0 0 1-.016 0 .072.072 0 0 0-.026 0h-.013L20.514 3.028V1.469a.2.2 0 0 0 0-.046.025.025 0 0 0 0-.013v-.03c0-.01 0-.016-.007-.026s0-.01 0-.016l-.01-.03v-.013a.1.1 0 0 0-.013-.026s0-.01-.007-.013a.069.069 0 0 0-.013-.02c0-.007-.007-.01-.01-.016l-.01-.016c-.003-.006-.01-.013-.013-.02l-.01-.01-.02-.02-.01-.01a.143.143 0 0 0-.023-.02l-.013-.01c-.007-.007-.013-.01-.02-.016l-.026-.016s-.007 0-.01-.007l-.043-.02-2.439-1.02a.444.444 0 0 0-.345.819l2.151.908v9.727a1.817 1.817 0 0 0 1.582 1.8 1.791 1.791 0 1 0 3.328.921 1.758 1.758 0 0 0-.247-.9h3.992a1.767 1.767 0 0 0-.247.9 1.792 1.792 0 1 0 1.792-1.792h-8.385a.928.928 0 0 1-.927-.927v-1.2a1.836 1.836 0 0 0 .927.244zm2.21 3.67a.9.9 0 1 1-.9-.9.906.906 0 0 1 .9.895zm7.083 0a.9.9 0 1 1-.9-.9.906.906 0 0 1 .9.895zm-.477-4.558h-8.816a.928.928 0 0 1-.927-.927v-4.8l10.671 1.47v3.327a.929.929 0 0 1-.928.93z" class="cls-1" data-name="Path 3227"/>
    </g>
</svg>
