<svg xmlns="http://www.w3.org/2000/svg" width="115" height="115" viewBox="0 0 115 115">
    <defs>
        <style>
            .cls-1{fill:#1caf9a;opacity:.2}.cls-2{fill:#00b7b7}.cls-3{fill:none}.cls-4{fill:#fff}.cls-5,.cls-6{stroke:none}.cls-6{fill:#d1efeb}
        </style>
    </defs>
    <g id="submit" transform="translate(-842.257 -224)">
        <g id="Path_2096" class="cls-1" data-name="Path 2096">
            <path d="M57.5 114.5c-7.695 0-15.16-1.507-22.187-4.48a57.004 57.004 0 0 1-9.682-5.254 57.413 57.413 0 0 1-8.436-6.96 57.413 57.413 0 0 1-6.96-8.437 57.004 57.004 0 0 1-5.256-9.682C2.007 72.66.5 65.195.5 57.5s1.507-15.16 4.48-22.187a57.005 57.005 0 0 1 5.254-9.682 57.413 57.413 0 0 1 6.96-8.436 57.413 57.413 0 0 1 8.437-6.96 57.005 57.005 0 0 1 9.682-5.256C42.34 2.007 49.805.5 57.5.5s15.16 1.507 22.187 4.48a57.004 57.004 0 0 1 9.682 5.254 57.413 57.413 0 0 1 8.436 6.96 57.413 57.413 0 0 1 6.96 8.437 57.004 57.004 0 0 1 5.256 9.682c2.972 7.027 4.479 14.492 4.479 22.187s-1.507 15.16-4.48 22.187a57.003 57.003 0 0 1-5.254 9.682 57.413 57.413 0 0 1-6.96 8.436 57.413 57.413 0 0 1-8.437 6.96 57.003 57.003 0 0 1-9.682 5.256C72.66 112.993 65.195 114.5 57.5 114.5z" class="cls-5" transform="translate(842.257 224)"/>
            <path d="M57.5 1c-7.628 0-15.027 1.494-21.992 4.44a56.502 56.502 0 0 0-9.597 5.209 56.911 56.911 0 0 0-8.363 6.9 56.911 56.911 0 0 0-6.9 8.362 56.502 56.502 0 0 0-5.208 9.597C2.494 42.473 1 49.872 1 57.5s1.494 15.027 4.44 21.992a56.502 56.502 0 0 0 5.209 9.597 56.91 56.91 0 0 0 6.9 8.363 56.911 56.911 0 0 0 8.362 6.9 56.503 56.503 0 0 0 9.597 5.208C42.473 112.506 49.872 114 57.5 114s15.027-1.494 21.992-4.44a56.504 56.504 0 0 0 9.597-5.209 56.91 56.91 0 0 0 8.363-6.9 56.91 56.91 0 0 0 6.9-8.362 56.504 56.504 0 0 0 5.208-9.597C112.506 72.527 114 65.128 114 57.5s-1.494-15.027-4.44-21.992a56.503 56.503 0 0 0-5.209-9.597 56.911 56.911 0 0 0-6.9-8.363 56.91 56.91 0 0 0-8.362-6.9 56.502 56.502 0 0 0-9.597-5.208C72.527 2.494 65.128 1 57.5 1m0-1C89.256 0 115 25.744 115 57.5S89.256 115 57.5 115 0 89.256 0 57.5 25.744 0 57.5 0z" class="cls-6" transform="translate(842.257 224)"/>
        </g>
        <path id="Path_2097" d="M34.007 0A34.007 34.007 0 1 1 0 34.007 34.007 34.007 0 0 1 34.007 0z" class="cls-2" data-name="Path 2097" transform="translate(866.116 248.563)"/>
        <g id="round-done-24px" transform="translate(880.886 264.579)">
            <path id="Path_2098" d="M0 0h36.927v36.927H0z" class="cls-3" data-name="Path 2098"/>
            <path id="Path_2099" d="M11.8 21.69L6.412 16.3a1.523 1.523 0 0 0-2.154 2.154l6.442 6.452a1.532 1.532 0 0 0 2.169 0L29.183 8.612a1.523 1.523 0 0 0-2.154-2.154z" class="cls-4" data-name="Path 2099" transform="translate(2.051 3.236)"/>
        </g>
    </g>
</svg>
