<svg xmlns="http://www.w3.org/2000/svg" width="15" height="15" viewBox="0 0 15 15">
    <defs>
        <style>
            .cls-1{fill:#fff;stroke:#707070}.cls-2{clip-path:url(#clip-path)}.cls-3{fill:#1b84e7}
        </style>
        <clipPath id="clip-path">
            <path id="Rectangle_656" d="M0 0h15v15H0z" class="cls-1" data-name="Rectangle 656"/>
        </clipPath>
    </defs>
    <g id="Mask_Group_93" class="cls-2" data-name="Mask Group 93">
        <g id="calendar">
            <g id="Group_646" data-name="Group 646">
                <g id="Group_645" data-name="Group 645">
                    <circle id="Ellipse_160" cx=".586" cy=".586" r=".586" class="cls-3" data-name="Ellipse 160" transform="translate(10.723 5.566)"/>
                    <path id="Path_2455" d="M12.656 1.172h-.762V.586a.586.586 0 1 0-1.172 0v.586H8.057V.586a.586.586 0 0 0-1.172 0v.586H4.248V.586a.586.586 0 0 0-1.172 0v.586h-.732A2.346 2.346 0 0 0 0 3.516v9.141A2.346 2.346 0 0 0 2.344 15h4.482a.586.586 0 0 0 0-1.172H2.344a1.173 1.173 0 0 1-1.172-1.172v-9.14a1.173 1.173 0 0 1 1.172-1.172h.732v.586a.586.586 0 1 0 1.172 0v-.586h2.637v.586a.586.586 0 1 0 1.172 0v-.586h2.666v.586a.586.586 0 1 0 1.172 0v-.586h.762a1.173 1.173 0 0 1 1.172 1.172v3.34a.586.586 0 0 0 1.172 0v-3.34a2.346 2.346 0 0 0-2.345-2.344z" class="cls-3" data-name="Path 2455"/>
                    <path id="Path_2456" d="M14.092 10.547a3.545 3.545 0 1 0 3.545 3.545 3.549 3.549 0 0 0-3.545-3.545zm0 5.918a2.373 2.373 0 1 1 2.373-2.373 2.376 2.376 0 0 1-2.373 2.373z" class="cls-3" data-name="Path 2456" transform="translate(-2.637 -2.637)"/>
                    <path id="Path_2457" d="M15.928 14.092h-.264v-.615a.586.586 0 1 0-1.172 0v1.2a.586.586 0 0 0 .586.586h.85a.586.586 0 1 0 0-1.172z" class="cls-3" data-name="Path 2457" transform="translate(-3.623 -3.223)"/>
                    <circle id="Ellipse_161" cx=".586" cy=".586" r=".586" class="cls-3" data-name="Ellipse 161" transform="translate(8.174 5.566)"/>
                    <circle id="Ellipse_162" cx=".586" cy=".586" r=".586" class="cls-3" data-name="Ellipse 162" transform="translate(5.625 8.115)"/>
                    <circle id="Ellipse_163" cx=".586" cy=".586" r=".586" class="cls-3" data-name="Ellipse 163" transform="translate(3.076 5.566)"/>
                    <circle id="Ellipse_164" cx=".586" cy=".586" r=".586" class="cls-3" data-name="Ellipse 164" transform="translate(3.076 8.115)"/>
                    <circle id="Ellipse_165" cx=".586" cy=".586" r=".586" class="cls-3" data-name="Ellipse 165" transform="translate(3.076 10.664)"/>
                    <circle id="Ellipse_166" cx=".586" cy=".586" r=".586" class="cls-3" data-name="Ellipse 166" transform="translate(5.625 10.664)"/>
                    <circle id="Ellipse_167" cx=".586" cy=".586" r=".586" class="cls-3" data-name="Ellipse 167" transform="translate(5.625 5.566)"/>
                </g>
            </g>
        </g>
    </g>
</svg>
