<svg xmlns="http://www.w3.org/2000/svg" width="63.423" height="55" viewBox="0 0 63.423 55">
    <defs>
        <style>
            .cls-1{opacity:.64}.cls-2{fill:#6c757d}
        </style>
    </defs>
    <g id="upload_2_" class="cls-1" data-name="upload (2)">
        <path id="Path_3371" d="M53.883 21.92c-.557-9.682-8.4-17.42-17.855-17.42a18.527 18.527 0 0 0-14.742 7.539c-.078-.042-.162-.07-.241-.11-.209-.1-.422-.2-.64-.289a12.427 12.427 0 0 0-.366-.137 7.629 7.629 0 0 0-.65-.2c-.123-.033-.244-.068-.369-.1a7.848 7.848 0 0 0-.722-.133c-.108-.016-.214-.038-.322-.051A9.484 9.484 0 0 0 7.4 20.636c0 .139.007.274.017.41A14.916 14.916 0 0 0 0 33.711a13.716 13.716 0 0 0 13.578 13.818h5.449a1.076 1.076 0 0 0 0-2.151h-5.449A11.58 11.58 0 0 1 2.114 33.711a12.811 12.811 0 0 1 6.8-11.03l.6-.292v-.678c0-.132.008-.268.016-.4l.01-.188-.013-.2c-.005-.094-.013-.187-.013-.282a7.475 7.475 0 0 1 7.4-7.53 7.268 7.268 0 0 1 .969.072c.082.011.164.025.245.039a7.151 7.151 0 0 1 .837.19c.036.011.073.017.108.028a7.175 7.175 0 0 1 .886.346c.073.033.145.07.217.106a7.2 7.2 0 0 1 .747.429 7.558 7.558 0 0 1 3.39 6.319 1.057 1.057 0 1 0 2.114 0 9.729 9.729 0 0 0-3.383-7.391 16.644 16.644 0 0 1 12.985-6.598c8.186 0 14.987 6.6 15.7 14.939a19.782 19.782 0 0 0-4.316.134 1.077 1.077 0 0 0 .157 2.14 1.021 1.021 0 0 0 .161-.013 19.155 19.155 0 0 1 4.951 0 10.979 10.979 0 0 1 8.627 10.739 10.708 10.708 0 0 1-10.6 10.787h-4.2a1.076 1.076 0 0 0 0 2.151h4.2A12.843 12.843 0 0 0 63.423 34.59a13.2 13.2 0 0 0-9.54-12.67z" class="cls-2" data-name="Path 3371" transform="translate(0 -4.5)"/>
        <path id="Path_3372" d="M32.565 30.82a1.078 1.078 0 0 0-.355-.236 1.091 1.091 0 0 0-1.186.236l-8.7 8.7a1.088 1.088 0 1 0 1.539 1.539l6.848-6.848v22.4a1.088 1.088 0 0 0 2.176 0v-22.4l6.848 6.848a1.088 1.088 0 1 0 1.539-1.539z" class="cls-2" data-name="Path 3372" transform="translate(.961 -2.706)"/>
    </g>
</svg>
