<svg xmlns="http://www.w3.org/2000/svg" xmlns:xlink="http://www.w3.org/1999/xlink" width="444.078" height="457.98" viewBox="0 0 444.078 457.98">
    <defs>
        <style>
            .cls-1,.cls-2,.cls-3{fill:#fff}.cls-1{opacity:.5}.cls-2{opacity:.7}.cls-4{fill:#31aee0}.cls-5{fill:#8cdeff}.cls-6{fill:url(#linear-gradient)}.cls-7{fill:url(#linear-gradient-3)}.cls-15,.cls-8,.cls-9{opacity:.2}.cls-10{fill:url(#linear-gradient-5)}.cls-11{fill:url(#linear-gradient-6)}.cls-12{fill:url(#linear-gradient-7)}.cls-13{fill:url(#linear-gradient-8)}.cls-14{fill:#916262}.cls-15,.cls-31{fill:#212226}.cls-16{fill:#221c7d}.cls-17{fill:#a67070}.cls-18{fill:#2d24a3}.cls-19{fill:#ffadad}.cls-20{fill:#b23424}.cls-21{fill:#f25f46}.cls-22{fill:#42444d}.cls-23{fill:#392ecf}.cls-24{fill:url(#linear-gradient-9)}.cls-25{fill:url(#linear-gradient-10)}.cls-26{fill:#ffe7db}.cls-27{fill:url(#linear-gradient-11)}.cls-28{fill:#9a9fb3}.cls-29{fill:url(#linear-gradient-12)}.cls-30{fill:url(#linear-gradient-13)}.cls-32{fill:#9fa9d1}.cls-33,.cls-34{fill:none;stroke:#fff;stroke-miterlimit:10}.cls-34{stroke-width:.5px}.cls-35{opacity:.53}.cls-36{fill:#ed7e7e}
        </style>
        <linearGradient id="linear-gradient" x1=".5" x2=".5" y1=".788" y2="-.044" gradientUnits="objectBoundingBox">
            <stop offset="0" stop-color="#ffe7db"/>
            <stop offset=".239" stop-color="#fde4d8"/>
            <stop offset=".409" stop-color="#f5dbd0"/>
            <stop offset=".557" stop-color="#e8cbc2"/>
            <stop offset=".693" stop-color="#d6b5ae"/>
            <stop offset=".821" stop-color="#be9994"/>
            <stop offset=".941" stop-color="#a27674"/>
            <stop offset="1" stop-color="#916262"/>
        </linearGradient>
        <linearGradient id="linear-gradient-3" x1=".5" x2=".5" y1=".808" y2="-.024" xlink:href="#linear-gradient"/>
        <linearGradient id="linear-gradient-5" x1="214.962" x2="214.962" y1=".788" y2="-.044" xlink:href="#linear-gradient"/>
        <linearGradient id="linear-gradient-6" x1="209.098" x2="209.098" y1=".788" y2="-.044" xlink:href="#linear-gradient"/>
        <linearGradient id="linear-gradient-7" x1="212.551" x2="212.551" y1=".808" y2="-.024" xlink:href="#linear-gradient"/>
        <linearGradient id="linear-gradient-8" x1="206.689" x2="206.689" y1=".808" y2="-.024" xlink:href="#linear-gradient"/>
        <linearGradient id="linear-gradient-9" x1=".236" x2=".236" y1=".973" y2="-.037" xlink:href="#linear-gradient"/>
        <linearGradient id="linear-gradient-10" x1="79.648" x2="79.648" y1=".973" y2="-.037" xlink:href="#linear-gradient"/>
        <linearGradient id="linear-gradient-11" x1=".5" x2=".5" y1="-4.639" y2="6.148" xlink:href="#linear-gradient"/>
        <linearGradient id="linear-gradient-12" x1=".621" x2=".621" y1=".607" y2="1.425" gradientUnits="objectBoundingBox">
            <stop offset="0" stop-color="#fff"/>
            <stop offset="1" stop-color="#ffadad"/>
        </linearGradient>
        <linearGradient id="linear-gradient-13" x1="48.654" x2="48.654" y1=".607" y2="1.425" xlink:href="#linear-gradient-12"/>
    </defs>
    <g id="walk_through_illustration_2_" data-name="walk through illustration_2" transform="translate(-471.042 -428.004)">
        <path id="Path_356" d="M184.7 6.5c57.508 28.179 44.646 96.332 73.272 155.738s22.045 111.325-7.81 144.984-103.8 47.948-172.284 3.282C43.2 287.886-4.637 251.949.362 166.615 5.932 71.551 117.541-26.405 184.7 6.5z" class="cls-1" data-name="Path 356" transform="rotate(173 400.773 430.154)"/>
        <path id="Path_263" d="M196.787 6.867c61.566 29.51 48.065 100.335 78.874 162.213s23.962 115.844-7.824 150.737-110.769 49.483-184.126 2.791C46.565 298.963-4.691 261.42.344 172.7 5.955 73.866 124.889-27.595 196.787 6.867z" class="cls-2" data-name="Path 263" transform="rotate(144.99 344.494 502.587)"/>
        <g id="Group_63" data-name="Group 63" transform="translate(585.637 525.947)">
            <ellipse id="Ellipse_9" cx="116.808" cy="17.32" class="cls-3" data-name="Ellipse 9" rx="116.808" ry="17.32" transform="translate(1.784 226.055)"/>
            <g id="Group_31" data-name="Group 31" transform="translate(146.861 92.004)">
                <g id="Group_28" data-name="Group 28" transform="translate(19.475)">
                    <path id="Path_78" d="M199.776 94.646h-32.257a4.035 4.035 0 0 0-4.81 3.072l-14.06 63.774a4.021 4.021 0 0 0 4.774 4.81h30.554z" class="cls-4" data-name="Path 78" transform="translate(-148.554 -94.55)"/>
                    <path id="Path_79" d="M172.629 166.3a4.035 4.035 0 0 0 4.81-3.072L191.5 99.457a4.035 4.035 0 0 0-3.072-4.81 4.035 4.035 0 0 0-4.81 3.072l-14.058 63.774a4.037 4.037 0 0 0 3.069 4.807z" class="cls-5" data-name="Path 79" transform="translate(-137.199 -94.55)"/>
                </g>
                <g id="Group_30" data-name="Group 30" transform="translate(.713 73.733)">
                    <path id="Path_80" d="M176.9 213.657h-3.247l-7.757-70.4h5.182z" class="cls-6" data-name="Path 80" transform="translate(-120.373 -141.829)"/>
                    <path id="Path_81" d="M144.989 213.657h3.245l7.759-70.4h-5.182z" class="cls-6" data-name="Path 81" transform="translate(-131.729 -141.829)"/>
                    <path id="Path_82" d="M168.307 212.731h-3.247l-7.757-70.4h5.182z" class="cls-7" data-name="Path 82" transform="translate(-125.04 -142.331)"/>
                    <path id="Path_83" d="M136.4 212.731h3.247l7.757-70.4h-5.182z" class="cls-7" data-name="Path 83" transform="translate(-136.396 -142.331)"/>
                    <g id="Group_29" class="cls-8" data-name="Group 29" transform="translate(5.045)">
                        <path id="Path_84" d="M139.665 151.727h4.924l1.035-9.4h-5.182z" data-name="Path 84" transform="translate(-139.665 -142.331)"/>
                        <path id="Path_85" d="M148.335 151.225h4.965l.878-7.969h-5.182z" data-name="Path 85" transform="translate(-134.956 -141.829)"/>
                        <path id="Path_86" d="M162.485 142.331H157.3l1.035 9.4h4.924z" data-name="Path 86" transform="translate(-130.085 -142.331)"/>
                        <path id="Path_87" d="M171.078 143.256H165.9l.878 7.969h4.963z" data-name="Path 87" transform="translate(-125.418 -141.829)"/>
                    </g>
                </g>
                <path id="Path_88" d="M191.413 147.945h-55.479v-6.936h55.479a3.469 3.469 0 0 1 3.469 3.469 3.469 3.469 0 0 1-3.469 3.467z" class="cls-4" data-name="Path 88" transform="translate(-135.934 -69.316)"/>
                <path id="Rectangle_32" d="M0 0h27.772v6.936H0z" class="cls-9" data-name="Rectangle 32" transform="translate(0 71.691)"/>
            </g>
            <g id="Group_35" data-name="Group 35" transform="translate(16.626 92.004)">
                <g id="Group_32" data-name="Group 32">
                    <path id="Path_89" d="M53.594 94.646H85.85a4.035 4.035 0 0 1 4.81 3.072l14.058 63.774a4.021 4.021 0 0 1-4.774 4.81H69.39z" class="cls-4" data-name="Path 89" transform="translate(-50.421 -94.55)"/>
                    <path id="Path_90" d="M70.5 166.3a4.035 4.035 0 0 1-4.81-3.072L51.634 99.457a4.035 4.035 0 0 1 3.072-4.81 4.035 4.035 0 0 1 4.81 3.072l14.058 63.774A4.037 4.037 0 0 1 70.5 166.3z" class="cls-5" data-name="Path 90" transform="translate(-51.538 -94.55)"/>
                </g>
                <g id="Group_34" data-name="Group 34" transform="translate(16.629 73.733)">
                    <path id="Path_91" d="M62.314 213.657h3.247l7.757-70.4h-5.182z" class="cls-10" data-name="Path 91" transform="translate(-62.314 -141.829)"/>
                    <path id="Path_92" d="M94.225 213.657H90.98l-7.759-70.4H88.4z" class="cls-11" data-name="Path 92" transform="translate(-50.958 -141.829)"/>
                    <path id="Path_93" d="M70.907 212.731h3.247l7.757-70.4h-5.182z" class="cls-12" data-name="Path 93" transform="translate(-57.647 -142.331)"/>
                    <path id="Path_94" d="M102.818 212.731h-3.245l-7.759-70.4H97z" class="cls-13" data-name="Path 94" transform="translate(-46.291 -142.331)"/>
                    <g id="Group_33" class="cls-8" data-name="Group 33" transform="translate(5.163)">
                        <path id="Path_95" d="M97.774 151.727h-4.925l-1.035-9.4H97z" data-name="Path 95" transform="translate(-51.455 -142.331)"/>
                        <path id="Path_96" d="M89.062 151.225H84.1l-.878-7.969H88.4z" data-name="Path 96" transform="translate(-56.122 -141.829)"/>
                        <path id="Path_97" d="M74.953 142.331h5.182l-1.035 9.4h-4.923z" data-name="Path 97" transform="translate(-61.034 -142.331)"/>
                        <path id="Path_98" d="M66.319 143.256H71.5l-.878 7.969H65.66z" data-name="Path 98" transform="translate(-65.66 -141.829)"/>
                    </g>
                </g>
                <path id="Path_99" d="M64.676 147.945h55.479v-6.936H64.676a3.469 3.469 0 0 0-3.469 3.469 3.469 3.469 0 0 0 3.469 3.467z" class="cls-4" data-name="Path 99" transform="translate(-46.286 -69.316)"/>
                <path id="Rectangle_33" d="M0 0h27.772v6.936H0z" class="cls-9" data-name="Rectangle 33" transform="translate(46.097 71.691)"/>
            </g>
            <g id="Group_36" data-name="Group 36" transform="translate(20.94 68.731)">
                <path id="Path_100" d="M101.387 195.039c.417-1.2 1.156-2.008 2.006-2.008s1.589.807 2.006 2.008h20.349l-1.015-2.895a8.835 8.835 0 0 0-5.362-5.395l-8.046-2.875a4.108 4.108 0 0 1-2.625-4.774l1.9-8.427H98.908L96.5 184.33l-1.986 10.709h6.875z" class="cls-14" data-name="Path 100" transform="translate(-32.511 -29.929)"/>
                <path id="Path_101" d="M94.513 188.037h6.873c.417-1.2 1.156-2.008 2.006-2.008s1.589.807 2.006 2.008h20.349l-1.015-2.895a8.91 8.91 0 0 0-.744-1.574H95.342z" class="cls-15" data-name="Path 101" transform="translate(-32.511 -22.927)"/>
                <path id="Path_102" d="M94.438 132.611s22.132 4.819 30.164 6.782 14.279 5.355 10.53 18.742-9.995 37.839-9.995 37.839h-14.278l7.5-43.984-41.769-4.921-7.69-17.075z" class="cls-16" data-name="Path 102" transform="translate(-46.425 -52.025)"/>
                <path id="Path_103" d="M108.122 197.867c.417-1.2 1.156-2.008 2.006-2.008s1.589.807 2.006 2.008h20.349l-1.015-2.895a8.835 8.835 0 0 0-5.362-5.395l-7.548-2.7a8.736 8.736 0 0 1-5.3-5.336l-2.816-8.041H98.75l3.034 13.654-.535 10.709h6.873z" class="cls-17" data-name="Path 103" transform="translate(-30.21 -28.394)"/>
                <path id="Path_104" d="M64.32 131.888c.952 6.9-1.071 14.839 9.638 17.95s27.429 3.35 27.429 3.35l15.169 45.455h15.171l-15.166-51.35a11.89 11.89 0 0 0-8.461-8.152l-25.717-7.814z" class="cls-18" data-name="Path 104" transform="translate(-48.91 -51.302)"/>
                <path id="Path_105" d="M85.858 112.895l5.949 14.223 18.674 2.261s9.26-1.844 12.283 3.957H85.858l-6.835-19.069z" class="cls-19" data-name="Path 105" transform="translate(-40.924 -61.313)"/>
                <path id="Path_106" d="M78.152 101.379c4.477 1.8 11.26 19.765 11.26 19.765h-11.26z" class="cls-20" data-name="Path 106" transform="translate(-41.397 -67.568)"/>
                <path id="Path_107" d="M82.46 84.926l3.748 8.747-1.963.625s1.517 4.463.981 5.98-5.086 2.322-5.086 2.322l.981 9.638H70.056a30.186 30.186 0 0 0-3.25-13.313 58.733 58.733 0 0 0-6.745-10.692z" class="cls-19" data-name="Path 107" transform="translate(-51.223 -76.504)"/>
                <path id="Path_108" d="M69.041 91.667c.509-1.432 3.441.285 3.441.285l1.273 2.3 1.938-.625-2.7-7.8-12.933 1.909a58.629 58.629 0 0 1 6.745 10.692 29.659 29.659 0 0 1 1.866 4.637 7.756 7.756 0 0 0 2.728-1.895 5.414 5.414 0 0 0 1.734-3.7c-1.879-.092-5.081-3.023-4.092-5.803z" class="cls-14" data-name="Path 108" transform="translate(-51.224 -76.013)"/>
                <path id="Path_109" d="M77.778 99.484l-18.007 2.043 6.065 47.655h34.32l-12.02-46.774z" class="cls-21" data-name="Path 109" transform="translate(-51.381 -68.597)"/>
                <path id="Path_110" d="M63.658 112.895l-.8 13.782 18.563 3.71 6.077-1.427s7.932 1.457 9.182 4.79H54.913l.535-20.853h8.21z" class="cls-19" data-name="Path 110" transform="translate(-54.02 -61.313)"/>
                <path id="Path_111" d="M82.46 84.926l-22.4 3.3s.444.522 1.176 1.517l22.47-1.91z" class="cls-15" data-name="Path 111" transform="translate(-51.224 -76.504)"/>
                <path id="Path_112" d="M61.934 92.568S92.045 87.622 92.224 87s-9.1-.446-9.1-.446.809-5.961-4.284-6.782c-5.733-.924-13.649.242-18.206 4.079-3.234 2.72-3.699 6.749 1.3 8.717z" class="cls-3" data-name="Path 112" transform="translate(-52.241 -79.468)"/>
                <path id="Path_113" d="M65.4 98.55l9.745 1.441-1.566 4.842-8.956-3.515z" class="cls-20" data-name="Path 113" transform="translate(-48.747 -69.104)"/>
                <path id="Path_114" d="M76.481 98.85l-5.041 1.031.983 5.043L77.4 101.6z" class="cls-20" data-name="Path 114" transform="translate(-45.043 -68.941)"/>
                <path id="Path_115" d="M64.675 100.632c-4.807.539-7.808 3.315-8.855 9.463-1.128 6.634-1.486 11.453-1.486 11.453h10.759s.4-9.222.4-12.97a30.1 30.1 0 0 0-.818-7.946z" class="cls-20" data-name="Path 115" transform="translate(-54.334 -67.973)"/>
                <path id="Path_116" d="M78.569 86.533s.809-5.961-4.284-6.782c-.731-.117-1.5-.2-2.293-.248a9.6 9.6 0 0 0-5.361 9.765z" class="cls-15" data-name="Path 116" transform="translate(-47.691 -79.45)"/>
                <path id="Path_117" d="M100.369 190.826h6.873c.417-1.2 1.156-2.008 2.006-2.008s1.589.807 2.006 2.008H131.6l-1.015-2.895a8.832 8.832 0 0 0-.685-1.468h-29.313z" class="cls-15" data-name="Path 117" transform="translate(-29.33 -21.354)"/>
            </g>
            <g id="Group_37" data-name="Group 37" transform="translate(112.15 56.035)">
                <path id="Path_118" d="M138.9 172.24l-3.673 12.438-12.521 12.022-9.265 4.174s5.426 4.924 15.359 1.836 13.856-3.673 14.691-5.509.668-9.85.668-9.85l4.006-14.191z" class="cls-19" data-name="Path 118" transform="translate(-113.439 -16.384)"/>
                <path id="Path_119" d="M128.8 197.058c9.933-3.088 13.856-3.673 14.691-5.509.452-1 .61-3.805.659-6.173l-5.9 1.967c-.849-3.011-4.395-4.219-6.787-4.7l-8.754 8.4-9.265 4.174s5.423 4.928 15.356 1.841z" class="cls-18" data-name="Path 119" transform="translate(-113.44 -10.734)"/>
                <path id="Path_120" d="M187.5 129.916l-3.457 13.015a11.164 11.164 0 0 1-10.791 8.3H156.8l-15 47.452h-14.1l11.924-59.083L170 128.359z" class="cls-21" data-name="Path 120" transform="translate(-105.693 -40.218)"/>
                <path id="Path_121" d="M152.105 132.071l-2.79.69-13.038 4.825-2.41 11.949 17.3 6.9 2.282-7.223H169.9a11.138 11.138 0 0 0 10.584-7.723z" class="cls-15" data-name="Path 121" transform="translate(-102.345 -38.202)"/>
                <path id="Path_122" d="M154.639 137.437h10.887s7.018-4.015 9.489-2.41 2.2 8.032 2.2 8.032 1.7 5.265.8 8.3a99.673 99.673 0 0 1-3.838 9.37l-5.04-9.8a11.7 11.7 0 0 0-9.81-6.335l-7.282-.37z" class="cls-19" data-name="Path 122" transform="translate(-92.469 -36.802)"/>
                <path id="Path_123" d="M169.431 135.027c-1.355-.881-4.072-.071-6.256.841a18.792 18.792 0 0 1 1.764 9.243 3.934 3.934 0 0 0-2.592 3.929l-.015.02a11.659 11.659 0 0 1 1.227 1.866l5.04 9.8a100.1 100.1 0 0 0 3.838-9.37c.892-3.034-.8-8.3-.8-8.3s.263-6.423-2.206-8.029z" class="cls-18" data-name="Path 123" transform="translate(-86.885 -36.803)"/>
                <path id="Path_124" d="M172.074 139.6l-1.785 11.268h-38.315c-9.995 0-11.939-8.774-8.449-11.268 5-3.569 35.046-10.588 35.046-10.588l13.5 1.782-19.158 7.972z" class="cls-21" data-name="Path 124" transform="translate(-108.833 -39.861)"/>
                <path id="Path_125" d="M169.711 103.375l-19.99 10.351-14.756-17.61v-.974a4.574 4.574 0 0 0-1.114-2.992l-4.6-5.316v1.535a3.609 3.609 0 0 0 .2 1.179l.992 2.878-5.473-2.026-3.927-3.569-1.768 3.978a2.683 2.683 0 0 0 .245 2.616l3.145 4.551a5.769 5.769 0 0 0 4.384 2.477l3.395.211 15.587 26.743 30.105-12.851z" class="cls-16" data-name="Path 125" transform="translate(-110.397 -62.772)"/>
                <path id="Path_126" d="M134.965 96.117v-.974a4.574 4.574 0 0 0-1.114-2.992l-4.6-5.316v1.535a3.608 3.608 0 0 0 .2 1.179l.992 2.878-5.473-2.027-3.927-3.569-1.768 3.978a2.683 2.683 0 0 0 .245 2.616l3.145 4.551a5.769 5.769 0 0 0 4.384 2.477l3.395.211 7.274 12.479a16.3 16.3 0 0 0 6.611-5.855z" class="cls-19" data-name="Path 126" transform="translate(-110.397 -62.772)"/>
                <path id="Path_127" d="M154.717 88.7s-7.882-4.392-3.748-12.047c3-5.565 8.941-3.333 8.941-3.333s4.345-3.659 10.976-1.267c5.112 1.844 9.25 8.024 7.407 12.779-2.04 5.265.866 13.143-2.653 14.56-4.582 1.844-6.311-.281-11.27-2.511s-9.653-8.181-9.653-8.181z" class="cls-22" data-name="Path 127" transform="translate(-93.708 -71.241)"/>
                <path id="Path_128" d="M155.7 77.425s-3.523 7.5-4.594 9.405h2.856s-.089 4.565.715 6.426c1.5 3.48 6.038.475 6.99 1.9s1.815 6.069 1.815 6.069H173l-1.963-10.62s3.48-2.5 2.856-5.176-3.659-.625-3.659-.625-1.427 6.069-1.785 6.069-.8-5.086-.8-5.086-2.946-.625-4.1-6.693c-.008.001-3.624 1.806-7.849-1.669z" class="cls-19" data-name="Path 128" transform="translate(-92.982 -67.883)"/>
                <path id="Path_129" d="M164.461 90.768h11.78s-.06 2.736 3.867 4.521 5.474 2.617 6.188 9.638-7.972 48.191-7.972 48.191h-29.792a2.846 2.846 0 0 1-2.648-3.884c3.315-8.515 10.557-29.544 9.358-48l9.162-7.259z" class="cls-18" data-name="Path 129" transform="translate(-95.926 -60.635)"/>
                <path id="Path_130" d="M179.965 95.02c4.42 3.673 7.751 14.143 10.964 21.164s8.568 18.325 4.878 28.676h-43.313l5.474-6.426 7.9.833 21.013-4.521s-6.716-15.725-10.114-22.846c-4.996-10.471 3.198-16.88 3.198-16.88z" class="cls-23" data-name="Path 130" transform="translate(-92.228 -58.326)"/>
                <path id="Path_131" d="M182.828 121.445l-16.121 3.469-3.861-.407a9.735 9.735 0 0 0-7.186 2.148l-4.7 3.85h33.736c1.115-4.949-.377-7.646-1.868-9.06z" class="cls-19" data-name="Path 131" transform="translate(-93.063 -43.973)"/>
                <path id="Path_132" d="M144.265 135.867l-8.686-.6s5.474-1.899 8.686.6z" class="cls-15" data-name="Path 132" transform="translate(-101.415 -36.84)"/>
            </g>
            <g id="Group_41" data-name="Group 41" transform="translate(10.132 140.753)">
                <g id="Group_40" data-name="Group 40" transform="translate(8.642 3.748)">
                    <g id="Group_38" data-name="Group 38">
                        <path id="Path_133" d="M57.214 226.787H52.93l3.392-98.217h8.568z" class="cls-24" data-name="Path 133" transform="translate(-52.93 -128.57)"/>
                        <path id="Path_134" d="M54.855 140.755h8.037l.952-12.185h-8.568z" class="cls-9" data-name="Path 134" transform="translate(-51.884 -128.57)"/>
                    </g>
                    <g id="Group_39" data-name="Group 39" transform="translate(187.679)">
                        <path id="Path_135" d="M182.227 226.787h4.284l-3.392-98.217h-8.568z" class="cls-25" data-name="Path 135" transform="translate(-174.551 -128.57)"/>
                        <path id="Path_136" d="M183.54 140.755h-8.04l-.952-12.185h8.568z" class="cls-9" data-name="Path 136" transform="translate(-174.551 -128.57)"/>
                    </g>
                </g>
                <path id="Rectangle_34" d="M0 0h216.922v8.081H0z" class="cls-26" data-name="Rectangle 34"/>
                <path id="Rectangle_35" d="M0 0h216.922v2.142H0z" class="cls-27" data-name="Rectangle 35" transform="translate(0 8.08)"/>
            </g>
            <g id="Group_43" data-name="Group 43" transform="translate(116.067 112.761)">
                <path id="Rectangle_36" d="M0 0h61.914v1.696H0z" class="cls-28" data-name="Rectangle 36" transform="translate(5.056 26.297)"/>
                <g id="Group_42" data-name="Group 42">
                    <path id="Path_137" d="M161.888 135.994h-41.85l-4.029-25.618A1.97 1.97 0 0 1 117.99 108h37.14a2.873 2.873 0 0 1 2.728 2.375z" class="cls-29" data-name="Path 137" transform="translate(-115.979 -108.001)"/>
                    <path id="Path_138" d="M141.751 108h-1.139a2.873 2.873 0 0 1 2.728 2.375l4.029 25.618h1.139l-4.029-25.618a2.873 2.873 0 0 0-2.728-2.375z" class="cls-15" data-name="Path 138" transform="translate(-102.599 -108.001)"/>
                    <path id="Path_139" d="M136.924 118.689a3.813 3.813 0 0 1-3.833 4.6 5.562 5.562 0 0 1-5.279-4.6 3.813 3.813 0 0 1 3.833-4.6 5.562 5.562 0 0 1 5.279 4.6z" class="cls-15" data-name="Path 139" transform="translate(-109.583 -104.692)"/>
                </g>
            </g>
            <g id="Group_45" data-name="Group 45" transform="translate(40.866 112.761)">
                <path id="Rectangle_37" d="M0 0h61.914v1.696H0z" class="cls-28" data-name="Rectangle 37" transform="translate(0 26.297)"/>
                <g id="Group_44" data-name="Group 44" transform="translate(21.059)">
                    <path id="Path_140" d="M80.893 135.994h41.85l4.029-25.618a1.971 1.971 0 0 0-1.981-2.376H87.652a2.873 2.873 0 0 0-2.728 2.375z" class="cls-30" data-name="Path 140" transform="translate(-80.893 -108.001)"/>
                    <path id="Path_141" d="M87.651 108h1.139a2.874 2.874 0 0 0-2.728 2.375l-4.029 25.618h-1.139l4.029-25.618A2.873 2.873 0 0 1 87.651 108z" class="cls-15" data-name="Path 141" transform="translate(-80.892 -108.001)"/>
                    <path id="Path_142" d="M92.947 118.689a3.813 3.813 0 0 0 3.833 4.6 5.561 5.561 0 0 0 5.279-4.6 3.813 3.813 0 0 0-3.833-4.6 5.562 5.562 0 0 0-5.279 4.6z" class="cls-15" data-name="Path 142" transform="translate(-74.377 -104.692)"/>
                </g>
            </g>
            <g id="Group_51" data-name="Group 51" transform="translate(75.071 47.931)">
                <g id="Group_47" class="cls-8" data-name="Group 47" transform="translate(1.222 8.511)">
                    <g id="Group_46" data-name="Group 46">
                        <path id="Rectangle_38" d="M0 0h76.992v20.075H0z" class="cls-31" data-name="Rectangle 38"/>
                    </g>
                </g>
                <g id="Group_50" data-name="Group 50">
                    <g id="Group_48" data-name="Group 48" transform="translate(0 7.144)">
                        <path id="Rectangle_39" d="M0 0h76.992v20.075H0z" class="cls-3" data-name="Rectangle 39"/>
                    </g>
                    <path id="Rectangle_40" d="M0 0h19.789v20.075H0z" class="cls-18" data-name="Rectangle 40" transform="translate(0 7.144)"/>
                    <path id="Path_143" d="M142.078 73.129a7.133 7.133 0 0 0-13.972-2.042 6.935 6.935 0 0 0 .656 5.56l-.056.022 5.52 10.461a.805.805 0 0 0 1.424 0l5.52-10.461-.056-.022a7.04 7.04 0 0 0 .964-3.518zm-7.139 2.753a2.752 2.752 0 1 1 2.753-2.753 2.752 2.752 0 0 1-2.753 2.753z" class="cls-21" data-name="Path 143" transform="translate(-68.562 -65.99)"/>
                    <g id="Group_49" data-name="Group 49" transform="translate(22.646 12.306)">
                        <path id="Rectangle_41" d="M0 0h32.841v1.071H0z" class="cls-32" data-name="Rectangle 41"/>
                        <path id="Rectangle_42" d="M0 0h32.841v1.071H0z" class="cls-32" data-name="Rectangle 42" transform="translate(0 4.341)"/>
                        <path id="Rectangle_43" d="M0 0h32.841v1.071H0z" class="cls-32" data-name="Rectangle 43" transform="translate(0 8.68)"/>
                    </g>
                    <path id="Path_144" d="M93.444 77.962l2.642 2.708 5.224-5.761" class="cls-33" data-name="Path 144" transform="translate(-87.222 -61.145)"/>
                </g>
            </g>
            <g id="Group_52" data-name="Group 52" transform="translate(0 18.353)">
                <circle id="Ellipse_10" cx="20.942" cy="20.942" r="20.942" class="cls-3" data-name="Ellipse 10"/>
                <path id="Path_145" d="M56.805 72.956l8.5 9.206-1.157-13.33z" class="cls-3" data-name="Path 145" transform="translate(-32.051 -34.867)"/>
            </g>
            <g id="Group_53" data-name="Group 53" transform="translate(166.655 1.025)">
                <circle id="Ellipse_11" cx="20.942" cy="20.942" r="20.942" class="cls-3" data-name="Ellipse 11"/>
                <path id="Path_146" d="M167.18 60.755l-4.4 11.734-3.958-12.78z" class="cls-3" data-name="Path 146" transform="translate(-143.295 -22.495)"/>
            </g>
            <path id="Path_147" d="M70.846 66.946a11.811 11.811 0 0 0 0-4.4h-3.025a9.318 9.318 0 0 0-1.123-2.7l2.145-2.146a12.429 12.429 0 0 0-3.113-3.11l-2.145 2.145a9.336 9.336 0 0 0-2.7-1.123v-3.025a11.812 11.812 0 0 0-4.4 0v3.025a9.336 9.336 0 0 0-2.7 1.123l-2.141-2.145a12.429 12.429 0 0 0-3.112 3.11l2.145 2.145a9.336 9.336 0 0 0-1.123 2.7h-3.025a11.812 11.812 0 0 0 0 4.4h3.025a9.336 9.336 0 0 0 1.123 2.7l-2.145 2.145a12.43 12.43 0 0 0 3.112 3.11l2.145-2.145a9.335 9.335 0 0 0 2.7 1.123V76.9a11.811 11.811 0 0 0 4.4 0v-3.021a9.336 9.336 0 0 0 2.7-1.123L65.73 74.9a12.429 12.429 0 0 0 3.113-3.113L66.7 69.643a9.336 9.336 0 0 0 1.123-2.7zm-12.158.7a2.9 2.9 0 1 1 2.9-2.9 2.9 2.9 0 0 1-2.901 2.896z" class="cls-15" data-name="Path 147" transform="translate(-37.745 -25.451)"/>
            <g id="Group_54" data-name="Group 54" transform="translate(178.023 7.215)">
                <ellipse id="Ellipse_12" cx="3.305" cy="1.414" class="cls-28" data-name="Ellipse 12" rx="3.305" ry="1.414" transform="translate(6.269 26.677)"/>
                <path id="Path_148" d="M175.279 49.18a9.576 9.576 0 1 0-16.83 6.24 9.578 9.578 0 0 1 2.467 6.233v.2h9.577v-.207a9.437 9.437 0 0 1 2.432-6.188 9.537 9.537 0 0 0 2.354-6.278z" class="cls-21" data-name="Path 148" transform="translate(-156.127 -39.605)"/>
                <path id="Rectangle_44" d="M0 0h4.378v13.293H0z" class="cls-34" data-name="Rectangle 44" transform="translate(7.386 9.986)"/>
                <path id="Rectangle_45" d="M0 0h9.53v5.838H0z" class="cls-32" data-name="Rectangle 45" transform="translate(4.809 22.253)"/>
                <path id="Rectangle_46" d="M0 0h9.53v.502H0z" class="cls-26" data-name="Rectangle 46" transform="translate(4.809 23.279)"/>
                <path id="Rectangle_47" d="M0 0h9.53v.502H0z" class="cls-26" data-name="Rectangle 47" transform="translate(4.809 24.921)"/>
                <path id="Rectangle_48" d="M0 0h9.53v.502H0z" class="cls-26" data-name="Rectangle 48" transform="translate(4.809 26.563)"/>
            </g>
            <g id="Group_62" data-name="Group 62" transform="translate(57.873)">
                <g id="Group_55" class="cls-8" data-name="Group 55" transform="translate(1.5 1.427)">
                    <path id="Path_149" d="M127.584 76.933H82.208a2.97 2.97 0 0 1-2.969-2.971V38.238a2.384 2.384 0 0 1 2.384-2.384h46.547a2.385 2.385 0 0 1 2.384 2.384v35.726a2.97 2.97 0 0 1-2.97 2.969z" class="cls-31" data-name="Path 149" transform="translate(-79.239 -35.854)"/>
                </g>
                <g id="Group_61" data-name="Group 61">
                    <path id="Path_150" d="M126.614 76.008H81.236a2.969 2.969 0 0 1-2.969-2.969V37.313a2.385 2.385 0 0 1 2.384-2.384H127.2a2.384 2.384 0 0 1 2.384 2.384v35.726a2.969 2.969 0 0 1-2.97 2.969z" class="cls-3" data-name="Path 150" transform="translate(-78.267 -34.929)"/>
                    <path id="Path_151" d="M129.583 45.73H78.267v-7.492a2.384 2.384 0 0 1 2.384-2.384H127.2a2.384 2.384 0 0 1 2.384 2.384z" class="cls-15" data-name="Path 151" transform="translate(-78.267 -34.427)"/>
                    <path id="Path_152" d="M129.583 44.805H78.267v-7.492a2.385 2.385 0 0 1 2.384-2.384H127.2a2.384 2.384 0 0 1 2.384 2.384z" class="cls-21" data-name="Path 152" transform="translate(-78.267 -34.929)"/>
                    <g id="Group_56" data-name="Group 56" transform="translate(3.645 14.248)">
                        <path id="Rectangle_49" d="M0 0h3.844v.535H0z" class="cls-15" data-name="Rectangle 49"/>
                        <path id="Rectangle_50" d="M0 0h3.844v.535H0z" class="cls-15" data-name="Rectangle 50" transform="translate(6.697)"/>
                        <path id="Rectangle_51" d="M0 0h3.844v.535H0z" class="cls-15" data-name="Rectangle 51" transform="translate(13.395)"/>
                        <path id="Rectangle_52" d="M0 0h3.844v.535H0z" class="cls-15" data-name="Rectangle 52" transform="translate(20.092)"/>
                        <path id="Rectangle_53" d="M0 0h3.844v.535H0z" class="cls-15" data-name="Rectangle 53" transform="translate(26.789)"/>
                        <path id="Rectangle_54" d="M0 0h3.844v.535H0z" class="cls-15" data-name="Rectangle 54" transform="translate(33.486)"/>
                        <path id="Rectangle_55" d="M0 0h3.844v.535H0z" class="cls-15" data-name="Rectangle 55" transform="translate(40.184)"/>
                    </g>
                    <g id="Group_57" data-name="Group 57" transform="translate(3.645 17.49)">
                        <path id="Rectangle_56" d="M0 0h3.844v1.873H0z" class="cls-35" data-name="Rectangle 56"/>
                        <path id="Rectangle_57" d="M0 0h3.844v1.873H0z" class="cls-35" data-name="Rectangle 57" transform="translate(6.697)"/>
                        <path id="Rectangle_58" d="M0 0h3.844v1.873H0z" class="cls-35" data-name="Rectangle 58" transform="translate(13.395)"/>
                        <path id="Rectangle_59" d="M0 0h3.844v1.873H0z" class="cls-15" data-name="Rectangle 59" transform="translate(20.092)"/>
                        <path id="Rectangle_60" d="M0 0h3.844v1.873H0z" class="cls-15" data-name="Rectangle 60" transform="translate(26.789)"/>
                        <path id="Rectangle_61" d="M0 0h3.844v1.873H0z" class="cls-15" data-name="Rectangle 61" transform="translate(33.486)"/>
                        <path id="Rectangle_62" d="M0 0h3.844v1.873H0z" class="cls-15" data-name="Rectangle 62" transform="translate(40.184)"/>
                    </g>
                    <g id="Group_58" data-name="Group 58" transform="translate(3.645 21.714)">
                        <path id="Rectangle_63" d="M0 0h3.844v1.873H0z" class="cls-36" data-name="Rectangle 63"/>
                        <path id="Rectangle_64" d="M0 0h3.844v1.873H0z" class="cls-15" data-name="Rectangle 64" transform="translate(6.697)"/>
                        <path id="Rectangle_65" d="M0 0h3.844v1.873H0z" class="cls-15" data-name="Rectangle 65" transform="translate(13.395)"/>
                        <path id="Rectangle_66" d="M0 0h3.844v1.873H0z" class="cls-15" data-name="Rectangle 66" transform="translate(20.092)"/>
                        <path id="Rectangle_67" d="M0 0h3.844v1.873H0z" class="cls-15" data-name="Rectangle 67" transform="translate(26.789)"/>
                        <path id="Rectangle_68" d="M0 0h3.844v1.873H0z" class="cls-15" data-name="Rectangle 68" transform="translate(33.486)"/>
                        <path id="Rectangle_69" d="M0 0h3.844v1.873H0z" class="cls-15" data-name="Rectangle 69" transform="translate(40.184)"/>
                    </g>
                    <g id="Group_59" data-name="Group 59" transform="translate(3.645 25.936)">
                        <path id="Rectangle_70" d="M0 0h3.844v1.873H0z" class="cls-36" data-name="Rectangle 70"/>
                        <path id="Rectangle_71" d="M0 0h3.844v1.873H0z" class="cls-15" data-name="Rectangle 71" transform="translate(6.697)"/>
                        <path id="Rectangle_72" d="M0 0h3.844v1.873H0z" class="cls-15" data-name="Rectangle 72" transform="translate(13.395)"/>
                        <path id="Rectangle_73" d="M0 0h3.844v1.873H0z" class="cls-15" data-name="Rectangle 73" transform="translate(20.092)"/>
                        <path id="Rectangle_74" d="M0 0h3.844v1.873H0z" class="cls-15" data-name="Rectangle 74" transform="translate(26.789)"/>
                        <path id="Rectangle_75" d="M0 0h3.844v1.873H0z" class="cls-15" data-name="Rectangle 75" transform="translate(33.486)"/>
                        <path id="Rectangle_76" d="M0 0h3.844v1.873H0z" class="cls-15" data-name="Rectangle 76" transform="translate(40.184)"/>
                    </g>
                    <g id="Group_60" data-name="Group 60" transform="translate(3.645 30.159)">
                        <path id="Rectangle_77" d="M0 0h3.844v1.873H0z" class="cls-36" data-name="Rectangle 77"/>
                        <path id="Rectangle_78" d="M0 0h3.844v1.873H0z" class="cls-15" data-name="Rectangle 78" transform="translate(6.697)"/>
                        <path id="Rectangle_79" d="M0 0h3.844v1.873H0z" class="cls-15" data-name="Rectangle 79" transform="translate(13.395)"/>
                        <path id="Rectangle_80" d="M0 0h3.844v1.873H0z" class="cls-15" data-name="Rectangle 80" transform="translate(20.092)"/>
                        <path id="Rectangle_81" d="M0 0h3.844v1.873H0z" class="cls-15" data-name="Rectangle 81" transform="translate(26.789)"/>
                        <path id="Rectangle_82" d="M0 0h3.844v1.873H0z" class="cls-35" data-name="Rectangle 82" transform="translate(33.486)"/>
                        <path id="Rectangle_83" d="M0 0h3.844v1.873H0z" class="cls-35" data-name="Rectangle 83" transform="translate(40.184)"/>
                    </g>
                    <path id="Rectangle_84" d="M0 0h24.69v4.582H0z" class="cls-15" data-name="Rectangle 84" transform="translate(13.313 2.974)"/>
                </g>
            </g>
        </g>
    </g>
</svg>
